<svg width="223" height="130" viewBox="0 0 223 130" fill="none" xmlns="http://www.w3.org/2000/svg">
<path d="M119.2 112.88C120.76 116.72 122.44 119.6 124.24 121.52C126.16 123.32 128.02 124.28 129.82 124.4V128C121.18 127.64 110.26 127.46 97.06 127.46C83.38 127.46 73.3 127.64 66.82 128V124.4C71.38 124.16 74.62 123.62 76.54 122.78C78.46 121.82 79.42 120.2 79.42 117.92C79.42 115.76 78.7 112.88 77.26 109.28L66.64 79.76H30.28L27.22 87.86C23.26 98.06 21.28 105.86 21.28 111.26C21.28 116.18 22.66 119.54 25.42 121.34C28.18 123.14 32.26 124.16 37.66 124.4V128C28.66 127.64 20.8 127.46 14.08 127.46C8.44 127.46 3.82 127.64 0.22 128V124.4C3.22 123.92 6.04 122.06 8.68 118.82C11.32 115.58 14.02 110.42 16.78 103.34L56.74 0.559999C60.58 0.799996 63.76 0.919995 66.28 0.919995C68.68 0.919995 71.8 0.799996 75.64 0.559999L119.2 112.88ZM65.38 76.16L49 31.16L31.72 76.16H65.38ZM155.809 129.26C148.129 129.26 142.309 127.22 138.349 123.14C134.509 118.94 132.589 113.72 132.589 107.48C132.589 102.08 133.969 97.64 136.729 94.16C139.609 90.56 142.969 87.8 146.809 85.88C150.649 83.96 155.629 81.98 161.749 79.94C168.229 77.78 172.969 75.8 175.969 74C178.969 72.2 180.469 69.68 180.469 66.44V50.42C180.469 46.58 179.509 43.16 177.589 40.16C175.669 37.16 172.369 35.66 167.689 35.66C163.969 35.66 160.609 36.68 157.609 38.72C161.689 40.16 164.689 42.32 166.609 45.2C168.649 47.96 169.669 51.08 169.669 54.56C169.669 59.24 167.989 63.02 164.629 65.9C161.389 68.66 157.429 70.04 152.749 70.04C148.069 70.04 144.349 68.6 141.589 65.72C138.949 62.72 137.629 58.94 137.629 54.38C137.629 50.78 138.529 47.66 140.329 45.02C142.129 42.38 144.949 39.98 148.789 37.82C155.509 33.98 165.109 32.06 177.589 32.06C184.189 32.06 189.889 32.72 194.689 34.04C199.489 35.24 203.569 37.58 206.929 41.06C209.329 43.58 210.889 46.76 211.609 50.6C212.449 54.32 212.869 59.54 212.869 66.26V114.5C212.869 117.5 213.049 119.54 213.409 120.62C213.889 121.7 214.669 122.24 215.749 122.24C216.589 122.24 217.489 122 218.449 121.52C219.409 120.92 220.309 120.26 221.149 119.54L222.949 122.6C217.789 127.04 210.409 129.26 200.809 129.26C193.609 129.26 188.569 128.06 185.689 125.66C182.809 123.14 181.249 119.78 181.009 115.58C175.369 124.7 166.969 129.26 155.809 129.26ZM173.809 114.86C176.329 114.86 178.549 113.84 180.469 111.8V73.82C179.389 75.62 177.409 77.96 174.529 80.84C171.289 83.96 168.829 87.02 167.149 90.02C165.469 92.9 164.629 96.86 164.629 101.9C164.629 110.54 167.689 114.86 173.809 114.86Z" fill="black"/>
</svg>
