<?xml version="1.0" encoding="utf-8"?>
<!-- Svg Vector Icons : http://www.onlinewebfonts.com/icon -->
<!DOCTYPE svg PUBLIC "-//W3C//DTD SVG 1.1//EN" "http://www.w3.org/Graphics/SVG/1.1/DTD/svg11.dtd">
<svg version="1.1" xmlns="http://www.w3.org/2000/svg" xmlns:xlink="http://www.w3.org/1999/xlink" x="0px" y="0px" viewBox="0 0 1000 1000" enable-background="new 0 0 1000 1000" xml:space="preserve">
<metadata> Svg Vector Icons : http://www.onlinewebfonts.com/icon </metadata>
<g><path d="M465.7,73H10v350.6c0,129,26.9,230.9,80.7,305.6c53.8,74.6,146,140.6,276.6,197.8l98.5-186.3c-80.3-37.7-135.8-75.2-166.6-112.5c-30.7-37.3-47.8-81.5-51.3-132.4h217.9L465.7,73L465.7,73z M990,73H534.3l0,350.6c0,129,26.9,230.9,80.7,305.6c53.8,74.6,146,140.6,276.6,197.8L990,740.7c-80.3-37.7-135.8-75.2-166.6-112.5c-30.7-37.3-47.8-81.5-51.3-132.4H990L990,73L990,73z"/></g>
</svg>