<svg width="58" height="81" viewBox="0 0 58 81" fill="none" xmlns="http://www.w3.org/2000/svg">
<path d="M57 13.7513V66C57 67.6569 55.6569 69 54 69H4C2.34314 69 1 67.6569 1 66V4C1 2.34315 2.34315 1 4 1H43.4361C44.1902 1 44.9167 1.28405 45.4709 1.79559L56.0348 11.5469C56.6501 12.1148 57 12.914 57 13.7513Z" stroke="black" stroke-width="2"/>
<path d="M45 10.694V2.5L55.5 11.5L47.2828 12.6739C46.078 12.846 45 11.9111 45 10.694Z" stroke="black" stroke-width="2"/>
<rect x="26" y="21" width="24" height="2" fill="black"/>
<rect x="7" y="8" width="28" height="6" stroke="black" stroke-width="2"/>
<rect x="26" y="27" width="24" height="2" fill="black"/>
<rect x="8" y="33" width="42" height="2" fill="black"/>
<rect x="8" y="39" width="42" height="2" fill="black"/>
<rect x="8" y="45" width="18" height="2" fill="black"/>
<rect x="8" y="59" width="18" height="2" fill="black"/>
<path d="M15.3239 30.4399V19.1599H16.5239V30.4399H15.3239ZM15.7559 29.1439C15.0839 29.1439 14.4399 29.0559 13.8239 28.8799C13.2079 28.6959 12.7119 28.4599 12.3359 28.1719L12.9959 26.7079C13.3559 26.9639 13.7799 27.1759 14.2679 27.3439C14.7639 27.5039 15.2639 27.5839 15.7679 27.5839C16.1519 27.5839 16.4599 27.5479 16.6919 27.4759C16.9319 27.3959 17.1079 27.2879 17.2199 27.1519C17.3319 27.0159 17.3879 26.8599 17.3879 26.6839C17.3879 26.4599 17.2999 26.2839 17.1239 26.1559C16.9479 26.0199 16.7159 25.9119 16.4279 25.8319C16.1399 25.7439 15.8199 25.6639 15.4679 25.5919C15.1239 25.5119 14.7759 25.4159 14.4239 25.3039C14.0799 25.1919 13.7639 25.0479 13.4759 24.8719C13.1879 24.6959 12.9519 24.4639 12.7679 24.1759C12.5919 23.8879 12.5039 23.5199 12.5039 23.0719C12.5039 22.5919 12.6319 22.1559 12.8879 21.7639C13.1519 21.3639 13.5439 21.0479 14.0639 20.8159C14.5919 20.5759 15.2519 20.4559 16.0439 20.4559C16.5719 20.4559 17.0919 20.5199 17.6039 20.6479C18.1159 20.7679 18.5679 20.9519 18.9599 21.1999L18.3599 22.6759C17.9679 22.4519 17.5759 22.2879 17.1839 22.1839C16.7919 22.0719 16.4079 22.0159 16.0319 22.0159C15.6559 22.0159 15.3479 22.0599 15.1079 22.1479C14.8679 22.2359 14.6959 22.3519 14.5919 22.4959C14.4879 22.6319 14.4359 22.7919 14.4359 22.9759C14.4359 23.1919 14.5239 23.3679 14.6999 23.5039C14.8759 23.6319 15.1079 23.7359 15.3959 23.8159C15.6839 23.8959 15.9999 23.9759 16.3439 24.0559C16.6959 24.1359 17.0439 24.2279 17.3879 24.3319C17.7399 24.4359 18.0599 24.5759 18.3479 24.7519C18.6359 24.9279 18.8679 25.1599 19.0439 25.4479C19.2279 25.7359 19.3199 26.0999 19.3199 26.5399C19.3199 27.0119 19.1879 27.4439 18.9239 27.8359C18.6599 28.2279 18.2639 28.5439 17.7359 28.7839C17.2159 29.0239 16.5559 29.1439 15.7559 29.1439Z" fill="black"/>
<path d="M46.7248 70.0569L43 63.865L47.7625 61.0001L51.4872 67.192L47.575 66.3054L46.7248 70.0569Z" fill="#0A8D46" stroke="#0A8D46"/>
<path d="M37 79V63.5H44V79L40 75L37 79Z" fill="#03A84E" stroke="#03A84E"/>
<circle cx="40" cy="55" r="9" stroke="black" stroke-width="2"/>
<path d="M36.5 54.5L39 57L44 52" stroke="#0A8D46" stroke-width="2"/>
</svg>
