<svg width="167" height="50" viewBox="0 0 167 50" fill="none" xmlns="http://www.w3.org/2000/svg">
<path fill-rule="evenodd" clip-rule="evenodd" d="M7.39711 0C3.58794 0 0.5 3.08794 0.5 6.89711V42.3383C0.5 46.1475 3.58795 49.2354 7.39711 49.2354H57.1771C60.9863 49.2354 64.0742 46.1475 64.0742 42.3383V6.89711C64.0742 3.08794 60.9862 0 57.1771 0H7.39711ZM42.2166 8.13834H14.9417C14.7342 8.13834 14.5887 8.2878 14.5103 8.44455C14.4411 8.58302 14.4396 8.84798 14.4402 8.90789V8.9134C14.4403 8.91978 14.4404 8.92611 14.4404 8.93254V11.1372C14.4404 11.445 14.4786 11.7174 14.5663 11.8227C14.5716 11.829 14.577 11.8357 14.5828 11.8427C14.672 11.9516 14.8186 12.1304 15.1538 12.1304H22.5035C22.6379 12.1304 22.6648 12.175 22.6992 12.2322C22.7019 12.2366 22.7045 12.241 22.7073 12.2455C22.7403 12.2992 22.7394 12.368 22.7384 12.4468C22.7382 12.461 22.738 12.4755 22.738 12.4903V32.8919C22.738 34.1841 21.5499 36.4257 19.4177 37.1911C17.5452 37.8633 15.371 37.2867 14.2083 36.6778C13.9352 36.5347 13.7863 36.2418 13.7863 35.9336V31.4329C13.7863 31.0691 13.737 30.7969 13.562 30.4858C13.3964 30.1913 12.8827 29.9839 12.5146 29.9626C12.474 29.9602 12.4335 29.9634 12.3932 29.9688C12.1883 29.9961 11.5224 30.0866 11.3258 30.1358C11.1351 30.1835 10.3339 30.387 10.0476 30.4598C9.97938 30.4771 9.91371 30.5015 9.8519 30.5351C9.40976 30.7754 8.62477 31.2903 8.401 31.7785C8.23089 32.1496 8.17835 32.4151 8.17183 32.5709C8.16969 32.6221 8.17322 32.6734 8.17676 32.7247C8.17954 32.7651 8.18233 32.8056 8.18233 32.846V37.5515C8.18233 37.6389 8.19374 37.7258 8.22133 37.8088C8.32283 38.1138 8.54467 38.6425 8.86574 38.8313C8.96293 38.8885 9.09765 39.0057 9.27656 39.1614C9.95313 39.7502 11.2616 40.8889 13.562 41.4086C16.4707 42.0657 25.3712 42.902 28.119 36.0325C28.6446 34.6466 28.8955 32.9462 28.9552 32.2692V12.7707C28.9552 12.7304 28.9526 12.6875 28.9499 12.6437C28.9403 12.49 28.9301 12.326 29.033 12.2288C29.1072 12.1586 29.2122 12.1396 29.3143 12.1396H41.5148C43.5379 12.2981 46.9199 13.5059 46.9199 17.8844C47.0105 19.7868 45.9536 23.7305 41.0014 24.2861C39.6039 24.5229 35.305 24.605 33.2119 24.6176C33.1299 24.6181 33.0496 24.6278 32.9724 24.6558C32.6213 24.7833 32.0848 25.1058 32.0633 25.6449C32.0391 26.2488 32.0532 27.6479 32.0633 28.272C32.0733 28.584 32.2203 29.2081 32.7276 29.2081H35.9284C36.0291 29.2182 36.2787 29.2926 36.4719 29.5101C36.6652 29.7275 40.3371 34.271 42.1489 36.5156L45.3125 40.7924C45.3378 40.8266 45.3601 40.8633 45.3823 40.9C45.4169 40.9571 45.4514 41.0141 45.4973 41.0615C45.5837 41.1509 45.737 41.2411 45.9838 41.2565C46.3703 41.2807 52.9794 41.2666 56.0091 41.2565C56.2006 41.2565 56.4805 41.0127 56.4805 40.7827V37.8109C56.4805 37.4203 56.1334 37.2123 55.8027 37.2102L55.7954 37.2101C55.6984 37.2091 52.5784 37.1766 50.7836 37.2018C50.4975 37.2059 50.2251 37.0825 50.0414 36.8633L43.7194 29.3214C43.6565 29.2463 43.6028 29.1625 43.5796 29.0673C43.5339 28.8792 43.5246 28.6253 43.7038 28.5133C43.9344 28.3692 45.1452 27.8847 45.7218 27.6605L48.0881 26.5794C49.4269 25.8527 52.2533 23.3017 52.8491 18.9117C53.032 16.7297 52.3709 11.8014 48.2631 9.54367C47.5618 9.0864 44.3034 8.38985 43.8888 8.31906C43.8689 8.31566 43.8485 8.31216 43.8277 8.30859C43.4156 8.23795 42.8345 8.13834 42.2166 8.13834Z" fill="white"/>
<path d="M80.2223 18.915V27.0395C80.2223 28.1673 80.1185 29.0799 79.9107 29.7774C79.703 30.4748 79.332 31.0016 78.7978 31.3577C78.2784 31.7139 77.5439 31.8919 76.5941 31.8919C75.5851 31.8919 74.5241 31.7955 73.4111 31.6026L73.745 29.0428C74.1605 29.0576 74.6354 29.0502 75.1696 29.0206C75.7038 28.9909 76.008 28.9315 76.0822 28.8425C76.1712 28.6941 76.2157 28.3379 76.2157 27.7741C76.2157 27.2102 76.2157 26.8911 76.2157 26.8169V18.915H80.2223Z" fill="white"/>
<path d="M93.9629 31.6028H89.756L88.9992 28.3975C88.9695 28.2788 88.9176 28.0785 88.8434 27.7965C88.784 27.4997 88.7098 27.2846 88.6208 27.151C88.5318 27.0026 88.4056 26.9062 88.2424 26.8616C87.8269 26.8765 87.2185 26.8839 86.4172 26.8839V31.6028H82.4106V19.0265C84.2061 18.893 85.883 18.8262 87.4411 18.8262C88.8508 18.8262 89.9934 18.9449 90.8689 19.1823C91.7445 19.4049 92.3974 19.7982 92.8277 20.3621C93.2729 20.9111 93.4955 21.6679 93.4955 22.6325C93.4955 23.5377 93.2877 24.2499 92.8722 24.7693C92.4567 25.2738 91.789 25.5781 90.8689 25.6819V25.8155C91.3883 25.86 91.8187 26.0306 92.16 26.3274C92.5161 26.6094 92.7535 26.9729 92.8722 27.4181L93.9629 31.6028ZM86.4172 24.3687C86.5507 24.3835 86.8104 24.3909 87.1962 24.3909C88.3389 24.3909 89.0066 24.2945 89.1995 24.1015C89.3776 23.9235 89.4666 23.508 89.4666 22.8551C89.4666 22.2466 89.3034 21.8311 88.9769 21.6086C88.6653 21.386 88.1459 21.2747 87.4188 21.2747C87.2556 21.2747 86.9217 21.2895 86.4172 21.3192V24.3687Z" fill="white"/>
<path d="M103.122 18.915C104.858 18.915 106.275 19.0783 107.373 19.4047C108.486 19.7312 109.347 20.347 109.955 21.2522C110.578 22.1574 110.89 23.4558 110.89 25.1475C110.89 26.9579 110.564 28.3379 109.911 29.2877C109.258 30.2225 108.382 30.8458 107.284 31.1574C106.186 31.4542 104.798 31.6026 103.122 31.6026H98.6699V18.915H103.122ZM106.104 28.5754C106.282 28.3973 106.409 27.9373 106.483 27.1953C106.557 26.4534 106.594 25.7708 106.594 25.1475C106.594 24.361 106.535 23.7378 106.416 23.2778C106.312 22.8029 106.119 22.4245 105.837 22.1426C105.392 21.6529 104.628 21.408 103.545 21.408C103.352 21.408 103.062 21.4229 102.676 21.4525V28.8425C102.929 28.8722 103.322 28.887 103.856 28.887C104.405 28.887 104.888 28.8647 105.303 28.8202C105.733 28.7609 106 28.6792 106.104 28.5754Z" fill="white"/>
<path d="M112.557 18.915H121.795V21.5861H116.564V23.901H120.971V26.305H116.564V28.887H121.772V31.6026H112.557V18.915Z" fill="white"/>
<path d="M127.144 22.3425C127.144 22.6541 127.3 22.899 127.612 23.077C127.938 23.2551 128.443 23.448 129.125 23.6558C129.941 23.9229 130.609 24.1826 131.128 24.4348C131.663 24.6871 132.123 25.0803 132.509 25.6145C132.909 26.1488 133.11 26.8462 133.11 27.7069C133.11 30.467 131.314 31.847 127.723 31.847C127.129 31.847 126.402 31.7951 125.542 31.6912C124.696 31.5873 123.924 31.4538 123.227 31.2906C123.256 30.9789 123.316 30.5263 123.405 29.9328C123.509 29.3244 123.605 28.8718 123.694 28.575C124.213 28.6492 124.992 28.7382 126.031 28.8421C127.085 28.946 127.879 28.9979 128.413 28.9979C128.725 28.9979 128.91 28.9756 128.969 28.9311C129.058 28.8718 129.125 28.7753 129.17 28.6417C129.229 28.4934 129.259 28.3672 129.259 28.2634C129.259 27.9666 129.118 27.744 128.836 27.5956C128.554 27.4324 128.072 27.2394 127.389 27.0169C126.573 26.7646 125.898 26.5049 125.363 26.2378C124.829 25.9707 124.362 25.5552 123.961 24.9913C123.56 24.4274 123.36 23.6854 123.36 22.7654C123.36 22.1125 123.509 21.4744 123.805 20.8512C124.102 20.2131 124.406 19.7827 124.718 19.5601C124.955 19.3969 125.445 19.2411 126.187 19.0927C126.929 18.9443 127.626 18.8701 128.279 18.8701C129.941 18.8701 131.299 19.0259 132.353 19.3376C132.338 19.6343 132.286 20.0424 132.197 20.5618C132.123 21.0812 132.041 21.556 131.952 21.9864L131.44 21.9641C129.511 21.8305 128.279 21.7638 127.745 21.7638C127.523 21.7638 127.396 21.7712 127.367 21.786C127.307 21.8157 127.255 21.8825 127.211 21.9864C127.166 22.0902 127.144 22.2089 127.144 22.3425Z" fill="white"/>
<path d="M134.971 18.915H138.978V31.6026H134.971V18.915Z" fill="white"/>
<path d="M152.316 24.5684V30.9122C151.322 31.2386 150.38 31.476 149.489 31.6244C148.599 31.7728 147.85 31.847 147.241 31.847C145.223 31.847 143.643 31.3202 142.5 30.2666C141.357 29.2131 140.786 27.5956 140.786 25.4142C140.786 23.1883 141.387 21.5263 142.589 20.4282C143.791 19.3153 145.483 18.7588 147.664 18.7588C148.807 18.7588 150.179 18.9295 151.782 19.2708C151.782 19.5676 151.752 20.0127 151.693 20.6063C151.634 21.185 151.574 21.5931 151.515 21.8305L150.713 21.8083C149.734 21.7786 148.97 21.7638 148.421 21.7638C146.774 21.7638 145.876 21.8602 145.727 22.0531C145.49 22.3351 145.319 22.7728 145.216 23.3664C145.127 23.96 145.082 24.5313 145.082 25.0803C145.082 26.0746 145.193 26.8462 145.416 27.3953C145.638 27.9443 145.98 28.3301 146.44 28.5527C146.9 28.7753 147.523 28.8866 148.31 28.8866H148.399V24.5684H152.316Z" fill="white"/>
<path d="M157.926 26.483V31.6026H154.208V18.915H157.97L161.331 24.0346C161.836 24.7914 162.221 25.4295 162.489 25.9488H162.555V18.915H166.25V31.6026H162.466L159.016 26.2605L158.015 24.7469H157.948L157.926 26.483Z" fill="white"/>
</svg>
