<svg width="24" height="24" viewBox="0 0 24 24" fill="none" xmlns="http://www.w3.org/2000/svg">
<circle cx="12" cy="12.1101" r="11.5" fill="black"/>
<path d="M17.7835 14.9617L15.1002 13.6679C14.9855 13.613 14.8581 13.6014 14.7371 13.6349C14.6162 13.6685 14.5081 13.7453 14.4293 13.8539L13.241 15.4873C11.376 14.4981 9.87505 12.8095 8.99571 10.7114L10.4476 9.3745C10.5443 9.28601 10.6128 9.16447 10.6426 9.0283C10.6724 8.89212 10.662 8.74872 10.6129 8.6198L9.46291 5.601C9.40903 5.46203 9.31373 5.34856 9.19346 5.28017C9.07318 5.21177 8.93546 5.19274 8.80404 5.22634L6.31233 5.87323C6.18563 5.90614 6.07259 5.9864 5.99165 6.1009C5.91072 6.2154 5.86667 6.35738 5.8667 6.50367C5.8667 13.4173 10.8477 19.0101 16.9836 19.0101C17.1136 19.0102 17.2399 18.9607 17.3417 18.8697C17.4436 18.7786 17.5149 18.6514 17.5442 18.5088L18.1192 15.7056C18.1489 15.5571 18.1316 15.4015 18.0703 15.2657C18.0091 15.13 17.9077 15.0225 17.7835 14.9617Z" fill="white"/>
</svg>
