<svg width="627" height="194" viewBox="0 0 627 194" fill="none" xmlns="http://www.w3.org/2000/svg">
<path fill-rule="evenodd" clip-rule="evenodd" d="M111.403 120.725L111.325 120.655C111.322 120.653 111.319 120.65 111.316 120.648C111.314 120.645 111.312 120.642 111.31 120.639L62.5933 76.4459L13.8768 120.638C13.8744 120.64 13.8725 120.643 13.8706 120.645C13.8681 120.648 13.8656 120.652 13.8624 120.654L13.782 120.724C6.33254 127.52 1.60085 136.379 0.339129 145.894C-0.922596 155.409 1.35804 165.034 6.81847 173.238C12.2789 181.442 20.6058 187.756 30.4755 191.174C40.3451 194.592 51.1911 194.919 61.2892 192.103C62.139 191.868 63.0472 191.868 63.897 192.103C73.9944 194.918 84.8397 194.591 94.7087 191.172C104.578 187.753 112.904 181.441 118.364 173.237C123.824 165.033 126.105 155.409 124.844 145.895C123.582 136.38 118.851 127.521 111.403 120.725ZM27.273 169.255C29.0351 170.857 31.0193 172.238 33.1717 173.364C37.1069 175.645 41.7335 176.959 46.6841 176.959C52.679 176.959 58.1989 175.032 62.5912 171.795C66.9836 175.032 72.5034 176.959 78.4984 176.959C83.4338 176.959 88.0472 175.653 91.9746 173.385C94.1422 172.255 96.1399 170.867 97.913 169.255C103.239 164.423 106.233 157.872 106.237 151.04C106.242 144.207 103.257 137.653 97.9376 132.816L62.5933 100.756L27.2473 132.816C21.929 137.653 18.9446 144.208 18.9494 151.04C18.9543 157.872 21.9479 164.423 27.273 169.255Z" fill="#F53855"/>
<path d="M44.5676 78.9545V22.2838C44.5676 17.5782 40.7529 13.7635 36.0473 13.7635C31.3417 13.7635 27.527 17.5782 27.527 22.2838V94.859L44.5676 78.9545Z" fill="#F53855"/>
<path d="M17.6959 104.035V52.4324C17.6959 47.7268 13.8813 43.9122 9.17568 43.9122C4.47006 43.9122 0.655405 47.7268 0.655405 52.4324V120.595L0.920673 120.355C1.15704 119.703 1.54561 119.108 2.06309 118.625L17.6959 104.035Z" fill="#F53855"/>
<path d="M128.459 121.332V79.9595C128.459 75.2538 124.645 71.4392 119.939 71.4392C115.234 71.4392 111.419 75.2538 111.419 79.9595V105.039L128.174 121.037C128.273 121.132 128.369 121.23 128.459 121.332Z" fill="#F53855"/>
<path d="M100.932 95.0272V28.1824C100.932 23.4768 97.1178 19.6622 92.4122 19.6622C87.7065 19.6622 83.8919 23.4768 83.8919 28.1824V78.7573L100.932 95.0272Z" fill="#F53855"/>
<path d="M72.75 68.1193V8.52027C72.75 3.81466 68.9353 0 64.2297 0C59.5241 0 55.7095 3.81465 55.7095 8.52027V68.5554L59.5821 64.941C62.375 62.3342 66.7166 62.3588 69.4798 64.9971L72.75 68.1193Z" fill="#F53855"/>
<path d="M185.44 82L172.826 61.171H172.561V82H163.763V45.536H173.25L184.963 64.457H185.228V45.536H194.079V82H185.44ZM201.704 82V45.536H227.568V53.009H210.926V59.846H225.024V67.319H210.926V74.527H227.568V82H201.704ZM234.205 82V45.536H243.427V82H234.205ZM251.081 82V45.536H260.303V74.156H274.772V82H251.081Z" fill="#F53855"/>
<path d="M300.261 82V53.38H290.191V45.536H319.606V53.38H309.483V82H300.261ZM324.16 82V45.536H333.382V82H324.16ZM341.036 82V45.536H350.258V74.156H364.727V82H341.036ZM414.225 82V58.786H413.854L406.063 82H399.809L392.018 58.786H391.647V82H383.061V45.536H395.728L402.936 66.577H403.307L410.462 45.536H423.076V82H414.225ZM445.625 82.424C440.502 82.424 436.845 81.894 434.654 80.834C432.499 79.7387 431.139 78.0073 430.573 75.64C430.043 73.2727 429.778 69.3153 429.778 63.768C429.778 58.2207 430.043 54.2633 430.573 51.896C431.139 49.5287 432.499 47.815 434.654 46.755C436.845 45.6597 440.502 45.112 445.625 45.112C450.749 45.112 454.388 45.6597 456.543 46.755C458.734 47.815 460.094 49.5287 460.624 51.896C461.154 54.2633 461.419 58.2207 461.419 63.768C461.419 69.3153 461.154 73.2727 460.624 75.64C460.094 78.0073 458.734 79.7387 456.543 80.834C454.388 81.894 450.749 82.424 445.625 82.424ZM445.625 74.951C447.922 74.951 449.459 74.7743 450.236 74.421C451.014 74.0323 451.508 73.1667 451.72 71.824C451.932 70.4813 452.038 67.796 452.038 63.768C452.038 59.74 451.932 57.0547 451.72 55.712C451.508 54.3693 451.014 53.5213 450.236 53.168C449.459 52.7793 447.922 52.585 445.625 52.585C443.329 52.585 441.774 52.7793 440.961 53.168C440.149 53.5213 439.636 54.387 439.424 55.765C439.212 57.143 439.106 59.8107 439.106 63.768C439.106 67.7253 439.212 70.393 439.424 71.771C439.636 73.149 440.149 74.0323 440.961 74.421C441.774 74.7743 443.329 74.951 445.625 74.951ZM468.205 45.536H486.543C490.112 45.536 492.779 46.2957 494.546 47.815C496.313 49.3343 497.196 51.631 497.196 54.705C497.196 57.2843 496.684 59.2453 495.659 60.588C494.67 61.8953 493.062 62.7963 490.836 63.291V63.503C493.239 64.033 494.952 64.934 495.977 66.206C497.002 67.478 497.514 69.5097 497.514 72.301C497.514 75.5163 496.648 77.9367 494.917 79.562C493.221 81.1873 490.412 82 486.49 82H468.205V45.536ZM483.204 60.058C484.511 60.058 485.483 59.9697 486.119 59.793C486.755 59.581 487.197 59.2277 487.444 58.733C487.691 58.2383 487.815 57.4963 487.815 56.507C487.815 55.4823 487.691 54.7227 487.444 54.228C487.232 53.7333 486.808 53.3977 486.172 53.221C485.571 53.0443 484.582 52.956 483.204 52.956H477.374V60.058H483.204ZM483.469 74.58C484.812 74.58 485.801 74.4917 486.437 74.315C487.073 74.103 487.515 73.7497 487.762 73.255C488.009 72.7603 488.133 71.983 488.133 70.923C488.133 69.8277 488.009 69.015 487.762 68.485C487.55 67.955 487.108 67.6017 486.437 67.425C485.801 67.213 484.812 67.107 483.469 67.107H477.374V74.58H483.469ZM504.073 45.536H522.411C525.98 45.536 528.647 46.2957 530.414 47.815C532.181 49.3343 533.064 51.631 533.064 54.705C533.064 57.2843 532.552 59.2453 531.527 60.588C530.538 61.8953 528.93 62.7963 526.704 63.291V63.503C529.107 64.033 530.82 64.934 531.845 66.206C532.87 67.478 533.382 69.5097 533.382 72.301C533.382 75.5163 532.516 77.9367 530.785 79.562C529.089 81.1873 526.28 82 522.358 82H504.073V45.536ZM519.072 60.058C520.379 60.058 521.351 59.9697 521.987 59.793C522.623 59.581 523.065 59.2277 523.312 58.733C523.559 58.2383 523.683 57.4963 523.683 56.507C523.683 55.4823 523.559 54.7227 523.312 54.228C523.1 53.7333 522.676 53.3977 522.04 53.221C521.439 53.0443 520.45 52.956 519.072 52.956H513.242V60.058H519.072ZM519.337 74.58C520.68 74.58 521.669 74.4917 522.305 74.315C522.941 74.103 523.383 73.7497 523.63 73.255C523.877 72.7603 524.001 71.983 524.001 70.923C524.001 69.8277 523.877 69.015 523.63 68.485C523.418 67.955 522.976 67.6017 522.305 67.425C521.669 67.213 520.68 67.107 519.337 67.107H513.242V74.58H519.337ZM539.835 82V45.536H549.057V82H539.835ZM578.282 82L565.668 61.171H565.403V82H556.605V45.536H566.092L577.805 64.457H578.07V45.536H586.921V82H578.282ZM608.962 67.69V60.694H622.583V81.205C620.745 81.5583 618.625 81.841 616.223 82.053C613.855 82.3003 611.771 82.424 609.969 82.424C605.269 82.424 601.789 81.947 599.528 80.993C597.266 80.0037 595.712 78.237 594.864 75.693C594.016 73.1137 593.592 69.1387 593.592 63.768C593.592 58.7507 594.016 54.9523 594.864 52.373C595.747 49.7583 597.337 47.9033 599.634 46.808C601.93 45.6773 605.358 45.112 609.916 45.112C612.53 45.112 615.127 45.271 617.707 45.589C620.286 45.907 621.858 46.1543 622.424 46.331V53.327C618.466 52.8323 615.428 52.585 613.308 52.585C609.81 52.585 607.407 52.7793 606.1 53.168C604.828 53.5213 603.98 54.4223 603.556 55.871C603.132 57.3197 602.92 59.952 602.92 63.768C602.92 67.2307 603.079 69.7217 603.397 71.241C603.715 72.725 604.368 73.7497 605.358 74.315C606.382 74.8803 608.043 75.163 610.34 75.163C611.612 75.163 612.831 75.11 613.997 75.004V67.69H608.962Z" fill="#101010"/>
<path d="M190.976 163L184.496 145.648H175.784V163H163.256V113.464H187.016C191.576 113.464 195.008 114.112 197.312 115.408C199.664 116.656 201.2 118.408 201.92 120.664C202.688 122.872 203.072 125.848 203.072 129.592C203.072 133.048 202.616 136.048 201.704 138.592C200.84 141.136 199.088 142.984 196.448 144.136L204.08 163H190.976ZM182.264 135.712C184.856 135.712 186.68 135.568 187.736 135.28C188.84 134.992 189.56 134.464 189.896 133.696C190.232 132.88 190.4 131.536 190.4 129.664C190.4 127.744 190.256 126.4 189.968 125.632C189.68 124.816 188.984 124.264 187.88 123.976C186.824 123.688 185 123.544 182.408 123.544H175.784V135.712H182.264ZM243.155 163.576C236.195 163.576 231.227 162.856 228.251 161.416C225.323 159.928 223.475 157.576 222.707 154.36C221.987 151.144 221.627 145.768 221.627 138.232C221.627 130.696 221.987 125.32 222.707 122.104C223.475 118.888 225.323 116.56 228.251 115.12C231.227 113.632 236.195 112.888 243.155 112.888C250.115 112.888 255.059 113.632 257.987 115.12C260.963 116.56 262.811 118.888 263.531 122.104C264.251 125.32 264.611 130.696 264.611 138.232C264.611 145.768 264.251 151.144 263.531 154.36C262.811 157.576 260.963 159.928 257.987 161.416C255.059 162.856 250.115 163.576 243.155 163.576ZM243.155 153.424C246.275 153.424 248.363 153.184 249.419 152.704C250.475 152.176 251.147 151 251.435 149.176C251.723 147.352 251.867 143.704 251.867 138.232C251.867 132.76 251.723 129.112 251.435 127.288C251.147 125.464 250.475 124.312 249.419 123.832C248.363 123.304 246.275 123.04 243.155 123.04C240.035 123.04 237.923 123.304 236.819 123.832C235.715 124.312 235.019 125.488 234.731 127.36C234.443 129.232 234.299 132.856 234.299 138.232C234.299 143.608 234.443 147.232 234.731 149.104C235.019 150.976 235.715 152.176 236.819 152.704C237.923 153.184 240.035 153.424 243.155 153.424ZM304.213 143.56V134.056H322.717V161.92C320.221 162.4 317.341 162.784 314.077 163.072C310.861 163.408 308.029 163.576 305.581 163.576C299.197 163.576 294.469 162.928 291.397 161.632C288.325 160.288 286.213 157.888 285.061 154.432C283.909 150.928 283.333 145.528 283.333 138.232C283.333 131.416 283.909 126.256 285.061 122.752C286.261 119.2 288.421 116.68 291.541 115.192C294.661 113.656 299.317 112.888 305.509 112.888C309.061 112.888 312.589 113.104 316.093 113.536C319.597 113.968 321.733 114.304 322.501 114.544V124.048C317.125 123.376 312.997 123.04 310.117 123.04C305.365 123.04 302.101 123.304 300.325 123.832C298.597 124.312 297.445 125.536 296.869 127.504C296.293 129.472 296.005 133.048 296.005 138.232C296.005 142.936 296.221 146.32 296.653 148.384C297.085 150.4 297.973 151.792 299.317 152.56C300.709 153.328 302.965 153.712 306.085 153.712C307.813 153.712 309.469 153.64 311.053 153.496V143.56H304.213ZM374.841 163L371.889 153.64H354.249L351.441 163H338.913L354.753 113.464H371.745L387.585 163H374.841ZM363.177 124.552H362.817L357.129 143.488H368.937L363.177 124.552ZM404.245 163V113.464H416.773V152.344H436.429V163H404.245ZM485.387 163L482.435 153.64H464.795L461.987 163H449.459L465.299 113.464H482.291L498.131 163H485.387ZM473.723 124.552H473.363L467.675 143.488H479.483L473.723 124.552ZM544.094 163L526.958 134.704H526.598V163H514.646V113.464H527.534L543.446 139.168H543.806V113.464H555.83V163H544.094ZM576.989 113.464H594.485C601.781 113.464 606.989 114.208 610.109 115.696C613.229 117.136 615.173 119.44 615.941 122.608C616.709 125.728 617.093 130.936 617.093 138.232C617.093 145.528 616.709 150.76 615.941 153.928C615.173 157.048 613.229 159.352 610.109 160.84C606.989 162.28 601.781 163 594.485 163H576.989V113.464ZM594.197 152.848C597.893 152.848 600.341 152.632 601.541 152.2C602.789 151.72 603.557 150.616 603.845 148.888C604.181 147.112 604.349 143.56 604.349 138.232C604.349 132.952 604.181 129.424 603.845 127.648C603.509 125.872 602.717 124.768 601.469 124.336C600.269 123.856 597.845 123.616 594.197 123.616H589.445V152.848H594.197Z" fill="#101010"/>
</svg>
