<svg width="368" height="368" viewBox="0 0 368 368" fill="none" xmlns="http://www.w3.org/2000/svg">
<path d="M367.999 184.179C367.999 285.575 285.802 367.772 184.407 367.772C83.0116 367.772 0.814453 285.575 0.814453 184.179C0.814453 82.784 83.0116 0.586853 184.407 0.586853C285.802 0.586853 367.999 82.784 367.999 184.179Z" fill="white"/>
<path d="M262.977 280.278C262.977 296.229 245.33 310.041 219.615 316.741C224.072 309.991 226.667 301.902 226.667 293.207C226.667 269.588 207.521 250.441 183.901 250.441C160.282 250.441 141.136 269.588 141.136 293.207C141.136 301.762 143.647 309.731 147.975 316.415C142.822 315.013 138.007 313.323 133.607 311.386H138.388C139.143 311.386 139.755 310.774 139.755 310.019C139.755 309.263 139.143 308.651 138.388 308.651H127.978C125.918 307.548 123.978 306.385 122.167 305.167H136.344C136.78 305.167 137.169 304.962 137.419 304.644C137.602 304.412 137.711 304.119 137.711 303.8C137.711 303.044 137.099 302.432 136.344 302.432H118.435C117.03 301.308 115.729 300.146 114.539 298.948H134.3C135.055 298.948 135.667 298.336 135.667 297.581C135.667 297.188 135.502 296.834 135.237 296.585C134.992 296.354 134.662 296.213 134.3 296.213H112.064C111.135 295.078 110.3 293.916 109.568 292.729H133.26C134.015 292.729 134.627 292.118 134.627 291.362C134.627 290.907 134.404 290.503 134.062 290.254C133.837 290.091 133.56 289.995 133.26 289.995H108.082C107.544 288.852 107.099 287.689 106.75 286.511H133.219C133.974 286.511 134.586 285.899 134.586 285.144C134.586 284.388 133.974 283.776 133.219 283.776H106.123C105.935 282.627 105.838 281.465 105.838 280.292H133.168C133.923 280.292 134.535 279.68 134.535 278.925C134.535 278.169 133.923 277.557 133.168 277.557H106.01C106.159 276.381 106.404 275.22 106.741 274.073H135.124C135.879 274.073 136.491 273.461 136.491 272.706C136.491 271.951 135.879 271.338 135.124 271.338H107.731C108.24 270.157 108.849 268.995 109.551 267.854H137.08C137.835 267.854 138.447 267.243 138.447 266.487C138.447 265.732 137.835 265.12 137.08 265.12H111.446C112.365 263.93 113.388 262.767 114.511 261.636H141.036C141.791 261.636 142.403 261.024 142.403 260.269C142.403 259.911 142.267 259.586 142.042 259.342C141.792 259.071 141.434 258.901 141.036 258.901H117.487C118.919 257.697 120.468 256.534 122.125 255.417H145.992C146.747 255.417 147.359 254.805 147.359 254.05C147.359 253.294 146.747 252.682 145.992 252.682H126.563C128.75 251.448 131.081 250.285 133.543 249.198H153.203C153.958 249.198 154.57 248.586 154.57 247.831C154.57 247.076 153.958 246.463 153.203 246.463H140.484C153.023 242.068 168.138 239.501 184.407 239.501C227.8 239.501 262.977 257.758 262.977 280.278Z" fill="#A95349"/>
<path d="M94.8618 140.64C111.13 140.64 122.335 128.439 122.335 108.519C122.335 88.5985 111.13 76.8955 94.8618 76.8955C78.5938 76.8955 67.3888 88.5155 67.3888 108.519C67.3888 128.439 78.5938 140.64 94.8618 140.64ZM94.8618 130.016C85.7318 130.016 79.9218 121.633 79.9218 108.519C79.9218 95.3215 85.7318 87.4365 94.8618 87.4365C103.992 87.4365 109.802 95.3215 109.802 108.519C109.802 121.633 103.992 130.016 94.8618 130.016Z" fill="#384B62"/>
<path d="M157.405 140.64C165.954 140.64 173.175 137.32 177.325 133.253V105.531H155.496V115.574H166.369V127.692C164.626 129.186 161.638 130.016 158.733 130.016C146.615 130.016 140.473 121.965 140.473 108.602C140.473 95.4045 147.611 87.4365 157.82 87.4365C163.381 87.4365 166.867 89.6775 169.938 92.5825L176.412 84.7805C172.428 80.7135 166.286 76.8955 157.405 76.8955C141.054 76.8955 127.94 88.7645 127.94 109.017C127.94 129.518 140.722 140.64 157.405 140.64Z" fill="#384B62"/>
<path d="M187.185 139.478H198.805V114.827C198.805 107.772 197.892 100.053 197.311 93.4125H197.726L203.951 106.61L221.713 139.478H234.163V77.9745H222.543V102.543C222.543 109.515 223.539 117.649 224.12 124.04H223.705L217.563 110.76L199.718 77.9745H187.185V139.478Z" fill="#384B62"/>
<path d="M259.397 107.44C261.223 101.049 263.049 94.0765 264.626 87.3535H265.041C266.784 93.9935 268.444 101.049 270.353 107.44L272.179 114.163H257.571L259.397 107.44ZM238.149 139.478H250.599L254.915 123.708H274.835L279.151 139.478H292.016L272.262 77.9745H257.82L238.149 139.478Z" fill="#384B62"/>
<path d="M49.4668 210.75C55.2868 210.75 59.8468 208.71 62.6068 205.77V188.19H48.9868V191.25H59.1268V204.39C57.1468 206.37 53.5468 207.51 49.8268 207.51C39.9868 207.51 34.2868 199.89 34.2868 187.95C34.2868 176.13 40.3468 168.69 50.0668 168.69C54.8068 168.69 57.8068 170.67 60.0268 173.07L62.1268 170.73C59.7268 168.21 55.9468 165.45 50.0068 165.45C38.4868 165.45 30.5068 174.09 30.5068 188.07C30.5068 202.05 38.2468 210.75 49.4668 210.75Z" fill="#384B62"/>
<path d="M86.5979 210.75C97.2779 210.75 104.778 201.87 104.778 187.95C104.778 174.09 97.2779 165.45 86.5979 165.45C76.0379 165.45 68.4779 174.09 68.4779 187.95C68.4779 201.87 76.0379 210.75 86.5979 210.75ZM86.5979 207.51C77.9579 207.51 72.2579 199.83 72.2579 187.95C72.2579 176.07 77.9579 168.69 86.5979 168.69C95.2979 168.69 101.058 176.07 101.058 187.95C101.058 199.83 95.2979 207.51 86.5979 207.51Z" fill="#384B62"/>
<path d="M112.373 209.97H135.893V206.85H115.973V166.23H112.373V209.97Z" fill="#384B62"/>
<path d="M141.321 209.97H144.921V189.21H162.261V186.15H144.921V169.29H165.441V166.23H141.321V209.97Z" fill="#384B62"/>
<path d="M170.854 209.97H174.454V195.21L183.034 185.31L197.194 209.97H201.334L185.434 182.49L199.354 166.23H195.094L174.574 189.99H174.454V166.23H170.854V209.97Z" fill="#384B62"/>
<path d="M205.837 209.97H229.357V206.85H209.437V166.23H205.837V209.97Z" fill="#384B62"/>
<path d="M247.904 210.75C255.764 210.75 262.904 206.67 262.904 192.87V166.23H259.484V192.69C259.484 204.09 254.084 207.51 247.904 207.51C241.844 207.51 236.564 204.09 236.564 192.69V166.23H232.964V192.87C232.964 206.67 240.044 210.75 247.904 210.75Z" fill="#384B62"/>
<path d="M273.049 209.97H286.009C295.849 209.97 302.329 205.65 302.329 197.19C302.329 191.19 298.609 187.65 293.029 186.69V186.39C297.349 185.07 299.689 181.35 299.689 176.85C299.689 169.47 293.929 166.23 285.109 166.23H273.049V209.97ZM276.649 185.31V169.17H284.329C292.069 169.17 296.089 171.33 296.089 177.27C296.089 182.25 292.609 185.31 283.969 185.31H276.649ZM276.649 206.97V188.19H285.169C293.869 188.19 298.789 191.07 298.789 197.19C298.789 203.97 293.629 206.97 285.169 206.97H276.649Z" fill="#384B62"/>
<path d="M309.145 209.97H322.105C331.945 209.97 338.425 205.65 338.425 197.19C338.425 191.19 334.705 187.65 329.125 186.69V186.39C333.445 185.07 335.785 181.35 335.785 176.85C335.785 169.47 330.025 166.23 321.205 166.23H309.145V209.97ZM312.745 185.31V169.17H320.425C328.165 169.17 332.185 171.33 332.185 177.27C332.185 182.25 328.705 185.31 320.065 185.31H312.745ZM312.745 206.97V188.19H321.265C329.965 188.19 334.885 191.07 334.885 197.19C334.885 203.97 329.725 206.97 321.265 206.97H312.745Z" fill="#384B62"/>
</svg>
