<svg width="239" height="136" viewBox="0 0 239 136" fill="none" xmlns="http://www.w3.org/2000/svg">
<g clip-path="url(#clip0_302_19)">
<path d="M143.187 62.572C143.187 95.7213 116.314 122.594 83.1648 122.594C50.0156 122.594 23.1428 95.7213 23.1428 62.572C23.1428 29.4228 50.0156 2.55 83.1648 2.55C116.314 2.55 143.187 29.4228 143.187 62.572Z" fill="white" stroke="white" stroke-width="5.1"/>
<path fill-rule="evenodd" clip-rule="evenodd" d="M54.6341 24.0331C50.9178 24.2954 47.0444 26.0309 45.457 28.1451C44.6524 29.2166 44.4018 30.1182 44.0947 33.0463C43.7094 36.7191 43.1483 38.439 42.0351 39.3602C41.5216 39.7851 41.473 40.0857 41.8954 40.2238C42.4174 40.3945 44.2973 39.3623 46.317 37.796C47.7778 36.6629 48.3074 35.8019 48.7562 33.8292C48.9325 33.0545 49.2344 32.1943 49.4832 31.758C50.7459 29.5434 53.9315 28.7498 57.5321 29.7531C60.4392 30.5633 62.9559 33.2135 63.471 36.0073C63.7729 37.6437 63.1142 39.6049 61.6812 41.338C59.7574 43.6645 57.7028 45.3032 52.0692 49.004C44.3454 54.078 41.3162 57.3408 40.2171 61.7707C39.9029 63.037 39.9348 65.8578 40.28 67.3321C40.7834 69.4819 41.4515 71.3294 42.4719 73.393C43.6978 75.8722 47.5218 82.4514 47.6656 82.3289C47.7298 82.2742 47.6543 81.6639 47.4979 80.9728C46.1331 74.9422 45.8779 73.1857 45.8804 69.8401C45.8826 66.9975 46.0566 65.7523 46.7081 63.9144C48.3612 59.2509 51.0365 56.5511 59.2284 51.2789C60.6668 50.3531 61.9965 49.4898 62.1832 49.3602C67.8115 45.4578 70.2493 42.7723 71.1908 39.4372C71.5375 38.2091 71.4964 35.5369 71.112 34.3109C69.6758 29.7297 64.2232 25.3568 58.5602 24.2445C57.4898 24.0342 55.8606 23.9465 54.6341 24.0331ZM115.138 32.9462C114.617 33.0958 114.25 33.2347 112.452 33.9624L111.038 34.5347L111.854 34.6296C112.867 34.7473 113.79 35.26 114.285 35.9791C114.825 36.7645 114.869 37.1554 114.493 37.8275C114.091 38.5464 112.05 40.3098 110.897 40.9346C107.874 42.5727 105.534 43.5348 102.415 44.4224C101.026 44.8178 96.3032 46.0441 95.2055 46.2945C90.3895 47.393 79.1932 50.4773 73.4355 52.2918C63.4602 55.4352 56.3148 60.1165 52.8252 65.7945C52.1075 66.9622 50.9929 69.5356 50.6296 70.8638C50.2518 72.2445 50.1715 72.6053 49.9711 73.8216C49.7248 75.3163 49.6922 77.7654 49.9001 79.1352C50.1256 80.6213 50.345 81.5804 50.4748 81.6488C50.5406 81.6833 50.6957 81.3981 50.8194 81.0149C51.9587 77.4863 53.6943 74.966 57.0739 71.9328C62.4167 67.1377 71.7746 62.2168 82.6948 58.46C86.8029 57.0468 89.6991 56.1585 96.6192 54.1893C109.231 50.6006 115.085 48.242 118.763 45.2668C122.222 42.4693 123.583 40.1033 123.159 37.6254C122.889 36.0455 122.07 34.9245 120.524 34.0181C118.84 33.0313 116.479 32.5613 115.138 32.9462ZM125.952 38.7459C125.952 41.8967 124.225 46.4792 121.949 49.3656C119.441 52.547 115.46 55.5623 110.261 58.2201C108.732 59.0015 103.993 61.0853 101.991 61.856C101.369 62.0954 100.509 62.4275 100.08 62.5938C99.6511 62.7603 98.9832 63.0031 98.5959 63.1335C98.2084 63.2639 97.478 63.5317 96.9726 63.7285C94.5628 64.6668 86.0337 67.4382 80.0796 69.2177C79.3021 69.45 77.0438 70.1272 75.0612 70.7226C73.0786 71.318 71.1701 71.8876 70.8203 71.9884C70.0394 72.2135 67.4691 73.0058 65.9432 73.4919C61.2632 74.9824 57.516 77.0213 55.5089 79.1691C52.7794 82.0899 52.2383 85.8803 54.0689 89.2561C55.5796 92.0413 58.484 94.7933 62.2678 97.0243C64.371 98.2644 64.9072 98.326 63.7368 97.1933C62.7955 96.2821 61.7381 94.206 60.9707 91.7621C60.6682 90.7984 60.6385 88.4615 60.9196 87.7251C61.6559 85.7958 63.635 84.1409 66.8078 82.8012C68.9895 81.8801 77.2762 79.0332 81.4226 77.7804C83.9794 77.0078 88.1477 75.9266 92.5903 74.8834C93.3289 74.71 94.1241 74.5204 94.3573 74.4621C97.1047 73.7751 98.8151 73.3526 99.1637 73.2747C100.958 72.8735 106.215 71.2764 108.282 70.5044C115.135 67.9452 120.861 63.5026 124.193 58.1606C125.96 55.3264 126.998 52.7321 127.734 49.3054C128.089 47.6553 128.088 43.2732 127.733 41.8383C127.145 39.4623 126.455 37.7434 126.09 37.7434C126.012 37.7434 125.952 38.1755 125.952 38.7459ZM120.898 63.8377C120.768 63.8826 120.722 64.3851 120.722 65.768C120.722 67.9092 120.558 68.6314 119.761 70.0175C117.311 74.277 110.278 77.7361 97.8914 80.774C96.4142 81.1364 94.3149 81.6354 93.2264 81.883C84.5624 83.8537 81.9491 84.6139 77.6764 86.4069C73.5537 88.1368 72.0595 88.9285 70.7422 90.0813C69.415 91.2428 68.5584 92.8542 68.5584 94.1895C68.5584 95.7616 69.7172 97.9422 71.5175 99.7578C72.2465 100.493 74.3596 102.093 74.4737 101.996C74.5147 101.961 74.1418 101.255 73.645 100.427C72.8768 99.1471 72.7333 98.8081 72.6849 98.1607C72.6075 97.1259 73.0671 96.2961 74.2221 95.3851C76.9646 93.2218 82.232 91.8006 94.5694 89.895C105.602 88.1911 111.274 86.1729 115.703 82.3749C117.41 80.9114 118.481 79.6901 119.578 77.9586C122.208 73.8036 123.063 68.9602 121.892 64.8419C121.598 63.8047 121.444 63.6499 120.898 63.8377Z" fill="black"/>
</g>
<defs>
<clipPath id="clip0_302_19">
<rect width="239" height="136" fill="white"/>
</clipPath>
</defs>
</svg>
