<svg width="157" height="156" viewBox="0 0 157 156" fill="none" xmlns="http://www.w3.org/2000/svg">
<g clip-path="url(#clip0)">
<circle cx="78.3365" cy="77.899" r="77.8726" fill="white"/>
<path d="M136.598 55.1755C138.679 57.673 137.889 60.9952 137.234 62.3441C137.523 61.843 138.153 60.1414 138.361 57.3433C138.332 56.0714 137.754 54.366 136.453 53.0074C135.152 51.6488 134.343 50.8683 133.331 50.1168C132.522 49.5155 130.392 48.5944 129.429 48.209C127.839 47.6694 124.365 46.4284 123.185 45.7809C122.006 45.1334 121.306 44.3163 121.104 43.9887C120.931 43.6515 120.653 42.7573 120.931 41.8786C121.208 40.9998 121.644 40.4718 121.827 40.3177C122.068 40.0479 122.769 39.4909 123.648 39.4216C124.747 39.3349 125.527 39.4794 126.278 39.8841C126.879 40.2078 127.608 41.1945 127.897 41.6473C128.157 42.1002 128.885 43.0464 129.718 43.2083C129.718 43.2083 130.678 43.4395 131.741 43.2083C132.435 43.2083 132.967 42.5723 133.707 41.8786C134.632 41.0114 134.69 40.0864 134.632 39.1036C134.574 38.1208 134.574 37.1958 132.782 35.4036C131.348 33.9699 128.677 33.1104 127.521 32.8598C126.23 32.7442 123.255 32.7211 121.682 33.5536C120.109 34.3861 118.83 35.7891 118.387 36.3865C117.809 37.1188 116.653 39.1152 116.653 41.2426C116.768 41.7629 117.15 43.2198 117.751 44.8848C118.352 46.5498 119.89 47.5441 120.584 47.8332C120.969 48.0066 122.122 48.5617 123.648 49.3942C125.174 50.2267 128.793 50.8202 130.412 51.0129C131.607 51.3598 134.516 52.6779 136.598 55.1755Z" fill="#12BB9D"/>
<path d="M114.802 52.0535C116.097 50.5967 118.04 50.0976 118.849 50.0301C117.866 49.8856 115.548 49.6832 114.138 50.0301C113.694 50.1554 112.716 50.5099 112.346 50.9262C111.976 51.3424 112.191 51.986 112.346 52.2558C112.625 52.7954 113.508 53.5104 114.802 52.0535Z" fill="#12BB9D"/>
<path d="M114.167 45.6075C114.838 46.6944 117.279 48.0839 118.416 48.6428C118.618 48.6428 117.487 47.3678 116.826 46.1567C116.233 45.0691 116.513 44.4383 115.959 43.9309C115.612 43.6131 115.71 43.6131 114.947 43.6131C114.407 43.8251 113.496 44.5207 114.167 45.6075Z" fill="#12BB9D"/>
<path d="M111 48.8858C111.357 49.2075 112.112 49.5607 113.328 49.3363C114.77 49.0702 116.131 49.084 116.7 49.1281C116.144 48.7543 114.935 47.8852 114.542 47.3996C114.22 47.0018 113.773 46.6158 113.489 46.3938C113.384 46.3111 113.267 46.2435 113.141 46.1989C112.786 46.0736 112.229 45.945 111.883 46.0988C111.363 46.3301 111.016 46.359 110.495 47.3996C110.309 47.8225 110.452 48.2093 110.625 48.4582C110.733 48.6133 110.86 48.7592 111 48.8858Z" fill="#12BB9D"/>
<path d="M131.337 67.9621C130.408 68.2162 129.517 68.3324 128.851 68.3566C128.974 68.3402 129.644 68.2383 131.337 67.9621C132.328 67.6911 133.362 67.2633 134.213 66.6228C134.736 66.1882 135.194 65.6715 135.57 65.0994C135.778 64.7232 135.933 64.3071 136.02 63.8475C136.829 59.5693 135.788 57.7193 135.442 56.9099C135.095 56.1006 132.667 53.6724 130.007 52.9787C129.353 52.808 128.646 52.7642 127.948 52.7987C125.339 52.9281 122.381 54.3401 121.914 56.9099C121.558 58.8675 123.818 60.1559 125.768 60.5513C126.172 60.6332 126.535 60.6914 126.799 60.7256C127.483 60.9087 128.851 61.7895 128.851 63.8475C128.851 64.6016 128.455 65.1459 127.881 65.5324C125.893 66.8708 123.062 66.554 120.989 65.3505C120.093 64.8302 119.226 64.1943 118.705 63.356C118.185 62.5177 117.693 61.0724 117.693 59.7428C117.693 58.4131 117.664 57.3725 118.185 56.303C118.601 55.4473 119.302 54.6553 119.601 54.3663C120.981 53.159 122.512 52.0963 124.266 51.5633C124.556 51.4754 124.829 51.4038 125.064 51.36C126.307 51.1288 129.235 51.6369 129.863 51.7936C130.672 51.9958 131.77 52.2849 132.58 52.9787C133.331 53.6337 134.927 55.1404 135.297 55.9269C135.759 56.91 135.962 57.0831 136.569 60.205C136.626 60.502 136.663 60.7943 136.681 61.0802C136.771 62.5007 136.347 63.9183 135.57 65.0994C135.235 65.7061 134.762 66.2089 134.213 66.6228C133.39 67.3066 132.407 67.7875 131.337 67.9621Z" fill="#12BB9D"/>
<path d="M119.717 72.7504C116.387 75.3405 115.94 80.69 116.132 83.0409C116.16 82.0544 116.36 79.7482 116.942 78.4157C117.669 76.7501 117.809 76.797 118.734 75.1205C119.474 73.7792 121.547 72.9816 122.491 72.7504C123.744 72.5769 126.619 72.4495 128.099 73.3283C129.579 74.207 129.333 76.0069 129.024 76.797C128.812 77.2017 128.226 78.092 127.579 78.4157C127.103 78.6535 126.516 79.0721 126.1 79.3921C125.849 79.5847 125.618 79.8025 125.441 80.0635C125.134 80.5137 124.78 81.1991 124.746 81.8844C124.718 82.4533 124.877 82.9347 125.058 83.2749C125.235 83.6063 125.535 83.8449 125.857 84.0385C126.451 84.3959 127.386 84.892 128.388 85.2375C129.73 85.7 131.221 85.0448 131.799 84.6594C133.591 83.6766 136.898 80.7282 135.788 76.797C134.678 72.8658 131.125 71.1122 129.487 70.7269C127.618 70.3222 123.047 70.1603 119.717 72.7504Z" fill="#12BB9D"/>
<path d="M105.379 40.2598C107.414 36.7447 115.939 33.0911 119.948 31.7036V32.2818C119.312 32.9177 117.762 34.444 116.652 35.4615C115.265 36.7333 112.663 40.2598 111.623 41.5895C110.582 42.9193 108.328 48.9316 107.981 50.666C107.634 52.4004 107.229 56.3316 107.229 58.1816C107.229 59.6615 107.73 63.8471 107.981 65.7549L109.426 71.3049L113.704 82.6938C114.61 84.3318 116.583 87.9778 117.231 89.4578C117.878 90.9378 119.697 95.6244 120.526 97.7827C120.873 99.5364 121.578 103.448 121.624 105.067C121.682 107.09 120.815 110.733 120.526 111.947C120.237 113.161 117.982 116.225 117.231 117.265C116.479 118.306 114.571 119.636 112.837 120.792C111.103 121.948 108.328 122.757 106.882 123.104C105.437 123.451 103.24 124.029 101.91 124.087C100.581 124.145 98.7308 123.856 96.9964 123.104C95.2621 122.353 92.8918 119.636 92.3137 118.595C91.7355 117.554 91.273 115.878 91.4465 114.259C91.6199 112.64 92.198 111.715 93.4121 110.097C94.6261 108.478 98.2105 107.495 98.2105 107.553C98.2105 107.599 96.9001 108.42 96.2449 108.825C95.686 109.268 94.4296 110.363 93.8746 111.195C93.3196 112.028 92.9881 113.585 92.8918 114.259C92.911 114.799 93.0421 116.074 93.4121 116.861C93.7821 117.647 94.5683 118.691 94.9152 119.115C95.2813 119.404 96.2796 120.144 97.3433 120.792C98.407 121.439 100.831 121.755 101.91 121.833C103.703 121.543 107.669 120.699 109.195 119.636C110.721 118.572 112.259 116.687 112.837 115.878C112.702 115.993 112.155 116.433 111.045 117.265C108.593 119.023 106.169 119.578 105.264 119.636C104.242 119.636 101.783 119.347 100.118 118.19C98.037 116.745 98.2105 114.895 98.2105 113.334C98.2105 111.773 100.812 110.154 100.118 110.733C99.5633 111.195 98.962 112.12 98.7308 112.525C98.4803 113.854 98.6498 116.791 101.332 117.901C104.015 119.011 106.69 118.364 107.692 117.901C108.674 117.439 110.998 116.132 112.432 114.606C113.866 113.08 115.188 110.386 115.67 109.229C115.978 107.842 116.41 104.662 115.67 103.044C113.068 98.1296 108.212 95.8749 107.692 95.8749C107.171 95.8749 103.356 95.3546 99.3089 95.8749C96.0714 96.2912 93.5662 95.7015 92.7183 95.3546C91.4657 94.6031 88.8449 92.8109 88.3824 91.6547C87.5962 91.0997 88.0548 89.3422 88.3824 88.5328L89.3652 86.7407L89.7699 85.0063C89.5001 84.9099 88.8449 84.6479 88.3824 84.3704C87.8043 84.0235 87.3418 82.2313 87.3418 81.711C87.3418 81.1907 88.0356 80.6704 88.3824 80.5548C88.6599 80.4623 89.4231 79.861 89.7699 79.572H88.9606C88.6908 79.36 88.0587 78.7742 87.6887 78.1267C87.3187 77.4792 88.3824 76.3538 88.9606 75.872C89.4809 75.6408 90.5215 75.0395 90.5215 74.4845V73.3861C90.5215 73.0623 90.0204 72.2491 89.7699 71.883C88.8258 71.0543 86.8796 69.3508 86.6481 69.1658C86.3587 68.9346 85.8967 68.2408 85.8389 67.7783C85.7927 67.4083 86.552 66.6606 86.9375 66.333L94.9735 61.0143C95.6479 60.4748 96.9968 59.3378 96.9968 59.1065V57.6034C96.9968 57.3259 96.6113 56.6399 96.4186 56.3316L93.8751 53.9035C94.3183 54.1925 95.1585 54.7013 94.9735 54.4238C94.7885 54.1463 94.6651 53.4988 94.6266 53.2097C95.3204 53.9613 96.9044 55.4644 97.6905 55.4644C97.6905 55.2331 97.7482 52.8243 98.6732 50.666C99.5982 48.5077 102.234 43.4048 105.379 40.2598Z" fill="#12BB9D"/>
<path d="M20.0762 55.1755C17.9949 57.673 18.7848 60.9952 19.44 62.3441C19.151 61.843 18.5211 60.1414 18.313 57.3433C18.3419 56.0714 18.92 54.366 20.2208 53.0074C21.5215 51.6488 22.3309 50.8683 23.3426 50.1168C24.152 49.5155 26.2814 48.5944 27.2449 48.209C28.8347 47.6694 32.3092 46.4284 33.4886 45.7809C34.668 45.1334 35.3675 44.3163 35.5698 43.9887C35.7432 43.6515 36.0206 42.7573 35.7433 41.8786C35.4659 40.9998 35.0303 40.4718 34.8472 40.3177C34.6063 40.0479 33.9048 39.4909 33.0258 39.4216C31.9271 39.3349 31.1472 39.4794 30.3957 39.8841C29.7944 40.2078 29.066 41.1945 28.7769 41.6473C28.5168 42.1002 27.7883 43.0464 26.9558 43.2083C26.9558 43.2083 25.9961 43.4395 24.9324 43.2083C24.2387 43.2083 23.7068 42.5723 22.9668 41.8786C22.0418 41.0114 21.984 40.0864 22.0418 39.1036C22.0996 38.1208 22.0996 37.1958 23.8918 35.4036C25.3256 33.9699 27.9965 33.1104 29.1527 32.8598C30.4437 32.7442 33.419 32.7211 34.9917 33.5536C36.5644 34.3861 37.8439 35.7891 38.287 36.3865C38.865 37.1188 40.021 39.1152 40.021 41.2426C39.9055 41.7629 39.5241 43.2198 38.9229 44.8848C38.3216 46.5498 36.7837 47.5441 36.0899 47.8332C35.7045 48.0066 34.552 48.5617 33.0258 49.3942C31.4996 50.2267 27.8807 50.8202 26.2621 51.0129C25.0673 51.3598 22.1574 52.6779 20.0762 55.1755Z" fill="#12BB9D"/>
<path d="M41.8714 52.0535C40.5765 50.5967 38.634 50.0976 37.8246 50.0301C38.8074 49.8856 41.1256 49.6832 42.5362 50.0301C42.9794 50.1554 43.9583 50.5099 44.3283 50.9262C44.6983 51.3424 44.4825 51.986 44.3283 52.2558C44.0489 52.7954 43.1663 53.5104 41.8714 52.0535Z" fill="#12BB9D"/>
<path d="M42.5071 45.6075C41.8363 46.6944 39.3948 48.0839 38.258 48.6428C38.0557 48.6428 39.1873 47.3678 39.8479 46.1567C40.4411 45.0691 40.1613 44.4383 40.7151 43.9309C41.062 43.6131 40.9637 43.6131 41.7269 43.6131C42.2664 43.8251 43.1779 44.5207 42.5071 45.6075Z" fill="#12BB9D"/>
<path d="M45.6737 48.8858C45.3172 49.2075 44.5615 49.5607 43.3454 49.3363C41.904 49.0702 40.5424 49.084 39.9743 49.1281C40.5295 48.7543 41.7384 47.8852 42.1315 47.3996C42.4535 47.0018 42.9008 46.6158 43.1845 46.3938C43.2901 46.3111 43.4067 46.2435 43.5332 46.1989C43.8882 46.0736 44.4448 45.945 44.7908 46.0988C45.3111 46.3301 45.658 46.359 46.1785 47.3996C46.3647 47.8225 46.2217 48.2093 46.0484 48.4582C45.9403 48.6133 45.8141 48.7592 45.6737 48.8858Z" fill="#12BB9D"/>
<path d="M25.337 67.9621C26.2661 68.2162 27.1571 68.3324 27.823 68.3566C27.6996 68.3402 27.0296 68.2383 25.337 67.9621C24.346 67.6911 23.3118 67.2633 22.4612 66.6228C21.9381 66.1882 21.4794 65.6715 21.1034 65.0994C20.8956 64.7232 20.741 64.3071 20.654 63.8475C19.8448 59.5693 20.8854 57.7193 21.2323 56.9099C21.5792 56.1006 24.0073 53.6724 26.6666 52.9787C27.3208 52.808 28.0283 52.7642 28.7257 52.7987C31.3344 52.9281 34.293 54.3401 34.7602 56.9099C35.1161 58.8675 32.8554 60.1559 30.9054 60.5513C30.5018 60.6332 30.1392 60.6914 29.8747 60.7256C29.1908 60.9087 27.823 61.7895 27.823 63.8475C27.823 64.6016 28.2188 65.1459 28.7929 65.5324C30.781 66.8708 33.6122 66.554 35.6848 65.3505C36.5809 64.8302 37.4483 64.1943 37.9686 63.356C38.4889 62.5177 38.9804 61.0724 38.9804 59.7428C38.9804 58.4131 39.0095 57.3725 38.489 56.303C38.0727 55.4473 37.3715 54.6553 37.0729 54.3663C35.6933 53.159 34.1618 52.0963 32.4077 51.5633C32.1181 51.4754 31.8449 51.4038 31.6097 51.36C30.3668 51.1288 27.4384 51.6369 26.8113 51.7936C26.002 51.9958 24.9035 52.2849 24.0942 52.9787C23.3426 53.6337 21.747 55.1404 21.377 55.9269C20.9145 56.91 20.7122 57.0831 20.1051 60.205C20.0474 60.502 20.0111 60.7943 19.9931 61.0802C19.9032 62.5007 20.327 63.9183 21.1034 65.0994C21.4383 65.7061 21.9114 66.2089 22.4612 66.6228C23.2842 67.3066 24.2665 67.7875 25.337 67.9621Z" fill="#12BB9D"/>
<path d="M36.9569 72.7504C40.2867 75.3405 40.734 80.69 40.5414 83.0409C40.5142 82.0544 40.3143 79.7482 39.7323 78.4157C39.0048 76.7501 38.8651 76.797 37.9401 75.1205C37.2001 73.7792 35.1266 72.9816 34.1823 72.7504C32.9298 72.5769 30.0546 72.4495 28.5746 73.3283C27.0946 74.207 27.3413 76.0069 27.6496 76.797C27.8616 77.2017 28.4474 78.092 29.0949 78.4157C29.5704 78.6535 30.1581 79.0721 30.5742 79.3921C30.8245 79.5847 31.0556 79.8025 31.2332 80.0635C31.5396 80.5137 31.8934 81.1991 31.9277 81.8844C31.9561 82.4533 31.7965 82.9347 31.6156 83.2749C31.4393 83.6063 31.1384 83.8449 30.8168 84.0385C30.2229 84.3959 29.2876 84.892 28.2855 85.2375C26.9443 85.7 25.4527 85.0448 24.8746 84.6594C23.0824 83.6766 19.7756 80.7282 20.8856 76.797C21.9956 72.8658 25.5491 71.1122 27.1871 70.7269C29.0563 70.3222 33.6272 70.1603 36.9569 72.7504Z" fill="#12BB9D"/>
<path d="M51.2947 40.2598C49.2599 36.7447 40.7344 33.0911 36.7259 31.7036V32.2818C37.3619 32.9177 38.9114 34.444 40.0213 35.4615C41.4088 36.7333 44.0104 40.2598 45.051 41.5895C46.0916 42.9193 48.3463 48.9316 48.6931 50.666C49.04 52.4004 49.4447 56.3316 49.4447 58.1816C49.4447 59.6615 48.9437 63.8471 48.6931 65.7549L47.2478 71.3049L42.9698 82.6938C42.064 84.3318 40.0907 87.9778 39.4432 89.4578C38.7957 90.9378 36.9766 95.6244 36.1479 97.7827C35.8011 99.5364 35.0958 103.448 35.0495 105.067C34.9917 107.09 35.8589 110.733 36.1479 111.947C36.437 113.161 38.6917 116.225 39.4432 117.265C40.1948 118.306 42.1026 119.636 43.8369 120.792C45.5713 121.948 48.3463 122.757 49.7916 123.104C51.2369 123.451 53.4337 124.029 54.7634 124.087C56.0931 124.145 57.9431 123.856 59.6774 123.104C61.4118 122.353 63.7821 119.636 64.3602 118.595C64.9383 117.554 65.4008 115.878 65.2274 114.259C65.0539 112.64 64.4758 111.715 63.2618 110.097C62.0477 108.478 58.4634 107.495 58.4634 107.553C58.4634 107.599 59.7738 108.42 60.429 108.825C60.9878 109.268 62.2443 110.363 62.7993 111.195C63.3543 112.028 63.6857 113.585 63.7821 114.259C63.7628 114.799 63.6317 116.074 63.2618 116.861C62.8918 117.647 62.1055 118.691 61.7586 119.115C61.3925 119.404 60.3943 120.144 59.3305 120.792C58.2668 121.439 55.8426 121.755 54.7634 121.833C52.9712 121.543 49.0053 120.699 47.4791 119.636C45.9529 118.572 44.4151 116.687 43.8369 115.878C43.9718 115.993 44.5191 116.433 45.6291 117.265C48.0803 119.023 50.5046 119.578 51.4103 119.636C52.4316 119.636 54.8906 119.347 56.5556 118.19C58.6368 116.745 58.4634 114.895 58.4634 113.334C58.4634 111.773 55.8618 110.154 56.5556 110.733C57.1106 111.195 57.7118 112.12 57.9431 112.525C58.1936 113.854 58.024 116.791 55.3415 117.901C52.659 119.011 49.9843 118.364 48.9822 117.901C47.9994 117.439 45.6754 116.132 44.2416 114.606C42.8079 113.08 41.4859 110.386 41.0042 109.229C40.6958 107.842 40.2642 104.662 41.0042 103.044C43.6057 98.1296 48.4619 95.8749 48.9822 95.8749C49.5025 95.8749 53.3181 95.3546 57.3649 95.8749C60.6024 96.2912 63.1076 95.7015 63.9555 95.3546C65.2081 94.6031 67.8289 92.8109 68.2914 91.6547C69.0776 91.0997 68.619 89.3422 68.2914 88.5328L67.3086 86.7407L66.9039 85.0063C67.1737 84.9099 67.8289 84.6479 68.2914 84.3704C68.8695 84.0235 69.332 82.2313 69.332 81.711C69.332 81.1907 68.6383 80.6704 68.2914 80.5548C68.0139 80.4623 67.2508 79.861 66.9039 79.572H67.7133C67.9831 79.36 68.6151 78.7742 68.9851 78.1267C69.3551 77.4792 68.2914 76.3538 67.7133 75.872C67.193 75.6408 66.1523 75.0395 66.1523 74.4845V73.3861C66.1523 73.0623 66.6534 72.2491 66.9039 71.883C67.8481 71.0543 69.7942 69.3508 70.0257 69.1658C70.3151 68.9346 70.7771 68.2408 70.8349 67.7783C70.8811 67.4083 70.1218 66.6606 69.7363 66.333L61.7004 61.0143C61.0259 60.4748 59.6771 59.3378 59.6771 59.1065V57.6034C59.6771 57.3259 60.0625 56.6399 60.2552 56.3316L62.7987 53.9035C62.3555 54.1925 61.5154 54.7013 61.7004 54.4238C61.8854 54.1463 62.0087 53.4988 62.0472 53.2097C61.3535 53.9613 59.7694 55.4644 58.9833 55.4644C58.9833 55.2331 58.9256 52.8243 58.0006 50.666C57.0756 48.5077 54.4394 43.4048 51.2947 40.2598Z" fill="#12BB9D"/>
</g>
<defs>
<clipPath id="clip0">
<rect width="155.745" height="155.745" fill="white" transform="translate(0.463867 0.0263672)"/>
</clipPath>
</defs>
</svg>
