<svg width="120" height="147" viewBox="0 0 120 147" fill="none" xmlns="http://www.w3.org/2000/svg">
<path d="M80.5352 37.2735C83.8194 41.2146 82.5729 46.457 81.5391 48.5856C81.9951 47.7949 82.9891 45.1097 83.3175 40.6943C83.2719 38.6874 82.3596 35.9962 80.307 33.8524C78.2544 31.7085 76.9773 30.477 75.3808 29.291C74.1036 28.3423 70.7435 26.8887 69.223 26.2806C66.7143 25.4291 61.2316 23.4708 59.3706 22.4491C57.5096 21.4273 56.4057 20.138 56.0864 19.6211C55.8129 19.0889 55.3751 17.6779 55.8128 16.2913C56.2504 14.9047 56.9378 14.0715 57.2268 13.8282C57.6069 13.4025 58.7139 12.5236 60.1009 12.4142C61.8347 12.2773 63.0653 12.5054 64.2512 13.144C65.2 13.6549 66.3494 15.2118 66.8055 15.9264C67.2161 16.641 68.3655 18.1341 69.6792 18.3895C69.6792 18.3895 71.1936 18.7544 72.8721 18.3895C73.9668 18.3895 74.8061 17.386 75.9738 16.2913C77.4334 14.9229 77.5246 13.4633 77.4334 11.9124C77.3422 10.3616 77.3422 8.90196 74.5142 6.07394C72.2517 3.81153 68.0371 2.45518 66.2126 2.05981C64.1753 1.87739 59.4805 1.84095 56.9987 3.15461C54.517 4.46827 52.498 6.68217 51.7988 7.62491C50.8867 8.78045 49.0625 11.9308 49.0625 15.2877C49.2448 16.1088 49.8467 18.4078 50.7954 21.0351C51.7442 23.6624 54.1709 25.2314 55.2657 25.6875C55.8739 25.9613 57.6925 26.8371 60.1009 28.1508C62.5093 29.4645 68.2197 30.4011 70.7739 30.7052C72.6593 31.2525 77.251 33.3325 80.5352 37.2735Z" fill="white"/>
<path d="M46.1427 32.3472C48.186 30.0483 51.2512 29.2607 52.5284 29.1543C50.9776 28.9262 47.3196 28.6069 45.0937 29.1543C44.3943 29.3519 42.8496 29.9114 42.2657 30.5682C41.6819 31.2251 42.0225 32.2407 42.2657 32.6664C42.7067 33.5179 44.0994 34.6461 46.1427 32.3472Z" fill="white"/>
<path d="M45.1395 22.1755C46.1981 23.8905 50.0507 26.0831 51.8446 26.9651C52.1637 26.9651 50.3781 24.9531 49.3357 23.042C48.3996 21.3259 48.8412 20.3305 47.9673 19.5298C47.4199 19.0283 47.575 19.0283 46.3707 19.0283C45.5193 19.3628 44.081 20.4606 45.1395 22.1755Z" fill="white"/>
<path d="M40.1427 27.3486C40.7053 27.8562 41.8977 28.4136 43.8167 28.0594C46.0912 27.6395 48.2398 27.6614 49.1363 27.7309C48.2601 27.141 46.3526 25.7697 45.7323 25.0033C45.2242 24.3757 44.5183 23.7665 44.0707 23.4162C43.9039 23.2857 43.7201 23.1791 43.5204 23.1087C42.9601 22.911 42.0819 22.708 41.5358 22.9507C40.7148 23.3156 40.1674 23.3613 39.3462 25.0033C39.0523 25.6707 39.278 26.2811 39.5514 26.6738C39.7219 26.9186 39.9212 27.1487 40.1427 27.3486Z" fill="white"/>
<path d="M72.2337 57.4507C70.7676 57.8517 69.3616 58.035 68.3108 58.0732C68.5055 58.0473 69.5628 57.8865 72.2337 57.4507C73.7974 57.0231 75.4294 56.3479 76.7716 55.3373C77.5971 54.6514 78.321 53.8362 78.9143 52.9334C79.2421 52.3398 79.4861 51.6832 79.6233 50.9579C80.9003 44.207 79.2582 41.2877 78.7108 40.0105C78.1635 38.7334 74.332 34.9018 70.1356 33.807C69.1032 33.5377 67.9869 33.4686 66.8863 33.5231C62.7698 33.7273 58.1013 35.9554 57.364 40.0105C56.8024 43.0995 60.3698 45.1326 63.4468 45.7566C64.0837 45.8857 64.6559 45.9777 65.0732 46.0315C66.1524 46.3205 68.3108 47.7104 68.3108 50.9579C68.3108 52.1479 67.6862 53.0068 66.7803 53.6166C63.6432 55.7287 59.1755 55.2286 55.905 53.3296C54.491 52.5086 53.1223 51.5051 52.3013 50.1823C51.4802 48.8595 50.7046 46.5789 50.7046 44.4807C50.7046 42.3825 50.6587 40.7404 51.48 39.0527C52.137 37.7026 53.2435 36.4528 53.7146 35.9966C55.8917 34.0917 58.3083 32.4147 61.0762 31.5737C61.5332 31.4348 61.9643 31.3219 62.3354 31.2529C64.2968 30.888 68.9177 31.6898 69.9072 31.937C71.1844 32.2561 72.9177 32.7122 74.1949 33.807C75.3808 34.8407 77.8987 37.2183 78.4825 38.4593C79.2123 40.0105 79.5316 40.2838 80.4895 45.21C80.5806 45.6787 80.6378 46.14 80.6663 46.5911C80.8081 48.8327 80.1393 51.0696 78.9143 52.9334C78.3857 53.8907 77.6392 54.6841 76.7716 55.3373C75.473 56.4163 73.9228 57.1751 72.2337 57.4507Z" fill="white"/>
<path d="M53.8976 65.0065C48.6433 69.0936 47.9375 77.535 48.2414 81.2448C48.2843 79.6881 48.5997 76.049 49.5181 73.9463C50.6662 71.318 50.8865 71.392 52.3462 68.7464C53.5139 66.63 56.7858 65.3713 58.2759 65.0065C60.2524 64.7327 64.7894 64.5318 67.1248 65.9184C69.4602 67.3051 69.071 70.1452 68.5844 71.392C68.25 72.0306 67.3255 73.4355 66.3038 73.9463C65.5535 74.3215 64.626 74.982 63.9695 75.4871C63.5745 75.7909 63.2099 76.1346 62.9295 76.5465C62.446 77.2569 61.8878 78.3384 61.8337 79.4199C61.7888 80.3176 62.0407 81.0773 62.3262 81.614C62.6043 82.137 63.0792 82.5135 63.5867 82.8189C64.5238 83.3829 65.9998 84.1658 67.581 84.711C69.6974 85.4408 72.0511 84.4069 72.9633 83.7988C75.7913 82.2479 81.0095 77.5954 79.2579 71.392C77.5064 65.1886 71.899 62.4215 69.3143 61.8134C66.3647 61.1748 59.1519 60.9194 53.8976 65.0065Z" fill="white"/>
<path d="M31.2729 13.7368C34.4837 8.19015 47.9369 2.42473 54.2621 0.235352V1.14772C53.2586 2.15121 50.8136 4.55959 49.062 6.16517C46.8726 8.17215 42.7674 13.7368 41.1253 15.8352C39.4833 17.9335 35.9254 27.4209 35.3781 30.1577C34.8307 32.8945 34.1921 39.0979 34.1921 42.0171C34.1921 44.3525 34.9828 50.9573 35.3781 53.9678L37.6587 62.7255L44.4095 80.6971C45.8387 83.2818 48.9525 89.0352 49.9743 91.3706C50.996 93.706 53.8666 101.101 55.1742 104.507C55.7215 107.274 56.8345 113.447 56.9075 116.002C56.9987 119.195 55.6303 124.942 55.1742 126.858C54.718 128.773 51.1602 133.608 49.9743 135.25C48.7883 136.892 45.7779 138.991 43.0411 140.815C40.3043 142.64 35.9254 143.917 33.6448 144.464C31.3641 145.012 27.8975 145.924 25.7993 146.015C23.7011 146.106 20.7819 145.65 18.0451 144.464C15.3083 143.278 11.568 138.991 10.6557 137.349C9.74347 135.707 9.01366 133.061 9.28734 130.507C9.56102 127.952 10.4733 126.493 12.389 123.938C14.3048 121.384 19.9608 119.833 19.9608 119.924C19.9608 119.997 17.893 121.293 16.8591 121.931C15.9773 122.631 13.9946 124.358 13.1188 125.672C12.2431 126.985 11.72 129.442 11.568 130.507C11.5984 131.358 11.8052 133.371 12.389 134.612C12.9729 135.853 14.2136 137.501 14.7609 138.17C15.3387 138.626 16.9139 139.793 18.5924 140.815C20.271 141.837 24.0964 142.336 25.7993 142.457C28.6273 142.001 34.8854 140.669 37.2938 138.991C39.7022 137.312 42.1288 134.338 43.0411 133.061C42.8282 133.243 41.9646 133.937 40.2131 135.25C36.3451 138.024 32.5196 138.899 31.0904 138.991C29.4788 138.991 25.5986 138.535 22.9713 136.71C19.6871 134.429 19.9608 131.51 19.9608 129.047C19.9608 126.584 24.066 124.03 22.9713 124.942C22.0955 125.672 21.1468 127.131 20.7819 127.77C20.3865 129.868 20.6541 134.502 24.887 136.254C29.1199 138.005 33.3407 136.984 34.9219 136.254C36.4728 135.524 40.1401 133.462 42.4025 131.054C44.6649 128.646 46.7509 124.394 47.5112 122.57C47.9977 120.381 48.6789 115.363 47.5112 112.809C43.406 105.055 35.743 101.497 34.9219 101.497C34.1009 101.497 28.08 100.676 21.6941 101.497C16.5854 102.154 12.6323 101.223 11.2943 100.676C9.31775 99.4897 5.18215 96.6617 4.45234 94.8372C3.21167 93.9614 3.93539 91.1881 4.45234 89.9109L6.00319 87.0829L6.64178 84.3461C6.21605 84.1941 5.18215 83.7805 4.45234 83.3426C3.54008 82.7953 2.81027 79.9673 2.81027 79.1462C2.81027 78.3252 3.90499 77.5042 4.45234 77.3217C4.89023 77.1757 6.09442 76.227 6.64178 75.7709H5.36461C4.93888 75.4364 3.94148 74.5119 3.35763 73.4902C2.77378 72.4685 4.45234 70.6926 5.36461 69.9324C6.18564 69.5675 7.82772 68.6187 7.82772 67.7429V66.0096C7.82772 65.4988 7.03709 64.2155 6.64178 63.6378C5.15193 62.3302 2.08089 59.642 1.71555 59.3501C1.25888 58.9852 0.529961 57.8905 0.438735 57.1607C0.365754 56.5768 1.56399 55.397 2.17222 54.88L14.8529 46.4872C15.9171 45.6358 18.0456 43.8416 18.0456 43.4767V41.1049C18.0456 40.667 17.4374 39.5844 17.1333 39.0979L13.1197 35.2664C13.819 35.7225 15.1448 36.5253 14.8529 36.0874C14.561 35.6495 14.3663 34.6278 14.3055 34.1716C15.4003 35.3576 17.8999 37.7295 19.1404 37.7295C19.1404 37.3646 19.2314 33.5635 20.691 30.1577C22.1507 26.7519 26.3105 18.6996 31.2729 13.7368Z" fill="white"/>
<path d="M95.2168 16.2086C91.1908 10.1872 85.3691 6.75992 83.3174 5.52197C85.9727 5.85504 92.6859 7.65327 98.2963 12.1817C105.309 17.8422 107.538 21.5017 109.47 25.7195C113.223 33.9133 114.806 35.9507 115.978 47.1307C116.588 52.9504 116.2 57.0882 114.071 62.3375C112.367 66.537 108.199 70.0596 106.464 70.2097C98.0441 72.8312 93.2022 70.3851 91.484 66.4919C89.4799 61.9512 87.2779 58.9768 90.7661 51.6912C94.2543 44.4057 95.613 42.3696 97.5167 35.9886C99.4204 29.6076 99.3762 27.0277 95.2168 16.2086Z" fill="white"/>
<path d="M107.681 96.2489C111.707 102.27 117.528 105.698 119.58 106.936C116.925 106.602 110.212 104.804 104.601 100.276C97.5881 94.6154 95.3594 90.9559 93.4275 86.7381C89.6743 78.5442 88.0911 76.5068 86.9191 65.3269C86.309 59.5072 86.697 55.3694 88.8265 50.12C90.5301 45.9205 94.6987 42.398 96.4337 42.2478C104.853 39.6263 109.695 42.0725 111.414 45.9656C113.418 50.5063 115.62 53.4807 112.131 60.7663C108.643 68.0518 107.284 70.088 105.381 76.4689C103.477 82.8499 103.521 85.4298 107.681 96.2489Z" fill="white"/>
</svg>
