<svg width="239" height="136" viewBox="0 0 239 136" fill="none" xmlns="http://www.w3.org/2000/svg">
<g clip-path="url(#clip0_302_19)">
<g clip-path="url(#clip1_302_19)">
<path d="M143.187 62.572C143.187 95.7213 116.314 122.594 83.1648 122.594C50.0156 122.594 23.1428 95.7213 23.1428 62.572C23.1428 29.4228 50.0156 2.55 83.1648 2.55C116.314 2.55 143.187 29.4228 143.187 62.572Z" fill="white" stroke="white" stroke-width="5.1"/>
<mask id="mask0_302_19" style="mask-type:alpha" maskUnits="userSpaceOnUse" x="0" y="8" width="168" height="129">
<path d="M167.086 8.00977H0V136.238H167.086V8.00977Z" fill="white"/>
<path fill-rule="evenodd" clip-rule="evenodd" d="M41.1394 14.3407C35.9026 16.1742 32.2018 19.6495 30.0758 24.7309C29.3557 26.4517 29.0814 29.6321 29.6089 30.1452C30.0515 30.5758 32.9411 29.9572 34.86 29.0215C35.7637 28.5807 37.3411 27.4068 38.3655 26.4126C39.9369 24.8879 40.3745 24.2199 41.1603 22.1469C42.0614 19.771 43.4214 14.3792 43.2464 13.8786C43.199 13.7436 42.2511 13.9517 41.1394 14.3407ZM123.148 14.5678C123.151 15.7545 124.293 20.1063 125.255 22.6019C126.006 24.5492 126.486 25.278 127.915 26.6413C129.982 28.6123 132.853 30.1433 134.95 30.3916C136.727 30.6022 136.992 30.3498 136.999 28.4384C137.008 25.8772 134.783 21.2971 132.411 18.9958C130.283 16.9303 126.996 15.0474 123.823 14.0768C123.256 13.9032 123.146 13.9828 123.148 14.5678ZM21.9731 18.8063C20.8903 20.3799 19.7201 23.1385 19.2096 25.3205C18.1169 29.9906 20.0936 37.6915 22.5882 38.4834C23.8032 38.8691 25.9858 35.7055 26.9165 32.2101C27.559 29.7961 27.4477 27.5432 26.5522 24.8653C25.7177 22.3688 23.6463 17.9971 23.1534 17.6925C22.9935 17.5937 22.4623 18.095 21.9731 18.8063ZM141.795 20.2915C140.368 23.1271 139.241 26.2459 138.959 28.1422C138.542 30.948 140.368 36.1901 142.462 38.1955C143.542 39.2302 143.948 39.061 145.356 36.9874C146.836 34.8065 147.778 30.5266 147.429 27.5622C147.039 24.2395 144.565 18.2884 143.414 17.9049C143.212 17.8374 142.509 18.8735 141.795 20.2915ZM37.3949 30.1726C33.38 31.2253 30.1379 33.2521 27.8949 36.1116C25.9285 38.6188 24.8949 40.8257 24.7049 42.9228L24.5429 44.7093L26.7721 44.5892C29.3289 44.4515 31.6429 43.5247 34.1414 41.6386C35.3327 40.7391 35.9778 39.9108 36.9638 38.0156C38.1645 35.7082 39.9973 30.8474 39.9973 29.971C39.9973 29.4851 40.0271 29.4827 37.3949 30.1726ZM126.158 29.9422C126.158 30.0069 126.621 31.4339 127.186 33.1131C128.548 37.1549 130.185 40.2063 131.702 41.5281C133.692 43.2621 136.994 44.697 139.388 44.8684C141.417 45.0135 141.441 45.0063 141.644 44.1958C141.886 43.2308 141.193 40.632 140.257 38.9959C139.519 37.7059 137.205 34.8126 136.271 34.0125C135.22 33.111 132.061 31.4126 130.329 30.8163C128.682 30.25 126.158 29.7207 126.158 29.9422ZM13.6371 35.6764C12.0245 39.6689 11.5756 43.808 12.4038 47.0489C13.1428 49.942 14.5515 52.7331 15.9376 54.0517C17.6593 55.6897 18.2112 55.5223 19.4901 52.9748C20.433 51.096 20.5346 50.6319 20.6578 47.6403L20.7928 44.3635L19.5461 41.8651C18.304 39.3761 14.8744 34.396 14.4023 34.396C14.2659 34.396 13.9215 34.9719 13.6371 35.6764ZM149.852 37.0319C148.897 38.3159 147.547 40.5098 146.852 41.9069C145.611 44.4035 145.59 44.4993 145.618 47.4804C145.647 50.7009 146.29 53.0634 147.582 54.7061C148.384 55.7263 148.705 55.6907 150.192 54.4172C152.654 52.3095 154.676 46.5404 154.304 42.6806C153.983 39.3408 152.552 34.6974 151.845 34.6974C151.704 34.6974 150.807 35.7477 149.852 37.0319ZM29.905 46.5031C28.169 47.4143 25.4626 49.5536 24.166 51.0395C21.5048 54.0882 19.61 60.0882 20.3978 62.9704C20.7541 64.2742 20.7611 64.2797 21.8658 64.0747C24.5784 63.5719 28.6919 60.2764 29.986 57.5698C30.7789 55.9112 31.4707 52.282 31.6893 48.6306C31.877 45.5053 31.855 45.4794 29.905 46.5031ZM134.595 48.023C134.597 51.0955 135.39 55.6445 136.253 57.5316C137.567 60.4029 141.51 63.6543 144.554 64.3761C146.742 64.8948 146.545 59.2096 144.21 54.49C142.626 51.2868 139.635 48.3887 136.029 46.5612L134.594 45.8336L134.595 48.023ZM7.46096 54.7438C7.46096 57.409 8.22919 60.9702 9.28179 63.1861C10.9887 66.7786 15.5727 70.839 17.9298 70.846C18.4682 70.8475 18.9089 70.7991 18.9089 70.7389C18.9089 70.6791 19.0442 69.9159 19.2099 69.0432C19.5696 67.1452 19.2081 64.4685 18.2455 61.9063C17.7542 60.5986 17.0857 59.6565 15.6119 58.1939C13.7805 56.3763 8.59099 52.7729 7.805 52.7729C7.58206 52.7729 7.46096 53.4677 7.46096 54.7438ZM155.21 54.8603C150.163 58.1634 148.409 60.236 147.407 64.0807C146.935 65.8934 146.841 68.8973 147.214 70.2462C147.728 72.1077 150.968 70.7562 154.144 67.3558C156.43 64.9072 157.447 63.0631 158.206 59.9838C158.804 57.5644 158.876 53.0743 158.317 53.0743C158.11 53.0743 156.712 53.878 155.21 54.8603ZM29.6955 61.6244C28.0995 62.9245 26.261 65.1272 24.9785 67.275C23.3772 69.9573 22.6033 76.2434 23.5849 78.5925C24.3941 80.5292 24.5275 80.5841 26.2021 79.6726C28.1005 78.6393 30.2496 76.2949 31.4084 73.9936C32.2205 72.38 32.3194 71.8685 32.4138 68.784C32.5197 65.3469 32.0108 60.3044 31.5584 60.3044C31.4251 60.3044 30.5867 60.8985 29.6955 61.6244ZM134.483 60.8268C134.052 62.31 133.627 67.5829 133.762 69.7566C133.886 71.7439 134.105 72.5978 134.886 74.1453C136.651 77.6415 140.774 81.1843 141.945 80.2115C142.544 79.7147 143.333 77.1173 143.32 75.6893C143.298 73.5257 142.435 69.7949 141.531 67.9575C140.621 66.1089 137.211 62.1278 135.488 60.9001C134.691 60.3328 134.627 60.3283 134.483 60.8268ZM5.87512 70.7273C5.58259 71.0198 6.72889 73.6713 8.05806 75.7756C9.79604 78.5274 12.1272 80.6003 15.0609 82.0032C18.1003 83.4561 20.3263 83.9313 21.9935 83.4823C23.1633 83.1672 23.1827 83.1398 22.9946 82.051C22.6074 79.8097 20.8171 76.7359 18.8002 74.849C17.1387 73.2949 16.5428 72.9485 14.3553 72.2652C12.9659 71.8314 10.9481 71.3334 9.87106 71.1586C8.79405 70.9839 7.49652 70.7733 6.98737 70.6907C6.47856 70.608 5.97815 70.6245 5.87512 70.7273ZM156.586 71.3198C155.343 71.5431 153.174 72.095 151.765 72.5465C149.448 73.2895 149.017 73.5555 147.225 75.3468C145.044 77.5259 143.645 80.0133 143.406 82.1351C143.264 83.3892 143.305 83.4839 144.073 83.6766C147.961 84.6525 154.68 81.2245 157.834 76.6557C158.818 75.2304 160.501 71.8036 160.502 71.2252C160.502 70.763 159.558 70.7857 156.586 71.3198ZM32.6619 77.4795C30.7367 79.5587 28.6957 83.4405 28.2462 85.8775C27.56 89.5974 28.1463 93.9057 29.5842 95.7087L30.2644 96.5622L31.3893 95.8669C32.802 94.9939 34.7279 92.5914 35.7473 90.4307C36.4505 88.9406 36.5282 88.4245 36.5187 85.3092C36.5101 82.4442 36.3595 81.3102 35.6492 78.7567C35.1765 77.0586 34.6885 75.6689 34.564 75.6689C34.4398 75.6689 33.584 76.4837 32.6619 77.4795ZM131.136 77.3302C130.047 81.044 129.413 84.827 129.559 86.7372C129.809 89.9985 132.038 93.9675 134.703 95.8979C136.067 96.8865 136.378 96.7662 137.34 94.8803C138.124 93.3433 138.44 90.5139 138.174 87.4146C137.991 85.28 137.752 84.4846 136.593 82.1505C135.725 80.4029 134.579 78.6947 133.446 77.4637L131.665 75.5269L131.136 77.3302ZM8.8787 84.6064C8.56962 85.1065 10.5709 88.1213 12.7002 90.3629C15.8912 93.7223 19.9482 95.5284 24.3399 95.5449C26.859 95.5542 27.7165 95.0423 27.346 93.7513C26.5574 91.001 23.6433 87.5524 20.9445 86.1757C20.2853 85.8394 18.8457 85.3807 17.7457 85.1565C15.1398 84.6257 9.09862 84.2505 8.8787 84.6064ZM40.031 86.4389C37.9807 89.9194 37.4438 91.8731 37.4444 95.8534C37.445 98.6692 37.5732 99.6908 38.1295 101.31C38.8173 103.312 40.6006 105.795 41.3511 105.795C41.8588 105.795 43.319 103.956 44.2207 102.18C45.8972 98.8789 46.1428 95.5581 44.9683 92.0598C44.2553 89.9357 41.6509 84.4054 41.3636 84.4054C41.2897 84.4054 40.6902 85.3206 40.031 86.4389ZM123.061 88.2466C120.768 93.0555 120.245 95.2249 120.699 98.0557C121.1 100.561 122.684 104.037 123.999 105.295C124.856 106.116 124.922 106.13 125.639 105.66C126.051 105.391 126.794 104.396 127.291 103.449C129.504 99.2321 129.615 94.0584 127.597 89.2256C126.931 87.6326 125.21 84.7067 124.938 84.7067C124.834 84.7067 123.99 86.2998 123.061 88.2466ZM150.862 84.9235C148.28 85.2182 145.889 85.9804 144.357 86.9977C141.615 88.818 139.442 91.722 138.938 94.2393C138.769 95.0854 138.842 95.2026 139.73 95.5123C142.054 96.3224 146.134 95.5762 149.704 93.6879C151.762 92.5997 154.874 89.5691 156.194 87.3686C157.876 84.5649 157.952 84.6997 154.735 84.7549C153.185 84.7815 151.442 84.8573 150.862 84.9235ZM48.7787 93.7798C47.8778 96.1425 47.5842 100.501 48.1323 103.389C48.6433 106.083 50.4184 109.343 52.5193 111.444C54.9463 113.871 55.7141 113.956 56.6027 111.896C57.4063 110.033 57.6527 106.701 57.1743 104.165C56.6863 101.578 55.2529 99.3519 51.7573 95.7503C49.0917 93.0041 49.0779 92.9949 48.7787 93.7798ZM114.388 96.0794C110.009 100.702 108.867 103.086 108.865 107.603C108.865 109.998 109.576 112.69 110.386 113.363C110.769 113.681 111.086 113.623 112.214 113.024C114.885 111.607 117.851 106.445 118.285 102.458C118.643 99.1606 117.918 93.4433 117.141 93.4433C117 93.4433 115.761 94.6296 114.388 96.0794ZM19.2942 98.0864C18.0979 98.2845 17.045 98.5204 16.9546 98.6108C16.6359 98.93 19.2602 101.865 21.1019 103.25C23.6342 105.153 25.4352 106.02 27.9633 106.552C31.6436 107.326 34.9036 107.053 36.3939 105.846L37.0566 105.309L36.3838 103.971C35.4274 102.066 33.0306 99.9193 30.5057 98.7048C28.401 97.6926 28.2314 97.6619 24.9025 97.6935C23.0144 97.7112 20.4909 97.888 19.2942 98.0864ZM138.622 97.9469C136.656 98.2548 133.716 99.8165 132.121 101.401C130.93 102.584 129.171 105.056 129.171 105.547C129.171 106.061 131.708 107.035 133.476 107.199C136.111 107.444 139.945 106.617 142.557 105.24C144.717 104.101 149.355 99.9039 149.355 99.0887C149.355 98.331 141.504 97.4955 138.622 97.9469ZM59.8805 104.693C59.8805 106.109 61.8016 110.281 63.5331 112.624C66.1342 116.145 72.5983 119.439 75.254 118.596C75.8757 118.398 75.9132 118.25 75.7613 116.576C75.5637 114.395 74.2901 111.686 72.4751 109.585C70.8884 107.749 67.7019 106.18 63.2904 105.065C59.7039 104.157 59.8805 104.177 59.8805 104.693ZM102.509 105.377C98.2378 106.547 95.1345 108.188 93.6111 110.082C91.9861 112.102 90.6937 114.851 90.4392 116.828C90.2084 118.622 90.4116 118.85 92.2433 118.849C94.7016 118.848 98.8642 116.839 101.388 114.434C103.299 112.613 105.717 108.256 106.391 105.419C106.562 104.697 106.5 104.593 105.904 104.612C105.528 104.624 104 104.968 102.509 105.377ZM34.7252 108.068C32.5844 108.6 29.2287 109.675 28.4457 110.079C27.9188 110.351 27.9266 110.405 28.5963 111.136C29.6751 112.312 32.977 114.348 35.3277 115.287C37.1513 116.016 37.8647 116.132 40.5998 116.147C44.2951 116.167 46.74 115.561 48.1892 114.266L49.1369 113.42L48.3124 112.339C47.2017 110.882 45.8129 109.864 43.3985 108.734C40.9661 107.596 37.6482 107.341 34.7252 108.068ZM125.49 108.067C124.543 108.299 122.941 108.905 121.932 109.414C120.126 110.326 117.422 112.778 117.422 113.504C117.422 114.056 119.054 115.327 120.351 115.786C121.085 116.046 122.931 116.189 125.556 116.189H129.623L132.183 114.951C134.946 113.617 138.614 111.028 138.35 110.601C138.108 110.208 131.961 108.288 130.225 108.061C129.397 107.954 128.38 107.816 127.966 107.756C127.552 107.696 126.437 107.836 125.49 108.067ZM51.1262 116.022C48.789 116.731 41.9031 121.014 41.5907 121.952C41.4714 122.311 44.8811 123.647 47.2275 124.161C51.1618 125.024 56.294 124.085 59.612 121.896C61.3392 120.757 62.6382 119.22 62.4 118.6C62.1756 118.015 59.5712 116.709 57.6105 116.198C55.7514 115.714 52.4382 115.624 51.1262 116.022ZM108.609 116.352C107.203 116.7 104.707 117.947 104.204 118.553C103.9 118.92 103.918 119.183 104.297 119.917C105.179 121.621 107.807 123.165 111.6 124.206C114.655 125.045 118.035 124.875 121.573 123.705C125.455 122.423 125.444 122.462 122.525 120.332C121.145 119.326 118.992 117.985 117.74 117.353C115.63 116.287 115.254 116.198 112.601 116.138C111.027 116.102 109.231 116.198 108.609 116.352ZM67.0633 121.257C66.2918 121.476 64.8918 122.12 63.953 122.687C61.6499 124.08 57.1306 127.782 57.3331 128.11C57.7368 128.763 61.6796 129.673 64.7385 129.818C67.5121 129.95 68.2152 129.879 70.0104 129.289C74.0723 127.952 76.8652 126.079 77.6614 124.157C77.9942 123.353 77.9716 123.193 77.4706 122.811C75.4224 121.25 69.9671 120.435 67.0633 121.257ZM92.1137 121.57C90.574 122.016 89.4895 122.537 88.7376 123.193C88.2805 123.591 88.2696 123.736 88.6426 124.457C89.6855 126.474 92.6923 128.418 96.6077 129.607C98.4806 130.176 99.2525 130.253 101.571 130.103C104.26 129.93 108.194 129.001 108.797 128.398C109.294 127.902 104.55 124.046 101.314 122.317C99.6905 121.449 99.2251 121.347 96.4941 121.266C94.6315 121.211 92.9503 121.327 92.1137 121.57Z" fill="black"/>
</mask>
<g mask="url(#mask0_302_19)">
<path fill-rule="evenodd" clip-rule="evenodd" d="M41.1394 14.3412C35.9026 16.1746 32.2018 19.65 30.0758 24.7314C29.3557 26.4522 29.0814 29.6326 29.6089 30.1457C30.0515 30.5763 32.9411 29.9577 34.86 29.022C35.7637 28.5811 37.3411 27.4073 38.3655 26.4131C39.9369 24.8884 40.3745 24.2204 41.1603 22.1474C42.0614 19.7715 43.4214 14.3797 43.2464 13.879C43.199 13.7441 42.2511 13.9522 41.1394 14.3412ZM123.148 14.5683C123.151 15.755 124.293 20.1068 125.255 22.6024C126.006 24.5497 126.486 25.2785 127.915 26.6418C129.982 28.6128 132.853 30.1438 134.95 30.3921C136.727 30.6027 136.992 30.3503 136.999 28.4389C137.008 25.8777 134.783 21.2976 132.411 18.9963C130.283 16.9308 126.996 15.0479 123.823 14.0773C123.256 13.9037 123.146 13.9833 123.148 14.5683ZM21.9731 18.8068C20.8903 20.3803 19.7201 23.139 19.2096 25.321C18.1169 29.9911 20.0936 37.692 22.5882 38.4839C23.8032 38.8695 25.9858 35.706 26.9165 32.2106C27.559 29.7966 27.4477 27.5437 26.5522 24.8658C25.7177 22.3692 23.6463 17.9976 23.1534 17.693C22.9935 17.5942 22.4623 18.0955 21.9731 18.8068ZM141.795 20.2919C140.368 23.1275 139.241 26.2464 138.959 28.1426C138.542 30.9485 140.368 36.1905 142.462 38.196C143.542 39.2307 143.948 39.0615 145.356 36.9879C146.836 34.807 147.778 30.5271 147.429 27.5627C147.039 24.24 144.565 18.2889 143.414 17.9054C143.212 17.8379 142.509 18.874 141.795 20.2919ZM37.3949 30.1731C33.38 31.2258 30.1379 33.2526 27.8949 36.112C25.9285 38.6193 24.8949 40.8262 24.7049 42.9233L24.5429 44.7098L26.7721 44.5897C29.3289 44.452 31.6429 43.5252 34.1414 41.6391C35.3327 40.7395 35.9778 39.9113 36.9638 38.016C38.1645 35.7087 39.9973 30.8479 39.9973 29.9715C39.9973 29.4855 40.0271 29.4832 37.3949 30.1731ZM126.158 29.9427C126.158 30.0074 126.621 31.4344 127.186 33.1136C128.548 37.1554 130.185 40.2068 131.702 41.5285C133.692 43.2625 136.994 44.6975 139.388 44.8689C141.417 45.014 141.441 45.0068 141.644 44.1963C141.886 43.2313 141.193 40.6325 140.257 38.9964C139.519 37.7064 137.205 34.8131 136.271 34.013C135.22 33.1115 132.061 31.4131 130.329 30.8168C128.682 30.2504 126.158 29.7212 126.158 29.9427ZM13.6371 35.6768C12.0245 39.6694 11.5756 43.8085 12.4038 47.0494C13.1428 49.9425 14.5515 52.7336 15.9376 54.0522C17.6593 55.6902 18.2112 55.5227 19.4901 52.9753C20.433 51.0965 20.5346 50.6324 20.6578 47.6408L20.7928 44.3639L19.5461 41.8656C18.304 39.3766 14.8744 34.3965 14.4023 34.3965C14.2659 34.3965 13.9215 34.9724 13.6371 35.6768ZM149.852 37.0324C148.897 38.3164 147.547 40.5103 146.852 41.9074C145.611 44.404 145.59 44.4998 145.618 47.4809C145.647 50.7014 146.29 53.0639 147.582 54.7066C148.384 55.7267 148.705 55.6912 150.192 54.4176C152.654 52.31 154.676 46.5409 154.304 42.681C153.983 39.3413 152.552 34.6978 151.845 34.6978C151.704 34.6978 150.807 35.7482 149.852 37.0324ZM29.905 46.5036C28.169 47.4148 25.4626 49.5541 24.166 51.04C21.5048 54.0887 19.61 60.0887 20.3978 62.9709C20.7541 64.2747 20.7611 64.2802 21.8658 64.0752C24.5784 63.5724 28.6919 60.2769 29.986 57.5703C30.7789 55.9117 31.4707 52.2824 31.6893 48.631C31.877 45.5058 31.855 45.4799 29.905 46.5036ZM134.595 48.0235C134.597 51.0959 135.39 55.645 136.253 57.532C137.567 60.4034 141.51 63.6548 144.554 64.3765C146.742 64.8953 146.545 59.2101 144.21 54.4905C142.626 51.2873 139.635 48.3892 136.029 46.5617L134.594 45.8341L134.595 48.0235ZM7.46096 54.7442C7.46096 57.4095 8.22919 60.9707 9.28179 63.1865C10.9887 66.7791 15.5727 70.8395 17.9298 70.8464C18.4682 70.848 18.9089 70.7996 18.9089 70.7394C18.9089 70.6796 19.0442 69.9164 19.2099 69.0437C19.5696 67.1457 19.2081 64.469 18.2455 61.9068C17.7542 60.599 17.0857 59.657 15.6119 58.1944C13.7805 56.3768 8.59099 52.7734 7.805 52.7734C7.58206 52.7734 7.46096 53.4682 7.46096 54.7442ZM155.21 54.8608C150.163 58.1639 148.409 60.2365 147.407 64.0812C146.935 65.8939 146.841 68.8978 147.214 70.2467C147.728 72.1081 150.968 70.7567 154.144 67.3563C156.43 64.9077 157.447 63.0636 158.206 59.9843C158.804 57.5649 158.876 53.0747 158.317 53.0747C158.11 53.0747 156.712 53.8785 155.21 54.8608ZM29.6955 61.6249C28.0995 62.925 26.261 65.1277 24.9785 67.2755C23.3772 69.9578 22.6033 76.2439 23.5849 78.593C24.3941 80.5296 24.5275 80.5846 26.2021 79.673C28.1005 78.6398 30.2496 76.2954 31.4084 73.9941C32.2205 72.3805 32.3194 71.869 32.4138 68.7845C32.5197 65.3474 32.0108 60.3049 31.5584 60.3049C31.4251 60.3049 30.5867 60.899 29.6955 61.6249ZM134.483 60.8273C134.052 62.3105 133.627 67.5834 133.762 69.7571C133.886 71.7444 134.105 72.5983 134.886 74.1458C136.651 77.642 140.774 81.1848 141.945 80.212C142.544 79.7152 143.333 77.1178 143.32 75.6898C143.298 73.5262 142.435 69.7954 141.531 67.958C140.621 66.1094 137.211 62.1283 135.488 60.9006C134.691 60.3333 134.627 60.3288 134.483 60.8273ZM5.87512 70.7277C5.58259 71.0203 6.72889 73.6718 8.05806 75.7761C9.79604 78.5279 12.1272 80.6008 15.0609 82.0037C18.1003 83.4566 20.3263 83.9318 21.9935 83.4828C23.1633 83.1677 23.1827 83.1403 22.9946 82.0515C22.6074 79.8102 20.8171 76.7364 18.8002 74.8495C17.1387 73.2954 16.5428 72.949 14.3553 72.2657C12.9659 71.8319 10.9481 71.3339 9.87106 71.1591C8.79405 70.9844 7.49652 70.7738 6.98737 70.6912C6.47856 70.6085 5.97815 70.625 5.87512 70.7277ZM156.586 71.3203C155.343 71.5435 153.174 72.0955 151.765 72.547C149.448 73.29 149.017 73.556 147.225 75.3473C145.044 77.5264 143.645 80.0138 143.406 82.1356C143.264 83.3897 143.305 83.4843 144.073 83.6771C147.961 84.653 154.68 81.225 157.834 76.6562C158.818 75.2309 160.501 71.8041 160.502 71.2257C160.502 70.7635 159.558 70.7862 156.586 71.3203ZM32.6619 77.4799C30.7367 79.5592 28.6957 83.441 28.2462 85.8779C27.56 89.5979 28.1463 93.9062 29.5842 95.7092L30.2644 96.5627L31.3893 95.8673C32.802 94.9944 34.7279 92.5919 35.7473 90.4312C36.4505 88.9411 36.5282 88.425 36.5187 85.3097C36.5101 82.4447 36.3595 81.3107 35.6492 78.7572C35.1765 77.0591 34.6885 75.6694 34.564 75.6694C34.4398 75.6694 33.584 76.4842 32.6619 77.4799ZM131.136 77.3307C130.047 81.0445 129.413 84.8274 129.559 86.7377C129.809 89.9989 132.038 93.968 134.703 95.8984C136.067 96.887 136.378 96.7667 137.34 94.8808C138.124 93.3438 138.44 90.5144 138.174 87.4151C137.991 85.2805 137.752 84.4851 136.593 82.151C135.725 80.4034 134.579 78.6952 133.446 77.4642L131.665 75.5274L131.136 77.3307ZM8.8787 84.6069C8.56962 85.107 10.5709 88.1218 12.7002 90.3634C15.8912 93.7228 19.9482 95.5289 24.3399 95.5454C26.859 95.5547 27.7165 95.0428 27.346 93.7518C26.5574 91.0015 23.6433 87.5529 20.9445 86.1762C20.2853 85.8399 18.8457 85.3812 17.7457 85.1569C15.1398 84.6262 9.09862 84.251 8.8787 84.6069ZM40.031 86.4394C37.9807 89.9199 37.4438 91.8736 37.4444 95.8539C37.445 98.6697 37.5732 99.6913 38.1295 101.31C38.8173 103.313 40.6006 105.796 41.3511 105.796C41.8588 105.796 43.319 103.956 44.2207 102.18C45.8972 98.8793 46.1428 95.5586 44.9683 92.0603C44.2553 89.9362 41.6509 84.4058 41.3636 84.4058C41.2897 84.4058 40.6902 85.3211 40.031 86.4394ZM123.061 88.2471C120.768 93.056 120.245 95.2254 120.699 98.0562C121.1 100.562 122.684 104.037 123.999 105.295C124.856 106.116 124.922 106.131 125.639 105.661C126.051 105.391 126.794 104.396 127.291 103.45C129.504 99.2326 129.615 94.0589 127.597 89.2261C126.931 87.6331 125.21 84.7072 124.938 84.7072C124.834 84.7072 123.99 86.3003 123.061 88.2471ZM150.862 84.924C148.28 85.2187 145.889 85.9809 144.357 86.9982C141.615 88.8185 139.442 91.7225 138.938 94.2398C138.769 95.0859 138.842 95.2031 139.73 95.5128C142.054 96.3229 146.134 95.5767 149.704 93.6884C151.762 92.6002 154.874 89.5696 156.194 87.3691C157.876 84.5654 157.952 84.7002 154.735 84.7554C153.185 84.782 151.442 84.8577 150.862 84.924ZM48.7787 93.7803C47.8778 96.143 47.5842 100.501 48.1323 103.39C48.6433 106.084 50.4184 109.343 52.5193 111.444C54.9463 113.871 55.7141 113.956 56.6027 111.896C57.4063 110.034 57.6527 106.701 57.1743 104.165C56.6863 101.579 55.2529 99.3524 51.7573 95.7508C49.0917 93.0045 49.0779 92.9954 48.7787 93.7803ZM114.388 96.0799C110.009 100.702 108.867 103.086 108.865 107.603C108.865 109.998 109.576 112.691 110.386 113.364C110.769 113.682 111.086 113.623 112.214 113.025C114.885 111.607 117.851 106.445 118.285 102.458C118.643 99.1611 117.918 93.4438 117.141 93.4438C117 93.4438 115.761 94.6301 114.388 96.0799ZM19.2942 98.0869C18.0979 98.285 17.045 98.5209 16.9546 98.6112C16.6359 98.9305 19.2602 101.866 21.1019 103.25C23.6342 105.154 25.4352 106.02 27.9633 106.552C31.6436 107.326 34.9036 107.054 36.3939 105.846L37.0566 105.31L36.3838 103.971C35.4274 102.067 33.0306 99.9197 30.5057 98.7053C28.401 97.693 28.2314 97.6623 24.9025 97.694C23.0144 97.7117 20.4909 97.8885 19.2942 98.0869ZM138.622 97.9474C136.656 98.2553 133.716 99.817 132.121 101.401C130.93 102.584 129.171 105.056 129.171 105.547C129.171 106.061 131.708 107.035 133.476 107.2C136.111 107.445 139.945 106.617 142.557 105.24C144.717 104.102 149.355 99.9044 149.355 99.0892C149.355 98.3315 141.504 97.496 138.622 97.9474ZM59.8805 104.694C59.8805 106.11 61.8016 110.281 63.5331 112.624C66.1342 116.146 72.5983 119.439 75.254 118.596C75.8757 118.399 75.9132 118.25 75.7613 116.576C75.5637 114.395 74.2901 111.687 72.4751 109.586C70.8884 107.749 67.7019 106.181 63.2904 105.065C59.7039 104.158 59.8805 104.177 59.8805 104.694ZM102.509 105.377C98.2378 106.547 95.1345 108.188 93.6111 110.082C91.9861 112.102 90.6937 114.852 90.4392 116.828C90.2084 118.623 90.4116 118.85 92.2433 118.85C94.7016 118.849 98.8642 116.839 101.388 114.434C103.299 112.614 105.717 108.257 106.391 105.419C106.562 104.697 106.5 104.593 105.904 104.613C105.528 104.625 104 104.969 102.509 105.377ZM34.7252 108.068C32.5844 108.601 29.2287 109.675 28.4457 110.08C27.9188 110.351 27.9266 110.405 28.5963 111.136C29.6751 112.312 32.977 114.349 35.3277 115.288C37.1513 116.016 37.8647 116.132 40.5998 116.147C44.2951 116.167 46.74 115.561 48.1892 114.267L49.1369 113.42L48.3124 112.339C47.2017 110.883 45.8129 109.864 43.3985 108.734C40.9661 107.596 37.6482 107.341 34.7252 108.068ZM125.49 108.068C124.543 108.299 122.941 108.905 121.932 109.415C120.126 110.327 117.422 112.779 117.422 113.505C117.422 114.056 119.054 115.327 120.351 115.786C121.085 116.046 122.931 116.189 125.556 116.189H129.623L132.183 114.952C134.946 113.617 138.614 111.028 138.35 110.601C138.108 110.209 131.961 108.288 130.225 108.062C129.397 107.954 128.38 107.816 127.966 107.756C127.552 107.696 126.437 107.837 125.49 108.068ZM51.1262 116.023C48.789 116.732 41.9031 121.014 41.5907 121.953C41.4714 122.311 44.8811 123.647 47.2275 124.162C51.1618 125.024 56.294 124.086 59.612 121.896C61.3392 120.757 62.6382 119.221 62.4 118.6C62.1756 118.015 59.5712 116.71 57.6105 116.199C55.7514 115.715 52.4382 115.625 51.1262 116.023ZM108.609 116.352C107.203 116.7 104.707 117.948 104.204 118.554C103.9 118.92 103.918 119.183 104.297 119.917C105.179 121.622 107.807 123.165 111.6 124.207C114.655 125.045 118.035 124.875 121.573 123.706C125.455 122.423 125.444 122.462 122.525 120.333C121.145 119.326 118.992 117.985 117.74 117.353C115.63 116.288 115.254 116.199 112.601 116.138C111.027 116.102 109.231 116.198 108.609 116.352ZM67.0633 121.258C66.2918 121.477 64.8918 122.12 63.953 122.688C61.6499 124.081 57.1306 127.783 57.3331 128.111C57.7368 128.764 61.6796 129.673 64.7385 129.819C67.5121 129.951 68.2152 129.88 70.0104 129.289C74.0723 127.953 76.8652 126.08 77.6614 124.157C77.9942 123.353 77.9716 123.194 77.4706 122.812C75.4224 121.25 69.9671 120.436 67.0633 121.258ZM92.1137 121.57C90.574 122.017 89.4895 122.538 88.7376 123.193C88.2805 123.592 88.2696 123.736 88.6426 124.458C89.6855 126.474 92.6923 128.419 96.6077 129.608C98.4806 130.177 99.2525 130.254 101.571 130.104C104.26 129.93 108.194 129.002 108.797 128.399C109.294 127.902 104.55 124.047 101.314 122.317C99.6905 121.449 99.2251 121.348 96.4941 121.267C94.6315 121.211 92.9503 121.328 92.1137 121.57Z" fill="black"/>
<mask id="path-5-outside-1_302_19" maskUnits="userSpaceOnUse" x="1.8291" y="9.83789" width="163" height="125" fill="black">
<rect fill="white" x="1.8291" y="9.83789" width="163" height="125"/>
<path fill-rule="evenodd" clip-rule="evenodd" d="M41.1394 14.3412C35.9026 16.1746 32.2018 19.65 30.0758 24.7314C29.3557 26.4522 29.0814 29.6326 29.6089 30.1457C30.0515 30.5763 32.9411 29.9577 34.86 29.022C35.7637 28.5811 37.3411 27.4073 38.3655 26.4131C39.9369 24.8884 40.3745 24.2204 41.1603 22.1474C42.0614 19.7715 43.4214 14.3797 43.2464 13.879C43.199 13.7441 42.2511 13.9522 41.1394 14.3412ZM123.148 14.5683C123.151 15.755 124.293 20.1068 125.255 22.6024C126.006 24.5497 126.486 25.2785 127.915 26.6418C129.982 28.6128 132.853 30.1438 134.95 30.3921C136.727 30.6027 136.992 30.3503 136.999 28.4389C137.008 25.8777 134.783 21.2976 132.411 18.9963C130.283 16.9308 126.996 15.0479 123.823 14.0773C123.256 13.9037 123.146 13.9833 123.148 14.5683ZM21.9731 18.8068C20.8903 20.3803 19.7201 23.139 19.2096 25.321C18.1169 29.9911 20.0936 37.692 22.5882 38.4839C23.8032 38.8695 25.9858 35.706 26.9165 32.2106C27.559 29.7966 27.4477 27.5437 26.5522 24.8658C25.7177 22.3692 23.6463 17.9976 23.1534 17.693C22.9935 17.5942 22.4623 18.0955 21.9731 18.8068ZM141.795 20.2919C140.368 23.1275 139.241 26.2464 138.959 28.1426C138.542 30.9485 140.368 36.1905 142.462 38.196C143.542 39.2307 143.948 39.0615 145.356 36.9879C146.836 34.807 147.778 30.5271 147.429 27.5627C147.039 24.24 144.565 18.2889 143.414 17.9054C143.212 17.8379 142.509 18.874 141.795 20.2919ZM37.3949 30.1731C33.38 31.2258 30.1379 33.2526 27.8949 36.112C25.9285 38.6193 24.8949 40.8262 24.7049 42.9233L24.5429 44.7098L26.7721 44.5897C29.3289 44.452 31.6429 43.5252 34.1414 41.6391C35.3327 40.7395 35.9778 39.9113 36.9638 38.016C38.1645 35.7087 39.9973 30.8479 39.9973 29.9715C39.9973 29.4855 40.0271 29.4832 37.3949 30.1731ZM126.158 29.9427C126.158 30.0074 126.621 31.4344 127.186 33.1136C128.548 37.1554 130.185 40.2068 131.702 41.5285C133.692 43.2625 136.994 44.6975 139.388 44.8689C141.417 45.014 141.441 45.0068 141.644 44.1963C141.886 43.2313 141.193 40.6325 140.257 38.9964C139.519 37.7064 137.205 34.8131 136.271 34.013C135.22 33.1115 132.061 31.4131 130.329 30.8168C128.682 30.2504 126.158 29.7212 126.158 29.9427ZM13.6371 35.6768C12.0245 39.6694 11.5756 43.8085 12.4038 47.0494C13.1428 49.9425 14.5515 52.7336 15.9376 54.0522C17.6593 55.6902 18.2112 55.5227 19.4901 52.9753C20.433 51.0965 20.5346 50.6324 20.6578 47.6408L20.7928 44.3639L19.5461 41.8656C18.304 39.3766 14.8744 34.3965 14.4023 34.3965C14.2659 34.3965 13.9215 34.9724 13.6371 35.6768ZM149.852 37.0324C148.897 38.3164 147.547 40.5103 146.852 41.9074C145.611 44.404 145.59 44.4998 145.618 47.4809C145.647 50.7014 146.29 53.0639 147.582 54.7066C148.384 55.7267 148.705 55.6912 150.192 54.4176C152.654 52.31 154.676 46.5409 154.304 42.681C153.983 39.3413 152.552 34.6978 151.845 34.6978C151.704 34.6978 150.807 35.7482 149.852 37.0324ZM29.905 46.5036C28.169 47.4148 25.4626 49.5541 24.166 51.04C21.5048 54.0887 19.61 60.0887 20.3978 62.9709C20.7541 64.2747 20.7611 64.2802 21.8658 64.0752C24.5784 63.5724 28.6919 60.2769 29.986 57.5703C30.7789 55.9117 31.4707 52.2824 31.6893 48.631C31.877 45.5058 31.855 45.4799 29.905 46.5036ZM134.595 48.0235C134.597 51.0959 135.39 55.645 136.253 57.532C137.567 60.4034 141.51 63.6548 144.554 64.3765C146.742 64.8953 146.545 59.2101 144.21 54.4905C142.626 51.2873 139.635 48.3892 136.029 46.5617L134.594 45.8341L134.595 48.0235ZM7.46096 54.7442C7.46096 57.4095 8.22919 60.9707 9.28179 63.1865C10.9887 66.7791 15.5727 70.8395 17.9298 70.8464C18.4682 70.848 18.9089 70.7996 18.9089 70.7394C18.9089 70.6796 19.0442 69.9164 19.2099 69.0437C19.5696 67.1457 19.2081 64.469 18.2455 61.9068C17.7542 60.599 17.0857 59.657 15.6119 58.1944C13.7805 56.3768 8.59099 52.7734 7.805 52.7734C7.58206 52.7734 7.46096 53.4682 7.46096 54.7442ZM155.21 54.8608C150.163 58.1639 148.409 60.2365 147.407 64.0812C146.935 65.8939 146.841 68.8978 147.214 70.2467C147.728 72.1081 150.968 70.7567 154.144 67.3563C156.43 64.9077 157.447 63.0636 158.206 59.9843C158.804 57.5649 158.876 53.0747 158.317 53.0747C158.11 53.0747 156.712 53.8785 155.21 54.8608ZM29.6955 61.6249C28.0995 62.925 26.261 65.1277 24.9785 67.2755C23.3772 69.9578 22.6033 76.2439 23.5849 78.593C24.3941 80.5296 24.5275 80.5846 26.2021 79.673C28.1005 78.6398 30.2496 76.2954 31.4084 73.9941C32.2205 72.3805 32.3194 71.869 32.4138 68.7845C32.5197 65.3474 32.0108 60.3049 31.5584 60.3049C31.4251 60.3049 30.5867 60.899 29.6955 61.6249ZM134.483 60.8273C134.052 62.3105 133.627 67.5834 133.762 69.7571C133.886 71.7444 134.105 72.5983 134.886 74.1458C136.651 77.642 140.774 81.1848 141.945 80.212C142.544 79.7152 143.333 77.1178 143.32 75.6898C143.298 73.5262 142.435 69.7954 141.531 67.958C140.621 66.1094 137.211 62.1283 135.488 60.9006C134.691 60.3333 134.627 60.3288 134.483 60.8273ZM5.87512 70.7277C5.58259 71.0203 6.72889 73.6718 8.05806 75.7761C9.79604 78.5279 12.1272 80.6008 15.0609 82.0037C18.1003 83.4566 20.3263 83.9318 21.9935 83.4828C23.1633 83.1677 23.1827 83.1403 22.9946 82.0515C22.6074 79.8102 20.8171 76.7364 18.8002 74.8495C17.1387 73.2954 16.5428 72.949 14.3553 72.2657C12.9659 71.8319 10.9481 71.3339 9.87106 71.1591C8.79405 70.9844 7.49652 70.7738 6.98737 70.6912C6.47856 70.6085 5.97815 70.625 5.87512 70.7277ZM156.586 71.3203C155.343 71.5435 153.174 72.0955 151.765 72.547C149.448 73.29 149.017 73.556 147.225 75.3473C145.044 77.5264 143.645 80.0138 143.406 82.1356C143.264 83.3897 143.305 83.4843 144.073 83.6771C147.961 84.653 154.68 81.225 157.834 76.6562C158.818 75.2309 160.501 71.8041 160.502 71.2257C160.502 70.7635 159.558 70.7862 156.586 71.3203ZM32.6619 77.4799C30.7367 79.5592 28.6957 83.441 28.2462 85.8779C27.56 89.5979 28.1463 93.9062 29.5842 95.7092L30.2644 96.5627L31.3893 95.8673C32.802 94.9944 34.7279 92.5919 35.7473 90.4312C36.4505 88.9411 36.5282 88.425 36.5187 85.3097C36.5101 82.4447 36.3595 81.3107 35.6492 78.7572C35.1765 77.0591 34.6885 75.6694 34.564 75.6694C34.4398 75.6694 33.584 76.4842 32.6619 77.4799ZM131.136 77.3307C130.047 81.0445 129.413 84.8274 129.559 86.7377C129.809 89.9989 132.038 93.968 134.703 95.8984C136.067 96.887 136.378 96.7667 137.34 94.8808C138.124 93.3438 138.44 90.5144 138.174 87.4151C137.991 85.2805 137.752 84.4851 136.593 82.151C135.725 80.4034 134.579 78.6952 133.446 77.4642L131.665 75.5274L131.136 77.3307ZM8.8787 84.6069C8.56962 85.107 10.5709 88.1218 12.7002 90.3634C15.8912 93.7228 19.9482 95.5289 24.3399 95.5454C26.859 95.5547 27.7165 95.0428 27.346 93.7518C26.5574 91.0015 23.6433 87.5529 20.9445 86.1762C20.2853 85.8399 18.8457 85.3812 17.7457 85.1569C15.1398 84.6262 9.09862 84.251 8.8787 84.6069ZM40.031 86.4394C37.9807 89.9199 37.4438 91.8736 37.4444 95.8539C37.445 98.6697 37.5732 99.6913 38.1295 101.31C38.8173 103.313 40.6006 105.796 41.3511 105.796C41.8588 105.796 43.319 103.956 44.2207 102.18C45.8972 98.8793 46.1428 95.5586 44.9683 92.0603C44.2553 89.9362 41.6509 84.4058 41.3636 84.4058C41.2897 84.4058 40.6902 85.3211 40.031 86.4394ZM123.061 88.2471C120.768 93.056 120.245 95.2254 120.699 98.0562C121.1 100.562 122.684 104.037 123.999 105.295C124.856 106.116 124.922 106.131 125.639 105.661C126.051 105.391 126.794 104.396 127.291 103.45C129.504 99.2326 129.615 94.0589 127.597 89.2261C126.931 87.6331 125.21 84.7072 124.938 84.7072C124.834 84.7072 123.99 86.3003 123.061 88.2471ZM150.862 84.924C148.28 85.2187 145.889 85.9809 144.357 86.9982C141.615 88.8185 139.442 91.7225 138.938 94.2398C138.769 95.0859 138.842 95.2031 139.73 95.5128C142.054 96.3229 146.134 95.5767 149.704 93.6884C151.762 92.6002 154.874 89.5696 156.194 87.3691C157.876 84.5654 157.952 84.7002 154.735 84.7554C153.185 84.782 151.442 84.8577 150.862 84.924ZM48.7787 93.7803C47.8778 96.143 47.5842 100.501 48.1323 103.39C48.6433 106.084 50.4184 109.343 52.5193 111.444C54.9463 113.871 55.7141 113.956 56.6027 111.896C57.4063 110.034 57.6527 106.701 57.1743 104.165C56.6863 101.579 55.2529 99.3524 51.7573 95.7508C49.0917 93.0045 49.0779 92.9954 48.7787 93.7803ZM114.388 96.0799C110.009 100.702 108.867 103.086 108.865 107.603C108.865 109.998 109.576 112.691 110.386 113.364C110.769 113.682 111.086 113.623 112.214 113.025C114.885 111.607 117.851 106.445 118.285 102.458C118.643 99.1611 117.918 93.4438 117.141 93.4438C117 93.4438 115.761 94.6301 114.388 96.0799ZM19.2942 98.0869C18.0979 98.285 17.045 98.5209 16.9546 98.6112C16.6359 98.9305 19.2602 101.866 21.1019 103.25C23.6342 105.154 25.4352 106.02 27.9633 106.552C31.6436 107.326 34.9036 107.054 36.3939 105.846L37.0566 105.31L36.3838 103.971C35.4274 102.067 33.0306 99.9197 30.5057 98.7053C28.401 97.693 28.2314 97.6623 24.9025 97.694C23.0144 97.7117 20.4909 97.8885 19.2942 98.0869ZM138.622 97.9474C136.656 98.2553 133.716 99.817 132.121 101.401C130.93 102.584 129.171 105.056 129.171 105.547C129.171 106.061 131.708 107.035 133.476 107.2C136.111 107.445 139.945 106.617 142.557 105.24C144.717 104.102 149.355 99.9044 149.355 99.0892C149.355 98.3315 141.504 97.496 138.622 97.9474ZM59.8805 104.694C59.8805 106.11 61.8016 110.281 63.5331 112.624C66.1342 116.146 72.5983 119.439 75.254 118.596C75.8757 118.399 75.9132 118.25 75.7613 116.576C75.5637 114.395 74.2901 111.687 72.4751 109.586C70.8884 107.749 67.7019 106.181 63.2904 105.065C59.7039 104.158 59.8805 104.177 59.8805 104.694ZM102.509 105.377C98.2378 106.547 95.1345 108.188 93.6111 110.082C91.9861 112.102 90.6937 114.852 90.4392 116.828C90.2084 118.623 90.4116 118.85 92.2433 118.85C94.7016 118.849 98.8642 116.839 101.388 114.434C103.299 112.614 105.717 108.257 106.391 105.419C106.562 104.697 106.5 104.593 105.904 104.613C105.528 104.625 104 104.969 102.509 105.377ZM34.7252 108.068C32.5844 108.601 29.2287 109.675 28.4457 110.08C27.9188 110.351 27.9266 110.405 28.5963 111.136C29.6751 112.312 32.977 114.349 35.3277 115.288C37.1513 116.016 37.8647 116.132 40.5998 116.147C44.2951 116.167 46.74 115.561 48.1892 114.267L49.1369 113.42L48.3124 112.339C47.2017 110.883 45.8129 109.864 43.3985 108.734C40.9661 107.596 37.6482 107.341 34.7252 108.068ZM125.49 108.068C124.543 108.299 122.941 108.905 121.932 109.415C120.126 110.327 117.422 112.779 117.422 113.505C117.422 114.056 119.054 115.327 120.351 115.786C121.085 116.046 122.931 116.189 125.556 116.189H129.623L132.183 114.952C134.946 113.617 138.614 111.028 138.35 110.601C138.108 110.209 131.961 108.288 130.225 108.062C129.397 107.954 128.38 107.816 127.966 107.756C127.552 107.696 126.437 107.837 125.49 108.068ZM51.1262 116.023C48.789 116.732 41.9031 121.014 41.5907 121.953C41.4714 122.311 44.8811 123.647 47.2275 124.162C51.1618 125.024 56.294 124.086 59.612 121.896C61.3392 120.757 62.6382 119.221 62.4 118.6C62.1756 118.015 59.5712 116.71 57.6105 116.199C55.7514 115.715 52.4382 115.625 51.1262 116.023ZM108.609 116.352C107.203 116.7 104.707 117.948 104.204 118.554C103.9 118.92 103.918 119.183 104.297 119.917C105.179 121.622 107.807 123.165 111.6 124.207C114.655 125.045 118.035 124.875 121.573 123.706C125.455 122.423 125.444 122.462 122.525 120.333C121.145 119.326 118.992 117.985 117.74 117.353C115.63 116.288 115.254 116.199 112.601 116.138C111.027 116.102 109.231 116.198 108.609 116.352ZM67.0633 121.258C66.2918 121.477 64.8918 122.12 63.953 122.688C61.6499 124.081 57.1306 127.783 57.3331 128.111C57.7368 128.764 61.6796 129.673 64.7385 129.819C67.5121 129.951 68.2152 129.88 70.0104 129.289C74.0723 127.953 76.8652 126.08 77.6614 124.157C77.9942 123.353 77.9716 123.194 77.4706 122.812C75.4224 121.25 69.9671 120.436 67.0633 121.258ZM92.1137 121.57C90.574 122.017 89.4895 122.538 88.7376 123.193C88.2805 123.592 88.2696 123.736 88.6426 124.458C89.6855 126.474 92.6923 128.419 96.6077 129.608C98.4806 130.177 99.2525 130.254 101.571 130.104C104.26 129.93 108.194 129.002 108.797 128.399C109.294 127.902 104.55 124.047 101.314 122.317C99.6905 121.449 99.2251 121.348 96.4941 121.267C94.6315 121.211 92.9503 121.328 92.1137 121.57Z"/>
</mask>
<path fill-rule="evenodd" clip-rule="evenodd" d="M41.1394 14.3412C35.9026 16.1746 32.2018 19.65 30.0758 24.7314C29.3557 26.4522 29.0814 29.6326 29.6089 30.1457C30.0515 30.5763 32.9411 29.9577 34.86 29.022C35.7637 28.5811 37.3411 27.4073 38.3655 26.4131C39.9369 24.8884 40.3745 24.2204 41.1603 22.1474C42.0614 19.7715 43.4214 14.3797 43.2464 13.879C43.199 13.7441 42.2511 13.9522 41.1394 14.3412ZM123.148 14.5683C123.151 15.755 124.293 20.1068 125.255 22.6024C126.006 24.5497 126.486 25.2785 127.915 26.6418C129.982 28.6128 132.853 30.1438 134.95 30.3921C136.727 30.6027 136.992 30.3503 136.999 28.4389C137.008 25.8777 134.783 21.2976 132.411 18.9963C130.283 16.9308 126.996 15.0479 123.823 14.0773C123.256 13.9037 123.146 13.9833 123.148 14.5683ZM21.9731 18.8068C20.8903 20.3803 19.7201 23.139 19.2096 25.321C18.1169 29.9911 20.0936 37.692 22.5882 38.4839C23.8032 38.8695 25.9858 35.706 26.9165 32.2106C27.559 29.7966 27.4477 27.5437 26.5522 24.8658C25.7177 22.3692 23.6463 17.9976 23.1534 17.693C22.9935 17.5942 22.4623 18.0955 21.9731 18.8068ZM141.795 20.2919C140.368 23.1275 139.241 26.2464 138.959 28.1426C138.542 30.9485 140.368 36.1905 142.462 38.196C143.542 39.2307 143.948 39.0615 145.356 36.9879C146.836 34.807 147.778 30.5271 147.429 27.5627C147.039 24.24 144.565 18.2889 143.414 17.9054C143.212 17.8379 142.509 18.874 141.795 20.2919ZM37.3949 30.1731C33.38 31.2258 30.1379 33.2526 27.8949 36.112C25.9285 38.6193 24.8949 40.8262 24.7049 42.9233L24.5429 44.7098L26.7721 44.5897C29.3289 44.452 31.6429 43.5252 34.1414 41.6391C35.3327 40.7395 35.9778 39.9113 36.9638 38.016C38.1645 35.7087 39.9973 30.8479 39.9973 29.9715C39.9973 29.4855 40.0271 29.4832 37.3949 30.1731ZM126.158 29.9427C126.158 30.0074 126.621 31.4344 127.186 33.1136C128.548 37.1554 130.185 40.2068 131.702 41.5285C133.692 43.2625 136.994 44.6975 139.388 44.8689C141.417 45.014 141.441 45.0068 141.644 44.1963C141.886 43.2313 141.193 40.6325 140.257 38.9964C139.519 37.7064 137.205 34.8131 136.271 34.013C135.22 33.1115 132.061 31.4131 130.329 30.8168C128.682 30.2504 126.158 29.7212 126.158 29.9427ZM13.6371 35.6768C12.0245 39.6694 11.5756 43.8085 12.4038 47.0494C13.1428 49.9425 14.5515 52.7336 15.9376 54.0522C17.6593 55.6902 18.2112 55.5227 19.4901 52.9753C20.433 51.0965 20.5346 50.6324 20.6578 47.6408L20.7928 44.3639L19.5461 41.8656C18.304 39.3766 14.8744 34.3965 14.4023 34.3965C14.2659 34.3965 13.9215 34.9724 13.6371 35.6768ZM149.852 37.0324C148.897 38.3164 147.547 40.5103 146.852 41.9074C145.611 44.404 145.59 44.4998 145.618 47.4809C145.647 50.7014 146.29 53.0639 147.582 54.7066C148.384 55.7267 148.705 55.6912 150.192 54.4176C152.654 52.31 154.676 46.5409 154.304 42.681C153.983 39.3413 152.552 34.6978 151.845 34.6978C151.704 34.6978 150.807 35.7482 149.852 37.0324ZM29.905 46.5036C28.169 47.4148 25.4626 49.5541 24.166 51.04C21.5048 54.0887 19.61 60.0887 20.3978 62.9709C20.7541 64.2747 20.7611 64.2802 21.8658 64.0752C24.5784 63.5724 28.6919 60.2769 29.986 57.5703C30.7789 55.9117 31.4707 52.2824 31.6893 48.631C31.877 45.5058 31.855 45.4799 29.905 46.5036ZM134.595 48.0235C134.597 51.0959 135.39 55.645 136.253 57.532C137.567 60.4034 141.51 63.6548 144.554 64.3765C146.742 64.8953 146.545 59.2101 144.21 54.4905C142.626 51.2873 139.635 48.3892 136.029 46.5617L134.594 45.8341L134.595 48.0235ZM7.46096 54.7442C7.46096 57.4095 8.22919 60.9707 9.28179 63.1865C10.9887 66.7791 15.5727 70.8395 17.9298 70.8464C18.4682 70.848 18.9089 70.7996 18.9089 70.7394C18.9089 70.6796 19.0442 69.9164 19.2099 69.0437C19.5696 67.1457 19.2081 64.469 18.2455 61.9068C17.7542 60.599 17.0857 59.657 15.6119 58.1944C13.7805 56.3768 8.59099 52.7734 7.805 52.7734C7.58206 52.7734 7.46096 53.4682 7.46096 54.7442ZM155.21 54.8608C150.163 58.1639 148.409 60.2365 147.407 64.0812C146.935 65.8939 146.841 68.8978 147.214 70.2467C147.728 72.1081 150.968 70.7567 154.144 67.3563C156.43 64.9077 157.447 63.0636 158.206 59.9843C158.804 57.5649 158.876 53.0747 158.317 53.0747C158.11 53.0747 156.712 53.8785 155.21 54.8608ZM29.6955 61.6249C28.0995 62.925 26.261 65.1277 24.9785 67.2755C23.3772 69.9578 22.6033 76.2439 23.5849 78.593C24.3941 80.5296 24.5275 80.5846 26.2021 79.673C28.1005 78.6398 30.2496 76.2954 31.4084 73.9941C32.2205 72.3805 32.3194 71.869 32.4138 68.7845C32.5197 65.3474 32.0108 60.3049 31.5584 60.3049C31.4251 60.3049 30.5867 60.899 29.6955 61.6249ZM134.483 60.8273C134.052 62.3105 133.627 67.5834 133.762 69.7571C133.886 71.7444 134.105 72.5983 134.886 74.1458C136.651 77.642 140.774 81.1848 141.945 80.212C142.544 79.7152 143.333 77.1178 143.32 75.6898C143.298 73.5262 142.435 69.7954 141.531 67.958C140.621 66.1094 137.211 62.1283 135.488 60.9006C134.691 60.3333 134.627 60.3288 134.483 60.8273ZM5.87512 70.7277C5.58259 71.0203 6.72889 73.6718 8.05806 75.7761C9.79604 78.5279 12.1272 80.6008 15.0609 82.0037C18.1003 83.4566 20.3263 83.9318 21.9935 83.4828C23.1633 83.1677 23.1827 83.1403 22.9946 82.0515C22.6074 79.8102 20.8171 76.7364 18.8002 74.8495C17.1387 73.2954 16.5428 72.949 14.3553 72.2657C12.9659 71.8319 10.9481 71.3339 9.87106 71.1591C8.79405 70.9844 7.49652 70.7738 6.98737 70.6912C6.47856 70.6085 5.97815 70.625 5.87512 70.7277ZM156.586 71.3203C155.343 71.5435 153.174 72.0955 151.765 72.547C149.448 73.29 149.017 73.556 147.225 75.3473C145.044 77.5264 143.645 80.0138 143.406 82.1356C143.264 83.3897 143.305 83.4843 144.073 83.6771C147.961 84.653 154.68 81.225 157.834 76.6562C158.818 75.2309 160.501 71.8041 160.502 71.2257C160.502 70.7635 159.558 70.7862 156.586 71.3203ZM32.6619 77.4799C30.7367 79.5592 28.6957 83.441 28.2462 85.8779C27.56 89.5979 28.1463 93.9062 29.5842 95.7092L30.2644 96.5627L31.3893 95.8673C32.802 94.9944 34.7279 92.5919 35.7473 90.4312C36.4505 88.9411 36.5282 88.425 36.5187 85.3097C36.5101 82.4447 36.3595 81.3107 35.6492 78.7572C35.1765 77.0591 34.6885 75.6694 34.564 75.6694C34.4398 75.6694 33.584 76.4842 32.6619 77.4799ZM131.136 77.3307C130.047 81.0445 129.413 84.8274 129.559 86.7377C129.809 89.9989 132.038 93.968 134.703 95.8984C136.067 96.887 136.378 96.7667 137.34 94.8808C138.124 93.3438 138.44 90.5144 138.174 87.4151C137.991 85.2805 137.752 84.4851 136.593 82.151C135.725 80.4034 134.579 78.6952 133.446 77.4642L131.665 75.5274L131.136 77.3307ZM8.8787 84.6069C8.56962 85.107 10.5709 88.1218 12.7002 90.3634C15.8912 93.7228 19.9482 95.5289 24.3399 95.5454C26.859 95.5547 27.7165 95.0428 27.346 93.7518C26.5574 91.0015 23.6433 87.5529 20.9445 86.1762C20.2853 85.8399 18.8457 85.3812 17.7457 85.1569C15.1398 84.6262 9.09862 84.251 8.8787 84.6069ZM40.031 86.4394C37.9807 89.9199 37.4438 91.8736 37.4444 95.8539C37.445 98.6697 37.5732 99.6913 38.1295 101.31C38.8173 103.313 40.6006 105.796 41.3511 105.796C41.8588 105.796 43.319 103.956 44.2207 102.18C45.8972 98.8793 46.1428 95.5586 44.9683 92.0603C44.2553 89.9362 41.6509 84.4058 41.3636 84.4058C41.2897 84.4058 40.6902 85.3211 40.031 86.4394ZM123.061 88.2471C120.768 93.056 120.245 95.2254 120.699 98.0562C121.1 100.562 122.684 104.037 123.999 105.295C124.856 106.116 124.922 106.131 125.639 105.661C126.051 105.391 126.794 104.396 127.291 103.45C129.504 99.2326 129.615 94.0589 127.597 89.2261C126.931 87.6331 125.21 84.7072 124.938 84.7072C124.834 84.7072 123.99 86.3003 123.061 88.2471ZM150.862 84.924C148.28 85.2187 145.889 85.9809 144.357 86.9982C141.615 88.8185 139.442 91.7225 138.938 94.2398C138.769 95.0859 138.842 95.2031 139.73 95.5128C142.054 96.3229 146.134 95.5767 149.704 93.6884C151.762 92.6002 154.874 89.5696 156.194 87.3691C157.876 84.5654 157.952 84.7002 154.735 84.7554C153.185 84.782 151.442 84.8577 150.862 84.924ZM48.7787 93.7803C47.8778 96.143 47.5842 100.501 48.1323 103.39C48.6433 106.084 50.4184 109.343 52.5193 111.444C54.9463 113.871 55.7141 113.956 56.6027 111.896C57.4063 110.034 57.6527 106.701 57.1743 104.165C56.6863 101.579 55.2529 99.3524 51.7573 95.7508C49.0917 93.0045 49.0779 92.9954 48.7787 93.7803ZM114.388 96.0799C110.009 100.702 108.867 103.086 108.865 107.603C108.865 109.998 109.576 112.691 110.386 113.364C110.769 113.682 111.086 113.623 112.214 113.025C114.885 111.607 117.851 106.445 118.285 102.458C118.643 99.1611 117.918 93.4438 117.141 93.4438C117 93.4438 115.761 94.6301 114.388 96.0799ZM19.2942 98.0869C18.0979 98.285 17.045 98.5209 16.9546 98.6112C16.6359 98.9305 19.2602 101.866 21.1019 103.25C23.6342 105.154 25.4352 106.02 27.9633 106.552C31.6436 107.326 34.9036 107.054 36.3939 105.846L37.0566 105.31L36.3838 103.971C35.4274 102.067 33.0306 99.9197 30.5057 98.7053C28.401 97.693 28.2314 97.6623 24.9025 97.694C23.0144 97.7117 20.4909 97.8885 19.2942 98.0869ZM138.622 97.9474C136.656 98.2553 133.716 99.817 132.121 101.401C130.93 102.584 129.171 105.056 129.171 105.547C129.171 106.061 131.708 107.035 133.476 107.2C136.111 107.445 139.945 106.617 142.557 105.24C144.717 104.102 149.355 99.9044 149.355 99.0892C149.355 98.3315 141.504 97.496 138.622 97.9474ZM59.8805 104.694C59.8805 106.11 61.8016 110.281 63.5331 112.624C66.1342 116.146 72.5983 119.439 75.254 118.596C75.8757 118.399 75.9132 118.25 75.7613 116.576C75.5637 114.395 74.2901 111.687 72.4751 109.586C70.8884 107.749 67.7019 106.181 63.2904 105.065C59.7039 104.158 59.8805 104.177 59.8805 104.694ZM102.509 105.377C98.2378 106.547 95.1345 108.188 93.6111 110.082C91.9861 112.102 90.6937 114.852 90.4392 116.828C90.2084 118.623 90.4116 118.85 92.2433 118.85C94.7016 118.849 98.8642 116.839 101.388 114.434C103.299 112.614 105.717 108.257 106.391 105.419C106.562 104.697 106.5 104.593 105.904 104.613C105.528 104.625 104 104.969 102.509 105.377ZM34.7252 108.068C32.5844 108.601 29.2287 109.675 28.4457 110.08C27.9188 110.351 27.9266 110.405 28.5963 111.136C29.6751 112.312 32.977 114.349 35.3277 115.288C37.1513 116.016 37.8647 116.132 40.5998 116.147C44.2951 116.167 46.74 115.561 48.1892 114.267L49.1369 113.42L48.3124 112.339C47.2017 110.883 45.8129 109.864 43.3985 108.734C40.9661 107.596 37.6482 107.341 34.7252 108.068ZM125.49 108.068C124.543 108.299 122.941 108.905 121.932 109.415C120.126 110.327 117.422 112.779 117.422 113.505C117.422 114.056 119.054 115.327 120.351 115.786C121.085 116.046 122.931 116.189 125.556 116.189H129.623L132.183 114.952C134.946 113.617 138.614 111.028 138.35 110.601C138.108 110.209 131.961 108.288 130.225 108.062C129.397 107.954 128.38 107.816 127.966 107.756C127.552 107.696 126.437 107.837 125.49 108.068ZM51.1262 116.023C48.789 116.732 41.9031 121.014 41.5907 121.953C41.4714 122.311 44.8811 123.647 47.2275 124.162C51.1618 125.024 56.294 124.086 59.612 121.896C61.3392 120.757 62.6382 119.221 62.4 118.6C62.1756 118.015 59.5712 116.71 57.6105 116.199C55.7514 115.715 52.4382 115.625 51.1262 116.023ZM108.609 116.352C107.203 116.7 104.707 117.948 104.204 118.554C103.9 118.92 103.918 119.183 104.297 119.917C105.179 121.622 107.807 123.165 111.6 124.207C114.655 125.045 118.035 124.875 121.573 123.706C125.455 122.423 125.444 122.462 122.525 120.333C121.145 119.326 118.992 117.985 117.74 117.353C115.63 116.288 115.254 116.199 112.601 116.138C111.027 116.102 109.231 116.198 108.609 116.352ZM67.0633 121.258C66.2918 121.477 64.8918 122.12 63.953 122.688C61.6499 124.081 57.1306 127.783 57.3331 128.111C57.7368 128.764 61.6796 129.673 64.7385 129.819C67.5121 129.951 68.2152 129.88 70.0104 129.289C74.0723 127.953 76.8652 126.08 77.6614 124.157C77.9942 123.353 77.9716 123.194 77.4706 122.812C75.4224 121.25 69.9671 120.436 67.0633 121.258ZM92.1137 121.57C90.574 122.017 89.4895 122.538 88.7376 123.193C88.2805 123.592 88.2696 123.736 88.6426 124.458C89.6855 126.474 92.6923 128.419 96.6077 129.608C98.4806 130.177 99.2525 130.254 101.571 130.104C104.26 129.93 108.194 129.002 108.797 128.399C109.294 127.902 104.55 124.047 101.314 122.317C99.6905 121.449 99.2251 121.348 96.4941 121.267C94.6315 121.211 92.9503 121.328 92.1137 121.57Z" stroke="white" stroke-width="7.77143" mask="url(#path-5-outside-1_302_19)"/>
<path d="M82.9272 117.202C85.3631 117.202 87.3378 119.176 87.3378 121.612C87.3378 124.048 85.3631 126.023 82.9272 126.023C80.4913 126.023 78.5166 124.048 78.5166 121.612C78.5166 119.176 80.4913 117.202 82.9272 117.202Z" fill="black" stroke="white" stroke-width="2.49472"/>
<path d="M71.2195 20.4435L71.2196 20.4437L73.69 24.0588L74.1962 24.7996H75.0935H85.939H96.7844H98.4475L98.484 23.1369L98.5683 19.2959L98.6526 15.4548L98.6907 13.7175H96.953H83.5378C79.8422 13.7175 76.4801 13.7429 74.0391 13.784C72.8206 13.8046 71.8218 13.8292 71.1229 13.857C70.7774 13.8707 70.4846 13.886 70.2692 13.9037C70.169 13.9119 70.044 13.9239 69.9266 13.9435C69.881 13.951 69.7554 13.9724 69.6115 14.0209C69.5528 14.0407 69.3732 14.1026 69.1767 14.238C69.0572 14.3205 68.3793 14.8093 68.4413 15.7547L68.4413 15.7547L68.4415 15.7573C68.4571 15.9889 68.5178 16.1651 68.5338 16.2117L68.5343 16.2132C68.5596 16.2865 68.5853 16.3462 68.6016 16.3824C68.6349 16.4563 68.6698 16.5231 68.6953 16.5703C68.7487 16.6692 68.8148 16.782 68.8836 16.8958C69.0241 17.1282 69.218 17.4348 69.4469 17.7886C69.907 18.4996 70.5345 19.4409 71.2195 20.4435Z" fill="black" stroke="white" stroke-width="3.4"/>
<path d="M72.1283 27.0664L72.1283 27.0663L73.7169 24.9434L74.2269 24.2619H75.078H86.0066H96.9352H98.6352V25.9619V27.9054C98.6352 33.7147 96.0123 39.2299 91.5715 41.5726C90.8322 41.9627 90.1871 42.2573 89.3033 42.4142C88.502 42.5564 87.5564 42.5741 86.2405 42.5741L72.1283 27.0664ZM72.1283 27.0664C72.076 27.1362 72.0245 27.205 71.9739 27.2726C71.4853 27.925 71.0748 28.4732 70.7883 28.9012C70.6296 29.1382 70.4694 29.396 70.347 29.6554C70.2412 29.8795 70.0614 30.3099 70.0919 30.8328C70.1318 31.5171 70.5063 32.0671 71.0186 32.3861C71.413 32.6317 71.8248 32.7015 72.0461 32.731C72.4523 32.7852 72.9891 32.7843 73.4858 32.7835C73.5459 32.7834 73.6055 32.7833 73.6642 32.7833H74.3711L74.4264 33.0587C74.4265 33.0587 74.4265 33.0587 74.4265 33.0588C75.2181 37.0014 77.4039 40.0202 80.847 41.6353L80.847 41.6353M72.1283 27.0664L80.847 41.6353M80.847 41.6353C81.632 42.0035 82.3063 42.2685 83.1854 42.4149M80.847 41.6353L83.1854 42.4149M83.1854 42.4149C84.0044 42.5513 84.9454 42.5742 86.2403 42.5741L83.1854 42.4149ZM73.4205 31.1094C73.4205 31.1094 73.4207 31.1087 73.4214 31.1074C73.4208 31.1087 73.4205 31.1094 73.4205 31.1094Z" fill="black" stroke="white" stroke-width="3.4"/>
<path d="M82.095 42.0571L82.0952 42.0571C85.6005 42.0515 88.7904 42.0651 91.107 42.0919C92.2638 42.1053 93.2105 42.122 93.8721 42.1415C94.1999 42.1512 94.4736 42.162 94.6728 42.1744C94.7665 42.1803 94.8759 42.1884 94.9758 42.2012C95.0152 42.2062 95.117 42.2196 95.2339 42.2497C95.2789 42.2613 95.4295 42.3004 95.6031 42.3902C95.6871 42.4337 95.868 42.5348 96.0485 42.7218C96.235 42.915 96.5263 43.3164 96.5263 43.9046C96.5263 44.2532 96.4128 44.5186 96.403 44.5414L96.4024 44.5429C96.3717 44.6191 96.3418 44.6773 96.3279 44.7039C96.2979 44.7611 96.2698 44.8068 96.2571 44.8274C96.2279 44.8746 96.197 44.9208 96.1734 44.9555C96.1228 45.03 96.0553 45.1257 95.9771 45.2351C95.8186 45.4569 95.5891 45.7721 95.2992 46.1669C94.7181 46.9583 93.8801 48.0885 92.8486 49.4725C90.785 52.2416 87.94 56.036 84.8113 60.188L84.8113 60.188L73.4386 75.28L70.4215 79.2838L70.381 74.2706L70.3015 64.4329C70.2849 62.3784 70.2531 60.4698 70.2126 58.8969C70.0873 59.0484 69.9585 59.2045 69.8262 59.3651C67.949 61.6428 65.3913 64.7882 62.6072 68.2507L62.6071 68.2508C59.7976 71.7446 57.1696 74.9449 55.1874 77.2997C54.1975 78.4757 53.3619 79.4488 52.7425 80.1447C52.4345 80.4908 52.1685 80.7811 51.9583 80.9976C51.8547 81.1043 51.7492 81.209 51.6501 81.2988C51.6484 81.3004 51.6461 81.3024 51.6433 81.305C51.5927 81.3515 51.3709 81.5554 51.0825 81.6867C48.8338 82.7112 46.3927 82.1812 44.6726 80.9543C42.9562 79.73 41.6648 77.5863 42.1252 75.1317L42.1252 75.1316C42.1839 74.8187 42.3079 74.5329 42.4025 74.3346C42.5094 74.1105 42.6445 73.8657 42.7978 73.6074C43.1049 73.0895 43.5341 72.4354 44.0809 71.6446C45.1774 70.059 46.8075 67.837 49.0274 64.8937C54.9285 57.0694 58.8146 51.9449 61.3014 48.7228C62.5435 47.1134 63.4453 45.9672 64.0784 45.1928C64.3939 44.8068 64.6538 44.4994 64.8619 44.2679C65.0288 44.0824 65.2735 43.8169 65.5306 43.6366L82.095 42.0571ZM82.095 42.0571C77.0786 42.0656 73.812 42.0928 71.6841 42.16C70.6216 42.1935 69.8138 42.2378 69.2003 42.2985C68.6171 42.3561 68.0869 42.4386 67.6507 42.5987L82.095 42.0571ZM67.6504 42.5988C66.9671 42.8496 66.0335 43.2843 65.5316 43.6359L67.6504 42.5988Z" fill="black" stroke="white" stroke-width="3.4"/>
<path d="M76.431 73.5772C76.2042 74.1349 76.3048 74.7068 76.5632 75.1221C76.7684 75.4517 77.0302 75.6219 77.1332 75.6843C77.3498 75.8155 77.5498 75.8693 77.6029 75.8835L77.6053 75.8842C77.7538 75.9242 77.8969 75.9437 77.9752 75.9537C78.1601 75.9771 78.3963 75.9952 78.6516 76.0105C79.1754 76.0419 79.9198 76.0691 80.82 76.0917C82.6265 76.137 85.1219 76.1649 87.8722 76.1649H96.1389V78.2308V80.2966H84.8845H71.9303H70.2303V81.9966V87.5699V93.1432V94.8432H71.9303H90.1566H108.383H110.083V93.1432V71.6579C110.083 71.0241 110.083 70.407 110.083 69.8059C110.084 58.8815 110.084 53.2813 109.817 50.1883C109.675 48.5521 109.446 47.3952 108.977 46.4634C108.549 45.6136 107.956 45.0508 107.477 44.5956C107.422 44.5428 107.367 44.4915 107.315 44.4413L107.315 44.4412C105.888 43.0673 103.608 42.0363 101.696 42.0363C101.246 42.0363 100.923 42.2179 100.858 42.2546C100.856 42.2556 100.854 42.2565 100.853 42.2573C100.74 42.3205 100.656 42.3839 100.613 42.4172C100.524 42.4872 100.45 42.5572 100.407 42.5994C100.313 42.6914 100.211 42.8021 100.113 42.9118C99.9104 43.1382 99.6407 43.4559 99.3188 43.8444C98.6711 44.6259 97.7681 45.7471 96.6786 47.1203C94.4977 49.8693 91.548 53.656 88.3548 57.8181L88.3548 57.8181C85.1646 61.9764 82.2526 65.7852 80.1308 68.5722C79.0701 69.9653 78.2057 71.1047 77.6023 71.9052C77.301 72.3049 77.0625 72.6232 76.8965 72.8475C76.8141 72.9587 76.7455 73.0522 76.6948 73.123C76.6702 73.1572 76.6437 73.1946 76.6199 73.2297C76.6086 73.2463 76.5906 73.2731 76.5711 73.3043C76.5615 73.3197 76.5455 73.3457 76.5272 73.3781L76.5269 73.3786C76.5153 73.3993 76.4725 73.4752 76.431 73.5772ZM76.431 73.5772L78.0058 74.2174M76.431 73.5772C76.4307 73.5778 76.4305 73.5784 76.4302 73.5791L78.0058 74.2174M78.0058 74.2174C78.02 74.1824 78.3795 73.698 79.0145 72.856M78.0058 74.2174C78.001 74.2293 78.0305 74.2411 78.0922 74.2525C78.0924 74.2526 78.0926 74.2526 78.0927 74.2526C78.2993 74.291 78.8639 74.3265 79.7002 74.3572C79.6869 74.5215 79.6489 74.6893 79.5814 74.8558L79.0145 72.856M79.0145 72.856C78.9642 72.8192 78.9223 72.793 78.8942 72.7759C78.6953 72.6555 78.5204 72.6093 78.4918 72.6018L78.4892 72.6011C78.4426 72.5886 78.4072 72.5818 78.3919 72.5792M79.0145 72.856L79.182 72.6341C79.0627 72.6283 78.9535 72.6225 78.8548 72.6166C78.616 72.6023 78.4716 72.5894 78.4028 72.5807C78.3984 72.5801 78.3947 72.5796 78.3919 72.5792M78.3919 72.5792C78.3866 72.5783 78.3837 72.5779 78.3835 72.5779C78.3833 72.5779 78.386 72.5784 78.3919 72.5792Z" fill="black" stroke="white" stroke-width="3.4"/>
</g>
</g>
</g>
<defs>
<clipPath id="clip0_302_19">
<rect width="239" height="136" fill="white"/>
</clipPath>
<clipPath id="clip1_302_19">
<rect width="167.086" height="136" fill="white"/>
</clipPath>
</defs>
</svg>
