<svg width="364" height="364" viewBox="0 0 364 364" fill="none" xmlns="http://www.w3.org/2000/svg">
<g clip-path="url(#clip0_302_15)">
<path d="M181.176 306.629C256.46 306.629 317.491 245.599 317.491 170.315C317.491 95.0301 256.46 34 181.176 34C105.891 34 44.8613 95.0301 44.8613 170.315C44.8613 245.599 105.891 306.629 181.176 306.629Z" fill="white"/>
<path d="M180.657 253.322C233.759 253.322 276.806 210.274 276.806 157.173C276.806 104.071 233.759 61.0239 180.657 61.0239C127.556 61.0239 84.5085 104.071 84.5085 157.173C84.5085 210.274 127.556 253.322 180.657 253.322Z" fill="#FFF100"/>
<mask id="mask0_302_15" style="mask-type:alpha" maskUnits="userSpaceOnUse" x="0" y="51" width="364" height="280">
<path d="M364 51.4487H0V330.798H364V51.4487Z" fill="white"/>
<path fill-rule="evenodd" clip-rule="evenodd" d="M89.6219 65.2429C78.2135 69.2371 70.1513 76.8083 65.5196 87.8782C63.9511 91.627 63.3534 98.5557 64.5026 99.6735C65.4667 100.611 71.7618 99.2638 75.9423 97.2254C77.9109 96.265 81.3473 93.7077 83.5791 91.5419C87.0024 88.2202 87.9556 86.765 89.6677 82.2489C91.6307 77.0729 94.5935 65.3269 94.2122 64.2361C94.1089 63.9421 92.0438 64.3956 89.6219 65.2429ZM268.279 65.7377C268.287 68.3229 270.774 77.8034 272.871 83.2401C274.506 87.4824 275.551 89.0701 278.665 92.0401C283.168 96.334 289.423 99.6692 293.99 100.21C297.863 100.669 298.439 100.119 298.455 95.9552C298.474 90.3754 293.627 80.3976 288.46 75.3841C283.824 70.8845 276.662 66.7826 269.751 64.668C268.514 64.2899 268.275 64.4632 268.279 65.7377ZM47.8678 74.9713C45.509 78.3994 42.9597 84.4092 41.8474 89.1628C39.467 99.3366 43.7732 116.113 49.2078 117.838C51.8548 118.679 56.6097 111.787 58.6371 104.172C60.0368 98.9129 59.7943 94.0048 57.8435 88.1711C56.0256 82.7322 51.5128 73.2085 50.439 72.545C50.0907 72.3297 48.9335 73.4218 47.8678 74.9713ZM308.902 78.2068C305.793 84.3842 303.339 91.1787 302.725 95.3097C301.816 101.422 305.794 112.842 310.355 117.211C312.708 119.465 313.592 119.097 316.659 114.579C319.885 109.828 321.936 100.504 321.177 94.0463C320.327 86.8078 314.936 73.8431 312.431 73.0076C311.989 72.8606 310.457 75.1177 308.902 78.2068ZM81.4645 99.7332C72.718 102.026 65.6551 106.442 60.7686 112.671C56.4848 118.133 54.2331 122.941 53.8192 127.51L53.4662 131.402L58.3226 131.14C63.8926 130.84 68.9336 128.821 74.3767 124.712C76.9721 122.752 78.3773 120.948 80.5253 116.819C83.1411 111.793 87.134 101.203 87.134 99.2938C87.134 98.2353 87.1988 98.2302 81.4645 99.7332ZM274.837 99.2312C274.837 99.3721 275.846 102.481 277.077 106.139C280.043 114.944 283.609 121.592 286.914 124.471C291.249 128.249 298.443 131.375 303.66 131.748C308.079 132.064 308.131 132.049 308.573 130.283C309.101 128.181 307.591 122.519 305.552 118.955C303.944 116.144 298.903 109.841 296.869 108.098C294.578 106.134 287.698 102.434 283.923 101.135C280.335 99.9016 274.837 98.7487 274.837 99.2312ZM29.7077 111.723C26.1945 120.421 25.2166 129.438 27.0208 136.498C28.6307 142.801 31.6996 148.882 34.7193 151.754C38.4701 155.323 39.6724 154.958 42.4586 149.408C44.5126 145.315 44.734 144.304 45.0023 137.787L45.2965 130.648L42.5805 125.206C39.8746 119.783 32.4032 108.934 31.3748 108.934C31.0775 108.934 30.3273 110.188 29.7077 111.723ZM326.455 114.676C324.374 117.473 321.432 122.253 319.92 125.297C317.216 130.735 317.171 130.944 317.23 137.438C317.295 144.454 318.694 149.601 321.509 153.18C323.258 155.402 323.955 155.325 327.196 152.55C332.56 147.959 336.963 135.391 336.154 126.982C335.454 119.706 332.338 109.59 330.796 109.59C330.49 109.59 328.536 111.878 326.455 114.676ZM65.1476 135.31C61.3658 137.295 55.4699 141.955 52.6451 145.192C46.8477 151.834 42.7197 164.905 44.436 171.184C45.2123 174.024 45.2275 174.036 47.6341 173.59C53.5436 172.494 62.5048 165.315 65.3241 159.419C67.0514 155.805 68.5586 147.899 69.0348 139.944C69.4436 133.136 69.3958 133.079 65.1476 135.31ZM293.216 138.621C293.221 145.314 294.948 155.224 296.829 159.335C299.691 165.59 308.281 172.674 314.913 174.246C319.68 175.376 319.25 162.991 314.164 152.709C310.713 145.731 304.198 139.417 296.341 135.436L293.214 133.851L293.216 138.621ZM16.2528 153.262C16.2528 159.068 17.9264 166.826 20.2195 171.654C23.9382 179.48 33.9245 188.326 39.0594 188.341C40.2323 188.344 41.1924 188.239 41.1924 188.108C41.1924 187.977 41.4871 186.315 41.8481 184.414C42.6317 180.279 41.8442 174.448 39.7472 168.866C38.6768 166.017 37.2205 163.964 34.0098 160.778C30.0201 156.819 18.7146 148.968 17.0023 148.968C16.5166 148.968 16.2528 150.482 16.2528 153.262ZM338.128 153.516C327.132 160.712 323.31 165.227 321.128 173.603C320.1 177.552 319.895 184.096 320.707 187.034C321.828 191.09 328.886 188.145 335.805 180.738C340.786 175.403 343.001 171.386 344.655 164.678C345.956 159.407 346.113 149.625 344.897 149.625C344.444 149.625 341.399 151.376 338.128 153.516ZM64.6913 168.251C61.2143 171.084 57.209 175.882 54.4151 180.561C50.9266 186.405 49.2408 200.099 51.3791 205.217C53.142 209.436 53.4327 209.556 57.0808 207.57C61.2164 205.319 65.8985 200.212 68.4228 195.198C70.192 191.683 70.4074 190.569 70.6131 183.849C70.8438 176.361 69.7353 165.376 68.7495 165.376C68.4592 165.376 66.6328 166.67 64.6913 168.251ZM292.972 166.514C292.035 169.745 291.107 181.232 291.403 185.968C291.673 190.297 292.149 192.157 293.851 195.529C297.696 203.145 306.678 210.863 309.23 208.744C310.535 207.662 312.254 202.003 312.224 198.892C312.178 194.179 310.298 186.051 308.327 182.048C306.344 178.021 298.917 169.348 295.162 166.674C293.427 165.438 293.288 165.428 292.972 166.514ZM12.798 188.082C12.1607 188.72 14.658 194.496 17.5536 199.08C21.3398 205.075 26.4183 209.591 32.8094 212.647C39.4309 215.812 44.2802 216.848 47.9122 215.869C50.4606 215.183 50.503 215.123 50.0932 212.751C49.2497 207.869 45.3494 201.172 40.9555 197.062C37.336 193.676 36.0378 192.921 31.2724 191.433C28.2455 190.488 23.8495 189.403 21.5032 189.022C19.157 188.641 16.3303 188.183 15.2211 188.003C14.1126 187.822 13.0225 187.858 12.798 188.082ZM341.124 189.373C338.417 189.86 333.692 191.062 330.623 192.046C325.574 193.664 324.635 194.244 320.731 198.146C315.981 202.893 312.933 208.312 312.412 212.935C312.104 215.667 312.193 215.873 313.865 216.293C322.335 218.419 336.973 210.951 343.844 200.998C345.988 197.893 349.655 190.427 349.655 189.167C349.656 188.16 347.6 188.21 341.124 189.373ZM71.1536 202.792C66.9596 207.322 62.5133 215.778 61.5338 221.087C60.0389 229.191 61.3163 238.577 64.4488 242.505L65.9306 244.364L68.3813 242.849C71.4588 240.948 75.6545 235.714 77.8753 231.007C79.4071 227.76 79.5764 226.636 79.5557 219.849C79.537 213.608 79.209 211.137 77.6616 205.575C76.6318 201.875 75.5686 198.848 75.2973 198.848C75.0268 198.848 73.1624 200.623 71.1536 202.792ZM285.682 202.467C283.309 210.558 281.927 218.799 282.247 222.96C282.792 230.065 287.646 238.712 293.452 242.917C296.425 245.071 297.101 244.809 299.197 240.7C300.906 237.352 301.594 231.188 301.014 224.436C300.615 219.786 300.094 218.053 297.569 212.968C295.68 209.161 293.181 205.44 290.715 202.758L286.834 198.538L285.682 202.467ZM19.3414 218.318C18.668 219.408 23.0279 225.976 27.6666 230.859C34.6182 238.178 43.4566 242.112 53.0239 242.148C58.5118 242.168 60.38 241.053 59.5729 238.241C57.8549 232.249 51.5065 224.736 45.627 221.737C44.1909 221.004 41.0546 220.005 38.6584 219.517C32.9814 218.36 19.8205 217.543 19.3414 218.318ZM87.2073 222.311C82.7407 229.893 81.5712 234.149 81.5725 242.82C81.5737 248.955 81.8531 251.18 83.0649 254.707C84.5632 259.07 88.4483 264.478 90.0833 264.478C91.1893 264.478 94.3705 260.471 96.3348 256.603C99.9871 249.411 100.522 242.177 97.9635 234.556C96.4101 229.928 90.7364 217.88 90.1104 217.88C89.9495 217.88 88.6434 219.874 87.2073 222.311ZM268.091 226.249C263.095 236.725 261.956 241.451 262.944 247.618C263.818 253.076 267.269 260.647 270.132 263.389C271.999 265.177 272.145 265.209 273.707 264.185C274.603 263.598 276.222 261.43 277.305 259.368C282.126 250.181 282.368 238.91 277.971 228.381C276.522 224.911 272.772 218.537 272.179 218.537C271.953 218.537 270.113 222.008 268.091 226.249ZM328.654 219.009C323.03 219.651 317.822 221.312 314.483 223.528C308.51 227.493 303.776 233.82 302.679 239.304C302.311 241.147 302.468 241.402 304.405 242.077C309.467 243.842 318.356 242.216 326.132 238.103C330.615 235.732 337.396 229.13 340.272 224.336C343.936 218.228 344.102 218.522 337.092 218.642C333.715 218.7 329.918 218.865 328.654 219.009ZM106.264 238.303C104.302 243.45 103.662 252.944 104.856 259.237C105.969 265.106 109.837 272.207 114.413 276.784C119.701 282.071 121.373 282.256 123.309 277.769C125.06 273.711 125.597 266.451 124.555 260.927C123.491 255.292 120.369 250.442 112.753 242.596C106.946 236.613 106.916 236.593 106.264 238.303ZM249.195 243.313C239.657 253.382 237.168 258.576 237.165 268.416C237.163 273.634 238.712 279.5 240.478 280.966C241.313 281.659 242.001 281.531 244.459 280.227C250.278 277.14 256.74 265.893 257.685 257.208C258.466 250.025 256.887 237.57 255.194 237.57C254.886 237.57 252.187 240.154 249.195 243.313ZM42.0318 247.685C39.4257 248.116 37.1319 248.63 36.935 248.827C36.2406 249.523 41.9577 255.917 45.9699 258.933C51.4866 263.08 55.4102 264.968 60.9176 266.127C68.9353 267.813 76.0371 267.219 79.2839 264.589L80.7276 263.42L79.2619 260.503C77.1782 256.355 71.9569 251.678 66.4563 249.032C61.8712 246.827 61.5017 246.76 54.2496 246.829C50.1364 246.867 44.6387 247.253 42.0318 247.685ZM301.991 247.381C297.707 248.052 291.303 251.454 287.828 254.906C285.233 257.483 281.4 262.868 281.4 263.937C281.4 265.057 286.928 267.179 290.78 267.537C296.52 268.071 304.872 266.269 310.563 263.268C315.267 260.788 325.373 251.644 325.373 249.868C325.373 248.218 308.269 246.398 301.991 247.381ZM130.45 262.078C130.45 265.162 134.635 274.25 138.407 279.355C144.074 287.026 158.156 294.201 163.941 292.364C165.296 291.935 165.378 291.611 165.047 287.965C164.616 283.213 161.842 277.312 157.888 272.735C154.431 268.735 147.489 265.318 137.879 262.887C130.065 260.911 130.45 260.953 130.45 262.078ZM223.317 263.567C214.012 266.116 207.252 269.691 203.933 273.817C200.393 278.218 197.577 284.208 197.023 288.513C196.52 292.422 196.963 292.919 200.953 292.917C206.309 292.915 215.377 288.537 220.874 283.298C225.038 279.332 230.305 269.84 231.774 263.658C232.147 262.085 232.011 261.859 230.713 261.901C229.894 261.928 226.566 262.677 223.317 263.567ZM75.6486 269.43C70.9847 270.589 63.6742 272.93 61.9685 273.811C60.8207 274.403 60.8376 274.521 62.2966 276.113C64.6469 278.676 71.8401 283.112 76.9611 285.157C80.9338 286.744 82.488 286.997 88.4466 287.029C96.4969 287.073 101.823 285.754 104.98 282.934L107.045 281.089L105.249 278.734C102.829 275.561 99.8034 273.342 94.5436 270.88C89.2444 268.401 82.0165 267.846 75.6486 269.43ZM273.382 269.429C271.318 269.933 267.83 271.253 265.631 272.363C261.696 274.35 255.804 279.691 255.804 281.273C255.804 282.475 259.36 285.244 262.187 286.244C263.786 286.81 267.807 287.121 273.525 287.121H282.385L287.963 284.425C293.981 281.518 301.974 275.878 301.398 274.947C300.871 274.093 287.478 269.909 283.697 269.416C281.893 269.181 279.678 268.881 278.775 268.75C277.873 268.619 275.446 268.925 273.382 269.429ZM111.379 286.758C106.287 288.303 91.2858 297.633 90.6052 299.677C90.3453 300.458 97.7734 303.368 102.885 304.489C111.456 306.369 122.637 304.324 129.865 299.554C133.628 297.072 136.458 293.726 135.939 292.373C135.45 291.099 129.776 288.255 125.505 287.142C121.455 286.087 114.237 285.892 111.379 286.758ZM236.605 287.476C233.543 288.234 228.105 290.952 227.009 292.273C226.347 293.071 226.386 293.644 227.213 295.243C229.133 298.956 234.859 302.319 243.123 304.588C249.776 306.414 257.141 306.044 264.849 303.496C273.305 300.702 273.281 300.787 266.923 296.148C263.917 293.956 259.226 291.034 256.498 289.657C251.901 287.335 251.083 287.142 245.303 287.01C241.874 286.931 237.96 287.141 236.605 287.476ZM146.098 298.163C144.417 298.64 141.367 300.042 139.322 301.279C134.305 304.313 124.459 312.378 124.9 313.092C125.78 314.515 134.369 316.496 141.033 316.813C147.076 317.1 148.607 316.947 152.518 315.66C161.367 312.748 167.451 308.667 169.186 304.48C169.911 302.728 169.862 302.38 168.77 301.548C164.308 298.147 152.424 296.373 146.098 298.163ZM200.671 298.844C197.316 299.816 194.954 300.952 193.316 302.38C192.32 303.248 192.296 303.563 193.109 305.135C195.381 309.528 201.931 313.763 210.461 316.354C214.541 317.593 216.223 317.761 221.274 317.435C227.131 317.056 235.702 315.034 237.016 313.719C238.098 312.638 227.763 304.239 220.714 300.472C217.177 298.58 216.163 298.359 210.213 298.182C206.156 298.062 202.493 298.315 200.671 298.844Z" fill="black"/>
</mask>
<g mask="url(#mask0_302_15)">
<path fill-rule="evenodd" clip-rule="evenodd" d="M89.6219 65.2429C78.2135 69.2371 70.1513 76.8083 65.5196 87.8782C63.9511 91.627 63.3534 98.5557 64.5026 99.6735C65.4667 100.611 71.7618 99.2638 75.9423 97.2254C77.9109 96.265 81.3473 93.7077 83.5791 91.5419C87.0024 88.2202 87.9556 86.765 89.6677 82.2489C91.6307 77.0729 94.5935 65.3269 94.2122 64.2361C94.1089 63.9421 92.0438 64.3956 89.6219 65.2429ZM268.279 65.7377C268.287 68.3229 270.774 77.8034 272.871 83.2401C274.506 87.4824 275.551 89.0701 278.665 92.0401C283.168 96.334 289.423 99.6692 293.99 100.21C297.863 100.669 298.439 100.119 298.455 95.9552C298.474 90.3754 293.627 80.3976 288.46 75.3841C283.824 70.8845 276.662 66.7826 269.751 64.668C268.514 64.2899 268.275 64.4632 268.279 65.7377ZM47.8678 74.9713C45.509 78.3994 42.9597 84.4092 41.8474 89.1628C39.467 99.3366 43.7732 116.113 49.2078 117.838C51.8548 118.679 56.6097 111.787 58.6371 104.172C60.0368 98.9129 59.7943 94.0048 57.8435 88.1711C56.0256 82.7322 51.5128 73.2085 50.439 72.545C50.0907 72.3297 48.9335 73.4218 47.8678 74.9713ZM308.902 78.2068C305.793 84.3842 303.339 91.1787 302.725 95.3097C301.816 101.422 305.794 112.842 310.355 117.211C312.708 119.465 313.592 119.097 316.659 114.579C319.885 109.828 321.936 100.504 321.177 94.0463C320.327 86.8078 314.936 73.8431 312.431 73.0076C311.989 72.8606 310.457 75.1177 308.902 78.2068ZM81.4645 99.7332C72.718 102.026 65.6551 106.442 60.7686 112.671C56.4848 118.133 54.2331 122.941 53.8192 127.51L53.4662 131.402L58.3226 131.14C63.8926 130.84 68.9336 128.821 74.3767 124.712C76.9721 122.752 78.3773 120.948 80.5253 116.819C83.1411 111.793 87.134 101.203 87.134 99.2938C87.134 98.2353 87.1988 98.2302 81.4645 99.7332ZM274.837 99.2312C274.837 99.3721 275.846 102.481 277.077 106.139C280.043 114.944 283.609 121.592 286.914 124.471C291.249 128.249 298.443 131.375 303.66 131.748C308.079 132.064 308.131 132.049 308.573 130.283C309.101 128.181 307.591 122.519 305.552 118.955C303.944 116.144 298.903 109.841 296.869 108.098C294.578 106.134 287.698 102.434 283.923 101.135C280.335 99.9016 274.837 98.7487 274.837 99.2312ZM29.7077 111.723C26.1945 120.421 25.2166 129.438 27.0208 136.498C28.6307 142.801 31.6996 148.882 34.7193 151.754C38.4701 155.323 39.6724 154.958 42.4586 149.408C44.5126 145.315 44.734 144.304 45.0023 137.787L45.2965 130.648L42.5805 125.206C39.8746 119.783 32.4032 108.934 31.3748 108.934C31.0775 108.934 30.3273 110.188 29.7077 111.723ZM326.455 114.676C324.374 117.473 321.432 122.253 319.92 125.297C317.216 130.735 317.171 130.944 317.23 137.438C317.295 144.454 318.694 149.601 321.509 153.18C323.258 155.402 323.955 155.325 327.196 152.55C332.56 147.959 336.963 135.391 336.154 126.982C335.454 119.706 332.338 109.59 330.796 109.59C330.49 109.59 328.536 111.878 326.455 114.676ZM65.1476 135.31C61.3658 137.295 55.4699 141.955 52.6451 145.192C46.8477 151.834 42.7197 164.905 44.436 171.184C45.2123 174.024 45.2275 174.036 47.6341 173.59C53.5436 172.494 62.5048 165.315 65.3241 159.419C67.0514 155.805 68.5586 147.899 69.0348 139.944C69.4436 133.136 69.3958 133.079 65.1476 135.31ZM293.216 138.621C293.221 145.314 294.948 155.224 296.829 159.335C299.691 165.59 308.281 172.674 314.913 174.246C319.68 175.376 319.25 162.991 314.164 152.709C310.713 145.731 304.198 139.417 296.341 135.436L293.214 133.851L293.216 138.621ZM16.2528 153.262C16.2528 159.068 17.9264 166.826 20.2195 171.654C23.9382 179.48 33.9245 188.326 39.0594 188.341C40.2323 188.344 41.1924 188.239 41.1924 188.108C41.1924 187.977 41.4871 186.315 41.8481 184.414C42.6317 180.279 41.8442 174.448 39.7472 168.866C38.6768 166.017 37.2205 163.964 34.0098 160.778C30.0201 156.819 18.7146 148.968 17.0023 148.968C16.5166 148.968 16.2528 150.482 16.2528 153.262ZM338.128 153.516C327.132 160.712 323.31 165.227 321.128 173.603C320.1 177.552 319.895 184.096 320.707 187.034C321.828 191.09 328.886 188.145 335.805 180.738C340.786 175.403 343.001 171.386 344.655 164.678C345.956 159.407 346.113 149.625 344.897 149.625C344.444 149.625 341.399 151.376 338.128 153.516ZM64.6913 168.251C61.2143 171.084 57.209 175.882 54.4151 180.561C50.9266 186.405 49.2408 200.099 51.3791 205.217C53.142 209.436 53.4327 209.556 57.0808 207.57C61.2164 205.319 65.8985 200.212 68.4228 195.198C70.192 191.683 70.4074 190.569 70.6131 183.849C70.8438 176.361 69.7353 165.376 68.7495 165.376C68.4592 165.376 66.6328 166.67 64.6913 168.251ZM292.972 166.514C292.035 169.745 291.107 181.232 291.403 185.968C291.673 190.297 292.149 192.157 293.851 195.529C297.696 203.145 306.678 210.863 309.23 208.744C310.535 207.662 312.254 202.003 312.224 198.892C312.178 194.179 310.298 186.051 308.327 182.048C306.344 178.021 298.917 169.348 295.162 166.674C293.427 165.438 293.288 165.428 292.972 166.514ZM12.798 188.082C12.1607 188.72 14.658 194.496 17.5536 199.08C21.3398 205.075 26.4183 209.591 32.8094 212.647C39.4309 215.812 44.2802 216.848 47.9122 215.869C50.4606 215.183 50.503 215.123 50.0932 212.751C49.2497 207.869 45.3494 201.172 40.9555 197.062C37.336 193.676 36.0378 192.921 31.2724 191.433C28.2455 190.488 23.8495 189.403 21.5032 189.022C19.157 188.641 16.3303 188.183 15.2211 188.003C14.1126 187.822 13.0225 187.858 12.798 188.082ZM341.124 189.373C338.417 189.86 333.692 191.062 330.623 192.046C325.574 193.664 324.635 194.244 320.731 198.146C315.981 202.893 312.933 208.312 312.412 212.935C312.104 215.667 312.193 215.873 313.865 216.293C322.335 218.419 336.973 210.951 343.844 200.998C345.988 197.893 349.655 190.427 349.655 189.167C349.656 188.16 347.6 188.21 341.124 189.373ZM71.1536 202.792C66.9596 207.322 62.5133 215.778 61.5338 221.087C60.0389 229.191 61.3163 238.577 64.4488 242.505L65.9306 244.364L68.3813 242.849C71.4588 240.948 75.6545 235.714 77.8753 231.007C79.4071 227.76 79.5764 226.636 79.5557 219.849C79.537 213.608 79.209 211.137 77.6616 205.575C76.6318 201.875 75.5686 198.848 75.2973 198.848C75.0268 198.848 73.1624 200.623 71.1536 202.792ZM285.682 202.467C283.309 210.558 281.927 218.799 282.247 222.96C282.792 230.065 287.646 238.712 293.452 242.917C296.425 245.071 297.101 244.809 299.197 240.7C300.906 237.352 301.594 231.188 301.014 224.436C300.615 219.786 300.094 218.053 297.569 212.968C295.68 209.161 293.181 205.44 290.715 202.758L286.834 198.538L285.682 202.467ZM19.3414 218.318C18.668 219.408 23.0279 225.976 27.6666 230.859C34.6182 238.178 43.4566 242.112 53.0239 242.148C58.5118 242.168 60.38 241.053 59.5729 238.241C57.8549 232.249 51.5065 224.736 45.627 221.737C44.1909 221.004 41.0546 220.005 38.6584 219.517C32.9814 218.36 19.8205 217.543 19.3414 218.318ZM87.2073 222.311C82.7407 229.893 81.5712 234.149 81.5725 242.82C81.5737 248.955 81.8531 251.18 83.0649 254.707C84.5632 259.07 88.4483 264.478 90.0833 264.478C91.1893 264.478 94.3705 260.471 96.3348 256.603C99.9871 249.411 100.522 242.177 97.9635 234.556C96.4101 229.928 90.7364 217.88 90.1104 217.88C89.9495 217.88 88.6434 219.874 87.2073 222.311ZM268.091 226.249C263.095 236.725 261.956 241.451 262.944 247.618C263.818 253.076 267.269 260.647 270.132 263.389C271.999 265.177 272.145 265.209 273.707 264.185C274.603 263.598 276.222 261.43 277.305 259.368C282.126 250.181 282.368 238.91 277.971 228.381C276.522 224.911 272.772 218.537 272.179 218.537C271.953 218.537 270.113 222.008 268.091 226.249ZM328.654 219.009C323.03 219.651 317.822 221.312 314.483 223.528C308.51 227.493 303.776 233.82 302.679 239.304C302.311 241.147 302.468 241.402 304.405 242.077C309.467 243.842 318.356 242.216 326.132 238.103C330.615 235.732 337.396 229.13 340.272 224.336C343.936 218.228 344.102 218.522 337.092 218.642C333.715 218.7 329.918 218.865 328.654 219.009ZM106.264 238.303C104.302 243.45 103.662 252.944 104.856 259.237C105.969 265.106 109.837 272.207 114.413 276.784C119.701 282.071 121.373 282.256 123.309 277.769C125.06 273.711 125.597 266.451 124.555 260.927C123.491 255.292 120.369 250.442 112.753 242.596C106.946 236.613 106.916 236.593 106.264 238.303ZM249.195 243.313C239.657 253.382 237.168 258.576 237.165 268.416C237.163 273.634 238.712 279.5 240.478 280.966C241.313 281.659 242.001 281.531 244.459 280.227C250.278 277.14 256.74 265.893 257.685 257.208C258.466 250.025 256.887 237.57 255.194 237.57C254.886 237.57 252.187 240.154 249.195 243.313ZM42.0318 247.685C39.4257 248.116 37.1319 248.63 36.935 248.827C36.2406 249.523 41.9577 255.917 45.9699 258.933C51.4866 263.08 55.4102 264.968 60.9176 266.127C68.9353 267.813 76.0371 267.219 79.2839 264.589L80.7276 263.42L79.2619 260.503C77.1782 256.355 71.9569 251.678 66.4563 249.032C61.8712 246.827 61.5017 246.76 54.2496 246.829C50.1364 246.867 44.6387 247.253 42.0318 247.685ZM301.991 247.381C297.707 248.052 291.303 251.454 287.828 254.906C285.233 257.483 281.4 262.868 281.4 263.937C281.4 265.057 286.928 267.179 290.78 267.537C296.52 268.071 304.872 266.269 310.563 263.268C315.267 260.788 325.373 251.644 325.373 249.868C325.373 248.218 308.269 246.398 301.991 247.381ZM130.45 262.078C130.45 265.162 134.635 274.25 138.407 279.355C144.074 287.026 158.156 294.201 163.941 292.364C165.296 291.935 165.378 291.611 165.047 287.965C164.616 283.213 161.842 277.312 157.888 272.735C154.431 268.735 147.489 265.318 137.879 262.887C130.065 260.911 130.45 260.953 130.45 262.078ZM223.317 263.567C214.012 266.116 207.252 269.691 203.933 273.817C200.393 278.218 197.577 284.208 197.023 288.513C196.52 292.422 196.963 292.919 200.953 292.917C206.309 292.915 215.377 288.537 220.874 283.298C225.038 279.332 230.305 269.84 231.774 263.658C232.147 262.085 232.011 261.859 230.713 261.901C229.894 261.928 226.566 262.677 223.317 263.567ZM75.6486 269.43C70.9847 270.589 63.6742 272.93 61.9685 273.811C60.8207 274.403 60.8376 274.521 62.2966 276.113C64.6469 278.676 71.8401 283.112 76.9611 285.157C80.9338 286.744 82.488 286.997 88.4466 287.029C96.4969 287.073 101.823 285.754 104.98 282.934L107.045 281.089L105.249 278.734C102.829 275.561 99.8034 273.342 94.5436 270.88C89.2444 268.401 82.0165 267.846 75.6486 269.43ZM273.382 269.429C271.318 269.933 267.83 271.253 265.631 272.363C261.696 274.35 255.804 279.691 255.804 281.273C255.804 282.475 259.36 285.244 262.187 286.244C263.786 286.81 267.807 287.121 273.525 287.121H282.385L287.963 284.425C293.981 281.518 301.974 275.878 301.398 274.947C300.871 274.093 287.478 269.909 283.697 269.416C281.893 269.181 279.678 268.881 278.775 268.75C277.873 268.619 275.446 268.925 273.382 269.429ZM111.379 286.758C106.287 288.303 91.2858 297.633 90.6052 299.677C90.3453 300.458 97.7734 303.368 102.885 304.489C111.456 306.369 122.637 304.324 129.865 299.554C133.628 297.072 136.458 293.726 135.939 292.373C135.45 291.099 129.776 288.255 125.505 287.142C121.455 286.087 114.237 285.892 111.379 286.758ZM236.605 287.476C233.543 288.234 228.105 290.952 227.009 292.273C226.347 293.071 226.386 293.644 227.213 295.243C229.133 298.956 234.859 302.319 243.123 304.588C249.776 306.414 257.141 306.044 264.849 303.496C273.305 300.702 273.281 300.787 266.923 296.148C263.917 293.956 259.226 291.034 256.498 289.657C251.901 287.335 251.083 287.142 245.303 287.01C241.874 286.931 237.96 287.141 236.605 287.476ZM146.098 298.163C144.417 298.64 141.367 300.042 139.322 301.279C134.305 304.313 124.459 312.378 124.9 313.092C125.78 314.515 134.369 316.496 141.033 316.813C147.076 317.1 148.607 316.947 152.518 315.66C161.367 312.748 167.451 308.667 169.186 304.48C169.911 302.728 169.862 302.38 168.77 301.548C164.308 298.147 152.424 296.373 146.098 298.163ZM200.671 298.844C197.316 299.816 194.954 300.952 193.316 302.38C192.32 303.248 192.296 303.563 193.109 305.135C195.381 309.528 201.931 313.763 210.461 316.354C214.541 317.593 216.223 317.761 221.274 317.435C227.131 317.056 235.702 315.034 237.016 313.719C238.098 312.638 227.763 304.239 220.714 300.472C217.177 298.58 216.163 298.359 210.213 298.182C206.156 298.062 202.493 298.315 200.671 298.844Z" fill="black"/>
<mask id="path-6-outside-1_302_15" maskUnits="userSpaceOnUse" x="3.69775" y="55.1465" width="355" height="271" fill="black">
<rect fill="white" x="3.69775" y="55.1465" width="355" height="271"/>
<path fill-rule="evenodd" clip-rule="evenodd" d="M89.6219 65.2429C78.2135 69.2371 70.1513 76.8083 65.5196 87.8782C63.9511 91.627 63.3534 98.5557 64.5026 99.6735C65.4667 100.611 71.7618 99.2638 75.9423 97.2254C77.9109 96.265 81.3473 93.7077 83.5791 91.5419C87.0024 88.2202 87.9556 86.765 89.6677 82.2489C91.6307 77.0729 94.5935 65.3269 94.2122 64.2361C94.1089 63.9421 92.0438 64.3956 89.6219 65.2429ZM268.279 65.7377C268.287 68.3229 270.774 77.8034 272.871 83.2401C274.506 87.4824 275.551 89.0701 278.665 92.0401C283.168 96.334 289.423 99.6692 293.99 100.21C297.863 100.669 298.439 100.119 298.455 95.9552C298.474 90.3754 293.627 80.3976 288.46 75.3841C283.824 70.8845 276.662 66.7826 269.751 64.668C268.514 64.2899 268.275 64.4632 268.279 65.7377ZM47.8678 74.9713C45.509 78.3994 42.9597 84.4092 41.8474 89.1628C39.467 99.3366 43.7732 116.113 49.2078 117.838C51.8548 118.679 56.6097 111.787 58.6371 104.172C60.0368 98.9129 59.7943 94.0048 57.8435 88.1711C56.0256 82.7322 51.5128 73.2085 50.439 72.545C50.0907 72.3297 48.9335 73.4218 47.8678 74.9713ZM308.902 78.2068C305.793 84.3842 303.339 91.1787 302.725 95.3097C301.816 101.422 305.794 112.842 310.355 117.211C312.708 119.465 313.592 119.097 316.659 114.579C319.885 109.828 321.936 100.504 321.177 94.0463C320.327 86.8078 314.936 73.8431 312.431 73.0076C311.989 72.8606 310.457 75.1177 308.902 78.2068ZM81.4645 99.7332C72.718 102.026 65.6551 106.442 60.7686 112.671C56.4848 118.133 54.2331 122.941 53.8192 127.51L53.4662 131.402L58.3226 131.14C63.8926 130.84 68.9336 128.821 74.3767 124.712C76.9721 122.752 78.3773 120.948 80.5253 116.819C83.1411 111.793 87.134 101.203 87.134 99.2938C87.134 98.2353 87.1988 98.2302 81.4645 99.7332ZM274.837 99.2312C274.837 99.3721 275.846 102.481 277.077 106.139C280.043 114.944 283.609 121.592 286.914 124.471C291.249 128.249 298.443 131.375 303.66 131.748C308.079 132.064 308.131 132.049 308.573 130.283C309.101 128.181 307.591 122.519 305.552 118.955C303.944 116.144 298.903 109.841 296.869 108.098C294.578 106.134 287.698 102.434 283.923 101.135C280.335 99.9016 274.837 98.7487 274.837 99.2312ZM29.7077 111.723C26.1945 120.421 25.2166 129.438 27.0208 136.498C28.6307 142.801 31.6996 148.882 34.7193 151.754C38.4701 155.323 39.6724 154.958 42.4586 149.408C44.5126 145.315 44.734 144.304 45.0023 137.787L45.2965 130.648L42.5805 125.206C39.8746 119.783 32.4032 108.934 31.3748 108.934C31.0775 108.934 30.3273 110.188 29.7077 111.723ZM326.455 114.676C324.374 117.473 321.432 122.253 319.92 125.297C317.216 130.735 317.171 130.944 317.23 137.438C317.295 144.454 318.694 149.601 321.509 153.18C323.258 155.402 323.955 155.325 327.196 152.55C332.56 147.959 336.963 135.391 336.154 126.982C335.454 119.706 332.338 109.59 330.796 109.59C330.49 109.59 328.536 111.878 326.455 114.676ZM65.1476 135.31C61.3658 137.295 55.4699 141.955 52.6451 145.192C46.8477 151.834 42.7197 164.905 44.436 171.184C45.2123 174.024 45.2275 174.036 47.6341 173.59C53.5436 172.494 62.5048 165.315 65.3241 159.419C67.0514 155.805 68.5586 147.899 69.0348 139.944C69.4436 133.136 69.3958 133.079 65.1476 135.31ZM293.216 138.621C293.221 145.314 294.948 155.224 296.829 159.335C299.691 165.59 308.281 172.674 314.913 174.246C319.68 175.376 319.25 162.991 314.164 152.709C310.713 145.731 304.198 139.417 296.341 135.436L293.214 133.851L293.216 138.621ZM16.2528 153.262C16.2528 159.068 17.9264 166.826 20.2195 171.654C23.9382 179.48 33.9245 188.326 39.0594 188.341C40.2323 188.344 41.1924 188.239 41.1924 188.108C41.1924 187.977 41.4871 186.315 41.8481 184.414C42.6317 180.279 41.8442 174.448 39.7472 168.866C38.6768 166.017 37.2205 163.964 34.0098 160.778C30.0201 156.819 18.7146 148.968 17.0023 148.968C16.5166 148.968 16.2528 150.482 16.2528 153.262ZM338.128 153.516C327.132 160.712 323.31 165.227 321.128 173.603C320.1 177.552 319.895 184.096 320.707 187.034C321.828 191.09 328.886 188.145 335.805 180.738C340.786 175.403 343.001 171.386 344.655 164.678C345.956 159.407 346.113 149.625 344.897 149.625C344.444 149.625 341.399 151.376 338.128 153.516ZM64.6913 168.251C61.2143 171.084 57.209 175.882 54.4151 180.561C50.9266 186.405 49.2408 200.099 51.3791 205.217C53.142 209.436 53.4327 209.556 57.0808 207.57C61.2164 205.319 65.8985 200.212 68.4228 195.198C70.192 191.683 70.4074 190.569 70.6131 183.849C70.8438 176.361 69.7353 165.376 68.7495 165.376C68.4592 165.376 66.6328 166.67 64.6913 168.251ZM292.972 166.514C292.035 169.745 291.107 181.232 291.403 185.968C291.673 190.297 292.149 192.157 293.851 195.529C297.696 203.145 306.678 210.863 309.23 208.744C310.535 207.662 312.254 202.003 312.224 198.892C312.178 194.179 310.298 186.051 308.327 182.048C306.344 178.021 298.917 169.348 295.162 166.674C293.427 165.438 293.288 165.428 292.972 166.514ZM12.798 188.082C12.1607 188.72 14.658 194.496 17.5536 199.08C21.3398 205.075 26.4183 209.591 32.8094 212.647C39.4309 215.812 44.2802 216.848 47.9122 215.869C50.4606 215.183 50.503 215.123 50.0932 212.751C49.2497 207.869 45.3494 201.172 40.9555 197.062C37.336 193.676 36.0378 192.921 31.2724 191.433C28.2455 190.488 23.8495 189.403 21.5032 189.022C19.157 188.641 16.3303 188.183 15.2211 188.003C14.1126 187.822 13.0225 187.858 12.798 188.082ZM341.124 189.373C338.417 189.86 333.692 191.062 330.623 192.046C325.574 193.664 324.635 194.244 320.731 198.146C315.981 202.893 312.933 208.312 312.412 212.935C312.104 215.667 312.193 215.873 313.865 216.293C322.335 218.419 336.973 210.951 343.844 200.998C345.988 197.893 349.655 190.427 349.655 189.167C349.656 188.16 347.6 188.21 341.124 189.373ZM71.1536 202.792C66.9596 207.322 62.5133 215.778 61.5338 221.087C60.0389 229.191 61.3163 238.577 64.4488 242.505L65.9306 244.364L68.3813 242.849C71.4588 240.948 75.6545 235.714 77.8753 231.007C79.4071 227.76 79.5764 226.636 79.5557 219.849C79.537 213.608 79.209 211.137 77.6616 205.575C76.6318 201.875 75.5686 198.848 75.2973 198.848C75.0268 198.848 73.1624 200.623 71.1536 202.792ZM285.682 202.467C283.309 210.558 281.927 218.799 282.247 222.96C282.792 230.065 287.646 238.712 293.452 242.917C296.425 245.071 297.101 244.809 299.197 240.7C300.906 237.352 301.594 231.188 301.014 224.436C300.615 219.786 300.094 218.053 297.569 212.968C295.68 209.161 293.181 205.44 290.715 202.758L286.834 198.538L285.682 202.467ZM19.3414 218.318C18.668 219.408 23.0279 225.976 27.6666 230.859C34.6182 238.178 43.4566 242.112 53.0239 242.148C58.5118 242.168 60.38 241.053 59.5729 238.241C57.8549 232.249 51.5065 224.736 45.627 221.737C44.1909 221.004 41.0546 220.005 38.6584 219.517C32.9814 218.36 19.8205 217.543 19.3414 218.318ZM87.2073 222.311C82.7407 229.893 81.5712 234.149 81.5725 242.82C81.5737 248.955 81.8531 251.18 83.0649 254.707C84.5632 259.07 88.4483 264.478 90.0833 264.478C91.1893 264.478 94.3705 260.471 96.3348 256.603C99.9871 249.411 100.522 242.177 97.9635 234.556C96.4101 229.928 90.7364 217.88 90.1104 217.88C89.9495 217.88 88.6434 219.874 87.2073 222.311ZM268.091 226.249C263.095 236.725 261.956 241.451 262.944 247.618C263.818 253.076 267.269 260.647 270.132 263.389C271.999 265.177 272.145 265.209 273.707 264.185C274.603 263.598 276.222 261.43 277.305 259.368C282.126 250.181 282.368 238.91 277.971 228.381C276.522 224.911 272.772 218.537 272.179 218.537C271.953 218.537 270.113 222.008 268.091 226.249ZM328.654 219.009C323.03 219.651 317.822 221.312 314.483 223.528C308.51 227.493 303.776 233.82 302.679 239.304C302.311 241.147 302.468 241.402 304.405 242.077C309.467 243.842 318.356 242.216 326.132 238.103C330.615 235.732 337.396 229.13 340.272 224.336C343.936 218.228 344.102 218.522 337.092 218.642C333.715 218.7 329.918 218.865 328.654 219.009ZM106.264 238.303C104.302 243.45 103.662 252.944 104.856 259.237C105.969 265.106 109.837 272.207 114.413 276.784C119.701 282.071 121.373 282.256 123.309 277.769C125.06 273.711 125.597 266.451 124.555 260.927C123.491 255.292 120.369 250.442 112.753 242.596C106.946 236.613 106.916 236.593 106.264 238.303ZM249.195 243.313C239.657 253.382 237.168 258.576 237.165 268.416C237.163 273.634 238.712 279.5 240.478 280.966C241.313 281.659 242.001 281.531 244.459 280.227C250.278 277.14 256.74 265.893 257.685 257.208C258.466 250.025 256.887 237.57 255.194 237.57C254.886 237.57 252.187 240.154 249.195 243.313ZM42.0318 247.685C39.4257 248.116 37.1319 248.63 36.935 248.827C36.2406 249.523 41.9577 255.917 45.9699 258.933C51.4866 263.08 55.4102 264.968 60.9176 266.127C68.9353 267.813 76.0371 267.219 79.2839 264.589L80.7276 263.42L79.2619 260.503C77.1782 256.355 71.9569 251.678 66.4563 249.032C61.8712 246.827 61.5017 246.76 54.2496 246.829C50.1364 246.867 44.6387 247.253 42.0318 247.685ZM301.991 247.381C297.707 248.052 291.303 251.454 287.828 254.906C285.233 257.483 281.4 262.868 281.4 263.937C281.4 265.057 286.928 267.179 290.78 267.537C296.52 268.071 304.872 266.269 310.563 263.268C315.267 260.788 325.373 251.644 325.373 249.868C325.373 248.218 308.269 246.398 301.991 247.381ZM130.45 262.078C130.45 265.162 134.635 274.25 138.407 279.355C144.074 287.026 158.156 294.201 163.941 292.364C165.296 291.935 165.378 291.611 165.047 287.965C164.616 283.213 161.842 277.312 157.888 272.735C154.431 268.735 147.489 265.318 137.879 262.887C130.065 260.911 130.45 260.953 130.45 262.078ZM223.317 263.567C214.012 266.116 207.252 269.691 203.933 273.817C200.393 278.218 197.577 284.208 197.023 288.513C196.52 292.422 196.963 292.919 200.953 292.917C206.309 292.915 215.377 288.537 220.874 283.298C225.038 279.332 230.305 269.84 231.774 263.658C232.147 262.085 232.011 261.859 230.713 261.901C229.894 261.928 226.566 262.677 223.317 263.567ZM75.6486 269.43C70.9847 270.589 63.6742 272.93 61.9685 273.811C60.8207 274.403 60.8376 274.521 62.2966 276.113C64.6469 278.676 71.8401 283.112 76.9611 285.157C80.9338 286.744 82.488 286.997 88.4466 287.029C96.4969 287.073 101.823 285.754 104.98 282.934L107.045 281.089L105.249 278.734C102.829 275.561 99.8034 273.342 94.5436 270.88C89.2444 268.401 82.0165 267.846 75.6486 269.43ZM273.382 269.429C271.318 269.933 267.83 271.253 265.631 272.363C261.696 274.35 255.804 279.691 255.804 281.273C255.804 282.475 259.36 285.244 262.187 286.244C263.786 286.81 267.807 287.121 273.525 287.121H282.385L287.963 284.425C293.981 281.518 301.974 275.878 301.398 274.947C300.871 274.093 287.478 269.909 283.697 269.416C281.893 269.181 279.678 268.881 278.775 268.75C277.873 268.619 275.446 268.925 273.382 269.429ZM111.379 286.758C106.287 288.303 91.2858 297.633 90.6052 299.677C90.3453 300.458 97.7734 303.368 102.885 304.489C111.456 306.369 122.637 304.324 129.865 299.554C133.628 297.072 136.458 293.726 135.939 292.373C135.45 291.099 129.776 288.255 125.505 287.142C121.455 286.087 114.237 285.892 111.379 286.758ZM236.605 287.476C233.543 288.234 228.105 290.952 227.009 292.273C226.347 293.071 226.386 293.644 227.213 295.243C229.133 298.956 234.859 302.319 243.123 304.588C249.776 306.414 257.141 306.044 264.849 303.496C273.305 300.702 273.281 300.787 266.923 296.148C263.917 293.956 259.226 291.034 256.498 289.657C251.901 287.335 251.083 287.142 245.303 287.01C241.874 286.931 237.96 287.141 236.605 287.476ZM146.098 298.163C144.417 298.64 141.367 300.042 139.322 301.279C134.305 304.313 124.459 312.378 124.9 313.092C125.78 314.515 134.369 316.496 141.033 316.813C147.076 317.1 148.607 316.947 152.518 315.66C161.367 312.748 167.451 308.667 169.186 304.48C169.911 302.728 169.862 302.38 168.77 301.548C164.308 298.147 152.424 296.373 146.098 298.163ZM200.671 298.844C197.316 299.816 194.954 300.952 193.316 302.38C192.32 303.248 192.296 303.563 193.109 305.135C195.381 309.528 201.931 313.763 210.461 316.354C214.541 317.593 216.223 317.761 221.274 317.435C227.131 317.056 235.702 315.034 237.016 313.719C238.098 312.638 227.763 304.239 220.714 300.472C217.177 298.58 216.163 298.359 210.213 298.182C206.156 298.062 202.493 298.315 200.671 298.844Z"/>
</mask>
<path fill-rule="evenodd" clip-rule="evenodd" d="M89.6219 65.2429C78.2135 69.2371 70.1513 76.8083 65.5196 87.8782C63.9511 91.627 63.3534 98.5557 64.5026 99.6735C65.4667 100.611 71.7618 99.2638 75.9423 97.2254C77.9109 96.265 81.3473 93.7077 83.5791 91.5419C87.0024 88.2202 87.9556 86.765 89.6677 82.2489C91.6307 77.0729 94.5935 65.3269 94.2122 64.2361C94.1089 63.9421 92.0438 64.3956 89.6219 65.2429ZM268.279 65.7377C268.287 68.3229 270.774 77.8034 272.871 83.2401C274.506 87.4824 275.551 89.0701 278.665 92.0401C283.168 96.334 289.423 99.6692 293.99 100.21C297.863 100.669 298.439 100.119 298.455 95.9552C298.474 90.3754 293.627 80.3976 288.46 75.3841C283.824 70.8845 276.662 66.7826 269.751 64.668C268.514 64.2899 268.275 64.4632 268.279 65.7377ZM47.8678 74.9713C45.509 78.3994 42.9597 84.4092 41.8474 89.1628C39.467 99.3366 43.7732 116.113 49.2078 117.838C51.8548 118.679 56.6097 111.787 58.6371 104.172C60.0368 98.9129 59.7943 94.0048 57.8435 88.1711C56.0256 82.7322 51.5128 73.2085 50.439 72.545C50.0907 72.3297 48.9335 73.4218 47.8678 74.9713ZM308.902 78.2068C305.793 84.3842 303.339 91.1787 302.725 95.3097C301.816 101.422 305.794 112.842 310.355 117.211C312.708 119.465 313.592 119.097 316.659 114.579C319.885 109.828 321.936 100.504 321.177 94.0463C320.327 86.8078 314.936 73.8431 312.431 73.0076C311.989 72.8606 310.457 75.1177 308.902 78.2068ZM81.4645 99.7332C72.718 102.026 65.6551 106.442 60.7686 112.671C56.4848 118.133 54.2331 122.941 53.8192 127.51L53.4662 131.402L58.3226 131.14C63.8926 130.84 68.9336 128.821 74.3767 124.712C76.9721 122.752 78.3773 120.948 80.5253 116.819C83.1411 111.793 87.134 101.203 87.134 99.2938C87.134 98.2353 87.1988 98.2302 81.4645 99.7332ZM274.837 99.2312C274.837 99.3721 275.846 102.481 277.077 106.139C280.043 114.944 283.609 121.592 286.914 124.471C291.249 128.249 298.443 131.375 303.66 131.748C308.079 132.064 308.131 132.049 308.573 130.283C309.101 128.181 307.591 122.519 305.552 118.955C303.944 116.144 298.903 109.841 296.869 108.098C294.578 106.134 287.698 102.434 283.923 101.135C280.335 99.9016 274.837 98.7487 274.837 99.2312ZM29.7077 111.723C26.1945 120.421 25.2166 129.438 27.0208 136.498C28.6307 142.801 31.6996 148.882 34.7193 151.754C38.4701 155.323 39.6724 154.958 42.4586 149.408C44.5126 145.315 44.734 144.304 45.0023 137.787L45.2965 130.648L42.5805 125.206C39.8746 119.783 32.4032 108.934 31.3748 108.934C31.0775 108.934 30.3273 110.188 29.7077 111.723ZM326.455 114.676C324.374 117.473 321.432 122.253 319.92 125.297C317.216 130.735 317.171 130.944 317.23 137.438C317.295 144.454 318.694 149.601 321.509 153.18C323.258 155.402 323.955 155.325 327.196 152.55C332.56 147.959 336.963 135.391 336.154 126.982C335.454 119.706 332.338 109.59 330.796 109.59C330.49 109.59 328.536 111.878 326.455 114.676ZM65.1476 135.31C61.3658 137.295 55.4699 141.955 52.6451 145.192C46.8477 151.834 42.7197 164.905 44.436 171.184C45.2123 174.024 45.2275 174.036 47.6341 173.59C53.5436 172.494 62.5048 165.315 65.3241 159.419C67.0514 155.805 68.5586 147.899 69.0348 139.944C69.4436 133.136 69.3958 133.079 65.1476 135.31ZM293.216 138.621C293.221 145.314 294.948 155.224 296.829 159.335C299.691 165.59 308.281 172.674 314.913 174.246C319.68 175.376 319.25 162.991 314.164 152.709C310.713 145.731 304.198 139.417 296.341 135.436L293.214 133.851L293.216 138.621ZM16.2528 153.262C16.2528 159.068 17.9264 166.826 20.2195 171.654C23.9382 179.48 33.9245 188.326 39.0594 188.341C40.2323 188.344 41.1924 188.239 41.1924 188.108C41.1924 187.977 41.4871 186.315 41.8481 184.414C42.6317 180.279 41.8442 174.448 39.7472 168.866C38.6768 166.017 37.2205 163.964 34.0098 160.778C30.0201 156.819 18.7146 148.968 17.0023 148.968C16.5166 148.968 16.2528 150.482 16.2528 153.262ZM338.128 153.516C327.132 160.712 323.31 165.227 321.128 173.603C320.1 177.552 319.895 184.096 320.707 187.034C321.828 191.09 328.886 188.145 335.805 180.738C340.786 175.403 343.001 171.386 344.655 164.678C345.956 159.407 346.113 149.625 344.897 149.625C344.444 149.625 341.399 151.376 338.128 153.516ZM64.6913 168.251C61.2143 171.084 57.209 175.882 54.4151 180.561C50.9266 186.405 49.2408 200.099 51.3791 205.217C53.142 209.436 53.4327 209.556 57.0808 207.57C61.2164 205.319 65.8985 200.212 68.4228 195.198C70.192 191.683 70.4074 190.569 70.6131 183.849C70.8438 176.361 69.7353 165.376 68.7495 165.376C68.4592 165.376 66.6328 166.67 64.6913 168.251ZM292.972 166.514C292.035 169.745 291.107 181.232 291.403 185.968C291.673 190.297 292.149 192.157 293.851 195.529C297.696 203.145 306.678 210.863 309.23 208.744C310.535 207.662 312.254 202.003 312.224 198.892C312.178 194.179 310.298 186.051 308.327 182.048C306.344 178.021 298.917 169.348 295.162 166.674C293.427 165.438 293.288 165.428 292.972 166.514ZM12.798 188.082C12.1607 188.72 14.658 194.496 17.5536 199.08C21.3398 205.075 26.4183 209.591 32.8094 212.647C39.4309 215.812 44.2802 216.848 47.9122 215.869C50.4606 215.183 50.503 215.123 50.0932 212.751C49.2497 207.869 45.3494 201.172 40.9555 197.062C37.336 193.676 36.0378 192.921 31.2724 191.433C28.2455 190.488 23.8495 189.403 21.5032 189.022C19.157 188.641 16.3303 188.183 15.2211 188.003C14.1126 187.822 13.0225 187.858 12.798 188.082ZM341.124 189.373C338.417 189.86 333.692 191.062 330.623 192.046C325.574 193.664 324.635 194.244 320.731 198.146C315.981 202.893 312.933 208.312 312.412 212.935C312.104 215.667 312.193 215.873 313.865 216.293C322.335 218.419 336.973 210.951 343.844 200.998C345.988 197.893 349.655 190.427 349.655 189.167C349.656 188.16 347.6 188.21 341.124 189.373ZM71.1536 202.792C66.9596 207.322 62.5133 215.778 61.5338 221.087C60.0389 229.191 61.3163 238.577 64.4488 242.505L65.9306 244.364L68.3813 242.849C71.4588 240.948 75.6545 235.714 77.8753 231.007C79.4071 227.76 79.5764 226.636 79.5557 219.849C79.537 213.608 79.209 211.137 77.6616 205.575C76.6318 201.875 75.5686 198.848 75.2973 198.848C75.0268 198.848 73.1624 200.623 71.1536 202.792ZM285.682 202.467C283.309 210.558 281.927 218.799 282.247 222.96C282.792 230.065 287.646 238.712 293.452 242.917C296.425 245.071 297.101 244.809 299.197 240.7C300.906 237.352 301.594 231.188 301.014 224.436C300.615 219.786 300.094 218.053 297.569 212.968C295.68 209.161 293.181 205.44 290.715 202.758L286.834 198.538L285.682 202.467ZM19.3414 218.318C18.668 219.408 23.0279 225.976 27.6666 230.859C34.6182 238.178 43.4566 242.112 53.0239 242.148C58.5118 242.168 60.38 241.053 59.5729 238.241C57.8549 232.249 51.5065 224.736 45.627 221.737C44.1909 221.004 41.0546 220.005 38.6584 219.517C32.9814 218.36 19.8205 217.543 19.3414 218.318ZM87.2073 222.311C82.7407 229.893 81.5712 234.149 81.5725 242.82C81.5737 248.955 81.8531 251.18 83.0649 254.707C84.5632 259.07 88.4483 264.478 90.0833 264.478C91.1893 264.478 94.3705 260.471 96.3348 256.603C99.9871 249.411 100.522 242.177 97.9635 234.556C96.4101 229.928 90.7364 217.88 90.1104 217.88C89.9495 217.88 88.6434 219.874 87.2073 222.311ZM268.091 226.249C263.095 236.725 261.956 241.451 262.944 247.618C263.818 253.076 267.269 260.647 270.132 263.389C271.999 265.177 272.145 265.209 273.707 264.185C274.603 263.598 276.222 261.43 277.305 259.368C282.126 250.181 282.368 238.91 277.971 228.381C276.522 224.911 272.772 218.537 272.179 218.537C271.953 218.537 270.113 222.008 268.091 226.249ZM328.654 219.009C323.03 219.651 317.822 221.312 314.483 223.528C308.51 227.493 303.776 233.82 302.679 239.304C302.311 241.147 302.468 241.402 304.405 242.077C309.467 243.842 318.356 242.216 326.132 238.103C330.615 235.732 337.396 229.13 340.272 224.336C343.936 218.228 344.102 218.522 337.092 218.642C333.715 218.7 329.918 218.865 328.654 219.009ZM106.264 238.303C104.302 243.45 103.662 252.944 104.856 259.237C105.969 265.106 109.837 272.207 114.413 276.784C119.701 282.071 121.373 282.256 123.309 277.769C125.06 273.711 125.597 266.451 124.555 260.927C123.491 255.292 120.369 250.442 112.753 242.596C106.946 236.613 106.916 236.593 106.264 238.303ZM249.195 243.313C239.657 253.382 237.168 258.576 237.165 268.416C237.163 273.634 238.712 279.5 240.478 280.966C241.313 281.659 242.001 281.531 244.459 280.227C250.278 277.14 256.74 265.893 257.685 257.208C258.466 250.025 256.887 237.57 255.194 237.57C254.886 237.57 252.187 240.154 249.195 243.313ZM42.0318 247.685C39.4257 248.116 37.1319 248.63 36.935 248.827C36.2406 249.523 41.9577 255.917 45.9699 258.933C51.4866 263.08 55.4102 264.968 60.9176 266.127C68.9353 267.813 76.0371 267.219 79.2839 264.589L80.7276 263.42L79.2619 260.503C77.1782 256.355 71.9569 251.678 66.4563 249.032C61.8712 246.827 61.5017 246.76 54.2496 246.829C50.1364 246.867 44.6387 247.253 42.0318 247.685ZM301.991 247.381C297.707 248.052 291.303 251.454 287.828 254.906C285.233 257.483 281.4 262.868 281.4 263.937C281.4 265.057 286.928 267.179 290.78 267.537C296.52 268.071 304.872 266.269 310.563 263.268C315.267 260.788 325.373 251.644 325.373 249.868C325.373 248.218 308.269 246.398 301.991 247.381ZM130.45 262.078C130.45 265.162 134.635 274.25 138.407 279.355C144.074 287.026 158.156 294.201 163.941 292.364C165.296 291.935 165.378 291.611 165.047 287.965C164.616 283.213 161.842 277.312 157.888 272.735C154.431 268.735 147.489 265.318 137.879 262.887C130.065 260.911 130.45 260.953 130.45 262.078ZM223.317 263.567C214.012 266.116 207.252 269.691 203.933 273.817C200.393 278.218 197.577 284.208 197.023 288.513C196.52 292.422 196.963 292.919 200.953 292.917C206.309 292.915 215.377 288.537 220.874 283.298C225.038 279.332 230.305 269.84 231.774 263.658C232.147 262.085 232.011 261.859 230.713 261.901C229.894 261.928 226.566 262.677 223.317 263.567ZM75.6486 269.43C70.9847 270.589 63.6742 272.93 61.9685 273.811C60.8207 274.403 60.8376 274.521 62.2966 276.113C64.6469 278.676 71.8401 283.112 76.9611 285.157C80.9338 286.744 82.488 286.997 88.4466 287.029C96.4969 287.073 101.823 285.754 104.98 282.934L107.045 281.089L105.249 278.734C102.829 275.561 99.8034 273.342 94.5436 270.88C89.2444 268.401 82.0165 267.846 75.6486 269.43ZM273.382 269.429C271.318 269.933 267.83 271.253 265.631 272.363C261.696 274.35 255.804 279.691 255.804 281.273C255.804 282.475 259.36 285.244 262.187 286.244C263.786 286.81 267.807 287.121 273.525 287.121H282.385L287.963 284.425C293.981 281.518 301.974 275.878 301.398 274.947C300.871 274.093 287.478 269.909 283.697 269.416C281.893 269.181 279.678 268.881 278.775 268.75C277.873 268.619 275.446 268.925 273.382 269.429ZM111.379 286.758C106.287 288.303 91.2858 297.633 90.6052 299.677C90.3453 300.458 97.7734 303.368 102.885 304.489C111.456 306.369 122.637 304.324 129.865 299.554C133.628 297.072 136.458 293.726 135.939 292.373C135.45 291.099 129.776 288.255 125.505 287.142C121.455 286.087 114.237 285.892 111.379 286.758ZM236.605 287.476C233.543 288.234 228.105 290.952 227.009 292.273C226.347 293.071 226.386 293.644 227.213 295.243C229.133 298.956 234.859 302.319 243.123 304.588C249.776 306.414 257.141 306.044 264.849 303.496C273.305 300.702 273.281 300.787 266.923 296.148C263.917 293.956 259.226 291.034 256.498 289.657C251.901 287.335 251.083 287.142 245.303 287.01C241.874 286.931 237.96 287.141 236.605 287.476ZM146.098 298.163C144.417 298.64 141.367 300.042 139.322 301.279C134.305 304.313 124.459 312.378 124.9 313.092C125.78 314.515 134.369 316.496 141.033 316.813C147.076 317.1 148.607 316.947 152.518 315.66C161.367 312.748 167.451 308.667 169.186 304.48C169.911 302.728 169.862 302.38 168.77 301.548C164.308 298.147 152.424 296.373 146.098 298.163ZM200.671 298.844C197.316 299.816 194.954 300.952 193.316 302.38C192.32 303.248 192.296 303.563 193.109 305.135C195.381 309.528 201.931 313.763 210.461 316.354C214.541 317.593 216.223 317.761 221.274 317.435C227.131 317.056 235.702 315.034 237.016 313.719C238.098 312.638 227.763 304.239 220.714 300.472C217.177 298.58 216.163 298.359 210.213 298.182C206.156 298.062 202.493 298.315 200.671 298.844Z" stroke="white" stroke-width="16.9302" mask="url(#path-6-outside-1_302_15)"/>
<path d="M180.658 289.327C185.965 289.327 190.267 293.629 190.267 298.935C190.267 304.242 185.965 308.544 180.658 308.544C175.352 308.544 171.05 304.242 171.05 298.935C171.05 293.629 175.352 289.327 180.658 289.327Z" fill="#FFF100" stroke="white" stroke-width="5.43482"/>
<path d="M158.211 76.4476C155.252 72.1159 152.815 68.3507 152.797 68.0796C152.779 67.8086 165.915 67.5874 181.989 67.5874H211.214L211.031 75.9553L210.847 84.3231H187.22H163.593L158.211 76.4476Z" fill="black"/>
<path d="M160.479 101.716C155.091 101.716 155.1 101.863 160.098 95.1835L163.559 90.5586H187.367H211.175V94.7924C211.175 106.528 205.867 117.015 197.762 121.291C194.803 122.853 193.722 123.045 187.876 123.045C182.189 123.046 180.831 122.819 177.7 121.35C171.391 118.391 167.293 112.874 165.771 105.29L165.053 101.716H160.479Z" fill="black"/>
<path d="M144.887 132.096C145.601 131.596 147.296 130.778 148.655 130.28C150.602 129.565 156.982 129.363 178.852 129.326C194.104 129.302 206.582 129.445 206.582 129.648C206.582 129.849 195.432 144.81 181.806 162.893L157.03 195.771L156.857 174.339C156.762 162.552 156.437 152.908 156.135 152.908C155.832 152.908 145.649 165.263 133.505 180.366C121.289 195.558 110.677 208.164 109.75 208.587C102.802 211.752 94.0676 205.522 95.411 198.359C95.7098 196.767 100.106 190.409 109.764 177.603C135.479 143.509 143.581 133.01 144.887 132.096Z" fill="black"/>
<path d="M169.938 195.684C170.058 195.387 181.525 180.325 195.421 162.212C209.317 144.1 221.074 129.28 221.548 129.28C224.617 129.28 228.695 131.053 231.22 133.484C236.237 138.314 236.115 136.901 236.115 190.108V236.914H196.408H156.702V224.773V212.631H184.923H213.144V204.427V196.223H191.432C179.49 196.223 169.817 195.981 169.938 195.684Z" fill="black"/>
</g>
</g>
<defs>
<clipPath id="clip0_302_15">
<rect width="364" height="296.279" fill="white" transform="translate(0 34)"/>
</clipPath>
</defs>
</svg>
