<svg width="675" height="456" viewBox="0 0 675 456" fill="none" xmlns="http://www.w3.org/2000/svg">
<path fill-rule="evenodd" clip-rule="evenodd" d="M0.630371 315.539L38.2642 338.915C75.3363 362.291 150.604 409.044 225.31 422.402C300.016 435.76 375.284 415.723 449.99 415.723C524.696 415.723 599.963 435.76 637.035 445.778L674.669 455.797H637.035C599.963 455.797 524.696 455.797 449.99 455.797C375.284 455.797 300.016 455.797 225.31 455.797C150.604 455.797 75.3363 455.797 38.2642 455.797H0.630371V315.539Z" fill="#C5AB24"/>
<path fill-rule="evenodd" clip-rule="evenodd" d="M0.630371 363.307L38.2642 378.722C75.3363 394.137 150.604 424.966 225.31 433.775C300.016 442.583 375.284 429.371 449.99 429.371C524.696 429.371 599.963 442.583 637.035 449.19L674.669 455.796H637.035C599.963 455.796 524.696 455.796 449.99 455.796C375.284 455.796 300.016 455.796 225.31 455.796C150.604 455.796 75.3363 455.796 38.2642 455.796H0.630371V363.307Z" fill="#FFF100"/>
<path fill-rule="evenodd" clip-rule="evenodd" d="M674.668 196.539L637.035 173.162C599.962 149.786 524.695 103.033 449.989 89.6753C375.283 76.3174 300.015 96.3543 225.309 96.3543C150.603 96.3543 75.3355 76.3174 38.2634 66.299L0.629517 56.2806H38.2634C75.3355 56.2806 150.603 56.2806 225.309 56.2806C300.015 56.2806 375.283 56.2806 449.989 56.2806C524.695 56.2806 599.962 56.2806 637.035 56.2806H674.668V196.539Z" fill="#C5AB24"/>
<path fill-rule="evenodd" clip-rule="evenodd" d="M674.669 148.77L637.036 133.355C599.963 117.94 524.696 87.1103 449.99 78.3018C375.284 69.4933 300.016 82.706 225.31 82.706C150.604 82.706 75.3364 69.4933 38.2642 62.8869L0.630371 56.2806H38.2642C75.3364 56.2806 150.604 56.2806 225.31 56.2806C300.016 56.2806 375.284 56.2806 449.99 56.2806C524.696 56.2806 599.963 56.2806 637.036 56.2806H674.669V148.77Z" fill="#FFF100"/>
<path d="M0.630371 56.2806L673.647 57.2966C613.3 41.0352 608.697 40.0369 592.844 37.477C561.547 32.4236 514.828 25.6806 466.525 30.871C447.603 32.9043 387.257 44.0837 367.823 45.1C348.389 46.1164 310.198 45.1 277.303 30.8714C247.931 18.1665 214.912 -5.80242 171.441 1.39661C127.971 8.59564 113.008 19.1834 63.4008 41.0352C33.847 54.0536 0.630371 56.2806 0.630371 56.2806Z" fill="#FFF100"/>
</svg>
