<svg width="364" height="364" viewBox="0 0 364 364" fill="none" xmlns="http://www.w3.org/2000/svg">
<path d="M182 364C282.516 364 364 282.516 364 182C364 81.4842 282.516 0 182 0C81.4842 0 0 81.4842 0 182C0 282.516 81.4842 364 182 364Z" fill="#1C1C1C"/>
<path fill-rule="evenodd" clip-rule="evenodd" d="M123.996 137.205C122.874 137.474 121.858 138.013 121.029 138.78C118.804 140.838 116.345 146.423 113.669 155.495C113.148 157.262 112.695 158.79 112.662 158.892C112.618 159.031 112.502 159.005 112.191 158.786C111.509 158.305 109.77 157.543 108.797 157.298C107.385 156.944 104.925 157.076 103.715 157.572C101.961 158.29 100.198 159.647 98.8345 161.327C98.3828 161.884 98.0045 162.356 97.9941 162.376C97.9835 162.396 97.538 162.123 97.0039 161.768C95.7657 160.946 94.7014 160.415 93.4745 160.008C92.6591 159.738 92.2144 159.686 90.7376 159.69C89.167 159.695 88.8707 159.736 88.0257 160.067C86.6167 160.619 85.5655 161.394 84.0242 163.02L82.641 164.478L81.999 164.229C81.0883 163.876 79.569 163.561 78.2537 163.452C76.3213 163.291 74.6736 163.765 73.2954 164.876L72.5656 165.465L71.5845 165.057C71.045 164.832 70.021 164.54 69.3089 164.407L68.0145 164.164L67.4259 163.391C66.4764 162.144 62.4112 157.983 61.1854 157.003C58.9229 155.195 56.2899 153.895 53.855 153.385C46.9343 151.934 38.1544 155.713 30.1355 163.595C26.8478 166.826 25.4584 168.99 25.0387 171.533C24.8349 172.768 24.8402 173.019 25.1281 175.756C25.4361 178.681 25.6472 179.738 26.4392 182.313C26.9484 183.969 27.4548 184.816 28.439 185.659C29.3859 186.469 29.4463 186.532 29.9873 187.272C30.24 187.618 30.7704 188.14 31.166 188.433L31.8852 188.965L31.6951 189.679C31.5592 190.189 31.3248 190.574 30.8723 191.032C29.1063 192.817 28.4591 195.173 29.0458 197.678C29.1718 198.216 29.2818 198.87 29.2903 199.131C29.3049 199.585 29.2598 199.629 28.2714 200.127C27.0494 200.743 26.4677 201.267 25.6416 202.497C24.9329 203.552 24.4537 204.663 24.0744 206.131C23.8521 206.991 23.8063 207.647 23.8156 209.83C23.8259 212.266 23.8583 212.599 24.2117 213.881C24.6501 215.472 25.5959 217.545 26.3674 218.607C26.868 219.295 28.2906 220.82 30.4341 222.965C32.1293 224.662 34.532 226.024 36.9935 226.684C38.0466 226.966 38.5099 227.004 40.8021 227C42.9158 226.995 43.6476 226.94 44.6529 226.709C45.5942 226.493 45.877 226.468 45.8234 226.607C45.7271 226.855 46.1475 226.686 47.212 226.047C47.673 225.77 48.1387 225.544 48.247 225.544C48.3552 225.544 48.8351 225.176 49.3133 224.725C50.05 224.032 50.2839 223.894 50.8469 223.821C51.2991 223.763 51.7189 223.578 52.1626 223.243C52.5207 222.972 52.9596 222.75 53.1377 222.75C53.3159 222.75 53.8581 222.437 54.3428 222.053C54.8275 221.669 55.475 221.289 55.7816 221.207C56.2188 221.09 56.7524 220.651 58.2512 219.174L60.1632 217.289L60.8154 217.827C61.8628 218.69 62.279 218.933 62.8658 219.023C63.1774 219.071 63.6661 219.306 63.988 219.562C64.3656 219.863 64.8459 220.076 65.4109 220.193C67.0264 220.528 67.2889 220.474 69.9877 219.247C71.4583 218.579 72.5852 217.978 72.7524 217.775C72.9075 217.586 73.2344 217.198 73.4787 216.912C73.723 216.626 73.9452 216.236 73.9724 216.045C74.0309 215.634 74.0441 215.634 75.7146 216.123C77.8785 216.756 79.7851 216.458 81.71 215.185L82.5607 214.623L83.2284 215.042C84.6033 215.906 85.7194 216.209 87.5161 216.203C89.4733 216.197 91.3072 215.599 93.1342 214.371C94.0649 213.745 95.9048 212.015 96.6234 211.091L97.055 210.535L97.7056 211.129C99.4471 212.718 101.244 213.451 103.386 213.445L104.679 213.441L105.643 212.606C106.173 212.147 106.988 211.528 107.453 211.229C107.919 210.931 108.591 210.431 108.947 210.118C109.965 209.222 111.32 208.377 111.879 208.289C112.16 208.245 112.493 208.154 112.618 208.087C112.766 208.009 112.914 208.033 113.041 208.156C113.455 208.56 115.554 208.669 121.376 208.591C124.503 208.549 127.632 208.449 128.33 208.369C129.029 208.288 131.314 208.174 133.408 208.115L137.217 208.008L138.416 207.328C139.076 206.954 139.996 206.412 140.462 206.123C140.927 205.835 141.439 205.56 141.6 205.513C141.858 205.437 143.349 203.806 143.471 203.466C143.554 203.234 143.743 203.321 144.682 204.025C146.974 205.743 148.987 206.575 150.9 206.595C154.437 206.631 156.871 204.807 159.306 200.297C159.648 199.663 159.963 199.145 160.005 199.145C160.048 199.145 160.634 199.735 161.306 200.457C162.653 201.901 163.869 202.871 165.111 203.492C165.959 203.916 166.033 204.008 165.754 204.285C165.473 204.563 173.172 204.519 173.976 204.239C174.862 203.929 176.473 203.615 177.208 203.609C177.557 203.607 178.001 203.515 178.195 203.405C178.389 203.295 178.75 203.203 178.997 203.2C179.244 203.198 179.625 203.127 179.844 203.043C180.062 202.959 180.907 202.834 181.722 202.764C182.536 202.695 183.431 202.539 183.709 202.417C184.457 202.09 192.398 202.198 193.617 202.552L194.439 202.791L195.098 202.412C195.461 202.204 195.966 201.855 196.221 201.637C196.475 201.418 196.744 201.24 196.818 201.24C196.892 201.24 197.255 201.424 197.624 201.649C198.825 202.379 200.374 202.803 201.857 202.808C202.578 202.811 203.201 202.863 203.24 202.926C203.279 202.988 203.492 202.976 203.713 202.9C203.952 202.818 206.781 202.747 210.657 202.726C217.377 202.689 222.48 202.483 223.52 202.206C225.211 201.755 226.317 200.836 227.514 198.889C227.53 198.863 227.874 199.063 228.279 199.333C228.986 199.805 229.052 199.821 229.97 199.744C230.895 199.668 230.961 199.684 232.032 200.263C235.061 201.902 235.059 201.901 236.909 202.121C238.861 202.353 239.805 202.275 240.888 201.793C241.43 201.552 241.929 201.47 243.145 201.423C244.045 201.388 245.205 201.24 245.886 201.073C247.815 200.6 249.786 200.876 252.084 201.943C252.741 202.247 253.476 202.497 253.717 202.498C253.959 202.498 254.76 202.596 255.497 202.715C258.5 203.199 260.998 203.432 260.998 203.229C260.998 203.153 261.268 203.089 261.597 203.086C264.302 203.064 266.343 202.942 266.711 202.781C267.258 202.542 272.666 202.414 274.055 202.607C274.813 202.713 275.247 202.87 275.872 203.266C277.329 204.189 278.152 204.498 278.918 204.408C279.712 204.315 280.81 203.796 281.521 203.177L282.025 202.74L282.71 203.312C286.091 206.135 289.735 206.43 292.969 204.141L293.554 203.727L294.591 204.512C295.791 205.42 298.071 206.575 299.296 206.895C299.761 207.017 300.714 207.151 301.412 207.195C303.15 207.303 304.43 207.021 306.194 206.142L307.59 205.446L308.616 206.381C309.788 207.449 310.798 208.092 312.001 208.536C312.67 208.784 313.134 208.845 314.319 208.845C316.199 208.843 317.068 208.533 318.262 207.44L319.091 206.679L320.267 207.474C325.56 211.054 330.114 209.857 334.121 203.831C336.195 200.713 338.699 195.407 339.424 192.596C340.193 189.611 339.822 186.996 338.346 185.005L337.814 184.287L337.81 182.672C337.806 181.199 337.771 180.982 337.41 180.218C336.864 179.062 336.068 178.085 333.438 175.348C329.409 171.153 327.094 169.811 324.194 169.989L323.137 170.054L321.655 168.874C319.168 166.894 317.779 166.2 315.645 165.872C313.788 165.586 311.885 166.095 310.534 167.24L309.933 167.749L309.058 166.921C306.271 164.284 303.759 162.981 301.441 162.97C300.408 162.965 298.732 163.403 297.541 163.989C296.885 164.311 296.305 164.593 296.25 164.616C296.195 164.639 296.043 164.341 295.913 163.954C295.507 162.743 294.408 161.287 292.015 158.789C289.532 156.196 288.436 155.286 286.883 154.525C284.252 153.236 281.437 153.283 279.139 154.654L278.307 155.15L277.164 154.696C276.118 154.28 275.889 154.241 274.466 154.24C272.997 154.238 272.861 154.263 271.985 154.689C271.111 155.115 270.433 155.722 269.275 157.112L268.877 157.59L269.195 157.031C270.193 155.278 270.445 154.709 270.591 153.877C270.966 151.735 270.089 149.747 267.811 147.58C267.284 147.077 266.548 146.314 266.177 145.882C265.312 144.877 262.825 143.025 261.27 142.229C259.54 141.342 258.143 140.992 256.633 141.065C254.532 141.166 253.052 142.119 251.727 144.224C250.876 145.576 249.244 149.216 248.319 151.826C247.918 152.957 247.557 153.97 247.516 154.075C247.457 154.228 247.107 154.253 245.791 154.2C243.144 154.093 241.368 154.708 239.249 156.467L238.166 157.365L237.557 156.904C235.366 155.25 232.77 154.587 230.585 155.126L229.866 155.303L228.751 154.511C225.71 152.347 222.492 151.48 220.136 152.189C219.597 152.351 218.894 152.672 218.574 152.902L217.991 153.319L217.359 152.97C215.715 152.059 213.021 151.405 211.665 151.586C211.295 151.635 210.6 151.8 210.121 151.952L209.249 152.228L208.679 151.94C207.327 151.257 204.861 151.034 203.228 151.447C202.146 151.721 200.893 152.333 199.939 153.055C199.524 153.37 199.167 153.607 199.145 153.583C199.124 153.559 198.965 153.256 198.792 152.911C198.618 152.565 197.96 151.771 197.328 151.147C196.697 150.522 195.451 149.249 194.558 148.319C192.675 146.354 191.605 145.456 190.326 144.767C188.167 143.605 185.614 143.403 183.657 144.239C182.686 144.654 181.418 145.696 180.643 146.717C179.445 148.295 178.096 151.266 177.625 153.365C177.526 153.806 177.422 154.168 177.394 154.168C177.365 154.168 176.883 153.82 176.323 153.394C173.178 151.006 170.175 150.6 167.182 152.158C166.657 152.431 165.84 153.001 165.367 153.425L164.506 154.197L163.628 153.63C162.503 152.905 161.119 152.289 160.168 152.09C158.055 151.647 155.919 152.215 154.262 153.658L153.634 154.206L152.389 153.62C150.788 152.867 148.8 152.444 147.226 152.522C145.926 152.587 144.65 153.088 143.71 153.903C143.23 154.318 142.196 155.721 142.051 156.151C142.022 156.235 141.59 156.005 141.089 155.641L140.179 154.978L140.005 153.7C139.4 149.253 137.235 145.549 132.395 140.679C130.549 138.822 129.991 138.347 129.164 137.925C127.367 137.008 125.752 136.783 123.996 137.205ZM127.837 139.662C130.313 140.849 134.021 145.901 135.052 149.491C135.308 150.384 135.373 150.968 135.377 152.422C135.381 153.421 135.332 154.552 135.27 154.936L135.157 155.635L135.965 155.674C137.532 155.75 139.408 156.825 141.726 158.978C142.344 159.551 142.857 160.008 142.866 159.993C142.875 159.977 143.059 159.462 143.275 158.847C144.53 155.278 145.968 154.241 148.925 154.774C150.498 155.057 151.534 155.477 152.844 156.36C153.464 156.778 154.014 157.068 154.067 157.005C154.119 156.943 154.427 156.57 154.75 156.177C155.922 154.753 157.816 153.882 159.272 154.098C160.759 154.319 162.374 155.185 163.872 156.566L164.707 157.336L165.457 156.405C167.489 153.88 169.885 152.88 172.219 153.585C174.07 154.144 176.496 156.098 178.554 158.686C179.013 159.264 179.404 159.722 179.422 159.704C179.44 159.687 179.389 159.078 179.31 158.352C179.121 156.631 179.395 154.754 180.167 152.467C181.28 149.171 182.623 147.178 184.286 146.355C185.029 145.988 185.308 145.927 186.243 145.927C188.523 145.927 189.811 146.624 192.523 149.328C194.497 151.296 194.635 151.481 194.846 152.455C195.107 153.663 194.856 154.456 193.706 156.052C193.166 156.801 192.726 157.454 192.727 157.502C192.728 157.55 193.121 158.03 193.599 158.568C194.077 159.106 194.844 160.048 195.304 160.663C195.763 161.278 196.159 161.801 196.182 161.825C196.205 161.85 196.644 161.063 197.157 160.076C200.275 154.078 204.113 152.055 208.35 154.18C209.424 154.718 209.536 154.747 209.763 154.544C210.301 154.062 211.26 153.755 212.241 153.752C213.913 153.747 215.387 154.245 217.321 155.469C218.314 156.098 218.444 156.146 218.567 155.929C219.108 154.972 220.195 154.259 221.36 154.1C223.301 153.834 226.522 155.215 228.8 157.289L229.399 157.834L230.14 157.515C231.249 157.038 232.776 156.982 233.97 157.376C234.915 157.687 236.429 158.665 237.786 159.84L238.493 160.452L238.846 159.999C240.033 158.477 241.559 157.235 242.945 156.664C243.59 156.398 243.975 156.346 245.27 156.346C246.612 156.346 246.948 156.395 247.762 156.713L248.703 157.08L249.273 155.519C249.586 154.661 250.138 153.141 250.499 152.143C251.286 149.964 252.639 146.924 253.421 145.578C254.72 143.34 256.213 142.715 258.55 143.428C260.206 143.934 261.262 144.54 263.318 146.167C265.291 147.727 266.191 149.255 266.033 150.775C265.972 151.351 265.765 151.861 265.175 152.886C264.139 154.685 263.432 156.214 262.563 158.534C262.168 159.591 261.844 160.486 261.844 160.522C261.844 160.558 262.241 160.372 262.727 160.107C264.57 159.104 266.696 158.959 268.756 159.694C269.621 160.004 269.82 160.034 269.946 159.874C270.028 159.769 270.469 159.18 270.925 158.566C271.95 157.186 272.442 156.754 273.325 156.459C274.46 156.078 275.471 156.248 277.187 157.107L278.636 157.832L279.343 157.178C279.732 156.818 280.413 156.354 280.857 156.149C281.569 155.818 281.828 155.775 283.074 155.783C284.204 155.79 284.638 155.855 285.258 156.108C286.484 156.609 287.8 157.555 289.013 158.806C290.967 160.822 291.6 161.943 291.605 163.394C291.609 164.464 291.158 165.524 290.448 166.116C290.015 166.476 290.015 166.477 290.282 166.812C291.46 168.286 292.993 170.231 293.2 170.515C293.372 170.75 293.477 170.803 293.53 170.683C293.72 170.25 295.59 167.991 296.195 167.465C297.953 165.932 299.601 165.21 301.351 165.205C303.571 165.199 305.001 166.022 308.129 169.107L310.191 171.14L310.515 170.583C311.052 169.659 312.155 168.609 312.942 168.274C313.56 168.011 313.859 167.974 314.955 168.021C316.11 168.071 316.366 168.135 317.435 168.643C318.692 169.24 321.128 171.068 321.978 172.052L322.459 172.608L323.009 172.372C323.791 172.036 325.468 172.059 326.387 172.418C328.023 173.059 330.687 175.319 332.245 177.388C333.463 179.004 333.626 180.179 332.849 181.715C332.666 182.077 332.516 182.401 332.516 182.435C332.516 182.469 332.804 182.664 333.156 182.868C334.834 183.842 335.58 186.365 334.996 189.092C334.673 190.598 333.851 192.625 332.307 195.722C330.21 199.93 328.694 202.11 326.944 203.433C324.845 205.021 323.055 205.215 320.703 204.109C319.27 203.436 318.521 202.902 317.128 201.562L315.917 200.396L315.737 200.993C315.029 203.336 313.336 204.558 311.277 204.211C310.806 204.132 310.045 203.887 309.585 203.666C308.629 203.208 306.863 201.614 306.129 200.548C305.862 200.161 305.606 199.843 305.561 199.843C305.516 199.843 305.078 200.161 304.59 200.549C303.509 201.408 302.106 202.124 301.045 202.358C299.725 202.649 297.809 202.483 296.471 201.963C295.03 201.403 293.386 200.335 292.091 199.117L291.076 198.161L290.153 199.074C289.529 199.692 288.92 200.134 288.268 200.439C287.392 200.85 287.184 200.891 285.958 200.891C284.683 200.891 284.553 200.862 283.528 200.36C282.362 199.79 280.532 198.207 279.525 196.897L278.983 196.193L278.889 196.835C278.702 198.097 277.664 199.305 276.414 199.713C276.121 199.809 275.479 199.85 274.872 199.811C274.045 199.759 273.62 199.641 272.789 199.234C271.673 198.688 269.963 197.23 269.259 196.224L268.861 195.656L268.01 196.436C266.223 198.074 264.598 198.854 262.728 198.971C261.247 199.064 260.147 198.835 258.798 198.151L257.748 197.619L257.319 198.518C256.133 201.003 253.316 201.573 251.26 199.742C250.417 198.992 249.85 198.203 249.508 197.304C249.284 196.716 249.205 196.641 248.719 196.559C248.018 196.442 246.708 195.66 245.9 194.876L245.26 194.256L244.998 194.696C244.48 195.563 242.833 197.128 241.997 197.547C241.278 197.907 241.034 197.956 239.98 197.95C239.021 197.944 238.603 197.87 237.895 197.581C236.696 197.09 235.598 196.416 234.682 195.609L233.919 194.936L233.427 195.308C232.809 195.775 231.415 196.211 230.542 196.211C228.795 196.211 226.577 195.037 224.451 192.987C224.052 192.602 223.698 192.313 223.666 192.345C223.633 192.377 223.542 192.805 223.463 193.295C223.168 195.121 223.043 195.547 222.622 196.152C222.092 196.915 220.991 197.564 220.026 197.683C219.134 197.793 217.631 197.463 216.648 196.942C216.252 196.732 215.502 196.135 214.981 195.615L214.033 194.669L213.166 195.302C212.061 196.107 211.055 196.406 209.733 196.32C208.487 196.24 207.461 195.767 206.121 194.652L205.155 193.849L204.645 194.753C203.922 196.033 202.819 197.101 201.656 197.646C200.781 198.057 200.573 198.097 199.344 198.097C198.039 198.097 197.952 198.077 196.786 197.505C196.123 197.179 195.261 196.629 194.872 196.283C194.483 195.936 194.11 195.653 194.044 195.654C193.978 195.654 193.77 195.877 193.583 196.149C193.014 196.977 191.785 197.99 190.996 198.28C189.451 198.849 188.238 198.798 186.753 198.102C185.777 197.645 184.117 196.239 183.132 195.035L182.357 194.088L182.267 195.325C182.218 196.006 182.083 196.786 181.967 197.06C181.704 197.684 181 198.487 180.389 198.861C178.891 199.778 176.473 199.297 174.488 197.688L173.673 197.028L172.547 198.077C171.133 199.394 170.299 199.808 168.642 200.015C167.063 200.213 165.556 199.961 164.039 199.245C161.532 198.063 158.937 195.163 157.786 192.258C157.486 191.501 157.378 191.346 157.295 191.55C156.626 193.205 155.876 194.879 155.238 196.142C153.67 199.246 152.505 200.652 150.863 201.422C150.002 201.827 149.787 201.868 148.573 201.868C147.292 201.868 147.179 201.843 146.033 201.295C144.588 200.604 142.874 199.358 141.747 198.179C141.291 197.701 140.873 197.362 140.819 197.424C140.766 197.487 140.366 198.073 139.932 198.726C138.37 201.074 136.864 202.546 135.174 203.375C134.31 203.799 134.174 203.824 132.706 203.822C131.085 203.819 129.982 203.567 128.622 202.889C127.121 202.14 125.398 200.623 124.251 199.04C123.959 198.637 123.704 198.307 123.685 198.307C123.666 198.307 123.037 199.328 122.287 200.576C119.595 205.06 118.21 206.272 115.785 206.267C114.288 206.264 112.554 204.979 111.057 202.764L110.224 201.531L109.771 202.325C108.69 204.222 106.465 206.609 104.943 207.505C103.296 208.474 102.514 208.711 100.957 208.712C99.6065 208.713 99.4893 208.688 98.4871 208.198C97.2999 207.617 96.123 206.549 95.2627 205.274C94.9603 204.825 94.6753 204.379 94.6296 204.281C94.5625 204.138 94.5299 204.138 94.4623 204.283C94.2265 204.787 92.6625 207.007 91.9942 207.786C90.4067 209.636 88.1328 211.085 86.2519 211.445C84.1815 211.841 82.1776 211.193 80.6855 209.644L79.8899 208.818L79.5372 209.345C77.6947 212.102 74.1628 212.568 71.5962 210.393C71.2764 210.122 70.9615 209.903 70.8961 209.907C70.8308 209.911 70.4447 210.591 70.0381 211.418C69.1327 213.26 68.1493 214.396 66.8745 215.071C66.0872 215.488 65.8309 215.55 64.7119 215.596C63.6994 215.637 63.2762 215.589 62.6211 215.362C60.9578 214.784 58.9675 213.155 58.0685 211.636L57.7064 211.024L56.8476 212.173C56.3752 212.805 55.6346 213.722 55.2016 214.212C52.5367 217.224 47.8399 220.279 44.0465 221.468C38.229 223.292 33.384 222.498 29.7617 219.127C27.9489 217.44 27 215.838 26.3178 213.311C25.9903 212.098 25.9423 211.647 25.9333 209.69C25.9243 207.768 25.9673 207.303 26.2404 206.366C27.0617 203.548 28.5026 201.921 30.3698 201.702C30.8388 201.647 31.082 201.548 31.1239 201.395C31.1579 201.271 31.2897 200.688 31.4168 200.098C31.6419 199.052 31.6399 199.001 31.3352 198.007C30.9424 196.727 30.9191 195.303 31.2739 194.256C31.4759 193.66 31.7468 193.28 32.4845 192.56L33.4348 191.631L34.4383 187.587C34.9903 185.363 35.4418 183.494 35.4418 183.435C35.4418 183.377 35.1807 183.562 34.8616 183.847C34.0598 184.565 33.2699 184.891 32.3242 184.894C30.4924 184.901 29.2629 183.98 28.6452 182.137C27.7048 179.33 27.1167 175.795 27.1209 172.972C27.1249 170.325 28.0389 168.746 31.6251 165.194C36.6134 160.252 41.6633 157.084 46.6945 155.739C47.9279 155.409 48.3236 155.371 50.6058 155.364C52.847 155.356 53.2774 155.393 54.2734 155.675C56.7146 156.368 59.4007 158.076 61.6328 160.354C63.2405 161.995 64.4195 163.676 65.2632 165.531L65.8536 166.829L66.3407 166.655C66.6086 166.559 67.3245 166.476 67.9315 166.47C69.2502 166.458 70.6841 166.883 72.1653 167.726C72.6958 168.028 73.1775 168.275 73.2358 168.275C73.2942 168.275 73.4141 168.118 73.5024 167.927C73.7918 167.298 74.8543 166.284 75.5736 165.951C77.0589 165.263 80.0635 165.607 82.2817 166.719L83.3473 167.253L83.7552 166.682C85.1807 164.686 86.9814 162.938 88.269 162.301C90.8255 161.037 94.3033 162.002 97.4793 164.858C97.9677 165.297 98.3893 165.632 98.4165 165.604C98.4436 165.575 98.8472 164.986 99.3131 164.295C101.564 160.955 104.079 159.192 106.586 159.198C108.716 159.203 110.519 159.998 112.857 161.961C113.349 162.375 113.778 162.688 113.81 162.656C113.842 162.624 114.221 161.346 114.651 159.815C118.087 147.594 120.791 141.287 123.237 139.79C124.558 138.982 126.315 138.932 127.837 139.662ZM124.806 143.296C124.6 143.539 124.127 144.34 123.755 145.077C121.708 149.138 119.415 156.074 116.902 165.808C116.33 168.024 115.758 169.994 115.631 170.187C115.406 170.526 114.608 170.955 113.857 171.139L113.49 171.229L113.558 169.839C113.622 168.515 113.606 168.414 113.228 167.725C112.752 166.86 110.391 164.569 109.171 163.787C108.3 163.23 107.19 162.826 106.546 162.831C105.437 162.84 103.796 164.253 102.327 166.461C101.729 167.359 101.187 168.455 100.539 170.073C100.029 171.351 99.5174 172.537 99.4034 172.709C99.1941 173.026 97.8213 173.8 97.6936 173.673C97.6555 173.636 97.6949 173.156 97.7809 172.607C97.8914 171.902 97.8939 171.449 97.7895 171.065C97.283 169.202 93.0304 165.578 91.2313 165.476C89.8584 165.398 89.172 165.835 87.5864 167.795C84.8183 171.216 83.4733 175.164 83.3141 180.335C83.2569 182.197 83.1632 183.146 82.9622 183.902C82.2299 186.657 77.2876 198.216 76.2961 199.494C76.0952 199.753 76.0849 199.717 76.1566 199.005C76.557 195.021 78.7034 183.827 79.8789 179.592C80.4506 177.532 81.0428 175.62 82.1948 172.117C82.4448 171.357 82.2909 171.036 81.3936 170.446C80.405 169.796 79.1788 169.374 78.0289 169.288C77.1295 169.221 77.0894 169.232 76.818 169.62C76.3295 170.318 76.0941 171.097 74.5148 177.237C72.4643 185.209 72.4018 185.406 68.9819 194.675C66.2614 202.049 65.3522 204.313 65.1118 204.313C64.953 204.313 65.1878 201.722 65.5646 199.317C66.6179 192.595 70.2449 177.663 71.6376 174.315C72.2883 172.751 72.2739 172.341 71.5464 171.724C70.7486 171.048 69.0312 170.214 68.2579 170.128C67.4655 170.04 67.016 170.291 66.6354 171.036C66.2943 171.704 65.2155 174.998 64.6579 177.075C63.8074 180.243 61.9559 188.946 61.3381 192.679C60.3898 198.412 59.9658 205.897 60.4789 207.848C60.9329 209.573 62.0481 211.049 63.3811 211.687C64.7998 212.366 65.6813 211.897 66.6735 209.934C67.5568 208.188 68.7907 204.697 69.9448 200.681L70.6874 198.097L70.6971 200.341C70.704 201.906 70.7712 202.8 70.9187 203.292C71.3271 204.654 73.3694 207.346 74.4028 207.885C74.9772 208.185 75.5681 208.13 76.0465 207.731C76.5467 207.314 77.6913 205.148 78.953 202.232C79.4506 201.081 79.9494 199.966 80.0614 199.755L80.2648 199.37L80.345 199.781C80.389 200.007 80.4675 200.475 80.5194 200.821C80.6677 201.807 81.5118 204.235 82.0769 205.3C83.1495 207.321 84.2992 208.141 85.604 207.816C86.6655 207.551 87.3571 207.129 88.4588 206.074C91.1415 203.504 93.5601 198.327 93.5554 195.164C93.5525 193.207 93.072 191.626 91.2134 187.454C89.3127 183.188 89.1364 182.548 89.1249 179.869C89.1157 177.769 89.1295 177.664 89.5808 176.377C90.1969 174.62 91.042 173.171 92.0804 172.092C92.9805 171.156 93.3316 171.012 93.4699 171.523C93.5818 171.936 93.5812 173.419 93.4685 174.738L93.3783 175.795L92.7985 176.013C92.4797 176.134 92.0125 176.272 91.7603 176.322C91.5081 176.371 91.3018 176.456 91.3018 176.51C91.3018 176.564 91.2337 177.278 91.1505 178.097C90.8152 181.396 91.6419 185.037 92.7263 185.037C93.4426 185.037 94.4594 183.452 95.3836 180.893C95.8227 179.677 95.8805 179.595 97.0614 178.517C97.7341 177.903 98.4192 177.33 98.584 177.243C98.875 177.089 98.8863 177.117 98.9792 178.232C99.2285 181.223 99.7084 183.1 101.808 189.297C103.682 194.829 104.179 197.028 103.718 197.748C103.524 198.051 102.113 197.989 101.317 197.643C99.3784 196.8 97.5339 194.428 96.4276 191.355C96.1584 190.607 95.8711 189.933 95.7888 189.856C95.5737 189.655 95.7429 193.921 96.0298 195.932C96.7596 201.048 98.3921 204.411 100.441 205.019C102.014 205.485 104.719 203.512 106.484 200.61C107.328 199.224 108.217 197.378 108.691 196.029C109.121 194.808 109.143 194.645 109.138 192.719C109.131 190.265 109 189.78 107.034 184.897C105.588 181.309 105.203 180.044 104.96 178.093C104.649 175.599 105.319 173.027 106.876 170.733C107.622 169.633 108.71 168.555 109.072 168.555C109.327 168.555 109.492 170.298 109.357 171.558C109.282 172.249 109.221 172.888 109.219 172.978C109.218 173.067 108.777 173.306 108.239 173.51C107.702 173.713 107.178 173.98 107.076 174.103C106.826 174.402 106.84 178.762 107.094 179.939C107.302 180.903 107.782 181.914 108.217 182.303C108.516 182.57 108.52 182.569 109.018 182.093C109.717 181.425 110.398 180.268 111.128 178.509C111.795 176.902 111.906 176.767 113.783 175.293C114.297 174.889 114.718 174.638 114.717 174.734C114.716 174.831 114.308 177.084 113.81 179.741C112.149 188.598 111.679 193.952 112.326 196.624C112.83 198.708 114.426 201.555 115.525 202.329C115.904 202.597 115.972 202.604 116.338 202.416C116.557 202.304 116.824 202.103 116.931 201.97C118.077 200.545 121.472 194.801 123.71 190.501C124.455 189.071 125.141 187.786 125.236 187.646C125.375 187.442 125.405 187.908 125.388 190.021C125.366 192.934 125.497 193.682 126.312 195.292C127.677 197.991 129.704 199.721 131.986 200.134C133.224 200.358 133.638 200.227 134.646 199.293C136.536 197.543 137.846 195.375 140.82 189.078C141.997 186.587 143.023 184.485 143.101 184.408C143.194 184.316 143.21 184.504 143.15 184.967C143.1 185.351 143.053 187.143 143.044 188.948C143.023 193.585 143.293 194.635 144.883 196.108C145.888 197.038 147.626 198.126 148.285 198.236C149.478 198.435 150.409 197.47 151.928 194.46C153.612 191.123 156.199 183.926 158.804 175.329C159.479 173.101 160.131 171.108 160.254 170.9C160.396 170.657 160.758 170.41 161.26 170.213C161.691 170.044 162.352 169.754 162.728 169.57C163.104 169.385 163.433 169.255 163.458 169.28C163.483 169.305 163.324 169.96 163.103 170.737C161.501 176.389 160.584 182.028 160.53 186.573C160.501 188.916 160.677 189.757 161.561 191.514C162.609 193.594 164.127 195.218 165.708 195.951C166.551 196.342 166.736 196.375 167.805 196.33C168.835 196.287 169.042 196.233 169.504 195.884C170.246 195.324 171.32 193.995 173.003 191.555L174.457 189.447L174.54 190.636C174.641 192.087 175.161 193.171 176.316 194.333C176.989 195.01 177.962 195.653 178.315 195.653C178.388 195.653 178.49 194.946 178.544 194.081C178.795 190.047 179.488 186.428 181.104 180.707C182.059 177.33 186.546 162.896 186.684 162.758C186.968 162.475 188.835 164.981 189.003 165.871C189.14 166.591 188.957 167.351 187.155 173.583C186.277 176.618 185.365 179.949 185.128 180.986C184.15 185.269 183.849 189.111 184.398 190.309C184.798 191.181 185.449 192.069 186.501 193.177C188.313 195.085 189.153 195.393 190.113 194.5C190.642 194.008 192.203 191.331 192.942 189.646C193.195 189.07 193.687 188.002 194.035 187.273L194.668 185.947L194.761 187.343C194.987 190.729 195.814 192.537 197.729 193.832C198.678 194.473 199.271 194.605 199.99 194.333C201.202 193.875 202.043 192.239 204.015 186.504C205.492 182.209 205.339 182.354 205.42 185.177C205.489 187.584 205.498 187.636 205.953 188.589C206.528 189.792 207.732 191.283 208.727 192.028C210.579 193.412 211.073 192.971 214.04 187.29L214.942 185.563L215.036 187.011C215.088 187.808 215.2 188.762 215.286 189.132C215.76 191.191 218.048 193.977 219.265 193.977C219.627 193.977 219.667 193.93 219.667 193.511C219.667 192.435 220.955 188.475 222.747 184.041C224.884 178.755 228.387 171.384 228.409 172.128C228.411 172.211 228.156 173.122 227.842 174.153C226.348 179.055 225.169 184.661 225.171 186.853C225.171 188.068 225.666 188.924 227.272 190.485C229.145 192.305 230.461 192.857 231.429 192.229C231.988 191.866 233.322 189.786 234.195 187.917C234.611 187.026 234.97 186.315 234.992 186.337C235.014 186.359 235.1 187.088 235.183 187.959C235.496 191.252 236.561 192.93 239.055 194.061C239.76 194.38 239.904 194.403 240.276 194.25C241.412 193.784 243.284 190.559 244.569 186.853C245.579 183.942 245.648 183.759 245.713 183.823C245.746 183.856 245.701 184.473 245.612 185.193C245.337 187.42 245.554 188.318 246.822 190.206C248.076 192.074 249.105 192.999 249.931 192.999C250.792 192.999 251.207 192.471 253.609 188.319L255.144 185.666L255.255 186.923C255.503 189.728 255.577 189.414 254.044 192.091C253.572 192.916 253.149 193.873 253.011 194.429C252.792 195.307 252.792 195.411 253.013 195.983C253.269 196.647 253.805 197.233 253.903 196.957C253.958 196.801 255.193 194.792 256.271 193.104C256.553 192.662 256.873 192.3 256.982 192.3C257.091 192.3 257.769 192.804 258.489 193.42C260.194 194.878 261.051 195.305 262.267 195.3C263.426 195.296 264.358 194.826 265.587 193.627C268.624 190.664 270.986 185.2 272.288 178.123C272.75 175.608 272.94 175.12 273.455 175.12C274 175.12 275.414 174.709 276.338 174.284C276.945 174.004 277.22 173.934 277.22 174.059C277.22 174.159 276.909 174.894 276.529 175.693C275.762 177.303 273.48 183.277 272.413 186.468C271.582 188.953 271.107 191.134 271.24 191.856C271.487 193.203 272.868 195.059 274.173 195.8C275.184 196.374 275.245 196.352 275.245 195.405C275.245 194.126 275.505 192.362 275.951 190.624C276.511 188.438 279.629 179.291 280.928 176.021C282.089 173.1 283.404 170.231 283.581 170.231C283.762 170.231 284.719 171.417 285.296 172.354C286.096 173.657 286.128 173.473 284.243 178.472C282.068 184.237 280.909 188.277 280.795 190.485C280.723 191.876 280.738 191.986 281.091 192.632C282.016 194.327 283.954 196.461 285.089 197.034C285.865 197.426 286.21 197.406 286.979 196.924C287.701 196.47 288.478 195.45 289.703 193.348C290.151 192.58 290.709 191.647 290.944 191.276L291.37 190.601L291.625 191.595C292.317 194.295 294.7 197.09 297.392 198.361C298.604 198.934 300.069 198.975 301.075 198.466C302.243 197.875 303.963 196.265 305.623 194.209C306.502 193.121 307.318 192.151 307.437 192.054C307.628 191.897 307.644 192.054 307.581 193.477C307.524 194.748 307.559 195.228 307.751 195.818C308.428 197.906 310.964 200.828 311.817 200.504C311.935 200.459 312.175 199.993 312.349 199.469C313.516 195.958 317.229 189.087 319.893 185.508C320.393 184.835 320.826 184.219 320.856 184.137C320.886 184.056 320.958 184.033 321.016 184.087C321.074 184.14 320.894 184.71 320.615 185.352C318.849 189.424 317.704 193.406 317.704 195.48C317.704 196.303 317.763 196.528 318.13 197.1C319.327 198.969 322.084 201.1 323.304 201.1C323.568 201.1 323.96 201.01 324.175 200.9C324.812 200.574 326.22 198.981 327.06 197.635C328.767 194.903 331.03 189.971 331.389 188.198C331.558 187.367 331.478 186.227 331.241 186.082C331.105 185.998 331.058 186.062 329.283 188.739C328.672 189.66 327.782 190.918 327.306 191.532C325.995 193.223 323.158 196.207 323.001 196.059C322.918 195.98 323.386 194.396 324.242 191.859C325.641 187.713 327.351 183.796 328.94 181.096L329.574 180.019L329.157 179.418C328.622 178.648 326.834 176.965 325.865 176.319C324.499 175.408 323.96 175.604 321.732 177.827C319.894 179.66 318.56 181.439 316.19 185.216C315.14 186.89 314.251 188.229 314.215 188.193C314.102 188.081 315.011 185.069 315.753 183.1C316.652 180.712 317.662 178.535 318.771 176.598C319.611 175.131 319.64 175.05 319.429 174.732C319.056 174.169 316.834 172.444 315.941 172.025C314.817 171.498 314.423 171.509 313.989 172.082C312.867 173.562 311.037 178.236 309.585 183.335C309.266 184.457 308.892 185.439 308.645 185.809C307.584 187.394 301.806 192.095 299.311 193.402C297.792 194.197 296.887 193.918 296.675 192.587C296.537 191.725 296.717 189.534 297.04 188.147C297.226 187.347 298.219 184.076 298.315 183.948C298.332 183.925 298.759 184.215 299.263 184.593C300.32 185.386 301.271 185.679 302.298 185.529C305.205 185.106 308.098 181.628 308.673 177.867C308.893 176.428 308.716 175.711 307.797 174.311C306.999 173.096 304.248 170.322 303.006 169.482C301.526 168.479 300.27 168.705 298.635 170.268C296.579 172.234 295.076 175.035 293.383 180.061C292.352 183.119 291.986 183.911 290.82 185.61C289.39 187.694 286.896 190.903 286.789 190.797C286.547 190.557 288.794 183.16 290.766 177.704C291.678 175.181 291.347 174.053 288.738 170.79C288.278 170.214 287.562 169.36 287.149 168.893C285.412 166.932 285.4 165.654 287.103 164.069L287.945 163.284L287.331 162.463C286.196 160.946 284.708 159.761 283.568 159.465C283.041 159.328 282.844 159.337 282.413 159.516C280.947 160.128 279.47 163.812 279.896 165.794C279.983 166.198 280.139 166.683 280.244 166.871C280.402 167.156 280.402 167.299 280.243 167.743C279.912 168.672 278.611 171.07 278.369 171.195C278.069 171.352 276.128 171.601 274.301 171.717C272.672 171.821 272.822 171.93 272.646 170.51C272.604 170.165 272.534 169.756 272.491 169.602C272.377 169.192 274.814 166.055 276.776 164.086L278.378 162.479L277.574 161.754C277.132 161.356 276.275 160.775 275.669 160.462L274.568 159.895L273.009 161.949C272.152 163.079 271.217 164.399 270.931 164.882C270.645 165.366 270.341 165.761 270.254 165.761C270.167 165.761 269.939 165.469 269.748 165.112C269.378 164.421 268.299 163.48 267.493 163.143C267.224 163.031 266.633 162.94 266.177 162.94C264.909 162.94 263.834 163.527 262.457 164.971C260.541 166.981 259.005 169.865 257.178 174.879C256.352 177.148 256.028 177.825 254.779 179.907C252.693 183.383 251.23 185.469 251.023 185.263C250.642 184.886 252.968 176.166 256.113 166.18C258.879 157.401 260.381 153.501 261.936 151.061C262.368 150.384 262.299 150.157 261.42 149.374C259.828 147.957 257.349 146.599 256.951 146.926C256.734 147.105 255.559 149.482 254.858 151.163C254.178 152.79 251.697 159.737 251.215 161.361C251.009 162.053 250.842 162.756 250.842 162.925C250.842 163.093 250.788 163.263 250.723 163.303C250.657 163.343 250.064 162.885 249.403 162.285C246.584 159.722 245.112 159.342 243.293 160.709C241.011 162.422 238.219 168.387 236.809 174.561C236.122 177.567 235.414 178.982 231.892 184.392C231.297 185.305 230.811 186.106 230.811 186.173C230.811 186.24 230.739 186.294 230.651 186.294C230.454 186.294 230.456 186.279 231.443 181.824C232.595 176.625 233.866 172.523 235.834 167.651C237.088 164.549 237.061 164.252 235.392 162.706C233.483 160.938 232.32 160.438 231.42 160.997C230.905 161.317 229.937 162.636 228.212 165.368C225.983 168.898 224.356 172.098 222.552 176.504C222.099 177.611 221.703 178.444 221.673 178.356C221.566 178.037 222.121 175.681 223.129 172.18C224.65 166.898 225.378 164.854 227.093 161.053C227.294 160.607 224.73 158.634 223.225 158.077C221.9 157.585 221.814 157.638 221.041 159.406C220.031 161.719 218.944 165.157 217.97 169.119C216.376 175.602 216.364 175.639 214.917 178.453C213.633 180.954 211.633 184.383 211.07 185.053C210.682 185.515 210.688 185.416 211.281 181.92C212.736 173.35 214.596 166.732 216.982 161.641L217.571 160.384L216.82 159.718C215.335 158.401 213.404 157.38 212.399 157.38C211.87 157.38 211.421 157.945 210.979 159.17C210.765 159.761 210.573 160.267 210.552 160.294C210.49 160.377 209.651 159.752 208.454 158.731C206.689 157.227 205.661 156.819 204.503 157.164C201.746 157.986 199.108 163.29 196.681 172.892C195.908 175.952 195.73 176.474 194.766 178.521C193.573 181.054 191.825 184.316 190.823 185.881L190.156 186.923L190.234 186.015C190.403 184.029 192.174 176.508 193.539 171.977C194.299 169.454 194.339 169.247 194.34 167.787C194.342 166.407 194.303 166.167 193.959 165.436C193.466 164.386 192.024 162.361 190.76 160.942C189.478 159.504 189.057 158.691 189.057 157.657C189.057 156.579 189.38 155.732 190.25 154.532C190.656 153.971 191.03 153.446 191.08 153.365C191.226 153.132 188.238 150.212 187.496 149.862C186.095 149.201 185.491 149.571 184.458 151.723C183.411 153.907 183.083 155.217 183.071 157.261C183.063 158.839 183.092 159.06 183.344 159.336L183.626 159.645L182.449 163.017C180.544 168.474 179.511 171.57 178.898 173.653C178.582 174.729 178.06 176.138 177.739 176.785C177.02 178.231 173.739 183.12 171.967 185.386C170.138 187.724 167.573 190.266 166.838 190.468C166.355 190.601 166.25 190.59 166.096 190.384C165.235 189.232 165.498 185.044 166.759 179.818C166.998 178.831 167.193 177.908 167.193 177.767C167.193 177.304 167.444 177.343 168.102 177.907C169.157 178.811 170.14 178.933 171.525 178.331C174.037 177.24 176.887 171.834 177.64 166.733C177.862 165.236 177.751 164.454 177.153 163.278C176.075 161.158 173.236 158.08 171.65 157.311C170.942 156.968 170.827 156.951 170.343 157.109C169.168 157.493 167.536 159.527 166.256 162.204C165.917 162.911 165.641 163.55 165.641 163.625C165.641 163.779 165.44 163.878 163.396 164.731C162.589 165.068 161.895 165.311 161.855 165.272C161.815 165.232 162.017 164.367 162.305 163.35C162.592 162.333 162.826 161.383 162.823 161.238C162.817 160.779 162.254 160.046 161.251 159.192C159.422 157.633 158.607 157.441 157.722 158.362C156.776 159.346 155.612 162.168 155.205 164.462C155.118 164.953 155.068 166.553 155.09 168.163L155.129 170.999L154.398 173.583C151.685 183.171 149.295 190.248 148.507 191.028C148.312 191.221 148.29 191.173 148.291 190.549C148.291 190.168 148.356 188.819 148.436 187.551C149.024 178.123 150.749 166.653 152.243 162.238C152.474 161.555 152.663 160.95 152.663 160.893C152.663 160.712 150.321 159.065 149.636 158.765C149.272 158.606 148.642 158.442 148.236 158.4L147.498 158.325L147.131 159.145C146.133 161.373 145.47 164.584 144.553 171.628C144.278 173.74 143.958 175.846 143.843 176.307C143.538 177.519 142.5 179.557 140.605 182.662C136.663 189.124 133.541 193.101 131.732 193.969C130.95 194.343 130.927 194.328 130.587 193.218C130.129 191.723 130.34 189.424 131.45 183.82L132.12 180.439L132.705 180.973C134.073 182.221 135.536 182.052 137.318 180.439C139.328 178.62 141.483 174.288 142.163 170.697C142.329 169.817 142.38 168.962 142.34 167.717C142.29 166.193 142.235 165.869 141.908 165.166C141.407 164.088 140.536 162.996 139.069 161.603C137.511 160.124 136.3 159.336 135.584 159.336C134.418 159.336 132.95 160.97 131.504 163.876C129.917 167.066 128.913 170.128 127.35 176.542L126.545 179.85L124.364 183.438C120.943 189.066 118.899 192.148 117.466 193.837L116.933 194.465L117.033 193.003C117.147 191.333 118.162 185.038 118.418 184.412C118.511 184.183 119.085 183.177 119.694 182.177C124.208 174.756 131.37 157.521 131.744 153.178C131.918 151.163 131.268 149.25 129.531 146.659C127.194 143.174 125.77 142.161 124.806 143.296ZM127.978 151.793C127.616 154.126 126.495 158.054 124.68 163.351C123.527 166.715 121.507 172.196 120.856 173.723C120.354 174.901 120.351 174.905 120.438 174.212C120.612 172.837 123.136 163.251 124.687 158.079C125.195 156.384 126.562 152.823 127.959 149.558C128.127 149.164 128.142 150.745 127.978 151.793ZM48.8311 159.049C45.678 159.622 42.3436 161.204 38.9092 163.757C34.7876 166.822 31.3925 170.361 30.9116 172.095C30.5976 173.227 31.153 177.76 31.8871 180.057C32.3227 181.419 32.4493 181.446 32.7474 180.237C32.9495 179.417 33.5853 178.141 34.3576 177.005C35.0732 175.953 38.4415 172.547 40.1101 171.188C41.3783 170.155 42.9677 169.114 43.2766 169.114C43.3815 169.114 43.268 169.575 42.9692 170.363C42.1811 172.44 41.0361 176.583 38.8205 185.375C37.4719 190.726 36.6222 193.844 36.4643 194.019C36.3286 194.17 35.8844 194.538 35.4771 194.838C34.7753 195.354 34.7365 195.415 34.7365 196.009C34.7365 196.356 34.8943 197.02 35.0891 197.495C35.2831 197.968 35.4418 198.479 35.4418 198.631C35.4418 198.783 35.1285 200.485 34.7457 202.413C33.5798 208.284 33.4723 209.376 33.8375 211.63L33.9254 212.172L33.3002 211.746C31.5018 210.521 30.5123 208.484 30.6907 206.373C30.7345 205.854 30.7433 205.43 30.7105 205.43C30.5741 205.43 29.9654 206.812 29.7874 207.525C29.5019 208.67 29.5666 211.134 29.9162 212.434C30.5741 214.88 32.0814 216.747 34.2718 217.827C35.8392 218.6 36.67 218.75 38.8974 218.66C41.7648 218.544 44.5114 217.653 47.2654 215.947C52.5695 212.659 55.9883 208.084 56.8837 203.074C57.1517 201.573 57.1027 199.75 56.7692 198.826C55.9464 196.544 52.9522 193.966 50.6855 193.587L50.0598 193.483L51.8799 192.088C55.161 189.575 57.3513 187.309 59.1956 184.522C63.3105 178.303 64.2575 172.168 61.891 167.066C60.3181 163.675 56.9672 160.517 53.7891 159.431C52.7933 159.09 52.3077 159.01 51.029 158.975C50.1756 158.951 49.1866 158.985 48.8311 159.049ZM173.455 162.77C173.694 163.387 173.349 165.905 172.739 167.996C171.966 170.645 170.933 172.659 169.744 173.837C169.122 174.453 168.262 174.968 168.109 174.817C168.004 174.713 169.637 169.569 170.429 167.507C171.844 163.824 173.101 161.856 173.455 162.77ZM208.911 163.46C209.314 163.918 209.312 163.961 208.799 165.971C208.119 168.632 207.133 171.363 205.093 176.237C202.241 183.052 200.137 187.551 199.801 187.551C199.529 187.551 199.974 184.261 200.699 180.916C202.531 172.46 205.622 164.07 207.235 163.172C207.754 162.883 208.521 163.014 208.911 163.46ZM138.093 166.355C137.828 171.34 136.044 175.74 133.564 177.519C133.261 177.736 132.966 177.913 132.909 177.913C132.752 177.913 132.979 177.019 133.919 173.933C134.921 170.645 135.542 168.949 136.374 167.228C136.903 166.134 137.854 164.784 138.096 164.784C138.14 164.784 138.139 165.491 138.093 166.355ZM249.194 166.037C249.668 166.449 249.67 166.459 249.547 167.24C249.136 169.833 246.291 176.423 242.195 184.269C240.271 187.952 239.735 188.687 239.916 187.388C240.69 181.845 242.577 174.958 244.571 170.395C246.396 166.218 247.838 164.858 249.194 166.037ZM55.7657 166.166C58.4231 167.165 59.0737 169.755 57.7195 173.941C57.1018 175.85 55.3534 179.179 53.6139 181.757C50.2693 186.715 44.9098 191.873 43.0943 191.88C42.8569 191.882 42.8452 191.953 43.4786 189.553C46.0024 179.986 48.3568 172.883 49.5658 171.187C49.7111 170.983 49.83 170.714 49.83 170.589C49.83 170.199 48.0612 168.605 47.1577 168.181C46.6956 167.964 46.3145 167.743 46.3105 167.689C46.2971 167.504 48.0704 166.76 49.2103 166.473C52.2939 165.696 54.2707 165.603 55.7657 166.166ZM53.5853 170.152C53.7132 171.231 53.5871 171.688 52.7918 173.025C52.4034 173.678 51.8902 174.715 51.6515 175.329C51.1811 176.54 49.828 180.522 49.8332 180.68C49.8414 180.926 52.0448 177.393 52.7784 175.958C53.7149 174.126 54.2419 172.796 54.5495 171.488C54.9025 169.987 54.7989 169.637 53.9552 169.483L53.4959 169.4L53.5853 170.152ZM266.318 170.406C266.274 170.963 266.135 171.699 266.011 172.043C265.77 172.706 263.255 176.843 263.153 176.742C263.059 176.649 264.05 173.81 264.748 172.172C265.361 170.736 266.113 169.393 266.305 169.393C266.357 169.393 266.363 169.849 266.318 170.406ZM304.513 174.596C304.127 178.459 302.141 181.537 299.684 182.081C299.354 182.154 299.084 182.173 299.084 182.123C299.084 182.073 299.455 181.153 299.908 180.078C301.209 176.989 302.691 174.593 303.728 173.901C304.539 173.36 304.629 173.439 304.513 174.596ZM268.192 176.092C268.192 176.797 267.247 180.197 266.492 182.209C265.209 185.627 263.321 189.139 262.409 189.805C262.215 189.946 261.856 190.101 261.611 190.148C261.17 190.234 261.165 190.228 260.993 189.471C260.716 188.242 260.871 186.374 261.322 185.502C261.685 184.802 267.301 176.416 267.737 175.923C268.051 175.569 268.192 175.622 268.192 176.092ZM84.6429 188.459C84.8733 189.151 85.5531 191.036 86.1534 192.65C88.1673 198.061 88.5622 200.62 87.4268 200.902C86.8632 201.042 86.218 200.863 85.2509 200.296C83.4276 199.229 81.4276 196.866 81.4276 195.779C81.4276 195.488 81.6526 194.539 81.9275 193.67C82.2026 192.802 82.7713 190.771 83.1917 189.158C83.6121 187.544 83.9654 186.193 83.9768 186.154C83.9883 186.116 84.0485 186.336 84.1109 186.643C84.1731 186.951 84.4126 187.768 84.6429 188.459ZM57.1876 192.486C56.8794 192.811 56.8794 192.812 57.1601 193.064C57.4665 193.339 57.506 193.295 57.6278 192.545C57.7041 192.075 57.5917 192.06 57.1876 192.486ZM47.5722 197.478C51.7694 198.152 52.3775 201.665 49.1192 206.416C46.864 209.704 42.5679 212.421 39.0592 212.777L38.1691 212.867L38.5721 210.72C38.7938 209.539 39.4021 206.651 39.9239 204.302L40.8726 200.031L42.1195 198.924C43.4643 197.731 43.5909 197.659 44.6713 197.48C45.6952 197.31 46.5242 197.31 47.5722 197.478ZM70.8004 197.783C70.7613 197.879 70.7293 197.8 70.7293 197.608C70.7293 197.416 70.7613 197.338 70.8004 197.434C70.8396 197.53 70.8396 197.687 70.8004 197.783ZM44.7518 201.513C44.273 201.906 44.2405 201.998 43.6738 204.547C43.3523 205.993 43.1073 207.196 43.1295 207.219C43.2292 207.326 44.7481 205.961 45.3619 205.213C46.5816 203.725 47.7598 201.471 47.4683 201.183C47.4225 201.137 46.9035 201.102 46.3152 201.104C45.3451 201.107 45.1995 201.145 44.7518 201.513ZM162.255 208.219C162.255 208.294 162.351 208.319 162.467 208.274C162.583 208.23 162.679 208.169 162.679 208.139C162.679 208.109 162.583 208.084 162.467 208.084C162.351 208.084 162.255 208.145 162.255 208.219Z" fill="white"/>
</svg>
