<svg width="239" height="136" viewBox="0 0 239 136" fill="none" xmlns="http://www.w3.org/2000/svg">
<g clip-path="url(#clip0)">
<path fill-rule="evenodd" clip-rule="evenodd" d="M75.5846 34.1545C74.7358 34.3581 73.9675 34.7656 73.3405 35.3448C71.658 36.8996 69.798 41.1193 67.7743 47.9739C67.3801 49.3089 67.0374 50.4639 67.0127 50.5406C66.9789 50.6459 66.8917 50.6263 66.6559 50.4602C66.14 50.0968 64.8249 49.521 64.0893 49.3365C63.0211 49.0685 61.1609 49.1684 60.2457 49.543C58.9188 50.086 57.5852 51.111 56.5543 52.3802C56.2127 52.801 55.9265 53.1577 55.9186 53.173C55.9106 53.1883 55.5737 52.9816 55.1698 52.7137C54.2333 52.0925 53.4283 51.6915 52.5004 51.3839C51.8837 51.1796 51.5473 51.1406 50.4304 51.1436C49.2425 51.147 49.0184 51.1781 48.3793 51.4282C47.3136 51.8452 46.5185 52.4313 45.3529 53.6593L44.3067 54.7613L43.8211 54.5733C43.1324 54.3066 41.9832 54.0682 40.9885 53.9858C39.5269 53.8647 38.2807 54.2223 37.2384 55.0622L36.6864 55.507L35.9443 55.1986C35.5363 55.0289 34.7618 54.8078 34.2232 54.7071L33.2443 54.524L32.7991 53.9401C32.0809 52.998 29.0063 49.8539 28.0792 49.1137C26.368 47.7472 24.3766 46.7651 22.535 46.3795C17.3007 45.2834 10.6602 48.1389 4.59525 54.0937C2.10867 56.5351 1.05779 58.1702 0.740391 60.0918C0.586226 61.0245 0.59028 61.2141 0.808031 63.2821C1.04093 65.4927 1.20064 66.2907 1.79959 68.2367C2.18474 69.4879 2.56775 70.128 3.31211 70.7644C4.02831 71.3766 4.07397 71.4242 4.48312 71.9832C4.67431 72.2444 5.07546 72.6391 5.37461 72.8603L5.91862 73.2625L5.7748 73.8016C5.67206 74.1872 5.49474 74.4783 5.15249 74.8241C3.81686 76.1732 3.32737 77.9527 3.77109 79.8456C3.86636 80.2519 3.94958 80.7459 3.95598 80.9433C3.96707 81.2864 3.93293 81.3197 3.18537 81.6961C2.26113 82.1615 1.82114 82.5576 1.19638 83.4866C0.660374 84.2837 0.297954 85.123 0.011069 86.2322C-0.157072 86.8821 -0.191746 87.3774 -0.184704 89.0272C-0.176916 90.868 -0.152378 91.1189 0.114877 92.0877C0.446464 93.2897 1.16181 94.8564 1.74529 95.6584C2.12393 96.1787 3.19988 97.3307 4.82111 98.9517C6.10319 100.233 7.92041 101.263 9.78212 101.761C10.5787 101.974 10.929 102.003 12.6627 102C14.2613 101.996 14.8148 101.955 15.5752 101.78C16.2871 101.617 16.501 101.598 16.4605 101.703C16.3876 101.891 16.7056 101.763 17.5107 101.28C17.8594 101.071 18.2116 100.9 18.2935 100.9C18.3753 100.9 18.7383 100.622 19.1 100.281C19.6572 99.7572 19.8341 99.6531 20.2599 99.5981C20.6019 99.554 20.9194 99.4145 21.255 99.1613C21.5258 98.9566 21.8577 98.7892 21.9925 98.7892C22.1272 98.7892 22.5374 98.5521 22.9039 98.2622C23.2705 97.9724 23.7602 97.6847 23.9922 97.6229C24.3228 97.5348 24.7264 97.2029 25.86 96.0867L27.3061 94.6629L27.7993 95.069C28.5915 95.7212 28.9063 95.9049 29.3501 95.9732C29.5858 96.0095 29.9554 96.1869 30.1989 96.3804C30.4845 96.6075 30.8477 96.7683 31.275 96.857C32.4969 97.1104 32.6955 97.0694 34.7366 96.1423C35.8489 95.6372 36.7012 95.1837 36.8276 95.03C36.945 94.8873 37.1922 94.5939 37.377 94.378C37.5617 94.162 37.7298 93.8672 37.7504 93.7226C37.7946 93.4122 37.8046 93.4126 39.0681 93.782C40.7047 94.2604 42.1467 94.0351 43.6025 93.0734L44.246 92.6484L44.7509 92.9654C45.7908 93.6182 46.6349 93.8465 47.9938 93.8424C49.4741 93.838 50.8612 93.386 52.243 92.4578C52.9469 91.9849 54.3385 90.6781 54.882 89.9796L55.2084 89.5598L55.7005 90.0085C57.0176 91.2095 58.3769 91.7631 59.9968 91.7585L60.9747 91.7557L61.7038 91.1247C62.1048 90.7777 62.7209 90.3097 63.073 90.0845C63.425 89.8592 63.9334 89.4814 64.2027 89.2447C64.973 88.5677 65.9973 87.9294 66.4201 87.8629C66.6329 87.8294 66.8845 87.7608 66.9791 87.7104C67.0907 87.6509 67.2032 87.6693 67.2992 87.7627C67.6123 88.0674 69.2001 88.15 73.6033 88.091C75.9679 88.0592 78.3347 87.9837 78.8628 87.923C79.3909 87.8623 81.1193 87.7762 82.7036 87.7316L85.5842 87.6506L86.4911 87.1366C86.9898 86.854 87.686 86.4444 88.038 86.2264C88.3901 86.0084 88.7775 85.8009 88.899 85.7653C89.0945 85.7081 90.2219 84.476 90.314 84.219C90.377 84.0436 90.5202 84.1096 91.23 84.641C92.9639 85.9392 94.4864 86.5677 95.933 86.5826C98.6077 86.6099 100.449 85.2322 102.291 81.8245C102.549 81.3457 102.787 80.9539 102.82 80.9538C102.852 80.9537 103.295 81.3999 103.804 81.9452C104.822 83.0363 105.742 83.7691 106.681 84.2383C107.322 84.5584 107.379 84.6282 107.167 84.8374C106.955 85.0473 112.778 85.0146 113.386 84.8025C114.056 84.5685 115.275 84.3316 115.83 84.3272C116.094 84.3251 116.43 84.2555 116.577 84.1726C116.724 84.0896 116.997 84.0201 117.184 84.018C117.371 84.0159 117.659 83.9624 117.824 83.899C117.989 83.8356 118.628 83.7409 119.244 83.6885C119.86 83.6361 120.537 83.518 120.747 83.4261C121.313 83.1789 127.319 83.2606 128.241 83.5281L128.862 83.7084L129.361 83.4226C129.635 83.2654 130.018 83.0018 130.21 82.8368C130.403 82.6717 130.606 82.5368 130.662 82.5368C130.718 82.5368 130.992 82.6758 131.272 82.8457C132.18 83.3973 133.351 83.7179 134.473 83.7217C135.019 83.7235 135.49 83.7635 135.519 83.8106C135.548 83.8576 135.709 83.8489 135.877 83.7911C136.057 83.7289 138.197 83.6752 141.129 83.6593C146.211 83.6319 150.071 83.4761 150.857 83.2666C152.137 82.9259 152.973 82.2318 153.879 80.7603C153.89 80.741 154.151 80.892 154.457 81.096C154.992 81.4524 155.042 81.4644 155.736 81.4068C156.436 81.3489 156.485 81.3613 157.296 81.7991C159.586 83.037 159.585 83.0363 160.984 83.2024C162.46 83.3778 163.174 83.3191 163.993 82.9548C164.403 82.7724 164.781 82.7105 165.7 82.675C166.381 82.6487 167.259 82.5369 167.774 82.4106C169.233 82.0531 170.723 82.2621 172.461 83.0678C172.958 83.2981 173.514 83.4869 173.697 83.4873C173.879 83.4877 174.485 83.5615 175.042 83.6512C177.314 84.0168 179.203 84.193 179.203 84.0395C179.203 83.9822 179.407 83.9336 179.657 83.9315C181.702 83.9148 183.246 83.8229 183.524 83.7013C183.938 83.5204 188.028 83.4236 189.079 83.57C189.652 83.6498 189.98 83.7687 190.453 84.068C191.555 84.7654 192.177 84.9984 192.757 84.9305C193.357 84.8602 194.188 84.4679 194.726 84.0006L195.106 83.6701L195.625 84.1027C198.182 86.2357 200.938 86.4581 203.384 84.7289L203.826 84.4161L204.611 85.0093C205.518 85.6951 207.243 86.5678 208.169 86.8095C208.521 86.9014 209.241 87.0033 209.769 87.0362C211.084 87.1177 212.052 86.9048 213.386 86.2403L214.442 85.7144L215.218 86.421C216.104 87.2278 216.868 87.7136 217.778 88.0496C218.284 88.2364 218.636 88.2831 219.531 88.2825C220.953 88.2816 221.611 88.0475 222.513 87.221L223.141 86.6462L224.03 87.2469C228.034 89.952 231.478 89.0476 234.508 84.4948C236.077 82.1384 237.97 78.13 238.519 76.0057C239.101 73.7502 238.82 71.775 237.704 70.2705L237.301 69.7282L237.298 68.5076C237.295 67.3946 237.269 67.2309 236.996 66.6537C236.583 65.7804 235.981 65.0423 233.992 62.9743C230.944 59.8047 229.194 58.7908 227 58.925L226.201 58.9739L225.08 58.0826C223.199 56.5869 222.148 56.0624 220.535 55.8143C219.13 55.5983 217.69 55.9832 216.669 56.8481L216.215 57.2327L215.553 56.6069C213.445 54.6144 211.544 53.6298 209.792 53.6218C209.01 53.6183 207.743 53.9489 206.841 54.3914C206.346 54.6346 205.907 54.8479 205.865 54.8654C205.823 54.8829 205.709 54.6579 205.611 54.3652C205.304 53.4502 204.472 52.3502 202.663 50.4627C200.784 48.5033 199.956 47.8159 198.781 47.2408C196.791 46.2673 194.662 46.3027 192.924 47.3385L192.294 47.7134L191.43 47.3702C190.639 47.056 190.466 47.0269 189.39 47.0255C188.278 47.0242 188.175 47.0428 187.513 47.3653C186.852 47.6872 186.339 48.1453 185.463 49.1958L185.163 49.5569L185.403 49.1348C186.158 47.8101 186.348 47.3802 186.458 46.7512C186.743 45.1333 186.079 43.6312 184.356 41.9935C183.957 41.6141 183.401 41.0369 183.12 40.7108C182.466 39.9512 180.585 38.5523 179.409 37.9506C178.1 37.2809 177.044 37.016 175.902 37.071C174.313 37.1475 173.193 37.8676 172.191 39.4579C171.548 40.4795 170.313 43.2299 169.614 45.2017C169.311 46.0567 169.037 46.8215 169.006 46.9012C168.962 47.0168 168.697 47.036 167.702 46.9956C165.7 46.9144 164.356 47.3794 162.754 48.7081L161.935 49.3869L161.474 49.0389C159.817 47.7887 157.854 47.2882 156.201 47.695L155.657 47.8291L154.814 47.2303C152.514 45.5958 150.08 44.9407 148.298 45.4761C147.891 45.5986 147.359 45.8409 147.117 46.0145L146.676 46.3303L146.198 46.0661C144.954 45.3782 142.917 44.8836 141.892 45.0205C141.611 45.0578 141.086 45.1823 140.723 45.2972L140.064 45.5059L139.633 45.2883C138.61 44.7722 136.746 44.6036 135.51 44.9157C134.692 45.1222 133.744 45.5853 133.023 46.1306C132.709 46.3681 132.439 46.5476 132.422 46.5294C132.406 46.5113 132.286 46.2827 132.155 46.0215C132.024 45.7603 131.526 45.1605 131.048 44.6887C130.571 44.2168 129.628 43.2552 128.953 42.5518C127.529 41.0671 126.719 40.3886 125.752 39.8685C124.119 38.9902 122.188 38.8375 120.708 39.4698C119.974 39.7833 119.015 40.5707 118.429 41.3419C117.522 42.5339 116.502 44.7786 116.146 46.3644C116.071 46.6982 115.992 46.9713 115.971 46.9713C115.949 46.9713 115.585 46.7082 115.161 46.3865C112.783 44.5826 110.511 44.2758 108.247 45.4526C107.85 45.6589 107.233 46.0898 106.875 46.4104L106.224 46.9931L105.559 46.5652C104.709 46.0173 103.662 45.5515 102.942 45.401C101.345 45.0667 99.7288 45.4956 98.476 46.5864L98.0007 47.0003L97.0592 46.5577C95.8486 45.9886 94.3444 45.669 93.1543 45.7279C92.1709 45.7765 91.2057 46.1551 90.4946 46.7711C90.132 47.085 89.3497 48.1445 89.2401 48.4699C89.2186 48.5333 88.8915 48.3597 88.5129 48.0843L87.8247 47.5833L87.6931 46.6177C87.2351 43.2577 85.5979 40.4594 81.937 36.7799C80.5409 35.3768 80.1192 35.0177 79.4931 34.6987C78.1343 34.0061 76.9126 33.8361 75.5846 34.1545ZM78.4894 36.011C80.3622 36.9079 83.1667 40.7248 83.9463 43.4377C84.1401 44.1123 84.1891 44.5535 84.1928 45.6521C84.1952 46.4067 84.1587 47.2615 84.1117 47.5517L84.026 48.0794L84.6369 48.109C85.8224 48.1664 87.2409 48.9789 88.9946 50.6053C89.462 51.0387 89.8499 51.3839 89.8566 51.3722C89.8634 51.3605 90.0026 50.9711 90.166 50.5067C91.1155 47.81 92.203 47.0267 94.4393 47.4291C95.6289 47.6432 96.4126 47.96 97.4035 48.6274C97.872 48.9431 98.2881 49.1626 98.3279 49.1152C98.3678 49.068 98.6004 48.7864 98.8448 48.4895C99.7312 47.4132 101.163 46.7551 102.265 46.9185C103.39 47.0854 104.611 47.7401 105.744 48.7834L106.376 49.365L106.943 48.6614C108.479 46.7536 110.292 45.9986 112.057 46.5309C113.457 46.9529 115.292 48.4293 116.848 50.3847C117.196 50.8214 117.491 51.1678 117.505 51.1545C117.518 51.1411 117.48 50.6813 117.42 50.1325C117.278 48.832 117.484 47.4143 118.069 45.686C118.91 43.1962 119.926 41.6902 121.184 41.0686C121.746 40.7909 121.957 40.7447 122.664 40.7447C124.388 40.7447 125.362 41.2715 127.414 43.3143C128.907 44.8015 129.011 44.941 129.17 45.6769C129.368 46.5898 129.178 47.1887 128.308 48.3951C127.9 48.961 127.567 49.454 127.568 49.4905C127.569 49.527 127.866 49.8893 128.227 50.2956C128.589 50.702 129.169 51.4143 129.517 51.8787C129.864 52.343 130.163 52.7383 130.181 52.757C130.199 52.7756 130.53 52.181 130.918 51.4355C133.277 46.9031 136.18 45.3753 139.384 46.9802C140.196 47.3872 140.281 47.4089 140.453 47.2553C140.86 46.891 141.585 46.6593 142.327 46.657C143.591 46.653 144.707 47.0295 146.169 47.9541C146.92 48.4293 147.019 48.4657 147.111 48.3021C147.521 47.5785 148.343 47.0405 149.224 46.9201C150.692 46.7194 153.128 47.7624 154.851 49.3295L155.304 49.7415L155.865 49.5004C156.703 49.1398 157.858 49.0977 158.761 49.3949C159.476 49.6302 160.621 50.3689 161.647 51.2568L162.182 51.7194L162.449 51.377C163.347 50.2269 164.501 49.2889 165.549 48.8574C166.037 48.6566 166.328 48.6168 167.307 48.6168C168.323 48.6168 168.577 48.6541 169.193 48.8942L169.904 49.1716L170.335 47.9923C170.572 47.3437 170.99 46.1956 171.263 45.441C171.858 43.7951 172.881 41.4978 173.472 40.4808C174.455 38.7906 175.584 38.3179 177.352 38.8571C178.605 39.2392 179.403 39.6971 180.958 40.926C182.45 42.105 183.131 43.2594 183.011 44.4076C182.966 44.8426 182.809 45.2281 182.362 46.0027C181.579 47.3617 181.044 48.5173 180.387 50.2703C180.088 51.069 179.843 51.7449 179.843 51.7722C179.843 51.7995 180.144 51.6586 180.511 51.459C181.905 50.7011 183.513 50.591 185.071 51.1469C185.725 51.3804 185.876 51.4032 185.971 51.2826C186.033 51.203 186.367 50.7584 186.712 50.2946C187.487 49.2519 187.859 48.9256 188.526 48.7022C189.385 48.4148 190.15 48.543 191.448 49.1922L192.544 49.7401L193.078 49.2454C193.372 48.9733 193.887 48.6233 194.223 48.4678C194.762 48.218 194.958 48.1857 195.9 48.1915C196.754 48.1968 197.083 48.2457 197.551 48.437C198.479 48.816 199.475 49.5307 200.392 50.476C201.87 51.9988 202.349 52.8457 202.352 53.9423C202.355 54.7505 202.014 55.5514 201.477 55.9986C201.149 56.2711 201.149 56.2716 201.352 56.5247C202.242 57.6382 203.402 59.1079 203.559 59.3222C203.689 59.4999 203.768 59.5402 203.808 59.4491C203.952 59.1224 205.367 57.4157 205.824 57.0176C207.153 55.8599 208.4 55.3145 209.723 55.3108C211.403 55.3062 212.484 55.9281 214.85 58.2583L216.41 59.7948L216.654 59.3739C217.061 58.6756 217.895 57.8827 218.49 57.6295C218.958 57.4306 219.184 57.4022 220.013 57.438C220.886 57.4758 221.079 57.5244 221.889 57.9084C222.839 58.3594 224.681 59.7403 225.324 60.4835L225.688 60.9041L226.104 60.7255C226.696 60.4713 227.964 60.4887 228.659 60.7606C229.896 61.2444 231.911 62.952 233.09 64.5152C234.01 65.7363 234.134 66.6241 233.546 67.7847C233.408 68.0584 233.294 68.3033 233.294 68.3287C233.294 68.3542 233.512 68.5014 233.779 68.6559C235.047 69.3914 235.611 71.2981 235.17 73.3587C234.926 74.4962 234.304 76.0278 233.137 78.3681C231.55 81.5475 230.404 83.1944 229.08 84.1942C227.492 85.3936 226.139 85.54 224.36 84.7047C223.276 84.1961 222.71 83.7926 221.656 82.7798L220.74 81.8993L220.604 82.35C220.069 84.1203 218.788 85.0437 217.231 84.7819C216.875 84.7221 216.299 84.5368 215.951 84.37C215.228 84.0239 213.892 82.8198 213.337 82.0144C213.135 81.7215 212.942 81.4817 212.908 81.4816C212.873 81.4815 212.543 81.7215 212.173 82.015C211.355 82.664 210.294 83.2048 209.492 83.3816C208.494 83.6013 207.044 83.4763 206.033 83.0834C204.942 82.6599 203.7 81.8529 202.72 80.9326L201.952 80.2108L201.254 80.9006C200.782 81.3675 200.322 81.7009 199.829 81.9317C199.166 82.2422 199.009 82.2729 198.082 82.2729C197.117 82.2729 197.019 82.2516 196.243 81.8723C195.362 81.4415 193.977 80.245 193.215 79.2558L192.806 78.724L192.734 79.2086C192.593 80.1624 191.808 81.0747 190.863 81.3834C190.641 81.4557 190.155 81.4865 189.697 81.4575C189.071 81.4177 188.75 81.3288 188.121 81.0213C187.277 80.6086 185.983 79.5068 185.451 78.7471L185.15 78.3177L184.507 78.9073C183.155 80.145 181.926 80.7341 180.512 80.8228C179.392 80.8928 178.56 80.7194 177.539 80.2031L176.745 79.8014L176.421 80.4803C175.524 82.358 173.393 82.7882 171.838 81.4052C171.201 80.8385 170.772 80.2419 170.513 79.5627C170.344 79.1185 170.284 79.0619 169.916 79.0005C169.386 78.9119 168.395 78.3209 167.784 77.7286L167.3 77.26L167.102 77.5923C166.71 78.2476 165.465 79.43 164.832 79.7464C164.288 80.0186 164.104 80.0554 163.307 80.051C162.582 80.0469 162.265 79.9909 161.73 79.772C160.823 79.4015 159.993 78.8923 159.3 78.2822L158.723 77.774L158.351 78.0548C157.883 78.4076 156.829 78.7375 156.168 78.7375C154.847 78.7375 153.169 77.8502 151.562 76.3014C151.26 76.0102 150.992 75.792 150.968 75.8163C150.943 75.8406 150.874 76.1636 150.814 76.5339C150.591 77.9137 150.497 78.2352 150.178 78.6929C149.777 79.2693 148.945 79.7594 148.215 79.8494C147.541 79.9325 146.404 79.6831 145.66 79.2893C145.361 79.1309 144.794 78.6799 144.399 78.2869L143.682 77.5725L143.026 78.0501C142.191 78.6586 141.43 78.8842 140.43 78.8199C139.488 78.7592 138.712 78.4015 137.698 77.5593L136.968 76.9528L136.582 77.6354C136.035 78.6025 135.2 79.4095 134.321 79.8215C133.659 80.1316 133.502 80.1622 132.572 80.1622C131.585 80.1622 131.52 80.147 130.638 79.7148C130.136 79.4688 129.485 79.0533 129.19 78.7914C128.896 78.5296 128.614 78.3157 128.564 78.3161C128.514 78.3165 128.357 78.4849 128.216 78.6904C127.785 79.3162 126.855 80.0811 126.259 80.3005C125.091 80.7302 124.173 80.6918 123.05 80.166C122.311 79.8206 121.056 78.7582 120.311 77.8487L119.724 77.1332L119.657 78.068C119.619 78.582 119.517 79.172 119.43 79.379C119.231 79.8499 118.699 80.4567 118.236 80.7395C117.103 81.4321 115.275 81.0692 113.774 79.8535L113.157 79.3543L112.306 80.1468C111.236 81.1424 110.605 81.455 109.352 81.6115C108.158 81.7607 107.018 81.5703 105.87 81.0297C103.974 80.1367 102.011 77.9457 101.141 75.7508C100.914 75.1787 100.833 75.0613 100.77 75.2155C100.264 76.4659 99.6962 77.7309 99.214 78.6847C98.028 81.0303 97.147 82.0929 95.9053 82.6747C95.2536 82.9801 95.0911 83.0117 94.1726 83.0117C93.2043 83.0117 93.1186 82.9924 92.2522 82.5786C91.1588 82.0564 89.8628 81.1151 89.0106 80.2241C88.6654 79.8631 88.3496 79.6066 88.3087 79.654C88.2679 79.7013 87.9659 80.1437 87.6374 80.6371C86.4564 82.4113 85.317 83.5235 84.0391 84.1501C83.3857 84.4704 83.2825 84.4891 82.1721 84.4874C80.9461 84.4856 80.1122 84.2953 79.0838 83.7828C77.9483 83.217 76.645 82.0706 75.7774 80.8746C75.5564 80.5699 75.3637 80.3205 75.3492 80.3205C75.3348 80.3205 74.859 81.0923 74.2921 82.0355C72.2559 85.4231 71.2089 86.3385 69.3748 86.335C68.2422 86.3329 66.9305 85.3622 65.7988 83.6886L65.1687 82.7567L64.8263 83.357C64.0086 84.7901 62.3255 86.5937 61.1741 87.2706C59.9286 88.0027 59.337 88.1817 58.1597 88.1823C57.1382 88.1829 57.0495 88.1644 56.2915 87.7938C55.3936 87.3549 54.5035 86.5485 53.8528 85.5846C53.6241 85.2459 53.4086 84.9083 53.374 84.8345C53.3232 84.7263 53.2986 84.7266 53.2475 84.8359C53.0691 85.2169 51.8862 86.8941 51.3808 87.4828C50.1801 88.8808 48.4603 89.9757 47.0377 90.2475C45.4718 90.5467 43.9562 90.0567 42.8277 88.8863L42.2259 88.2623L41.9592 88.661C40.5657 90.7441 37.8944 91.096 35.9532 89.4523C35.7113 89.2476 35.4731 89.0823 35.4237 89.0852C35.3743 89.0881 35.0823 89.6021 34.7747 90.2272C34.09 91.6188 33.3462 92.4768 32.382 92.9871C31.7866 93.3022 31.5927 93.3492 30.7464 93.3834C29.9806 93.4143 29.6605 93.3785 29.165 93.2066C27.9071 92.7698 26.4017 91.5392 25.7218 90.3915L25.4479 89.9291L24.7984 90.7974C24.4411 91.2749 23.881 91.9681 23.5535 92.3379C21.5379 94.6137 17.9856 96.9222 15.1165 97.8206C10.7166 99.1986 7.05218 98.5985 4.31253 96.0515C2.94148 94.777 2.22379 93.5663 1.70784 91.6573C1.46011 90.7407 1.42384 90.3999 1.41701 88.9217C1.41018 87.4694 1.44272 87.118 1.64927 86.41C2.27041 84.2809 3.36023 83.0514 4.77246 82.8859C5.1272 82.8444 5.31113 82.7697 5.34282 82.6543C5.36853 82.5606 5.46818 82.1195 5.5643 81.674C5.73458 80.8841 5.73309 80.8449 5.50264 80.0945C5.20551 79.1267 5.18791 78.0515 5.45623 77.26C5.60901 76.8095 5.81395 76.5226 6.37183 75.9784L7.09059 75.2771L7.84957 72.2213C8.26704 70.5406 8.60855 69.1291 8.60855 69.0846C8.60855 69.04 8.41107 69.1801 8.16974 69.3958C7.56332 69.9377 6.96587 70.184 6.25063 70.1868C4.86518 70.1922 3.93528 69.4958 3.46809 68.1032C2.7568 65.983 2.31202 63.3117 2.31522 61.1786C2.3182 59.1787 3.00955 57.9861 5.72188 55.3018C9.4947 51.5682 13.314 49.1743 17.1193 48.1583C18.0522 47.9093 18.3514 47.8806 20.0775 47.8748C21.7726 47.8691 22.0981 47.8967 22.8514 48.1103C24.6978 48.6338 26.7294 49.924 28.4176 51.6452C29.6335 52.8849 30.5252 54.1551 31.1633 55.5567L31.6099 56.5378L31.9783 56.4061C32.1809 56.3337 32.7224 56.2709 33.1814 56.2664C34.1789 56.2568 35.2634 56.5783 36.3836 57.2154C36.7848 57.4437 37.1492 57.6304 37.1932 57.6304C37.2374 57.6304 37.3281 57.5117 37.3949 57.3667C37.6138 56.8915 38.4174 56.1258 38.9614 55.874C40.0848 55.3543 42.3573 55.6141 44.0349 56.4543L44.8409 56.8578L45.1494 56.4262C46.2275 54.9182 47.5895 53.5979 48.5633 53.1166C50.4968 52.1611 53.1273 52.8905 55.5293 55.0481C55.8987 55.3798 56.2176 55.6334 56.2382 55.6118C56.2587 55.5902 56.5639 55.145 56.9163 54.6226C58.6188 52.099 60.521 50.7676 62.4174 50.7721C64.0282 50.7759 65.3918 51.3762 67.1597 52.8597C67.5321 53.1722 67.8568 53.4084 67.881 53.3844C67.9052 53.3604 68.1914 52.3944 68.5169 51.2378C71.1153 42.0046 73.1607 37.2391 75.0104 36.1083C76.01 35.4971 77.3388 35.46 78.4894 36.011ZM76.1973 38.7567C76.0411 38.9403 75.6836 39.5459 75.4027 40.1023C73.8539 43.1709 72.1199 48.4114 70.2195 55.7664C69.787 57.4404 69.3543 58.9289 69.258 59.0743C69.0882 59.3307 68.4842 59.6545 67.9165 59.7936L67.6389 59.8616L67.6901 58.8114C67.7388 57.8117 67.7267 57.7351 67.4402 57.2143C67.0807 56.5609 65.2952 54.8297 64.3721 54.2394C63.7131 53.8182 62.8739 53.5127 62.3867 53.5168C61.5482 53.5239 60.3065 54.5908 59.1955 56.2591C58.7432 56.9383 58.3333 57.7659 57.8438 58.9887C57.4574 59.9539 57.0708 60.8502 56.9846 60.9803C56.8262 61.2194 55.788 61.8043 55.6914 61.7088C55.6626 61.6804 55.6924 61.3177 55.7574 60.9028C55.841 60.3701 55.8429 60.028 55.764 59.738C55.3808 58.3306 52.1645 55.5925 50.8038 55.5154C49.7654 55.4566 49.2463 55.7865 48.0471 57.2672C45.9534 59.8523 44.9361 62.835 44.8158 66.7418C44.7725 68.1489 44.7016 68.8659 44.5496 69.4373C43.9958 71.5184 40.2578 80.2523 39.5078 81.2176C39.3559 81.4131 39.3481 81.386 39.4023 80.8482C39.7052 77.8383 41.3286 69.3804 42.2176 66.1804C42.65 64.6239 43.0979 63.1797 43.9692 60.5326C44.1583 59.9585 44.0419 59.7162 43.3632 59.2704C42.6156 58.7793 41.6881 58.4605 40.8184 58.3956C40.1382 58.3448 40.1079 58.3532 39.9026 58.6464C39.5331 59.1738 39.3551 59.7623 38.1606 64.4016C36.6098 70.4244 36.5625 70.5735 33.9759 77.5766C31.9184 83.1478 31.2306 84.8585 31.0488 84.8585C30.9287 84.8585 31.1063 82.9011 31.3913 81.0841C32.188 76.0052 34.9311 64.7228 35.9845 62.1935C36.4766 61.0115 36.4657 60.702 35.9155 60.236C35.3121 59.725 34.0132 59.0953 33.4283 59.0301C32.829 58.9633 32.489 59.1534 32.2012 59.7163C31.9432 60.2206 31.1273 62.7098 30.7055 64.2791C30.0623 66.6727 28.6619 73.2484 28.1947 76.0689C27.4775 80.3999 27.1567 86.0554 27.5449 87.5293C27.8882 88.8332 28.7317 89.948 29.7399 90.4301C30.8128 90.9432 31.4795 90.5887 32.23 89.106C32.8981 87.7863 33.8313 85.1492 34.7042 82.1146L35.2658 80.1622L35.2732 81.858C35.2784 83.0397 35.3292 83.7155 35.4408 84.0873C35.7496 85.1161 37.2943 87.1504 38.0759 87.5578C38.5103 87.7842 38.9572 87.7423 39.3191 87.441C39.6974 87.1261 40.5631 85.4899 41.5173 83.2862C41.8937 82.4167 42.271 81.5746 42.3557 81.4148L42.5095 81.1243L42.5701 81.4348C42.6034 81.6055 42.6628 81.959 42.7021 82.2202C42.8142 82.9654 43.4526 84.7996 43.88 85.6042C44.6913 87.1313 45.5608 87.7509 46.5477 87.5051C47.3505 87.3052 47.8736 86.9862 48.7068 86.1889C50.7358 84.2473 52.5651 80.3356 52.5616 77.946C52.5593 76.4678 52.196 75.2727 50.7902 72.1208C49.3527 68.8973 49.2194 68.4137 49.2106 66.3898C49.2037 64.8035 49.2141 64.7237 49.5554 63.7514C50.0214 62.4238 50.6606 61.3293 51.4459 60.5136C52.1267 59.8064 52.3923 59.6979 52.4969 60.0841C52.5815 60.3965 52.5811 61.5164 52.4959 62.5132L52.4276 63.3119L51.9891 63.4768C51.748 63.5676 51.3946 63.6725 51.2039 63.7099C51.0131 63.7472 50.8571 63.8112 50.8571 63.8518C50.8571 63.8925 50.8056 64.4321 50.7427 65.051C50.4891 67.5433 51.1144 70.2946 51.9345 70.2946C52.4762 70.2946 53.2452 69.0967 53.9443 67.1635C54.2764 66.245 54.3201 66.1831 55.2132 65.3688C55.722 64.9048 56.2402 64.4715 56.3648 64.4056C56.5849 64.2893 56.5935 64.3106 56.6638 65.1532C56.8523 67.4131 57.2152 68.8314 58.803 73.5135C60.2203 77.6932 60.5963 79.3547 60.2476 79.8984C60.1009 80.1272 59.0338 80.0805 58.432 79.819C56.9657 79.1819 55.5706 77.3897 54.7339 75.0681C54.5303 74.5033 54.313 73.9937 54.2508 73.9356C54.0881 73.7836 54.216 77.0068 54.433 78.5264C54.985 82.3921 56.2197 84.9327 57.7695 85.392C58.9588 85.7445 61.0051 84.2532 62.3401 82.0611C62.978 81.0136 63.6505 79.6191 64.0094 78.5999C64.3341 77.6773 64.3508 77.5538 64.3468 76.0991C64.3418 74.2448 64.243 73.8779 62.7557 70.1891C61.6625 67.4781 61.3708 66.522 61.1871 65.0477C60.9523 63.1637 61.4589 61.2201 62.6362 59.4872C63.2006 58.6564 64.0231 57.8414 64.2972 57.8414C64.4899 57.8414 64.6148 59.1582 64.5125 60.1105C64.4563 60.6329 64.4095 61.1155 64.4085 61.183C64.4074 61.2505 64.074 61.4313 63.6675 61.585C63.261 61.7387 62.865 61.9404 62.7873 62.0333C62.5986 62.2593 62.6089 65.5537 62.801 66.4426C62.9585 67.1713 63.3216 67.9348 63.6506 68.2288C63.8765 68.4308 63.8798 68.4299 64.2563 68.0705C64.7848 67.5659 65.3001 66.6914 65.8521 65.3625C66.3566 64.1481 66.4409 64.0461 67.8601 62.9326C68.2492 62.6274 68.5671 62.4374 68.5666 62.5104C68.5661 62.5836 68.2575 64.2857 67.8808 66.2929C66.6247 72.9848 66.2687 77.0301 66.7581 79.0494C67.1397 80.624 68.3469 82.7749 69.1775 83.3598C69.4648 83.5623 69.5161 83.5677 69.7925 83.4258C69.9584 83.3407 70.1603 83.189 70.241 83.0886C71.1078 82.0117 73.6755 77.672 75.3686 74.4227C75.9316 73.3422 76.4508 72.3717 76.5226 72.2659C76.6274 72.1116 76.65 72.4641 76.6377 74.06C76.6208 76.2614 76.7198 76.8266 77.336 78.0431C78.3691 80.0824 79.9018 81.3889 81.6274 81.701C82.5642 81.8704 82.877 81.7716 83.6398 81.0657C85.0687 79.7436 86.0599 78.1053 88.3094 73.348C89.1995 71.4655 89.9756 69.8778 90.0341 69.8197C90.1045 69.7497 90.1171 69.8917 90.0715 70.2419C90.0337 70.5321 89.9977 71.8856 89.9914 73.2496C89.9753 76.753 90.1793 77.5462 91.3822 78.6593C92.1421 79.3624 93.4564 80.1837 93.9549 80.267C94.8571 80.4178 95.5618 79.6884 96.7108 77.414C97.9843 74.8931 99.9406 69.4555 101.911 62.9599C102.422 61.2766 102.915 59.7705 103.007 59.6132C103.115 59.4298 103.389 59.2434 103.768 59.0944C104.095 58.9664 104.594 58.7478 104.879 58.6084C105.163 58.469 105.412 58.3704 105.431 58.3892C105.45 58.4081 105.329 58.9034 105.163 59.4901C103.951 63.7609 103.258 68.0212 103.216 71.4555C103.195 73.2258 103.327 73.8606 103.996 75.188C104.789 76.7599 105.937 77.987 107.133 78.5409C107.77 78.8359 107.911 78.8613 108.719 78.8274C109.498 78.7948 109.654 78.7537 110.003 78.4903C110.565 78.0667 111.377 77.0626 112.65 75.2192L113.75 73.6266L113.812 74.5253C113.889 75.6214 114.283 76.4402 115.156 77.318C115.665 77.83 116.401 78.3153 116.668 78.3153C116.723 78.3153 116.8 77.7811 116.841 77.1281C117.031 74.0801 117.555 71.3452 118.777 67.023C119.499 64.4714 122.893 53.566 122.997 53.4617C123.212 53.2477 124.624 55.1413 124.752 55.814C124.855 56.3574 124.717 56.9321 123.353 61.6407C122.69 63.9335 122 66.4505 121.821 67.2341C121.081 70.4696 120.853 73.3731 121.268 74.2782C121.571 74.937 122.063 75.6079 122.859 76.445C124.229 77.8868 124.865 78.1193 125.591 77.4447C125.991 77.073 127.171 75.0503 127.731 73.7773C127.922 73.342 128.294 72.5349 128.557 71.9839L129.036 70.9822L129.106 72.0367C129.277 74.5951 129.902 75.9609 131.351 76.9396C132.069 77.4244 132.517 77.5236 133.061 77.3182C133.978 76.9719 134.614 75.7359 136.105 71.4028C137.222 68.1578 137.106 68.2672 137.168 70.4002C137.221 72.2188 137.227 72.2582 137.571 72.9781C138.006 73.887 138.917 75.0142 139.67 75.5765C141.07 76.6223 141.444 76.2895 143.687 71.9972L144.369 70.6922L144.441 71.7862C144.48 72.3879 144.565 73.109 144.63 73.3885C144.989 74.9441 146.719 77.0489 147.639 77.0489C147.913 77.0489 147.944 77.0135 147.944 76.6975C147.944 75.884 148.918 72.892 150.273 69.5424C151.889 65.548 154.538 59.9791 154.555 60.5411C154.557 60.6038 154.364 61.2925 154.126 62.0714C152.997 65.7745 152.105 70.0103 152.106 71.6666C152.107 72.5851 152.481 73.2315 153.696 74.4105C155.112 75.7857 156.107 76.2027 156.839 75.7282C157.262 75.4544 158.271 73.8828 158.931 72.4708C159.246 71.7974 159.517 71.26 159.534 71.2766C159.551 71.2932 159.616 71.8446 159.678 72.502C159.916 74.9907 160.721 76.2583 162.608 77.1127C163.14 77.3539 163.249 77.3708 163.531 77.2557C164.39 76.9037 165.805 74.4667 166.778 71.6666C167.541 69.4673 167.594 69.3289 167.643 69.3774C167.668 69.4024 167.634 69.8683 167.566 70.4128C167.359 72.0951 167.523 72.7734 168.481 74.2C169.43 75.6116 170.209 76.3102 170.833 76.3102C171.484 76.3102 171.798 75.9113 173.614 72.7747L174.776 70.7695L174.86 71.7194C175.047 73.8386 175.103 73.6014 173.944 75.6242C173.587 76.2477 173.267 76.9705 173.162 77.3906C172.997 78.0542 172.997 78.1326 173.164 78.5649C173.358 79.0664 173.763 79.5095 173.837 79.3008C173.879 79.1833 174.813 77.6647 175.628 76.3893C175.841 76.0556 176.083 75.7825 176.166 75.7825C176.248 75.7825 176.761 76.1633 177.306 76.6287C178.595 77.7301 179.243 78.0523 180.163 78.0491C181.039 78.0459 181.745 77.6908 182.674 76.7851C184.971 74.5465 186.757 70.4177 187.742 65.0706C188.092 63.1708 188.236 62.8016 188.625 62.8016C189.037 62.8016 190.107 62.4916 190.806 62.1699C191.265 61.9585 191.472 61.9056 191.472 62.0001C191.472 62.0755 191.237 62.6311 190.949 63.2346C190.37 64.4515 188.644 68.9648 187.837 71.3761C187.208 73.2531 186.849 74.9013 186.949 75.4466C187.136 76.4641 188.181 77.8666 189.168 78.427C189.932 78.8605 189.979 78.8434 189.979 78.1279C189.979 77.1617 190.176 75.8293 190.512 74.5161C190.936 72.8645 193.294 65.9529 194.277 63.4822C195.155 61.2753 196.149 59.1079 196.284 59.1079C196.42 59.1079 197.144 60.0037 197.58 60.7121C198.186 61.6962 198.21 61.5573 196.784 65.3345C195.139 69.6904 194.263 72.7423 194.176 74.4105C194.122 75.4619 194.133 75.545 194.4 76.0333C195.1 77.3138 196.565 78.9259 197.424 79.3591C198.011 79.6554 198.272 79.6402 198.853 79.2756C199.399 78.933 199.987 78.1623 200.914 76.574C201.252 75.9936 201.675 75.2892 201.852 75.0088L202.175 74.4989L202.367 75.2499C202.891 77.2893 204.693 79.4012 206.729 80.3617C207.646 80.7943 208.754 80.8259 209.515 80.441C210.398 79.9942 211.699 78.7781 212.954 77.2249C213.619 76.4026 214.236 75.6697 214.326 75.5964C214.471 75.4777 214.483 75.5961 214.435 76.6712C214.392 77.6317 214.419 77.9943 214.564 78.4403C215.076 80.0178 216.994 82.2253 217.639 81.9805C217.729 81.9465 217.91 81.5948 218.042 81.1988C218.924 78.546 221.732 73.3543 223.747 70.6502C224.125 70.1423 224.453 69.6766 224.476 69.615C224.498 69.5535 224.553 69.5362 224.597 69.5766C224.641 69.617 224.504 70.0474 224.293 70.5328C222.958 73.6091 222.092 76.6179 222.092 78.1847C222.092 78.807 222.137 78.9768 222.414 79.4091C223.319 80.821 225.404 82.4312 226.327 82.4312C226.527 82.4312 226.823 82.3631 226.986 82.2798C227.468 82.0335 228.533 80.8297 229.168 79.8131C230.459 77.7492 232.17 74.0222 232.442 72.683C232.57 72.0548 232.509 71.1934 232.33 71.0838C232.227 71.0208 232.192 71.069 230.85 73.0913C230.387 73.7879 229.714 74.7377 229.354 75.202C228.363 76.4798 226.217 78.7344 226.098 78.6226C226.035 78.5629 226.389 77.366 227.037 75.4487C228.095 72.3162 229.388 69.3571 230.59 67.3172L231.069 66.5032L230.754 66.0492C230.349 65.4677 228.997 64.1961 228.264 63.7075C227.231 63.0192 226.823 63.1678 225.138 64.8468C223.748 66.2319 222.739 67.5761 220.947 70.4301C220.153 71.6945 219.48 72.7065 219.453 72.6791C219.367 72.5947 220.055 70.3188 220.616 68.8313C221.296 67.027 222.06 65.3822 222.899 63.9188C223.534 62.8098 223.556 62.7488 223.397 62.5088C223.115 62.0831 221.433 60.7797 220.758 60.4634C219.908 60.0649 219.61 60.0735 219.282 60.5062C218.433 61.6244 217.049 65.1563 215.951 69.0088C215.709 69.8563 215.427 70.5982 215.24 70.8777C214.438 72.0756 210.067 75.6272 208.181 76.6145C207.032 77.2157 206.347 77.0044 206.187 75.9988C206.083 75.3479 206.219 73.6924 206.463 72.6442C206.603 72.0403 207.354 69.5689 207.427 69.4716C207.44 69.4543 207.763 69.6738 208.144 69.9595C208.944 70.5579 209.663 70.7795 210.44 70.6664C212.638 70.3468 214.826 67.7193 215.261 64.8775C215.428 63.7903 215.294 63.2482 214.599 62.1907C213.995 61.2722 211.915 59.1768 210.975 58.5418C209.856 57.7845 208.905 57.9552 207.669 59.1359C206.114 60.6214 204.978 62.7376 203.697 66.5346C202.917 68.8451 202.641 69.4438 201.759 70.7278C200.677 72.3021 198.791 74.7267 198.71 74.6466C198.527 74.4653 200.226 68.8762 201.718 64.7542C202.407 62.8482 202.157 61.9955 200.184 59.53C199.836 59.0947 199.295 58.4497 198.982 58.0968C197.669 56.6154 197.659 55.6494 198.947 54.4521L199.584 53.8594L199.119 53.2384C198.261 52.0927 197.136 51.1969 196.273 50.9732C195.875 50.8699 195.726 50.8766 195.4 51.0123C194.292 51.4742 193.174 54.2579 193.496 55.7553C193.562 56.0611 193.681 56.4272 193.759 56.5689C193.879 56.7844 193.879 56.8924 193.759 57.2282C193.509 57.9298 192.524 59.7417 192.342 59.8366C192.114 59.9547 190.647 60.1426 189.265 60.2306C188.033 60.3089 188.146 60.3914 188.013 59.3189C187.981 59.0577 187.928 58.749 187.896 58.633C187.81 58.3231 189.653 55.953 191.137 54.4651L192.348 53.2506L191.74 52.7033C191.406 52.4022 190.758 51.963 190.3 51.7271L189.466 51.2984L188.288 52.8502C187.639 53.7038 186.932 54.7011 186.716 55.0664C186.5 55.4317 186.269 55.7307 186.204 55.7307C186.138 55.7307 185.966 55.51 185.821 55.2401C185.541 54.7184 184.725 54.0069 184.115 53.7527C183.913 53.668 183.465 53.5989 183.12 53.5989C182.161 53.5989 181.348 54.0424 180.307 55.1338C178.858 56.6526 177.696 58.8317 176.314 62.6195C175.689 64.334 175.445 64.8456 174.5 66.4187C172.922 69.0452 171.816 70.6207 171.659 70.4653C171.371 70.1805 173.13 63.5919 175.509 56.0473C177.6 49.4143 178.736 46.4677 179.913 44.624C180.24 44.112 180.187 43.9408 179.522 43.3493C178.318 42.2787 176.444 41.2527 176.143 41.4998C175.978 41.6347 175.09 43.4308 174.559 44.7011C174.045 45.9304 172.169 51.179 171.804 52.4064C171.649 52.9288 171.522 53.4602 171.522 53.5874C171.522 53.7146 171.481 53.8433 171.432 53.8735C171.382 53.9038 170.933 53.5575 170.434 53.1041C168.302 51.1678 167.189 50.8809 165.812 51.9132C164.087 53.2078 161.975 57.7143 160.908 62.3795C160.389 64.6503 159.853 65.7198 157.189 69.8073C156.74 70.4969 156.372 71.1024 156.372 71.1529C156.372 71.2032 156.318 71.2445 156.251 71.2445C156.102 71.2445 156.104 71.2332 156.85 67.8673C157.721 63.9392 158.682 60.8398 160.171 57.1586C161.119 54.8147 161.099 54.5904 159.837 53.4224C158.393 52.0865 157.514 51.7085 156.833 52.131C156.443 52.3727 155.711 53.3694 154.406 55.4338C152.72 58.1006 151.49 60.5186 150.125 63.8475C149.783 64.6839 149.483 65.3136 149.461 65.2467C149.38 65.0055 149.8 63.2254 150.562 60.5805C151.712 56.5896 152.263 55.0453 153.56 52.1734C153.712 51.8365 151.773 50.3458 150.635 49.9245C149.632 49.5534 149.567 49.593 148.983 50.9289C148.219 52.6765 147.397 55.2739 146.66 58.2676C145.454 63.1661 145.445 63.194 144.351 65.3203C143.38 67.2094 141.867 69.8008 141.441 70.3068C141.148 70.6555 141.153 70.5808 141.601 67.9399C142.701 61.4642 144.108 56.4643 145.912 52.6174L146.358 51.6676L145.79 51.1651C144.667 50.17 143.207 49.3986 142.447 49.3986C142.046 49.3986 141.707 49.8254 141.372 50.7505C141.211 51.1969 141.065 51.5792 141.05 51.6C141.003 51.6623 140.368 51.1904 139.463 50.419C138.128 49.2824 137.35 48.9742 136.475 49.2349C134.389 49.8558 132.394 53.8635 130.558 61.1186C129.974 63.4304 129.839 63.825 129.11 65.3713C128.208 67.2853 126.886 69.7501 126.128 70.9326L125.623 71.7194L125.682 71.0334C125.81 69.533 127.15 63.8503 128.182 60.4271C128.757 58.521 128.787 58.3646 128.788 57.261C128.789 56.2186 128.76 56.0373 128.5 55.4851C128.127 54.6916 127.036 53.1615 126.08 52.0898C125.111 51.0028 124.792 50.389 124.792 49.6078C124.792 48.793 125.037 48.153 125.694 47.2463C126.001 46.8228 126.284 46.426 126.323 46.3644C126.433 46.1885 124.173 43.9824 123.612 43.7181C122.552 43.2186 122.095 43.4982 121.314 45.1244C120.522 46.7745 120.274 47.764 120.265 49.3083C120.259 50.5003 120.281 50.6675 120.471 50.8761L120.685 51.1096L119.794 53.6576C118.354 57.7803 117.572 60.1194 117.109 61.6935C116.87 62.5061 116.475 63.5709 116.232 64.0595C115.688 65.1522 113.207 68.846 111.866 70.5585C110.483 72.325 108.543 74.2454 107.987 74.3984C107.622 74.4989 107.543 74.4899 107.426 74.3342C106.775 73.4642 106.974 70.3001 107.928 66.3517C108.108 65.6056 108.255 64.9081 108.255 64.8016C108.255 64.4521 108.446 64.4814 108.943 64.9076C109.741 65.5907 110.485 65.6827 111.533 65.2281C113.432 64.4037 115.588 60.3187 116.158 56.4647C116.325 55.3339 116.241 54.743 115.789 53.8548C114.973 52.2526 112.826 49.9269 111.627 49.3465C111.091 49.0871 111.005 49.0738 110.638 49.1934C109.749 49.4834 108.515 51.0203 107.547 53.043C107.291 53.577 107.082 54.0601 107.082 54.1166C107.082 54.2333 106.93 54.3079 105.384 54.9523C104.773 55.207 104.249 55.3907 104.218 55.3607C104.188 55.3306 104.341 54.6774 104.559 53.909C104.776 53.1406 104.953 52.4225 104.951 52.3133C104.946 51.9664 104.52 51.4125 103.762 50.7672C102.378 49.5892 101.762 49.4442 101.093 50.14C100.377 50.8839 99.4966 53.0159 99.189 54.7489C99.1231 55.1204 99.0856 56.3287 99.1022 57.5456L99.1315 59.6883L98.5785 61.6407C96.5265 68.8849 94.7192 74.2317 94.1231 74.8213C93.9758 74.9671 93.9592 74.9307 93.9598 74.4595C93.96 74.1714 94.0092 73.152 94.069 72.1943C94.514 65.0709 95.819 56.4046 96.949 53.0684C97.1236 52.5525 97.2666 52.0955 97.2666 52.0527C97.2666 51.9156 95.4948 50.6716 94.9767 50.4448C94.7017 50.3245 94.2253 50.2004 93.9182 50.169L93.3597 50.112L93.0821 50.7315C92.3275 52.4152 91.8261 54.8414 91.1326 60.1632C90.9247 61.7594 90.6828 63.3504 90.5952 63.6987C90.3649 64.6142 89.5798 66.1538 88.1466 68.5005C85.1651 73.3824 82.8041 76.3877 81.4354 77.0431C80.8445 77.3262 80.8266 77.3144 80.5694 76.4756C80.2231 75.3465 80.3828 73.6093 81.2222 69.3754L81.7288 66.8204L82.1719 67.2244C83.206 68.1673 84.313 68.0392 85.6607 66.8209C87.1809 65.4465 88.8102 62.1734 89.3247 59.4603C89.4508 58.7951 89.4892 58.149 89.4586 57.2082C89.421 56.0566 89.3795 55.8118 89.1323 55.2812C88.7528 54.4668 88.0946 53.6415 86.9849 52.5889C85.8066 51.4712 84.8908 50.8761 84.3491 50.8761C83.467 50.8761 82.3566 52.1103 81.2632 54.306C80.063 56.7165 79.3035 59.0302 78.1218 63.8762L77.5124 66.3755L75.8629 69.0867C73.2757 73.339 71.7295 75.6675 70.646 76.9434L70.2426 77.4183L70.3184 76.3132C70.4049 75.0514 71.1722 70.2952 71.3655 69.822C71.4363 69.6492 71.8707 68.8893 72.3309 68.1335C75.7452 62.5267 81.1618 49.5051 81.4448 46.2235C81.5761 44.7007 81.0849 43.2556 79.7708 41.2977C78.0032 38.6646 76.9268 37.8992 76.1973 38.7567ZM78.5967 45.1772C78.3223 46.9395 77.4744 49.9078 76.1021 53.9097C75.2303 56.4514 73.7021 60.5925 73.2098 61.7463C72.8302 62.6362 72.8277 62.6391 72.8938 62.1156C73.0251 61.077 74.9345 53.8339 76.1072 49.9263C76.4916 48.6456 77.5256 45.9553 78.5817 43.4886C78.7094 43.1903 78.7201 44.3852 78.5967 45.1772ZM18.7353 50.6593C16.3505 51.0919 13.8286 52.2874 11.2311 54.2166C8.11373 56.532 5.54595 59.2061 5.18225 60.5161C4.94476 61.3714 5.3648 64.7962 5.92 66.5317C6.24946 67.5613 6.34526 67.5813 6.5707 66.668C6.72358 66.0484 7.20442 65.0843 7.78854 64.2263C8.32977 63.4314 10.8773 60.8575 12.1393 59.8307C13.0985 59.0501 14.3006 58.2636 14.5342 58.2636C14.6136 58.2636 14.5277 58.6124 14.3018 59.2073C13.7057 60.777 12.8397 63.9074 11.1639 70.5502C10.144 74.5932 9.50132 76.9489 9.38193 77.0812C9.2793 77.195 8.94334 77.4733 8.63522 77.6995C8.10445 78.0894 8.07511 78.1358 8.07511 78.5846C8.07511 78.8464 8.19449 79.3487 8.34183 79.7076C8.48853 80.0647 8.60855 80.4509 8.60855 80.5657C8.60855 80.6805 8.3716 81.9664 8.08204 83.4234C7.20026 87.8589 7.11897 88.6838 7.39518 90.3869L7.46165 90.7968L6.98881 90.475C5.62864 89.5493 4.88022 88.0099 5.01518 86.4152C5.04825 86.0233 5.05497 85.7028 5.03012 85.7028C4.92695 85.7028 4.46659 86.7467 4.33195 87.2859C4.11601 88.1503 4.16498 90.0127 4.42935 90.9948C4.92695 92.8428 6.06702 94.253 7.72368 95.0693C8.90909 95.6535 9.53749 95.7665 11.2221 95.6984C13.3909 95.6108 15.4682 94.938 17.5511 93.6485C21.5628 91.1648 24.1485 87.7077 24.8257 83.9222C25.0284 82.7888 24.9913 81.4112 24.7391 80.7128C24.1168 78.9891 21.8522 77.0412 20.1378 76.755L19.6646 76.6761L21.0412 75.6224C23.5227 73.7232 25.1794 72.0114 26.5742 69.9053C29.6864 65.2065 30.4027 60.5716 28.6128 56.7164C27.4233 54.1543 24.8889 51.7684 22.4852 50.9478C21.732 50.6906 21.3647 50.6299 20.3976 50.6032C19.7521 50.5852 19.0042 50.6106 18.7353 50.6593ZM112.992 53.4704C113.173 53.9366 112.912 55.8395 112.45 57.4193C111.866 59.4207 111.085 60.9426 110.185 61.8327C109.715 62.2977 109.064 62.6872 108.949 62.5728C108.869 62.4944 110.104 58.6079 110.703 57.0499C111.773 54.2673 112.724 52.7803 112.992 53.4704ZM139.809 53.9917C140.113 54.3382 140.111 54.3704 139.723 55.889C139.209 57.8997 138.464 59.9628 136.921 63.6459C134.764 68.7949 133.172 72.1943 132.919 72.1943C132.712 72.1943 133.049 69.708 133.597 67.1813C134.983 60.7918 137.32 54.4528 138.541 53.7742C138.933 53.556 139.513 53.6554 139.809 53.9917ZM86.2464 56.1793C86.0465 59.9461 84.6967 63.2701 82.821 64.6142C82.5921 64.7782 82.3691 64.9123 82.3255 64.9123C82.2068 64.9123 82.3784 64.2366 83.0899 61.9046C83.8477 59.4206 84.3173 58.1393 84.9464 56.8389C85.3463 56.0125 86.0658 54.992 86.2485 54.992C86.2819 54.992 86.2811 55.5263 86.2464 56.1793ZM170.275 55.9391C170.634 56.2505 170.636 56.2576 170.542 56.8478C170.232 58.8069 168.08 63.786 164.982 69.7142C163.527 72.4973 163.121 73.0522 163.259 72.0706C163.844 67.8832 165.271 62.6794 166.779 59.2318C168.159 56.0756 169.25 55.0485 170.275 55.9391ZM23.9801 56.0364C25.99 56.7917 26.482 58.748 25.4578 61.9109C24.9907 63.3536 23.6683 65.8687 22.3527 67.8168C19.823 71.5625 15.7695 75.4592 14.3964 75.4652C14.2168 75.4661 14.208 75.5201 14.687 73.7065C16.5959 66.4787 18.3765 61.1119 19.2909 59.8304C19.4008 59.6763 19.4908 59.473 19.4908 59.3787C19.4908 59.0837 18.153 57.879 17.4697 57.5588C17.1201 57.395 16.8319 57.2278 16.8289 57.1872C16.8188 57.0472 18.1599 56.4851 19.0221 56.2681C21.3543 55.6813 22.8494 55.6115 23.9801 56.0364ZM22.331 59.0485C22.4278 59.8633 22.3324 60.2084 21.7309 61.2186C21.4371 61.712 21.0489 62.4956 20.8684 62.9599C20.5126 63.8748 19.4893 66.8833 19.4932 67.0026C19.4994 67.1882 21.1659 64.5192 21.7208 63.4348C22.4291 62.0507 22.8277 61.0459 23.0602 60.0577C23.3273 58.9233 23.2489 58.6592 22.6108 58.5429L22.2634 58.4797L22.331 59.0485ZM183.227 59.2398C183.193 59.6607 183.089 60.2173 182.995 60.4769C182.813 60.978 180.91 64.1033 180.833 64.0272C180.762 63.9569 181.512 61.8119 182.04 60.5745C182.503 59.4894 183.072 58.4747 183.217 58.4747C183.256 58.4747 183.261 58.8189 183.227 59.2398ZM212.115 62.4059C211.823 65.3247 210.321 67.6499 208.462 68.0612C208.213 68.1164 208.009 68.1307 208.009 68.0931C208.009 68.0554 208.289 67.36 208.632 66.5476C209.616 64.2136 210.737 62.4037 211.521 61.8807C212.135 61.4719 212.202 61.5318 212.115 62.4059ZM184.644 63.5358C184.644 64.0688 183.93 66.6376 183.358 68.1581C182.388 70.7406 180.96 73.394 180.27 73.8971C180.123 74.004 179.852 74.1208 179.667 74.1566C179.333 74.2213 179.329 74.217 179.2 73.6444C178.99 72.716 179.107 71.3046 179.449 70.6456C179.723 70.1168 183.97 63.7811 184.3 63.4084C184.537 63.141 184.644 63.1807 184.644 63.5358ZM45.8208 72.8803C45.995 73.4027 46.5092 74.8274 46.9632 76.0463C48.4864 80.1349 48.785 82.0684 47.9263 82.2816C47.5001 82.3874 47.0121 82.2517 46.2806 81.824C44.9016 81.0176 43.389 79.232 43.389 78.4105C43.389 78.1907 43.5591 77.4738 43.7671 76.8175C43.9751 76.1611 44.4053 74.6269 44.7232 73.4079C45.0411 72.189 45.3084 71.1679 45.317 71.1389C45.3257 71.1099 45.3712 71.2761 45.4184 71.5083C45.4654 71.7405 45.6466 72.3579 45.8208 72.8803ZM25.0555 75.923C24.8224 76.1684 24.8224 76.1694 25.0347 76.3595C25.2664 76.5669 25.2963 76.5339 25.3885 75.9672C25.4462 75.6125 25.3612 75.6012 25.0555 75.923ZM17.7831 79.6946C20.9576 80.204 21.4176 82.8579 18.9532 86.4476C17.2475 88.9322 13.9982 90.9846 11.3445 91.2535L10.6713 91.3218L10.9761 89.6996C11.1438 88.8074 11.6038 86.6252 11.9985 84.8503L12.7161 81.6232L13.6591 80.7872C14.6762 79.8855 14.7719 79.8314 15.5891 79.6961C16.3635 79.5677 16.9905 79.5673 17.7831 79.6946ZM35.3513 79.9248C35.3217 79.9974 35.2975 79.938 35.2975 79.7928C35.2975 79.6477 35.3217 79.5884 35.3513 79.6609C35.3809 79.7335 35.3809 79.8523 35.3513 79.9248ZM15.65 82.7431C15.2879 83.04 15.2632 83.1093 14.8347 85.0356C14.5915 86.1281 14.4062 87.0367 14.423 87.0545C14.4984 87.1355 15.6472 86.104 16.1114 85.5384C17.0339 84.4146 17.925 82.7116 17.7046 82.4936C17.6699 82.4593 17.2774 82.4325 16.8324 82.4341C16.0987 82.4366 15.9886 82.4654 15.65 82.7431ZM104.521 87.8103C104.521 87.8664 104.593 87.8851 104.681 87.8517C104.769 87.8183 104.841 87.7723 104.841 87.7495C104.841 87.7267 104.769 87.708 104.681 87.708C104.593 87.708 104.521 87.754 104.521 87.8103Z" fill="white"/>
</g>
<defs>
<clipPath id="clip0">
<rect width="239" height="136" fill="white"/>
</clipPath>
</defs>
</svg>
