<svg width="239" height="136" viewBox="0 0 239 136" fill="none" xmlns="http://www.w3.org/2000/svg">
<path d="M59.1761 0.151978C66.5361 0.151978 72.7921 1.19465 77.9441 3.27998C83.0961 5.36532 88.1254 8.30932 93.0321 12.112C94.3814 13.216 95.5467 13.768 96.5281 13.768C98.9814 13.768 100.576 10.088 101.312 2.72799H105.544C105.053 10.7013 104.808 24.808 104.808 45.048H100.576C99.2267 37.0747 98.0001 31.3706 96.8961 27.936C95.7921 24.3787 93.9521 21.0053 91.3761 17.816C87.6961 13.032 82.9734 9.47466 77.2081 7.14399C71.5654 4.69065 65.4321 3.46398 58.8081 3.46398C50.8347 3.46398 43.8427 6.10131 37.8321 11.376C31.9441 16.6506 27.3441 24.1946 24.0321 34.008C20.7201 43.6987 19.0641 55.1066 19.0641 68.232C19.0641 81.6026 20.8427 93.072 24.4001 102.64C27.9574 112.208 32.8641 119.507 39.1201 124.536C45.4987 129.443 52.6747 131.896 60.6481 131.896C66.7814 131.896 72.7307 130.731 78.4961 128.4C84.2614 126.069 88.8001 122.573 92.1121 117.912C94.5654 114.477 96.3441 110.797 97.4481 106.872C98.5521 102.947 99.5947 96.936 100.576 88.84H104.808C104.808 109.939 105.053 124.659 105.544 133H101.312C100.944 129.075 100.392 126.315 99.6561 124.72C99.0427 123.003 98.1227 122.144 96.8961 122.144C95.9147 122.144 94.6267 122.635 93.0321 123.616C87.5121 127.541 82.2374 130.547 77.2081 132.632C72.1787 134.595 66.1067 135.576 58.9921 135.576C47.3387 135.576 37.0961 132.939 28.2641 127.664C19.5547 122.389 12.7467 114.784 7.84006 104.848C3.05606 94.7893 0.664062 82.8293 0.664062 68.968C0.664062 55.4747 3.1174 43.5147 8.02406 33.088C13.0534 22.6613 19.9841 14.5653 28.8161 8.79999C37.7707 3.03465 47.8907 0.151978 59.1761 0.151978Z" fill="white"/>
<path d="M224.864 3.27998C230.384 3.27998 234.984 3.09598 238.664 2.72799V6.40798C236.21 7.02131 233.818 8.61598 231.488 11.192C229.157 13.6453 226.642 17.5093 223.944 22.784L195.056 80.008V113.496C195.056 118.157 195.424 121.531 196.16 123.616C196.896 125.701 198.245 127.112 200.208 127.848C202.293 128.584 205.544 129.075 209.96 129.32V133C204.317 132.632 196.528 132.448 186.592 132.448C176.042 132.448 168.192 132.632 163.04 133V129.32C167.456 129.075 170.645 128.584 172.608 127.848C174.693 127.112 176.104 125.701 176.84 123.616C177.576 121.531 177.944 118.157 177.944 113.496V85.896L140.592 16.896C138.384 12.848 136.421 10.1493 134.704 8.79999C133.109 7.32798 131.514 6.59198 129.92 6.59198V2.72799C134.704 3.09598 140.101 3.27998 146.112 3.27998C158.01 3.27998 166.597 3.09598 171.872 2.72799V6.59198C163.285 6.59198 158.992 8.92265 158.992 13.584C158.992 15.424 159.605 17.5707 160.832 20.024L191.376 78.72L214.928 31.984C218.24 25.4826 219.896 20.208 219.896 16.16C219.896 12.7253 218.546 10.272 215.848 8.79999C213.149 7.32798 209.101 6.53065 203.704 6.40798V2.72799C210.696 3.09598 217.749 3.27998 224.864 3.27998Z" fill="white"/>
</svg>
