<svg width="364" height="364" viewBox="0 0 364 364" fill="none" xmlns="http://www.w3.org/2000/svg">
<circle cx="182" cy="182" r="182" fill="#1C1C1C"/>
<path d="M122.264 109.152C129.624 109.152 135.88 110.195 141.032 112.28C146.184 114.365 151.213 117.309 156.12 121.112C157.469 122.216 158.635 122.768 159.616 122.768C162.069 122.768 163.664 119.088 164.4 111.728H168.632C168.141 119.701 167.896 133.808 167.896 154.048H163.664C162.315 146.075 161.088 140.371 159.984 136.936C158.88 133.379 157.04 130.005 154.464 126.816C150.784 122.032 146.061 118.475 140.296 116.144C134.653 113.691 128.52 112.464 121.896 112.464C113.923 112.464 106.931 115.101 100.92 120.376C95.032 125.651 90.432 133.195 87.12 143.008C83.808 152.699 82.152 164.107 82.152 177.232C82.152 190.603 83.9306 202.072 87.488 211.64C91.0453 221.208 95.952 228.507 102.208 233.536C108.587 238.443 115.763 240.896 123.736 240.896C129.869 240.896 135.819 239.731 141.584 237.4C147.349 235.069 151.888 231.573 155.2 226.912C157.653 223.477 159.432 219.797 160.536 215.872C161.64 211.947 162.683 205.936 163.664 197.84H167.896C167.896 218.939 168.141 233.659 168.632 242H164.4C164.032 238.075 163.48 235.315 162.744 233.72C162.131 232.003 161.211 231.144 159.984 231.144C159.003 231.144 157.715 231.635 156.12 232.616C150.6 236.541 145.325 239.547 140.296 241.632C135.267 243.595 129.195 244.576 122.08 244.576C110.427 244.576 100.184 241.939 91.352 236.664C82.6426 231.389 75.8346 223.784 70.928 213.848C66.144 203.789 63.752 191.829 63.752 177.968C63.752 164.475 66.2053 152.515 71.112 142.088C76.1413 131.661 83.072 123.565 91.904 117.8C100.859 112.035 110.979 109.152 122.264 109.152Z" fill="#C6A078"/>
<path d="M287.952 112.28C293.472 112.28 298.072 112.096 301.752 111.728V115.408C299.298 116.021 296.906 117.616 294.576 120.192C292.245 122.645 289.73 126.509 287.032 131.784L258.144 189.008V222.496C258.144 227.157 258.512 230.531 259.248 232.616C259.984 234.701 261.333 236.112 263.296 236.848C265.381 237.584 268.632 238.075 273.048 238.32V242C267.405 241.632 259.616 241.448 249.68 241.448C239.13 241.448 231.28 241.632 226.128 242V238.32C230.544 238.075 233.733 237.584 235.696 236.848C237.781 236.112 239.192 234.701 239.928 232.616C240.664 230.531 241.032 227.157 241.032 222.496V194.896L203.68 125.896C201.472 121.848 199.509 119.149 197.792 117.8C196.197 116.328 194.602 115.592 193.008 115.592V111.728C197.792 112.096 203.189 112.28 209.2 112.28C221.098 112.28 229.685 112.096 234.96 111.728V115.592C226.373 115.592 222.08 117.923 222.08 122.584C222.08 124.424 222.693 126.571 223.92 129.024L254.464 187.72L278.016 140.984C281.328 134.483 282.984 129.208 282.984 125.16C282.984 121.725 281.634 119.272 278.936 117.8C276.237 116.328 272.189 115.531 266.792 115.408V111.728C273.784 112.096 280.837 112.28 287.952 112.28Z" fill="#C6A078"/>
</svg>
