<svg width="156" height="156" viewBox="0 0 156 156" fill="none" xmlns="http://www.w3.org/2000/svg">
<g clip-path="url(#clip0)">
<circle cx="77.8726" cy="77.8726" r="77.8726" fill="#4A2C90"/>
<path d="M28.6784 70.9305C29.0384 71.9264 29.2484 73.0184 29.3084 74.2064H29.7404L29.4884 65.0805H29.1284C28.9964 65.5125 28.6724 65.9144 28.1564 66.2864C27.6404 66.6464 27.0224 66.8505 26.3024 66.8985C24.7784 65.6865 23.0384 65.0805 21.0824 65.0805C19.4984 65.0805 17.9804 65.4584 16.5284 66.2144C15.0884 66.9704 13.8584 67.9665 12.8384 69.2024C11.8304 70.4265 11.0264 71.8305 10.4264 73.4145C9.82637 74.9865 9.52637 76.5824 9.52637 78.2024C9.52637 79.4504 9.70037 80.7164 10.0484 82.0005C10.3964 83.2845 10.9124 84.5024 11.5964 85.6544C12.2804 86.7944 13.0784 87.8145 13.9904 88.7145C14.9144 89.6145 15.9884 90.3284 17.2124 90.8564C18.4484 91.3844 19.7384 91.6484 21.0824 91.6484C23.2064 91.6484 25.0844 90.7905 26.7164 89.0745C27.2564 89.1945 27.7544 89.5005 28.2104 89.9925C28.6664 90.4845 28.9664 91.0364 29.1104 91.6484H29.4704L29.8304 82.0905H29.3984C29.3024 83.1705 29.0384 84.2505 28.6064 85.3305C28.1744 86.3985 27.6224 87.3705 26.9504 88.2465C26.2784 89.1225 25.4504 89.8365 24.4664 90.3885C23.4944 90.9285 22.4624 91.1985 21.3704 91.1985C20.2544 91.1985 19.2644 90.9465 18.4004 90.4425C17.5484 89.9385 16.8644 89.2905 16.3484 88.4985C15.8444 87.6945 15.4304 86.7164 15.1064 85.5644C14.7824 84.4124 14.5604 83.2725 14.4404 82.1445C14.3324 81.0045 14.2784 79.7685 14.2784 78.4365C14.2784 76.5765 14.4044 74.8905 14.6564 73.3785C14.9084 71.8545 15.3044 70.4925 15.8444 69.2924C16.3844 68.0925 17.1164 67.1624 18.0404 66.5024C18.9764 65.8304 20.0744 65.4944 21.3344 65.4944C22.0304 65.4944 22.7264 65.5964 23.4224 65.8004C24.1304 66.0045 24.8264 66.3345 25.5104 66.7905C26.2064 67.2465 26.8184 67.8045 27.3464 68.4645C27.8864 69.1124 28.3304 69.9344 28.6784 70.9305Z" fill="white"/>
<path fill-rule="evenodd" clip-rule="evenodd" d="M56.2825 86.9145L55.8865 86.8605C55.8025 88.0485 55.6045 88.9605 55.2925 89.5965C54.9805 90.2205 54.5785 90.5325 54.0865 90.5325C53.8105 90.5325 53.5825 90.4425 53.4025 90.2625C53.2225 90.0825 53.0845 89.8185 52.9885 89.4705C52.9045 89.1225 52.8445 88.7805 52.8085 88.4445C52.7845 88.1084 52.7665 87.6945 52.7545 87.2024C52.7305 86.1224 52.6705 85.2104 52.5745 84.4664C52.4785 83.7225 52.3045 83.0145 52.0525 82.3424C51.8125 81.6704 51.4885 81.1244 51.0805 80.7044C50.6725 80.2844 50.1325 79.9125 49.4605 79.5885C48.7885 79.2525 47.9845 79.0005 47.0485 78.8325C46.1125 78.6525 44.9905 78.5264 43.6825 78.4544V78.4184C49.6825 78.0824 52.6825 76.0064 52.6825 72.1904C52.6825 70.2224 51.9025 68.6625 50.3425 67.5105C48.7945 66.3465 46.6945 65.7645 44.0425 65.7645H33.2065V66.1784H36.3745V90.5504H33.2065V90.9645H43.8625V90.5504H40.6945V78.5444C41.6305 78.5804 42.3145 78.6165 42.7465 78.6525C43.1785 78.6764 43.6945 78.7304 44.2945 78.8144C44.9065 78.8984 45.3265 78.9885 45.5545 79.0844C45.7945 79.1684 46.0825 79.3245 46.4185 79.5525C46.7665 79.7805 46.9945 80.0204 47.1025 80.2724C47.2225 80.5244 47.3665 80.8785 47.5345 81.3344C47.7025 81.7904 47.8225 82.2765 47.8945 82.7924C47.9665 83.2964 48.0445 83.9384 48.1285 84.7184C48.3805 86.9984 48.8545 88.6904 49.5505 89.7944C50.2585 90.8864 51.3505 91.4324 52.8265 91.4324C53.9665 91.4324 54.8005 91.0665 55.3285 90.3344C55.8565 89.5905 56.1745 88.4505 56.2825 86.9145ZM42.4225 78.1845C42.0145 78.1845 41.4385 78.1724 40.6945 78.1484V66.1784H42.3145C46.0825 66.1784 47.9665 68.2485 47.9665 72.3885C47.9665 75.2565 47.1265 77.0324 45.4465 77.7164C44.7025 78.0285 43.6945 78.1845 42.4225 78.1845Z" fill="white"/>
<path d="M76.6703 82.0905H77.1023L76.6703 90.9645H57.4643V90.5504H60.6323V66.1784H57.4643V65.7645H76.5443L76.8323 74.2064H76.4363L76.3643 73.0005C76.3283 72.4004 76.2563 71.8484 76.1483 71.3444C76.0523 70.8404 75.8963 70.3184 75.6803 69.7785C75.4763 69.2385 75.1823 68.7645 74.7983 68.3565C74.4263 67.9365 73.9763 67.5585 73.4483 67.2225C72.9203 66.8864 72.2603 66.6284 71.4683 66.4485C70.6883 66.2685 69.8003 66.1784 68.8043 66.1784H64.9523V78.0945H66.3923C67.1003 78.0945 67.6643 78.0465 68.0843 77.9505C68.9123 77.7705 69.5783 77.2484 70.0823 76.3844C70.5983 75.5204 70.8863 74.4885 70.9463 73.2885H71.3423V83.2965H70.9463C70.8023 80.5005 69.8783 78.9405 68.1743 78.6165C67.7423 78.5325 67.1483 78.4905 66.3923 78.4905H64.9523V90.5504H68.7143C69.8663 90.5504 70.8923 90.4184 71.7923 90.1544C72.6923 89.8904 73.4303 89.5424 74.0063 89.1105C74.5823 88.6665 75.0623 88.1325 75.4463 87.5084C75.8303 86.8724 76.1063 86.2244 76.2743 85.5644C76.4543 84.9044 76.5623 84.1845 76.5983 83.4044L76.6703 82.0905Z" fill="white"/>
<path d="M103.507 90.5504H101.113L91.5735 65.2964H91.1775L89.1637 71.1017L89.3761 71.7085L89.3775 71.7045L92.9955 81.4244H92.9571L93.1191 81.8385H93.1575L96.3975 90.5504H93.6615V90.9645H103.507V90.5504Z" fill="white"/>
<path d="M124.182 65.7645L124.506 74.1345L124.11 74.1525L124.02 73.0545C123.96 72.3105 123.864 71.6505 123.732 71.0745C123.6 70.4865 123.366 69.8745 123.03 69.2385C122.694 68.5905 122.268 68.0565 121.752 67.6365C121.248 67.2165 120.558 66.8684 119.682 66.5924C118.818 66.3164 117.81 66.1784 116.658 66.1784H115.47V90.5504H118.638V90.9645H107.982V90.5504H111.15V66.1784H109.98C108.648 66.1784 107.508 66.3525 106.56 66.7005C105.612 67.0365 104.862 67.5285 104.31 68.1765C103.77 68.8125 103.368 69.5264 103.104 70.3184C102.84 71.1104 102.672 72.0225 102.6 73.0545L102.528 74.1525L102.132 74.1345L102.438 65.7645H124.182Z" fill="white"/>
<path d="M146.219 82.0905H145.787L145.715 83.4044C145.68 84.1845 145.571 84.9044 145.391 85.5644C145.223 86.2244 144.947 86.8724 144.563 87.5084C144.179 88.1325 143.699 88.6665 143.123 89.1105C142.547 89.5424 141.809 89.8904 140.909 90.1544C140.009 90.4184 138.983 90.5504 137.831 90.5504H134.069V78.4905H135.509C136.265 78.4905 136.859 78.5325 137.291 78.6165C138.995 78.9405 139.919 80.5005 140.063 83.2965H140.459V73.2885H140.063C140.003 74.4885 139.715 75.5204 139.199 76.3844C138.695 77.2484 138.029 77.7705 137.201 77.9505C136.781 78.0465 136.217 78.0945 135.509 78.0945H134.069V66.1784H137.921C138.917 66.1784 139.805 66.2685 140.585 66.4485C141.378 66.6284 142.037 66.8864 142.565 67.2225C143.093 67.5585 143.544 67.9365 143.915 68.3565C144.299 68.7645 144.593 69.2385 144.797 69.7785C145.013 70.3184 145.169 70.8404 145.265 71.3444C145.373 71.8484 145.445 72.4004 145.481 73.0005L145.553 74.2064H145.949L145.661 65.7645H126.581V66.1784H129.749V90.5504H126.581V90.9645H145.787L146.219 82.0905Z" fill="white"/>
<path d="M75.4067 101.824L94.2821 59.6676L98.0072 50.3432L100.999 42.5337L69.845 113.212L75.4067 101.824Z" fill="white"/>
</g>
<defs>
<clipPath id="clip0">
<rect width="155.745" height="155.745" fill="white"/>
</clipPath>
</defs>
</svg>
