<svg width="157" height="82" viewBox="0 0 157 82" fill="none" xmlns="http://www.w3.org/2000/svg">
<path d="M22.2853 32.8884C22.6954 34.0232 22.9347 35.2674 23.0031 36.621H23.4953L23.2082 26.223H22.798C22.6476 26.7152 22.2784 27.1732 21.6905 27.5971C21.1026 28.0073 20.3984 28.2397 19.5781 28.2944C17.8417 26.9135 15.8592 26.223 13.6305 26.223C11.8258 26.223 10.0962 26.6537 8.4418 27.515C6.80109 28.3764 5.39966 29.5112 4.23749 30.9195C3.089 32.3141 2.17294 33.9138 1.48931 35.7186C0.805681 37.5097 0.463867 39.3281 0.463867 41.1739C0.463867 42.5959 0.662119 44.0383 1.05862 45.5013C1.45513 46.9643 2.04305 48.352 2.82238 49.6646C3.60172 50.9635 4.51094 52.1256 5.55006 53.1511C6.60284 54.1765 7.82653 54.99 9.22113 55.5916C10.6294 56.1932 12.0992 56.494 13.6305 56.494C16.0506 56.494 18.1903 55.5164 20.0498 53.5613C20.6651 53.698 21.2325 54.0466 21.752 54.6072C22.2716 55.1678 22.6134 55.7967 22.7775 56.494H23.1876L23.5978 45.6038H23.1056C22.9962 46.8344 22.6954 48.0649 22.2032 49.2954C21.711 50.5123 21.0821 51.6198 20.3164 52.6179C19.5507 53.6159 18.6073 54.4295 17.4862 55.0584C16.3787 55.6737 15.2029 55.9813 13.9587 55.9813C12.6871 55.9813 11.5591 55.6942 10.5747 55.1199C9.60397 54.5457 8.82463 53.8074 8.23671 52.905C7.66246 51.9889 7.19076 50.8746 6.8216 49.562C6.45244 48.2495 6.1995 46.9506 6.06278 45.6654C5.93972 44.3665 5.8782 42.9582 5.8782 41.4405C5.8782 39.3213 6.02176 37.4003 6.30888 35.6776C6.59601 33.9411 7.0472 32.3893 7.66246 31.0221C8.27773 29.6548 9.11175 28.5952 10.1645 27.8432C11.231 27.0775 12.482 26.6947 13.9177 26.6947C14.7107 26.6947 15.5037 26.8109 16.2967 27.0433C17.1034 27.2758 17.8964 27.6518 18.6757 28.1713C19.4687 28.6909 20.166 29.3267 20.7676 30.0787C21.3829 30.817 21.8888 31.7535 22.2853 32.8884Z" fill="white"/>
<path fill-rule="evenodd" clip-rule="evenodd" d="M53.7368 51.1002L53.2856 51.0387C53.1899 52.3923 52.9643 53.4314 52.6088 54.156C52.2533 54.867 51.7953 55.2225 51.2347 55.2225C50.9203 55.2225 50.6605 55.1199 50.4554 54.9148C50.2503 54.7098 50.0931 54.409 49.9837 54.0125C49.888 53.6159 49.8196 53.2263 49.7786 52.8434C49.7513 52.4606 49.7308 51.9889 49.7171 51.4283C49.6897 50.1978 49.6214 49.1587 49.512 48.311C49.4026 47.4633 49.2044 46.6566 48.9172 45.891C48.6438 45.1253 48.2746 44.5032 47.8098 44.0247C47.3449 43.5461 46.7296 43.1223 45.964 42.7531C45.1983 42.3703 44.2822 42.0832 43.2158 41.8917C42.1493 41.6866 40.8709 41.5431 39.3806 41.461V41.42C46.2169 41.0372 49.6351 38.6719 49.6351 34.324C49.6351 32.0817 48.7463 30.3043 46.9689 28.9917C45.2051 27.6654 42.8124 27.0023 39.7908 27.0023H27.4445V27.474H31.0541V55.243H27.4445V55.7147H39.5857V55.243H35.9762V41.5636C37.0426 41.6046 37.822 41.6456 38.3142 41.6866C38.8064 41.714 39.3943 41.7755 40.0779 41.8712C40.7752 41.9669 41.2538 42.0695 41.5136 42.1789C41.787 42.2746 42.1151 42.4523 42.498 42.7121C42.8945 42.9719 43.1543 43.2453 43.2773 43.5324C43.414 43.8196 43.5781 44.2229 43.7695 44.7425C43.9609 45.262 44.0977 45.8158 44.1797 46.4037C44.2617 46.9779 44.3506 47.7094 44.4463 48.5981C44.7334 51.1959 45.2735 53.1237 46.0665 54.3816C46.8732 55.6258 48.1174 56.2479 49.7991 56.2479C51.098 56.2479 52.0483 55.8309 52.6498 54.9969C53.2514 54.1492 53.6138 52.8503 53.7368 51.1002ZM37.945 41.1534C37.4802 41.1534 36.8239 41.1397 35.9762 41.1124V27.474H37.822C42.1151 27.474 44.2617 29.8325 44.2617 34.5496C44.2617 37.8173 43.3047 39.8409 41.3905 40.6202C40.5428 40.9757 39.3943 41.1534 37.945 41.1534Z" fill="white"/>
<path d="M76.9663 45.6038H77.4585L76.9663 55.7147H55.0833V55.243H58.6929V27.474H55.0833V27.0023H76.8227L77.1508 36.621H76.6997L76.6176 35.2469C76.5766 34.5632 76.4946 33.9343 76.3715 33.3601C76.2621 32.7858 76.0844 32.1911 75.8383 31.5758C75.6058 30.9605 75.2709 30.4205 74.8333 29.9556C74.4095 29.4771 73.8968 29.0464 73.2952 28.6635C72.6936 28.2807 71.9416 27.9868 71.0392 27.7817C70.1505 27.5766 69.1387 27.474 68.0039 27.474H63.615V41.0509H65.2557C66.0624 41.0509 66.705 40.9962 67.1836 40.8868C68.127 40.6817 68.8858 40.087 69.46 39.1025C70.048 38.1181 70.3761 36.9423 70.4445 35.575H70.8956V46.9779H70.4445C70.2804 43.7922 69.2276 42.0148 67.2861 41.6456C66.7939 41.5499 66.1171 41.5021 65.2557 41.5021H63.615V55.243H67.9014C69.2139 55.243 70.3829 55.0926 71.4084 54.7918C72.4338 54.491 73.2747 54.0945 73.931 53.6023C74.5872 53.0964 75.1341 52.488 75.5717 51.777C76.0092 51.0523 76.3237 50.314 76.5151 49.562C76.7202 48.81 76.8432 47.9897 76.8842 47.101L76.9663 45.6038Z" fill="white"/>
<path d="M107.544 55.243H104.816L93.9466 26.4691H93.4954L91.2009 33.0834L91.4429 33.7749L91.4445 33.7702L95.5668 44.845H95.5231L95.7077 45.3167H95.7514L99.443 55.243H96.3256V55.7147H107.544V55.243Z" fill="white"/>
<path d="M131.101 27.0023L131.47 36.5389L131.019 36.5594L130.916 35.3084C130.848 34.4607 130.738 33.7087 130.588 33.0524C130.437 32.3825 130.171 31.6852 129.788 30.9605C129.405 30.2222 128.92 29.6138 128.332 29.1352C127.758 28.6567 126.971 28.2602 125.973 27.9457C124.989 27.6313 123.84 27.474 122.528 27.474H121.174V55.243H124.784V55.7147H112.643V55.243H116.252V27.474H114.919C113.401 27.474 112.103 27.6723 111.022 28.0688C109.942 28.4516 109.088 29.0122 108.459 29.7505C107.844 30.4752 107.386 31.2887 107.085 32.1911C106.784 33.0934 106.593 34.1326 106.511 35.3084L106.428 36.5594L105.977 36.5389L106.326 27.0023H131.101Z" fill="white"/>
<path d="M156.209 45.6038H155.717L155.635 47.101C155.594 47.9897 155.471 48.81 155.266 49.562C155.074 50.314 154.76 51.0523 154.322 51.777C153.885 52.488 153.338 53.0964 152.682 53.6023C152.025 54.0945 151.184 54.491 150.159 54.7918C149.134 55.0926 147.965 55.243 146.652 55.243H142.366V41.5021H144.006C144.868 41.5021 145.545 41.5499 146.037 41.6456C147.978 42.0148 149.031 43.7922 149.195 46.9779H149.646V35.575H149.195C149.127 36.9423 148.799 38.1181 148.211 39.1025C147.636 40.087 146.878 40.6817 145.934 40.8868C145.456 40.9962 144.813 41.0509 144.006 41.0509H142.366V27.474H146.755C147.889 27.474 148.901 27.5766 149.79 27.7817C150.692 27.9868 151.444 28.2807 152.046 28.6635C152.647 29.0464 153.16 29.4771 153.584 29.9556C154.022 30.4205 154.357 30.9605 154.589 31.5758C154.835 32.1911 155.013 32.7858 155.122 33.3601C155.245 33.9343 155.327 34.5632 155.368 35.2469L155.45 36.621H155.902L155.573 27.0023H133.834V27.474H137.444V55.243H133.834V55.7147H155.717L156.209 45.6038Z" fill="white"/>
<path d="M75.5265 68.0873L97.0328 20.0557L101.277 9.4317L104.686 0.533691L69.1896 81.0629L75.5265 68.0873Z" fill="white"/>
</svg>
