<svg width="239" height="136" viewBox="0 0 239 136" fill="none" xmlns="http://www.w3.org/2000/svg">
<path fill-rule="evenodd" clip-rule="evenodd" d="M22.6425 0.801116C22.6425 1.24196 23.5499 2.71268 24.6585 4.06856C25.7671 5.42536 28.4606 7.41194 30.6451 8.48442C32.8296 9.55689 35.9282 10.8044 37.5314 11.2554C39.1337 11.7074 44.795 12.6715 50.1118 13.3985C55.4286 14.1246 60.9273 15.1397 62.3313 15.6537C63.7353 16.1677 65.6147 17.6616 66.5077 18.9739C67.4008 20.2854 68.3486 21.1504 68.6133 20.8957C68.8779 20.641 68.3496 19.3388 67.4393 18.0024C66.5289 16.6651 63.9807 14.8128 61.776 13.8848C59.5714 12.9577 53.8437 11.7472 49.0494 11.1952C44.2542 10.6442 38.1839 9.57912 35.5596 8.82894C32.9354 8.07876 29.9301 6.82939 28.8812 6.05236C27.6648 5.15215 28.656 5.33645 31.6132 6.55989C34.9861 7.95651 39.8468 8.72614 49.416 9.37907C56.6555 9.87363 63.9788 10.7044 65.6907 11.2258C67.4027 11.7472 69.6766 13.242 70.7429 14.547C71.8101 15.8528 72.6829 17.9339 72.6829 19.1721C72.6829 20.4104 72.1989 22.3331 71.608 23.4463C71.0171 24.5586 69.6093 26.1886 68.4805 27.0694C67.2256 28.0474 64.7438 28.6762 62.0974 28.6864C59.4414 28.6966 56.5526 27.9909 54.627 26.861C51.8824 25.2504 51.6332 24.7948 52.6446 23.2351C53.553 21.8357 53.5405 21.1485 52.5869 20.0427C51.9181 19.2675 50.7537 18.8609 49.9982 19.1397C49.2428 19.4194 48.625 20.6447 48.625 21.8635C48.625 23.0823 48.1641 24.0798 47.6001 24.0798C47.0362 24.0798 44.1801 21.8116 41.2546 19.0406C38.3282 16.2687 34.7013 13.7403 33.1943 13.4217C31.6873 13.1031 29.6164 13.2744 28.5934 13.8014C27.5695 14.3284 26.5091 15.5796 26.2367 16.5817C25.9654 17.5829 26.3686 19.2638 27.1336 20.315C27.8996 21.3671 29.1987 22.2275 30.0206 22.2275C31.1311 22.2275 30.9617 21.795 29.3633 20.5493C27.7851 19.3194 27.3877 18.3293 27.8775 16.8447C28.349 15.4166 29.3161 14.8183 31.1542 14.8183C32.588 14.8183 34.6368 15.4074 35.705 16.1279C36.7741 16.8484 39.4176 19.1406 41.5799 21.2217C43.9039 23.4583 46.4434 25.0217 47.7897 25.0448C49.0436 25.0661 51.7641 26.5248 53.8379 28.2863C56.2302 30.3192 57.0462 31.4889 56.0714 31.4889C55.2275 31.4889 53.7782 32.2187 52.8525 33.1097C51.9258 34.0006 50.9317 34.5952 50.642 34.4294C50.3533 34.2637 49.9684 34.5554 49.7884 35.0768C49.5719 35.702 50.3832 35.7446 52.1702 35.2018C53.6608 34.749 57.0058 33.7284 59.6041 32.9337C62.2023 32.1391 67.6269 31.4889 71.658 31.4889C75.6901 31.4889 82.589 31.0546 86.9887 30.5239C91.3894 29.9923 97.0074 28.9013 99.4738 28.0983C101.94 27.2954 105.257 25.82 106.845 24.8198L109.732 23.0008L106.845 25.3995C105.257 26.7184 101.581 28.6596 98.676 29.7135C95.7708 30.7665 91.3316 31.864 88.8123 32.1511C86.292 32.4382 84.2307 32.9272 84.2307 33.2384C84.2307 33.5496 82.3908 33.8793 80.1409 33.9719C77.891 34.0636 74.4276 34.1516 72.4423 34.1655C70.458 34.1803 68.8336 34.6258 68.8336 35.1555C68.8336 35.6862 70.458 36.1132 72.4423 36.1058C74.4276 36.0974 76.6861 35.7047 77.4618 35.2324C78.3433 34.6962 79.3056 34.7184 80.0225 35.2917C80.7471 35.8696 81.3823 35.8826 81.7402 35.325C82.052 34.8388 83.099 34.6406 84.0671 34.8842C85.0342 35.1278 88.5756 34.6406 91.936 33.8024C95.2973 32.9643 100.054 31.3 102.507 30.1034C104.96 28.9068 108.539 26.2534 110.461 24.2067C112.381 22.1608 114.615 19.2546 115.424 17.7496C116.233 16.2446 117.294 13.2994 117.783 11.2054C118.304 8.97157 118.316 7.18689 117.811 6.88589C117.337 6.60434 116.949 7.21097 116.949 8.23436C116.949 9.25775 116.404 10.4284 115.738 10.8359C115.071 11.2434 113.448 13.1513 112.129 15.0749C110.593 17.3161 107.855 19.4639 104.506 21.0541C100.416 22.9953 97.9052 23.5296 92.9579 23.5111C88.4322 23.4944 85.5164 22.9295 82.6939 21.5218C80.5248 20.44 78.0546 18.5331 77.2039 17.2837C76.3532 16.0334 75.3716 13.9181 75.0233 12.5817C74.6749 11.2453 74.9126 8.93637 75.5516 7.45084C76.2011 5.94215 77.8438 4.37233 79.2748 3.89166C80.6826 3.41933 82.7786 3.36932 83.9324 3.7796C85.0862 4.18988 86.4912 5.3559 87.0551 6.37003C87.619 7.38415 88.08 9.00954 88.08 9.98292C88.08 10.9563 87.288 12.4428 86.3199 13.2856C85.3518 14.1283 83.8516 14.8183 82.9855 14.8183C82.1203 14.8183 80.9117 13.92 80.3006 12.8216C79.3537 11.1174 79.525 10.5766 81.4698 9.13735C83.1029 7.92873 83.3261 7.44435 82.258 7.42954C81.4371 7.41842 80.2467 7.90928 79.6116 8.52054C78.9765 9.13179 78.4568 10.5812 78.4568 11.7407C78.4568 12.9521 79.4528 14.4775 80.7981 15.3259C82.7285 16.5437 83.5301 16.6021 85.3691 15.6593C86.5951 15.0304 88.1262 13.8542 88.7709 13.0466C89.4157 12.2381 89.9574 10.8266 89.9738 9.90975C89.9911 8.9938 89.3752 7.07204 88.6064 5.64115C87.8375 4.21026 85.8888 2.51356 84.2759 1.87081C81.9048 0.925219 80.7693 0.92985 78.3433 1.89767C76.6929 2.55523 74.5286 4.37696 73.5346 5.94585C72.5415 7.51474 71.7264 9.4828 71.7244 10.3191C71.7206 11.7083 71.4329 11.6991 68.3958 10.2089C66.0073 9.03732 61.4748 8.38624 52.2972 7.89817C44.3812 7.47677 37.288 6.5534 33.6466 5.47074C30.4151 4.51033 26.9825 2.88679 26.0202 1.86248C25.0569 0.838161 23.9031 0 23.4556 0C23.0082 0 22.6425 0.36027 22.6425 0.801116ZM140.198 6.08755C136.769 7.75369 133.642 10.3173 130.807 13.7857C128.468 16.6456 124.789 22.4572 122.631 26.7008C120.472 30.9434 118.962 34.6601 119.272 34.9592C119.582 35.2574 119.986 35.3287 120.167 35.1166C120.349 34.9036 122.406 31.2287 124.738 26.949C127.07 22.6693 130.837 17.3717 133.108 15.1758C135.76 12.6122 138.449 10.9646 140.62 10.5729C143.36 10.0783 144.448 10.3654 146.354 12.089C148.31 13.8579 148.702 15.0832 148.683 19.3787C148.668 22.6933 147.818 26.5155 146.307 30.0516C145.013 33.081 144.122 35.7214 144.327 35.9196C144.532 36.1169 145.134 35.4991 145.664 34.5471C146.418 33.1893 147.462 32.892 150.486 33.169C153.516 33.4468 154.222 33.8358 153.769 34.9731C153.384 35.9381 153.571 36.1965 154.33 35.7455C154.957 35.3732 156.398 33.3246 157.532 31.1944C158.865 28.6929 159.733 25.0263 159.984 20.8383C160.285 15.8297 159.977 13.6329 158.629 11.1795C157.671 9.43279 155.792 7.23412 154.458 6.29316C153.122 5.35219 150.524 4.35937 148.684 4.08615C146.224 3.72218 143.976 4.25193 140.198 6.08755ZM114.65 15.5481C113.835 17.0633 111.746 19.4602 110.007 20.8744C108.268 22.2895 105.113 24.1798 102.996 25.0754C100.879 25.9719 96.5484 27.1481 93.3727 27.689C90.1971 28.2308 84.0556 28.7883 79.7242 28.9272C72.6213 29.1569 71.9843 29.0393 73.217 27.7279C73.9695 26.9277 74.8606 24.9466 75.1974 23.324C75.5343 21.7024 75.9538 20.3752 76.129 20.3752C76.3031 20.3752 78.0093 21.3958 79.9186 22.6424C81.8278 23.8899 85.4201 25.2032 87.9 25.5625C90.4588 25.9321 94.6892 25.7552 97.6771 25.1532C100.574 24.5688 104.904 22.9286 107.3 21.5069C109.703 20.0825 112.509 17.405 113.558 15.537C114.604 13.6745 115.611 12.2946 115.795 12.4715C115.978 12.6493 115.463 14.033 114.65 15.5481ZM86.3959 37.7312C83.0884 37.9127 80.3814 38.3582 80.3814 38.7231C80.3814 39.087 81.3563 39.7965 82.5467 40.2994C84.6532 41.1885 84.7119 41.5876 84.7119 55.1056C84.7119 68.6236 84.6532 69.0228 82.5467 69.9119C81.3563 70.4148 80.3814 71.1446 80.3814 71.5327C80.3814 71.9217 83.737 72.2264 87.8394 72.2097C94.6064 72.1828 95.1241 72.0541 93.4295 70.8205C92.4017 70.0731 91.2113 69.4609 90.7831 69.4609C90.3549 69.4609 90.0046 63.0677 90.0046 55.2547V41.0477L92.4643 39.9687C93.8173 39.376 94.6584 38.4748 94.3321 37.9682C94.0069 37.4607 93.441 37.1264 93.0754 37.2246C92.7097 37.3227 89.7044 37.5506 86.3959 37.7312ZM13.9816 38.6749C13.9816 39.062 14.8477 39.8993 15.9063 40.5355C17.6923 41.6089 17.8309 42.6953 17.8309 55.6632C17.8309 68.9487 17.7347 69.6582 15.8668 70.1286C14.7871 70.4 14.0461 71.0372 14.2222 71.5438C14.4089 72.0847 19.7748 72.5144 27.2039 72.5838C39.1058 72.695 39.8968 72.5913 40.3828 70.8501C40.6676 69.8313 40.9063 68.0596 40.913 66.914C40.9207 65.7683 40.7292 64.8302 40.4886 64.8302C40.248 64.8302 38.948 65.8915 37.5998 67.19C35.4134 69.2942 34.4972 69.5192 29.1362 69.2738L23.1236 68.9978L22.8407 62.2833L22.5578 55.5687H26.4706C29.7088 55.5687 30.571 55.967 31.4785 57.8841C32.0809 59.1575 32.8998 60.1994 33.2972 60.1994C33.6947 60.1994 34.1662 57.6979 34.3452 54.6407C34.5704 50.8028 34.3192 49.0829 33.533 49.0838C32.9075 49.0848 32.1203 49.9192 31.7845 50.938C31.2947 52.4235 30.3285 52.7903 26.9084 52.7903H22.6425V46.7703V40.7504H28.3942C33.4676 40.7504 34.3317 41.0236 35.7223 43.0657C36.5893 44.3392 37.6816 45.3811 38.1502 45.3811C38.6188 45.3811 39.0018 43.7141 39.0018 41.6765V37.972H26.4917C19.6112 37.972 13.9816 38.2887 13.9816 38.6749ZM48.625 38.9268C48.625 39.4529 49.2746 40.1225 50.0685 40.4151C51.2675 40.8578 51.512 43.426 51.512 55.5594C51.512 69.848 51.4648 70.1833 49.3891 70.7056C48.2208 70.9992 47.552 71.516 47.9023 71.8531C48.2526 72.1902 54.1689 72.519 61.0485 72.5838L73.5577 72.7024L74.1784 69.1673C74.519 67.2224 74.52 65.3636 74.1793 65.0358C73.8387 64.7079 72.604 65.5933 71.4358 67.0029C69.4774 69.3664 68.8606 69.5452 63.539 69.2821L57.767 68.9978L57.5014 54.9445C57.2483 41.5293 57.3253 40.8634 59.1855 40.2947C60.2575 39.9678 61.1351 39.3112 61.1351 38.836C61.1351 38.3609 58.3203 37.972 54.8801 37.972C51.2242 37.972 48.625 38.3693 48.625 38.9268ZM101.275 42.3498C100.983 44.781 101.099 47.125 101.533 47.5585C101.968 47.9919 102.609 47.4816 102.957 46.4249C103.306 45.3681 104.706 43.6585 106.07 42.6268C107.594 41.4728 109.989 40.7504 112.293 40.7504H116.037L115.772 54.8741C115.515 68.5153 115.432 69.0293 113.341 69.9119C112.15 70.4148 111.176 71.2483 111.177 71.7642C111.177 72.3171 114.337 72.7126 118.875 72.7274C123.108 72.7413 126.573 72.4523 126.573 72.0837C126.573 71.7151 125.381 70.8658 123.926 70.1944L121.28 68.9756L121.014 54.863L120.749 40.7504H124.544C126.632 40.7504 129.041 41.0097 129.897 41.3255C130.755 41.6423 132.1 43.1009 132.888 44.567C133.675 46.034 134.766 47.2334 135.31 47.2334C135.892 47.2334 136.18 45.4154 136.008 42.8342L135.715 38.435L118.761 38.1822L101.807 37.9303L101.275 42.3498ZM141.97 38.836C141.97 39.3112 142.836 39.9641 143.894 40.2873C145.712 40.843 145.819 41.6886 145.819 55.5233C145.819 69.8489 145.772 70.1824 143.696 70.7056C142.528 70.9992 141.862 71.5188 142.216 71.8587C142.57 72.1995 148.522 72.4783 155.442 72.4783C162.362 72.4783 168.164 72.3199 168.333 72.1273C168.504 71.9346 168.892 70.2138 169.199 68.3032C169.542 66.1666 169.37 64.8302 168.752 64.8302C168.2 64.8302 166.881 65.8906 165.822 67.1872C164.076 69.3229 163.341 69.5183 157.985 69.271L152.074 68.9978L151.79 62.2277L151.506 55.4585L155.639 55.7447C159.084 55.9836 159.824 56.3791 160.08 58.1156C160.249 59.2612 160.791 60.1994 161.283 60.1994C161.775 60.1994 162.184 58.637 162.192 56.7264C162.199 54.8167 162.466 52.3152 162.785 51.1695C163.197 49.6868 162.949 49.0857 161.921 49.0857C161.127 49.0857 160.252 49.9192 159.975 50.938C159.575 52.4096 158.662 52.7903 155.533 52.7903H151.593V46.7703V40.7504H156.817C160.15 40.7504 162.557 41.2477 163.467 42.1229C164.251 42.8777 165.089 44.0243 165.329 44.6698C165.569 45.3154 165.978 45.6358 166.241 45.3811C166.503 45.1264 166.968 43.3556 167.275 41.445L167.831 37.972H154.9C147.544 37.972 141.97 38.3443 141.97 38.836ZM184.342 74.036C183.57 75.4262 183.57 76.4616 184.342 77.8518C185.078 79.1743 186.165 79.6716 187.888 79.4725C189.254 79.3141 190.847 78.4565 191.427 77.5647C192.191 76.3894 192.191 75.4984 191.427 74.3231C190.847 73.4313 189.254 72.5737 187.888 72.4153C186.165 72.2162 185.078 72.7135 184.342 74.036ZM0.841204 77.6378C1.98829 78.8576 2.43384 81.0599 2.43384 85.5101C2.43384 89.0118 2.01715 91.6884 1.47152 91.6884C0.942248 91.6884 0.509205 92.1051 0.509205 92.6145C0.509205 93.1239 2.86014 93.5407 5.73362 93.5407C9.19892 93.5407 11.4661 93.0507 12.4698 92.0857C13.3013 91.2846 13.9816 89.6212 13.9816 88.3885C13.9816 87.1558 13.1608 85.6536 12.1571 85.0507C10.5962 84.1125 10.5269 83.768 11.6759 82.6612C12.415 81.95 13.0193 80.8025 13.0193 80.1116C13.0193 79.4207 12.339 78.2 11.5075 77.3989C10.4932 76.4236 8.22313 75.9439 4.62214 75.9439C-0.522397 75.9439 -0.684067 76.0161 0.841204 77.6378ZM17.8309 76.87C17.8309 77.3794 18.2639 77.7962 18.7932 77.7962C19.3465 77.7962 19.7555 80.6672 19.7555 84.5571C19.7555 88.3672 19.2782 91.7773 18.6633 92.3691C17.8473 93.1545 19.3129 93.4027 24.4372 93.3489C30.7019 93.2832 31.3033 93.11 31.3033 91.3716C31.3033 89.8889 31.0464 89.7129 30.1485 90.577C29.5134 91.1883 27.5647 91.6884 25.8181 91.6884C22.8301 91.6884 22.6425 91.4967 22.6425 88.4469C22.6425 85.8231 23.0091 85.2054 24.5671 85.2054C25.6257 85.2054 26.4917 85.6221 26.4917 86.1315C26.4917 86.6409 26.9248 87.0576 27.4541 87.0576C27.9833 87.0576 28.4164 85.8073 28.4164 84.2792C28.4164 82.7511 27.9833 81.5008 27.4541 81.5008C26.9248 81.5008 26.4917 81.9175 26.4917 82.4269C26.4917 82.9363 25.6257 83.3531 24.5671 83.3531C23.0697 83.3531 22.6425 82.7353 22.6425 80.5746C22.6425 78.1491 22.9851 77.7962 25.337 77.7962C26.8189 77.7962 28.5511 78.2963 29.1862 78.9076C30.0841 79.7717 30.341 79.5661 30.341 77.9814C30.341 76.0912 29.8887 75.9439 24.086 75.9439C20.5571 75.9439 17.8309 76.3477 17.8309 76.87ZM35.1526 76.87C35.1526 77.3794 35.6434 77.7962 36.2438 77.7962C37.0002 77.7962 37.1879 79.7874 36.8549 84.2653C36.5903 87.8236 35.8291 91.3661 35.1641 92.1375C34.1191 93.3499 34.4607 93.537 37.6815 93.511C41.0102 93.4851 41.2258 93.3489 39.7015 92.2357C38.2666 91.1883 38.0982 90.1454 38.6429 85.6814L39.2915 80.3737L42.2372 86.9567C43.8577 90.5779 45.4157 93.5333 45.7015 93.5249C45.9863 93.5166 47.2364 91.2475 48.4797 88.483C49.723 85.7184 51.2541 82.7798 51.8834 81.9518C52.8178 80.721 53.068 81.4702 53.2566 86.0676C53.3952 89.4378 53.0921 91.6884 52.4993 91.6884C51.9565 91.6884 51.512 92.1051 51.512 92.6145C51.512 93.1239 53.0805 93.5407 54.9975 93.5407C57.6525 93.5407 58.2568 93.2647 57.5332 92.383C57.0097 91.7467 56.2899 88.3663 55.9338 84.871C55.3757 79.3966 55.5239 78.3426 57.0077 77.26C58.5782 76.1134 58.4714 76.0004 55.7875 75.9735C53.0863 75.9467 52.5782 76.4774 49.5556 82.4908L46.2644 89.0368L43.1716 82.4908C40.5108 76.8599 39.7332 75.9439 37.6151 75.9439C36.2612 75.9439 35.1526 76.3607 35.1526 76.87ZM68.8336 76.8691C68.8336 77.4628 67.472 80.934 65.8081 84.5821C64.1443 88.2301 62.0878 91.7254 61.2371 92.3487C59.9342 93.3036 60.2758 93.486 63.4177 93.511C66.5635 93.536 66.9639 93.3314 65.9881 92.1996C65.2096 91.2966 65.1326 90.3427 65.7533 89.2758C66.3037 88.3292 67.9214 87.6569 69.7729 87.6059C71.8457 87.5485 73.1814 88.0764 73.8069 89.2007C74.4449 90.3473 74.3775 91.3031 73.5942 92.2107C72.6271 93.3323 73.1054 93.536 76.6554 93.511C80.3275 93.4851 80.6519 93.3276 79.2045 92.27C78.2923 91.6032 76.0953 87.7856 74.3227 83.7865C72.5492 79.7883 70.5889 76.3523 69.9663 76.1532C69.3437 75.9532 68.8336 76.2755 68.8336 76.8691ZM83.0759 77.0553C83.7572 77.711 84.2307 80.8627 84.2307 84.7423C84.2307 88.6219 83.7572 91.7736 83.0759 92.4293C82.1781 93.2934 82.7459 93.5407 85.6309 93.5407C89.1635 93.5407 89.2646 93.4601 87.748 91.8467C86.6288 90.6566 86.1688 88.5219 86.2025 84.6691L86.2487 79.1854L93.4199 86.5779L100.59 93.9713V86.2176C100.59 79.9189 100.906 78.2324 102.274 77.2331C103.766 76.143 103.524 75.9995 100.157 75.9735C97.2008 75.9504 96.6128 76.1912 97.5107 77.0553C98.1458 77.6665 98.6654 80.3903 98.6654 83.1095V88.0514L92.7809 81.9981C88.4726 77.5647 86.2304 75.9439 84.4087 75.9439C82.4745 75.9439 82.1781 76.1912 83.0759 77.0553ZM106.364 76.87C106.364 77.3794 106.797 77.7962 107.326 77.7962C107.883 77.7962 108.289 80.7293 108.289 84.7423C108.289 88.7553 107.883 91.6884 107.326 91.6884C106.797 91.6884 106.364 92.1051 106.364 92.6145C106.364 93.1239 107.663 93.5407 109.251 93.5407C110.839 93.5407 112.138 93.1239 112.138 92.6145C112.138 92.1051 111.705 91.6884 111.176 91.6884C110.634 91.6884 110.213 89.0766 110.213 85.7055V79.7216L116.689 86.4001C120.25 90.0722 123.498 93.2165 123.906 93.386C124.314 93.5564 124.648 90.201 124.648 85.9305C124.648 81.1266 125.089 77.7425 125.803 77.0553C126.701 76.1912 126.113 75.9504 123.156 75.9735C119.789 75.9995 119.548 76.143 121.039 77.2331C122.288 78.1453 122.713 79.7541 122.682 83.4549L122.641 88.4469L116.529 82.1954C112.738 78.3185 109.647 75.9439 108.391 75.9439C107.276 75.9439 106.364 76.3607 106.364 76.87ZM130.422 77.1312C131.455 77.9388 131.865 80.0986 131.865 84.7423C131.865 89.386 131.455 91.5457 130.422 92.3533C129.237 93.2795 129.756 93.4814 133.309 93.4814C137.113 93.4814 137.434 93.3323 135.955 92.2515C134.643 91.2929 134.271 89.636 134.271 84.7423C134.271 79.8485 134.643 78.1917 135.955 77.2331C137.434 76.1523 137.113 76.0032 133.309 76.0032C129.756 76.0032 129.237 76.2051 130.422 77.1312ZM140.815 77.0553C141.496 77.711 141.97 80.8627 141.97 84.7423C141.97 88.6219 141.496 91.7736 140.815 92.4293C139.917 93.2934 140.451 93.5407 143.221 93.5407C145.179 93.5407 146.781 93.1684 146.781 92.7136C146.781 92.2589 146.118 91.6421 145.308 91.3429C144.174 90.9234 143.876 89.4665 144.016 85.0136L144.196 79.2299L151.118 86.3853C154.926 90.3205 158.223 93.5407 158.445 93.5407C158.667 93.5407 158.682 90.3945 158.481 86.5501C158.181 80.833 158.423 79.2308 159.814 77.7517C161.472 75.9893 161.424 75.9439 157.88 75.9439C155.089 75.9439 154.472 76.2134 155.226 77.1016C155.765 77.7388 156.359 80.4477 156.546 83.1225C156.733 85.7962 156.813 87.9847 156.725 87.9847C156.636 87.9838 153.861 85.2748 150.558 81.9638C146.254 77.6499 143.859 75.9439 142.105 75.9439C140.204 75.9439 139.917 76.1912 140.815 77.0553ZM167.064 78.3417C164.573 80.3588 164.103 81.3943 164.103 84.8692C164.103 88.1449 164.629 89.4675 166.649 91.2697C168.554 92.9683 170.268 93.5407 173.449 93.5407C175.788 93.5407 178.54 93.1091 179.564 92.5821C180.761 91.9653 181.425 90.6446 181.425 88.8775C181.425 87.3633 181.964 86.0769 182.628 86.0092C183.29 85.9426 182.315 85.6064 180.462 85.2628C178.61 84.9192 176.714 84.8229 176.249 85.0498C175.784 85.2767 176.109 85.8416 176.971 86.3056C177.832 86.7696 178.538 88.1255 178.538 89.3184C178.538 90.8428 177.843 91.655 176.198 92.0523C174.913 92.3635 172.773 92.22 171.445 91.7347C170.117 91.2485 168.572 90.025 168.011 89.0155C167.449 88.0051 166.99 85.7583 166.99 84.0208C166.99 82.0315 167.707 80.2375 168.927 79.1743C169.992 78.2463 172.209 77.4878 173.854 77.4878C175.814 77.4878 177.397 78.1935 178.449 79.5355C179.333 80.6626 180.363 81.2878 180.739 80.9247C181.117 80.5626 181.425 79.9486 181.425 79.5605C181.425 79.1724 180.744 78.2 179.913 77.3989C179.001 76.5218 176.736 75.9439 174.212 75.9439C171.111 75.9439 169.256 76.5663 167.064 78.3417ZM9.78882 79.1974C10.0968 79.968 9.81288 81.2183 9.15946 81.9759C8.50701 82.7335 7.15881 83.3531 6.1657 83.3531C4.79921 83.3531 4.35847 82.6751 4.35847 80.5746C4.35847 78.2194 4.72896 77.7962 6.79409 77.7962C8.1346 77.7962 9.48184 78.4269 9.78882 79.1974ZM71.7206 84.9192C71.7206 85.586 70.6755 86.1315 69.3985 86.1315C67.2112 86.1315 67.14 85.9685 68.1802 83.316C69.183 80.7599 69.3966 80.6487 70.5023 82.1037C71.1721 82.9854 71.7206 84.2524 71.7206 84.9192ZM9.9399 86.3167C10.575 86.928 11.0947 88.1922 11.0947 89.1248C11.0947 90.0584 10.1208 91.1707 8.92947 91.5967C7.73812 92.0227 6.22344 92.1727 5.56136 91.931C4.90025 91.6884 4.35847 90.0759 4.35847 88.3478C4.35847 85.686 4.69721 85.2054 6.5718 85.2054C7.78913 85.2054 9.30477 85.7055 9.9399 86.3167ZM39.561 98.4539C38.2262 100.138 36.2236 103.499 35.1093 105.922C33.7717 108.833 33.0778 112.277 33.0672 116.059C33.0586 119.21 33.4733 122.83 33.9882 124.103C34.504 125.377 36.0658 127.514 37.4593 128.853C38.8517 130.191 41.3432 131.547 42.9955 131.865C44.6468 132.182 47.7503 131.989 49.8905 131.434C52.609 130.729 55.5527 128.705 59.657 124.717C63.6795 120.809 66.8474 116.49 69.7065 111.017C72.0035 106.621 73.6789 102.453 73.4297 101.756C73.1804 101.057 71.1567 103.957 68.9328 108.198C66.7088 112.439 63.1675 117.707 61.0639 119.903C58.9593 122.1 55.9579 124.408 54.3931 125.031C52.8294 125.656 50.4294 125.896 49.0619 125.565C47.3971 125.163 46.0893 123.848 45.1097 121.592C44.156 119.396 43.851 116.902 44.2349 114.441C44.5583 112.363 45.8949 108.435 47.2056 105.714C48.5153 102.993 49.5729 100.495 49.5556 100.164C49.5373 99.832 48.7799 100.394 47.8715 101.413C46.7148 102.709 45.0269 103.265 42.2429 103.265C38.4129 103.265 38.3003 103.181 39.1712 100.98C39.6687 99.7236 40.5367 98.1603 41.0997 97.5073C41.706 96.8044 44.285 96.3191 47.4173 96.3191C52.3136 96.3191 52.6119 96.4404 51.4061 97.9398C50.3437 99.2596 50.5015 99.2327 52.2501 97.7963C53.4318 96.8257 54.3989 95.8884 54.3989 95.7125C54.3989 95.5365 51.6063 95.3929 48.1929 95.3929C42.3007 95.3929 41.8638 95.5476 39.561 98.4539ZM144.857 99.5606C144.197 100.325 143.253 100.95 142.758 100.95C142.261 100.95 142.117 100.543 142.435 100.047C142.755 99.5504 140.825 100.238 138.149 101.574C133.886 103.703 131.593 104.098 119.663 104.759C112.173 105.174 104.058 105.791 101.632 106.131C99.2072 106.471 94.9875 107.543 92.2574 108.515C89.5273 109.486 86.7125 110.969 86.0023 111.809C84.8629 113.157 84.938 113.245 86.6365 112.558C87.695 112.13 90.9429 110.959 93.8539 109.956C97.2624 108.781 103.002 107.925 109.973 107.55C115.927 107.231 120.795 106.97 120.79 106.97C120.785 106.97 119.774 108.971 118.543 111.417C116.598 115.282 116.142 115.675 115.059 114.418C114.372 113.622 111.415 112.301 108.487 111.481C104.934 110.487 101.499 110.18 98.1622 110.558C95.4128 110.869 91.602 111.751 89.6947 112.517C87.7874 113.284 84.5868 115.246 82.5823 116.877L78.938 119.842L81.9471 116.648C83.6023 114.89 84.7725 112.975 84.5463 112.39C84.3212 111.806 86.7683 110.061 89.9854 108.515C93.2024 106.967 98.3123 105.213 101.34 104.616C104.368 104.018 107.495 103.318 108.289 103.058C109.083 102.798 111.426 102.531 113.497 102.462C115.568 102.395 117.444 101.819 117.666 101.181C117.941 100.398 116.957 100.024 114.624 100.024C112.727 100.024 111.176 100.402 111.176 100.863C111.176 101.325 110.359 101.497 109.361 101.245C108.362 100.994 104.79 101.466 101.422 102.294C98.0534 103.122 93.5103 104.628 91.3259 105.644C89.1414 106.658 85.7791 108.96 83.8535 110.76C81.9279 112.559 79.3123 116.008 78.0401 118.424C76.7679 120.84 75.4274 124.356 75.0608 126.238C74.6162 128.516 74.7509 129.66 75.463 129.66C76.051 129.66 76.5322 128.423 76.5322 126.911C76.5322 124.847 76.8921 124.294 77.9756 124.694C78.7888 124.995 79.4191 124.717 79.4191 124.058C79.4191 123.415 80.4796 121.551 81.7749 119.916C83.0711 118.281 85.9946 116.113 88.2705 115.099C90.5473 114.083 94.2253 112.985 96.4425 112.656C98.6606 112.328 102.7 112.518 105.42 113.08C108.421 113.699 111.65 115.187 113.634 116.863C115.432 118.382 117.322 121.085 117.834 122.869C118.36 124.705 118.414 127 117.957 128.156C117.513 129.28 116.454 130.755 115.603 131.435C114.752 132.115 112.933 132.67 111.56 132.67C110.187 132.67 108.272 131.889 107.306 130.934C106.339 129.979 105.463 128.572 105.36 127.808C105.258 127.044 105.225 125.681 105.288 124.779C105.351 123.876 106.472 122.669 107.779 122.096C109.596 121.298 110.503 121.33 111.628 122.228C112.438 122.875 113.1 124.187 113.1 125.143C113.1 126.099 112.451 126.882 111.657 126.882C110.863 126.882 110.213 127.299 110.213 127.808C110.213 128.317 110.776 128.734 111.464 128.734C112.152 128.734 113.235 128.234 113.87 127.623C114.505 127.012 115.025 125.761 115.025 124.844C115.025 123.927 114.159 122.344 113.1 121.325C112.042 120.306 110.507 119.473 109.689 119.473C108.871 119.473 107.139 120.496 105.84 121.746C104.384 123.146 103.477 125.083 103.477 126.788C103.477 128.366 104.459 130.655 105.758 132.109C107.466 134.02 108.914 134.661 111.519 134.661C114.044 134.661 115.795 133.928 117.899 131.988C119.79 130.244 120.799 128.4 120.799 126.685V124.056L123.926 125.618C126.059 126.682 131.846 127.547 142.108 128.333C153.431 129.201 158.314 129.976 161.801 131.462C164.351 132.547 167.215 134.111 168.164 134.938C169.113 135.765 170.137 136.202 170.441 135.909C170.745 135.617 170.247 134.283 169.336 132.944C168.425 131.606 165.828 129.467 163.566 128.191C161.305 126.915 158.028 125.478 156.284 124.996C154.541 124.516 148.393 123.488 142.62 122.713C136.848 121.938 130.876 120.593 129.348 119.725C127.82 118.857 126.325 117.403 126.025 116.494C125.726 115.586 125.052 114.842 124.529 114.842C124.005 114.842 124.309 116.036 125.205 117.494C126.101 118.954 128.037 120.832 129.509 121.669C130.979 122.505 137.525 123.978 144.053 124.944C150.581 125.909 157.006 127.168 158.329 127.742L160.735 128.786L158.329 128.268C157.006 127.983 150.294 127.332 143.413 126.821C136.533 126.31 129.566 125.48 127.932 124.976C126.298 124.472 124.025 123.22 122.88 122.193C121.41 120.875 120.799 119.228 120.799 116.587C120.799 113.688 121.432 112.239 123.612 110.14C125.918 107.92 127.235 107.433 130.921 107.433C133.445 107.433 136.646 108.131 138.217 109.024C140.629 110.396 140.937 111.017 140.448 113.526C140.037 115.637 140.281 116.583 141.336 116.973C142.136 117.268 143.304 116.916 143.932 116.188C144.559 115.461 144.821 114.235 144.513 113.465C144.206 112.694 144.4 112.064 144.944 112.064C145.489 112.064 148.181 114.09 150.929 116.566C153.675 119.044 156.869 121.545 158.025 122.123C159.182 122.703 160.954 123.177 161.966 123.177C162.977 123.177 164.6 122.331 165.572 121.297C166.972 119.81 167.15 118.892 166.424 116.906C165.92 115.526 164.719 114.251 163.756 114.072C162.193 113.782 162.224 113.959 164.038 115.705C165.662 117.268 165.867 118.032 165.054 119.494C164.382 120.702 163.039 121.325 161.111 121.325C158.879 121.325 156.87 120.116 152.637 116.231C149.585 113.43 146.22 111.137 145.16 111.137C144.098 111.137 142.457 110.314 141.511 109.309C140.565 108.303 138.983 107.233 137.993 106.931C137.005 106.629 136.196 106.038 136.196 105.619C136.196 105.199 137.17 104.618 138.361 104.327C139.552 104.038 142.042 102.551 143.894 101.024C145.747 99.4967 146.991 98.2297 146.658 98.2094C146.326 98.1881 145.516 98.7965 144.857 99.5606Z" fill="white"/>
</svg>
