<svg width="239" height="136" viewBox="0 0 239 136" fill="none" xmlns="http://www.w3.org/2000/svg">
<g clip-path="url(#clip0_302_19)">
<path d="M83.1648 125.144C117.722 125.144 145.737 97.1296 145.737 62.572C145.737 28.0145 117.722 0 83.1648 0C48.6072 0 20.5928 28.0145 20.5928 62.572C20.5928 97.1296 48.6072 125.144 83.1648 125.144Z" fill="black"/>
<mask id="mask0_302_19" style="mask-type:alpha" maskUnits="userSpaceOnUse" x="75" y="52" width="18" height="20">
<path d="M92.0543 52.938H75.1948V71.4834H92.0543V52.938Z" fill="white"/>
<path d="M78.7885 54.9685C78.8297 54.9078 78.9549 54.8061 79.067 54.7425C79.211 54.6608 80.7626 54.6262 84.3754 54.6239C89.0919 54.621 89.4963 54.6343 89.6909 54.799C90.0156 55.0738 90.0603 55.4483 89.8067 55.7706L89.5899 56.0463H84.3538C79.2537 56.0463 79.1126 56.0409 78.9143 55.8426C78.7118 55.6401 78.6455 55.1797 78.7885 54.9685Z" fill="black"/>
<path d="M77.1835 63.5531C76.8565 63.3867 76.7729 62.7457 77.0396 62.451C77.2086 62.2642 77.463 62.2573 84.1225 62.2573C90.8943 62.2573 91.034 62.2614 91.2337 62.461C91.4737 62.7009 91.4935 63.1418 91.277 63.4282C91.1261 63.6278 90.9887 63.6324 84.2805 63.6573C78.9008 63.6774 77.3836 63.6551 77.1835 63.5531Z" fill="black"/>
<path d="M78.4896 71.048C78.16 70.7496 78.2943 70.0308 78.7106 69.8651C78.7946 69.8317 81.1866 69.8128 84.0261 69.8231C89.0583 69.8413 89.1927 69.8471 89.3425 70.0455C89.5472 70.3164 89.5432 70.7995 89.3343 71.0303C89.1753 71.2059 88.8728 71.2164 83.9209 71.2164C79.1832 71.2164 78.6578 71.2 78.4896 71.048Z" fill="black"/>
</mask>
<g mask="url(#mask0_302_19)">
<path d="M78.7884 54.9685C78.8295 54.9078 78.9548 54.8061 79.0669 54.7425C79.2109 54.6608 80.7625 54.6262 84.3753 54.6239C89.0917 54.621 89.4962 54.6343 89.6908 54.799C90.0155 55.0738 90.0601 55.4483 89.8066 55.7706L89.5898 56.0463H84.3537C79.2535 56.0463 79.1124 56.0409 78.9142 55.8426C78.7117 55.6401 78.6454 55.1797 78.7884 54.9685Z" fill="#F0F0F0" fill-opacity="0.4"/>
<path d="M77.1835 63.5527C76.8565 63.3863 76.7729 62.7453 77.0396 62.4506C77.2086 62.2637 77.463 62.2568 84.1225 62.2568C90.8943 62.2568 91.034 62.2609 91.2337 62.4605C91.4737 62.7004 91.4935 63.1413 91.277 63.4277C91.1261 63.6273 90.9887 63.6319 84.2805 63.6569C78.9008 63.6769 77.3836 63.6547 77.1835 63.5527Z" fill="#F0F0F0" fill-opacity="0.4"/>
<path d="M78.4896 71.048C78.16 70.7496 78.2943 70.0308 78.7106 69.8651C78.7946 69.8317 81.1866 69.8128 84.0261 69.8231C89.0583 69.8413 89.1927 69.8471 89.3425 70.0455C89.5472 70.3164 89.5432 70.7995 89.3343 71.0303C89.1753 71.2059 88.8728 71.2164 83.9209 71.2164C79.1832 71.2164 78.6578 71.2 78.4896 71.048Z" fill="#F0F0F0" fill-opacity="0.4"/>
<path d="M78.7884 54.9685C78.8295 54.9078 78.9548 54.8061 79.0669 54.7425C79.2109 54.6608 80.7625 54.6262 84.3753 54.6239C89.0917 54.621 89.4962 54.6343 89.6908 54.799C90.0155 55.0738 90.0601 55.4483 89.8066 55.7706L89.5898 56.0463H84.3537C79.2535 56.0463 79.1124 56.0409 78.9142 55.8426C78.7117 55.6401 78.6454 55.1797 78.7884 54.9685Z" stroke="#F0F0F0" stroke-opacity="0.4" stroke-width="0.181103"/>
<path d="M77.1835 63.5527C76.8565 63.3863 76.7729 62.7453 77.0396 62.4506C77.2086 62.2637 77.463 62.2568 84.1225 62.2568C90.8943 62.2568 91.034 62.2609 91.2337 62.4605C91.4737 62.7004 91.4935 63.1413 91.277 63.4277C91.1261 63.6273 90.9887 63.6319 84.2805 63.6569C78.9008 63.6769 77.3836 63.6547 77.1835 63.5527Z" stroke="#F0F0F0" stroke-opacity="0.4" stroke-width="0.181103"/>
<path d="M78.4896 71.048C78.16 70.7496 78.2943 70.0308 78.7106 69.8651C78.7946 69.8317 81.1866 69.8128 84.0261 69.8231C89.0583 69.8413 89.1927 69.8471 89.3425 70.0455C89.5472 70.3164 89.5432 70.7995 89.3343 71.0303C89.1753 71.2059 88.8728 71.2164 83.9209 71.2164C79.1832 71.2164 78.6578 71.2 78.4896 71.048Z" stroke="#F0F0F0" stroke-opacity="0.4" stroke-width="0.181103"/>
</g>
<mask id="mask1_302_19" style="mask-type:alpha" maskUnits="userSpaceOnUse" x="75" y="49" width="18" height="28">
<path d="M92.4586 49.0693H75.5991V76.0445H92.4586V49.0693Z" fill="white"/>
<path d="M81.1556 51.5771C81.1574 51.163 81.2198 51.0392 81.5105 50.8745C81.6487 50.796 82.6505 50.758 84.6355 50.756C87.5544 50.7528 87.5571 50.7531 87.8341 50.9914C88.1936 51.3006 88.215 51.8205 87.8795 52.0923C87.6655 52.2654 87.4096 52.2801 84.587 52.2801C81.1515 52.2801 81.1525 52.2803 81.1556 51.5771Z" fill="black"/>
<path d="M77.285 59.1527C77.285 58.932 77.3626 58.7188 77.4887 58.5927C77.688 58.3934 77.8279 58.3892 84.1111 58.3892H90.53L90.7799 58.639C90.9173 58.7764 91.0299 59.0076 91.0299 59.1527C91.0299 59.2977 90.9173 59.5289 90.7799 59.6663L90.53 59.9163H84.1111C77.8279 59.9163 77.688 59.9121 77.4887 59.7126C77.3626 59.5867 77.285 59.3732 77.285 59.1527Z" fill="black"/>
<path d="M77.4992 67.3077C77.2428 67.0756 77.2163 66.5757 77.4434 66.2516L77.6019 66.0254H84.1083H90.6146L90.8221 66.2483C91.1733 66.6251 91.0347 67.2378 90.5535 67.437C90.3393 67.5259 88.6304 67.5498 83.9886 67.5294C77.9819 67.5028 77.7042 67.4933 77.4992 67.3077Z" fill="black"/>
<path d="M80.3468 74.8188C80.0207 74.4042 80.1183 73.8387 80.5435 73.6814C80.6484 73.6425 82.0998 73.6197 83.7691 73.6307C86.7466 73.6501 86.807 73.6546 86.9822 73.8709C87.2191 74.1634 87.2079 74.4907 86.9498 74.8188L86.7389 75.087H83.6482H80.5577L80.3468 74.8188Z" fill="black"/>
</mask>
<g mask="url(#mask1_302_19)">
<path d="M81.1556 51.5771C81.1574 51.163 81.2198 51.0392 81.5105 50.8745C81.6487 50.796 82.6505 50.758 84.6355 50.756C87.5544 50.7528 87.5571 50.7531 87.8341 50.9914C88.1936 51.3006 88.215 51.8205 87.8795 52.0923C87.6655 52.2654 87.4096 52.2801 84.587 52.2801C81.1515 52.2801 81.1525 52.2803 81.1556 51.5771Z" fill="white"/>
<path d="M77.285 59.1527C77.285 58.932 77.3626 58.7188 77.4887 58.5927C77.688 58.3934 77.8279 58.3892 84.1111 58.3892H90.53L90.7799 58.639C90.9173 58.7764 91.0299 59.0076 91.0299 59.1527C91.0299 59.2977 90.9173 59.5289 90.7799 59.6663L90.53 59.9163H84.1111C77.8279 59.9163 77.688 59.9121 77.4887 59.7126C77.3626 59.5867 77.285 59.3732 77.285 59.1527Z" fill="white"/>
<path d="M77.4992 67.3077C77.2428 67.0756 77.2163 66.5757 77.4434 66.2516L77.6019 66.0254H84.1083H90.6146L90.8221 66.2483C91.1733 66.6251 91.0347 67.2378 90.5535 67.437C90.3393 67.5259 88.6304 67.5498 83.9886 67.5294C77.9819 67.5028 77.7042 67.4933 77.4992 67.3077Z" fill="white"/>
<path d="M80.347 74.8188C80.021 74.4042 80.1186 73.8387 80.5438 73.6814C80.6486 73.6425 82.1001 73.6197 83.7693 73.6307C86.7469 73.6501 86.8073 73.6546 86.9824 73.8709C87.2193 74.1634 87.2082 74.4907 86.95 74.8188L86.7391 75.087H83.6485H80.5579L80.347 74.8188Z" fill="white"/>
<path d="M81.1556 51.5771C81.1574 51.163 81.2198 51.0392 81.5105 50.8745C81.6487 50.796 82.6505 50.758 84.6355 50.756C87.5544 50.7528 87.5571 50.7531 87.8341 50.9914C88.1936 51.3006 88.215 51.8205 87.8795 52.0923C87.6655 52.2654 87.4096 52.2801 84.587 52.2801C81.1515 52.2801 81.1525 52.2803 81.1556 51.5771Z" stroke="white" stroke-width="0.181103"/>
<path d="M77.285 59.1527C77.285 58.932 77.3626 58.7188 77.4887 58.5927C77.688 58.3934 77.8279 58.3892 84.1111 58.3892H90.53L90.7799 58.639C90.9173 58.7764 91.0299 59.0076 91.0299 59.1527C91.0299 59.2977 90.9173 59.5289 90.7799 59.6663L90.53 59.9163H84.1111C77.8279 59.9163 77.688 59.9121 77.4887 59.7126C77.3626 59.5867 77.285 59.3732 77.285 59.1527Z" stroke="white" stroke-width="0.181103"/>
<path d="M77.4992 67.3077C77.2428 67.0756 77.2163 66.5757 77.4434 66.2516L77.6019 66.0254H84.1083H90.6146L90.8221 66.2483C91.1733 66.6251 91.0347 67.2378 90.5535 67.437C90.3393 67.5259 88.6304 67.5498 83.9886 67.5294C77.9819 67.5028 77.7042 67.4933 77.4992 67.3077Z" stroke="white" stroke-width="0.181103"/>
<path d="M80.347 74.8188C80.021 74.4042 80.1186 73.8387 80.5438 73.6814C80.6486 73.6425 82.1001 73.6197 83.7693 73.6307C86.7469 73.6501 86.8073 73.6546 86.9824 73.8709C87.2193 74.1634 87.2082 74.4907 86.95 74.8188L86.7391 75.087H83.6485H80.5579L80.347 74.8188Z" stroke="white" stroke-width="0.181103"/>
</g>
<mask id="mask2_302_19" style="mask-type:alpha" maskUnits="userSpaceOnUse" x="69" y="16" width="11" height="23">
<path d="M79.381 16.6997H69.2653V38.6171H79.381V16.6997Z" fill="white"/>
<path d="M70.9512 19.4344C70.9512 18.8678 70.9807 18.7745 71.2194 18.5867C71.5485 18.3278 71.7761 18.3201 72.0696 18.5576C72.2672 18.7177 72.3052 18.8849 72.3844 19.9455C72.6698 23.7727 73.4951 27.3312 74.8096 30.4051C75.5906 32.2313 76.9311 34.4335 77.971 35.5985C78.5568 36.2548 78.6393 36.6525 78.2625 37.0035C77.7636 37.4683 77.3104 37.1767 76.1882 35.6689C73.7465 32.3881 72.233 28.5542 71.3634 23.4464C71.1321 22.0884 70.9512 20.3268 70.9512 19.4344Z" fill="black"/>
</mask>
<g mask="url(#mask2_302_19)">
<path d="M70.9512 19.4344C70.9512 18.8678 70.9807 18.7745 71.2194 18.5867C71.5485 18.3278 71.7761 18.3201 72.0696 18.5576C72.2672 18.7177 72.3052 18.8849 72.3844 19.9455C72.6698 23.7727 73.4951 27.3312 74.8096 30.4051C75.5906 32.2313 76.9311 34.4335 77.971 35.5985C78.5568 36.2548 78.6393 36.6525 78.2625 37.0035C77.7636 37.4683 77.3104 37.1767 76.1882 35.6689C73.7465 32.3881 72.233 28.5542 71.3634 23.4464C71.1321 22.0884 70.9512 20.3268 70.9512 19.4344Z" fill="white"/>
<path d="M70.9512 19.4344C70.9512 18.8678 70.9807 18.7745 71.2194 18.5867C71.5485 18.3278 71.7761 18.3201 72.0696 18.5576C72.2672 18.7177 72.3052 18.8849 72.3844 19.9455C72.6698 23.7727 73.4951 27.3312 74.8096 30.4051C75.5906 32.2313 76.9311 34.4335 77.971 35.5985C78.5568 36.2548 78.6393 36.6525 78.2625 37.0035C77.7636 37.4683 77.3104 37.1767 76.1882 35.6689C73.7465 32.3881 72.233 28.5542 71.3634 23.4464C71.1321 22.0884 70.9512 20.3268 70.9512 19.4344Z" stroke="white" stroke-width="0.181103"/>
</g>
<mask id="mask3_302_19" style="mask-type:alpha" maskUnits="userSpaceOnUse" x="68" y="26" width="22" height="35">
<path d="M89.9972 26.3711H68.0798V60.0901H89.9972V26.3711Z" fill="white"/>
<path d="M83.6959 29.3055C83.4417 29.0754 83.4535 28.5121 83.718 28.2476C83.9191 28.0465 84.0208 28.0402 86.6155 28.0694C89.1666 28.0981 89.3125 28.11 89.4582 28.3031C89.6746 28.5897 89.6547 29.0306 89.4148 29.2703C89.2216 29.4637 89.0754 29.474 86.5467 29.474C84.21 29.474 83.8591 29.4532 83.6959 29.3055Z" fill="black"/>
<path d="M82.9649 33.152C82.6129 32.8599 82.7144 32.087 83.1264 31.9215C83.2532 31.8704 84.493 31.8259 85.8814 31.8223L88.406 31.8159L88.6673 32.0771C88.878 32.2878 88.9165 32.4011 88.8661 32.6626C88.7455 33.2864 88.7118 33.2931 85.7735 33.2824C83.8836 33.2754 83.0681 33.2377 82.9649 33.152Z" fill="black"/>
<path d="M80.7622 36.4071C80.7642 35.9265 80.8667 35.7837 81.2822 35.6827C81.4713 35.6367 82.7783 35.6068 84.1864 35.6166C86.5472 35.6326 86.7635 35.649 86.9608 35.8279C87.2236 36.0659 87.2482 36.657 87.0065 36.9241C86.8508 37.096 86.6195 37.1102 83.9856 37.1102C80.7809 37.1102 80.7593 37.1056 80.7622 36.4071Z" fill="black"/>
<path d="M78.3172 40.6739C77.9477 40.3044 78.0711 39.7092 78.5615 39.4956C78.9552 39.3243 83.5435 39.2908 83.9783 39.456C84.5315 39.6664 84.7085 40.2897 84.3241 40.6739C84.1304 40.8677 83.9849 40.8774 81.3208 40.8774C78.6565 40.8774 78.511 40.8677 78.3172 40.6739Z" fill="black"/>
<path d="M75.4982 44.5246C75.1447 44.1925 75.1685 43.5819 75.5426 43.3787C75.7682 43.2563 76.2996 43.2261 78.2725 43.2227C80.6001 43.2189 80.7333 43.2292 80.945 43.4262C81.2478 43.7083 81.2359 44.1782 80.9179 44.496L80.668 44.7458H78.201C75.8081 44.7458 75.7269 44.7393 75.4982 44.5246Z" fill="black"/>
<path d="M72.8192 47.7494C72.8192 47.6044 72.9318 47.3733 73.0692 47.2359C73.3179 46.987 73.3285 46.9858 75.3648 46.9858H77.4106L77.6683 47.2639C77.8686 47.48 77.9128 47.6105 77.8668 47.8494C77.7464 48.474 77.5979 48.5131 75.3486 48.5131C73.3296 48.5131 73.3177 48.5118 73.0692 48.2631C72.9318 48.1257 72.8192 47.8946 72.8192 47.7494Z" fill="black"/>
<path d="M71.0316 51.6463C70.9788 51.4241 71.0268 51.3079 71.2738 51.061L71.5819 50.7529H73.1112C74.568 50.7529 74.6537 50.7642 74.9177 50.9915C75.2771 51.3007 75.2985 51.8206 74.963 52.0924C74.7595 52.2571 74.5341 52.2802 73.1247 52.2802C71.3607 52.2802 71.1676 52.2217 71.0316 51.6463Z" fill="black"/>
<path d="M70.4415 55.8997C70.1028 55.5858 70.0826 55.1208 70.395 54.8298C70.5918 54.6465 70.7512 54.6221 71.7581 54.6221C72.7129 54.6221 72.9362 54.6526 73.1294 54.809C73.4557 55.0732 73.4287 55.6153 73.0741 55.9203C72.8354 56.1258 72.7 56.1494 71.7594 56.1494C70.7877 56.1494 70.6912 56.1312 70.4415 55.8997Z" fill="black"/>
<path d="M69.9075 59.6653C69.6878 59.3651 69.7293 58.8374 69.9915 58.5931C70.1902 58.408 70.325 58.3855 71.0823 58.411C71.9349 58.4396 71.9494 58.4445 72.1739 58.7784C72.3929 59.1036 72.3951 59.1302 72.2336 59.4687C72.0316 59.8924 71.8405 59.9509 70.8235 59.8995C70.2078 59.8683 70.021 59.8208 69.9075 59.6653Z" fill="black"/>
</mask>
<g mask="url(#mask3_302_19)">
<path d="M83.6959 29.3055C83.4417 29.0754 83.4535 28.5121 83.718 28.2476C83.9191 28.0465 84.0208 28.0402 86.6155 28.0694C89.1666 28.0981 89.3125 28.11 89.4582 28.3031C89.6746 28.5897 89.6547 29.0306 89.4148 29.2703C89.2216 29.4637 89.0754 29.474 86.5467 29.474C84.21 29.474 83.8591 29.4532 83.6959 29.3055Z" fill="#F0F0F0" fill-opacity="0.4"/>
<path d="M82.9648 33.152C82.6128 32.8599 82.7142 32.087 83.1263 31.9215C83.2531 31.8704 84.4929 31.8259 85.8813 31.8223L88.4058 31.8159L88.6672 32.0771C88.8779 32.2878 88.9164 32.4011 88.8659 32.6626C88.7454 33.2864 88.7117 33.2931 85.7734 33.2824C83.8835 33.2754 83.068 33.2377 82.9648 33.152Z" fill="#F0F0F0" fill-opacity="0.4"/>
<path d="M80.7622 36.4071C80.7642 35.9265 80.8667 35.7837 81.2822 35.6827C81.4713 35.6367 82.7783 35.6068 84.1864 35.6166C86.5472 35.6326 86.7635 35.649 86.9608 35.8279C87.2236 36.0659 87.2482 36.657 87.0065 36.9241C86.8508 37.096 86.6195 37.1102 83.9856 37.1102C80.7809 37.1102 80.7593 37.1056 80.7622 36.4071Z" fill="#F0F0F0" fill-opacity="0.4"/>
<path d="M78.3172 40.6739C77.9477 40.3044 78.0711 39.7092 78.5615 39.4956C78.9552 39.3243 83.5435 39.2908 83.9783 39.456C84.5315 39.6664 84.7085 40.2897 84.3241 40.6739C84.1304 40.8677 83.9849 40.8774 81.3208 40.8774C78.6565 40.8774 78.511 40.8677 78.3172 40.6739Z" fill="#F0F0F0" fill-opacity="0.4"/>
<path d="M75.4982 44.5246C75.1447 44.1925 75.1685 43.5819 75.5426 43.3787C75.7682 43.2563 76.2996 43.2261 78.2725 43.2227C80.6001 43.2189 80.7333 43.2292 80.945 43.4262C81.2478 43.7083 81.2359 44.1782 80.9179 44.496L80.668 44.7458H78.201C75.8081 44.7458 75.7269 44.7393 75.4982 44.5246Z" fill="#F0F0F0" fill-opacity="0.4"/>
<path d="M72.8191 47.7494C72.8191 47.6044 72.9317 47.3733 73.0691 47.2359C73.3178 46.987 73.3284 46.9858 75.3647 46.9858H77.4104L77.6682 47.2639C77.8685 47.48 77.9127 47.6105 77.8667 47.8494C77.7463 48.474 77.5977 48.5131 75.3485 48.5131C73.3294 48.5131 73.3176 48.5118 73.0691 48.2631C72.9317 48.1257 72.8191 47.8946 72.8191 47.7494Z" fill="#F0F0F0" fill-opacity="0.4"/>
<path d="M71.0316 51.6463C70.9788 51.4241 71.0268 51.3079 71.2738 51.061L71.5819 50.7529H73.1112C74.568 50.7529 74.6537 50.7642 74.9177 50.9915C75.2771 51.3007 75.2985 51.8206 74.963 52.0924C74.7595 52.2571 74.5341 52.2802 73.1247 52.2802C71.3607 52.2802 71.1676 52.2217 71.0316 51.6463Z" fill="#F0F0F0" fill-opacity="0.4"/>
<path d="M70.4415 55.8997C70.1028 55.5858 70.0826 55.1208 70.395 54.8298C70.5918 54.6465 70.7512 54.6221 71.7581 54.6221C72.7129 54.6221 72.9362 54.6526 73.1294 54.809C73.4557 55.0732 73.4287 55.6153 73.0741 55.9203C72.8354 56.1258 72.7 56.1494 71.7594 56.1494C70.7877 56.1494 70.6912 56.1312 70.4415 55.8997Z" fill="#F0F0F0" fill-opacity="0.4"/>
<path d="M69.9075 59.6653C69.6878 59.3651 69.7293 58.8374 69.9915 58.5931C70.1902 58.408 70.325 58.3855 71.0823 58.411C71.9349 58.4396 71.9494 58.4445 72.1739 58.7784C72.3929 59.1036 72.3951 59.1302 72.2336 59.4687C72.0316 59.8924 71.8405 59.9509 70.8235 59.8995C70.2078 59.8683 70.021 59.8208 69.9075 59.6653Z" fill="#F0F0F0" fill-opacity="0.4"/>
<path d="M83.6959 29.3055C83.4417 29.0754 83.4535 28.5121 83.718 28.2476C83.9191 28.0465 84.0208 28.0402 86.6155 28.0694C89.1666 28.0981 89.3125 28.11 89.4582 28.3031C89.6746 28.5897 89.6547 29.0306 89.4148 29.2703C89.2216 29.4637 89.0754 29.474 86.5467 29.474C84.21 29.474 83.8591 29.4532 83.6959 29.3055Z" stroke="#F0F0F0" stroke-opacity="0.4" stroke-width="0.181103"/>
<path d="M82.9648 33.152C82.6128 32.8599 82.7142 32.087 83.1263 31.9215C83.2531 31.8704 84.4929 31.8259 85.8813 31.8223L88.4058 31.8159L88.6672 32.0771C88.8779 32.2878 88.9164 32.4011 88.8659 32.6626C88.7454 33.2864 88.7117 33.2931 85.7734 33.2824C83.8835 33.2754 83.068 33.2377 82.9648 33.152Z" stroke="#F0F0F0" stroke-opacity="0.4" stroke-width="0.181103"/>
<path d="M80.7622 36.4071C80.7642 35.9265 80.8667 35.7837 81.2822 35.6827C81.4713 35.6367 82.7783 35.6068 84.1864 35.6166C86.5472 35.6326 86.7635 35.649 86.9608 35.8279C87.2236 36.0659 87.2482 36.657 87.0065 36.9241C86.8508 37.096 86.6195 37.1102 83.9856 37.1102C80.7809 37.1102 80.7593 37.1056 80.7622 36.4071Z" stroke="#F0F0F0" stroke-opacity="0.4" stroke-width="0.181103"/>
<path d="M78.3172 40.6739C77.9477 40.3044 78.0711 39.7092 78.5615 39.4956C78.9552 39.3243 83.5435 39.2908 83.9783 39.456C84.5315 39.6664 84.7085 40.2897 84.3241 40.6739C84.1304 40.8677 83.9849 40.8774 81.3208 40.8774C78.6565 40.8774 78.511 40.8677 78.3172 40.6739Z" stroke="#F0F0F0" stroke-opacity="0.4" stroke-width="0.181103"/>
<path d="M75.4982 44.5246C75.1447 44.1925 75.1685 43.5819 75.5426 43.3787C75.7682 43.2563 76.2996 43.2261 78.2725 43.2227C80.6001 43.2189 80.7333 43.2292 80.945 43.4262C81.2478 43.7083 81.2359 44.1782 80.9179 44.496L80.668 44.7458H78.201C75.8081 44.7458 75.7269 44.7393 75.4982 44.5246Z" stroke="#F0F0F0" stroke-opacity="0.4" stroke-width="0.181103"/>
<path d="M72.8191 47.7494C72.8191 47.6044 72.9317 47.3733 73.0691 47.2359C73.3178 46.987 73.3284 46.9858 75.3647 46.9858H77.4104L77.6682 47.2639C77.8685 47.48 77.9127 47.6105 77.8667 47.8494C77.7463 48.474 77.5977 48.5131 75.3485 48.5131C73.3294 48.5131 73.3176 48.5118 73.0691 48.2631C72.9317 48.1257 72.8191 47.8946 72.8191 47.7494Z" stroke="#F0F0F0" stroke-opacity="0.4" stroke-width="0.181103"/>
<path d="M71.0316 51.6463C70.9788 51.4241 71.0268 51.3079 71.2738 51.061L71.5819 50.7529H73.1112C74.568 50.7529 74.6537 50.7642 74.9177 50.9915C75.2771 51.3007 75.2985 51.8206 74.963 52.0924C74.7595 52.2571 74.5341 52.2802 73.1247 52.2802C71.3607 52.2802 71.1676 52.2217 71.0316 51.6463Z" stroke="#F0F0F0" stroke-opacity="0.4" stroke-width="0.181103"/>
<path d="M70.4415 55.8997C70.1028 55.5858 70.0826 55.1208 70.395 54.8298C70.5918 54.6465 70.7512 54.6221 71.7581 54.6221C72.7129 54.6221 72.9362 54.6526 73.1294 54.809C73.4557 55.0732 73.4287 55.6153 73.0741 55.9203C72.8354 56.1258 72.7 56.1494 71.7594 56.1494C70.7877 56.1494 70.6912 56.1312 70.4415 55.8997Z" stroke="#F0F0F0" stroke-opacity="0.4" stroke-width="0.181103"/>
<path d="M69.9075 59.6653C69.6878 59.3651 69.7293 58.8374 69.9915 58.5931C70.1902 58.408 70.325 58.3855 71.0823 58.411C71.9349 58.4396 71.9494 58.4445 72.1739 58.7784C72.3929 59.1036 72.3951 59.1302 72.2336 59.4687C72.0316 59.8924 71.8405 59.9509 70.8235 59.8995C70.2078 59.8683 70.021 59.8208 69.9075 59.6653Z" stroke="#F0F0F0" stroke-opacity="0.4" stroke-width="0.181103"/>
</g>
<mask id="mask4_302_19" style="mask-type:alpha" maskUnits="userSpaceOnUse" x="71" y="25" width="23" height="55">
<path d="M93.5559 25.9585H71.6385V79.9089H93.5559V25.9585Z" fill="white"/>
<path d="M91.0218 28.8537C91.0218 28.6059 91.1405 27.8846 91.286 27.7784C91.5844 27.5601 92.0252 27.6137 92.3149 27.9035C92.5686 28.1571 92.5742 28.1913 92.5054 29.0488C92.4346 29.9297 92.1171 31.7957 91.9394 32.3763C91.8878 32.5444 91.7447 33.0483 91.6211 33.4963C91.1705 35.1297 89.4643 38.5565 88.2978 40.2001C87.3272 41.5678 85.4335 43.813 83.132 46.3249C78.6675 51.1976 76.8616 53.9472 75.6704 57.6863C74.7261 60.6501 74.5161 64.7756 75.1509 67.8988C75.5495 69.8599 76.6381 72.6732 77.6175 74.2727C78.2588 75.3202 79.5342 76.791 80.8253 77.972C81.3235 78.4279 81.3724 78.7433 81.0022 79.1136C80.6066 79.5091 80.2673 79.4423 79.5157 78.8214C78.3854 77.8879 76.9572 76.1256 75.9944 74.4764C75.4911 73.6145 75.042 72.7159 75.0408 72.5685C75.0405 72.5259 74.9813 72.3765 74.9093 72.2366C74.7635 71.953 74.3993 70.9517 74.2427 70.4038C74.1867 70.2079 74.0464 69.7184 73.931 69.3162C73.5666 68.0475 73.399 66.749 73.34 64.738C73.2603 62.0189 73.4864 59.7917 74.0311 57.9316C74.6564 55.7954 75.5867 53.6158 76.3791 52.4307C76.5673 52.1492 76.7824 51.8017 76.8569 51.6585C77.3329 50.7443 80.5185 46.8425 82.3755 44.8996C84.0091 43.1902 86.6877 39.8732 87.3172 38.946C88.5923 37.068 90.5222 33.3501 91.0218 28.8537Z" fill="black"/>
</mask>
<g mask="url(#mask4_302_19)">
<path d="M91.0218 28.8537C91.0218 28.6059 91.1405 27.8846 91.286 27.7784C91.5844 27.5601 92.0252 27.6137 92.3149 27.9035C92.5686 28.1571 92.5742 28.1913 92.5054 29.0488C92.4346 29.9297 92.1171 31.7957 91.9394 32.3763C91.8878 32.5444 91.7447 33.0483 91.6211 33.4963C91.1705 35.1297 89.4643 38.5565 88.2978 40.2001C87.3272 41.5678 85.4335 43.813 83.132 46.3249C78.6675 51.1976 76.8616 53.9472 75.6704 57.6863C74.7261 60.6501 74.5161 64.7756 75.1509 67.8988C75.5495 69.8599 76.6381 72.6732 77.6175 74.2727C78.2588 75.3202 79.5342 76.791 80.8253 77.972C81.3235 78.4279 81.3724 78.7433 81.0022 79.1136C80.6066 79.5091 80.2673 79.4423 79.5157 78.8214C78.3854 77.8879 76.9572 76.1256 75.9944 74.4764C75.4911 73.6145 75.042 72.7159 75.0408 72.5685C75.0405 72.5259 74.9813 72.3765 74.9093 72.2366C74.7635 71.953 74.3993 70.9517 74.2427 70.4038C74.1867 70.2079 74.0464 69.7184 73.931 69.3162C73.5666 68.0475 73.399 66.749 73.34 64.738C73.2603 62.0189 73.4864 59.7917 74.0311 57.9316C74.6564 55.7954 75.5867 53.6158 76.3791 52.4307C76.5673 52.1492 76.7824 51.8017 76.8569 51.6585C77.3329 50.7443 80.5185 46.8425 82.3755 44.8996C84.0091 43.1902 86.6877 39.8732 87.3172 38.946C88.5923 37.068 90.5222 33.3501 91.0218 28.8537Z" fill="#F0F0F0" fill-opacity="0.4"/>
<path d="M91.0218 28.8537C91.0218 28.6059 91.1405 27.8846 91.286 27.7784C91.5844 27.5601 92.0252 27.6137 92.3149 27.9035C92.5686 28.1571 92.5742 28.1913 92.5054 29.0488C92.4346 29.9297 92.1171 31.7957 91.9394 32.3763C91.8878 32.5444 91.7447 33.0483 91.6211 33.4963C91.1705 35.1297 89.4643 38.5565 88.2978 40.2001C87.3272 41.5678 85.4335 43.813 83.132 46.3249C78.6675 51.1976 76.8616 53.9472 75.6704 57.6863C74.7261 60.6501 74.5161 64.7756 75.1509 67.8988C75.5495 69.8599 76.6381 72.6732 77.6175 74.2727C78.2588 75.3202 79.5342 76.791 80.8253 77.972C81.3235 78.4279 81.3724 78.7433 81.0022 79.1136C80.6066 79.5091 80.2673 79.4423 79.5157 78.8214C78.3854 77.8879 76.9572 76.1256 75.9944 74.4764C75.4911 73.6145 75.042 72.7159 75.0408 72.5685C75.0405 72.5259 74.9813 72.3765 74.9093 72.2366C74.7635 71.953 74.3993 70.9517 74.2427 70.4038C74.1867 70.2079 74.0464 69.7184 73.931 69.3162C73.5666 68.0475 73.399 66.749 73.34 64.738C73.2603 62.0189 73.4864 59.7917 74.0311 57.9316C74.6564 55.7954 75.5867 53.6158 76.3791 52.4307C76.5673 52.1492 76.7824 51.8017 76.8569 51.6585C77.3329 50.7443 80.5185 46.8425 82.3755 44.8996C84.0091 43.1902 86.6877 39.8732 87.3172 38.946C88.5923 37.068 90.5222 33.3501 91.0218 28.8537Z" stroke="#F0F0F0" stroke-opacity="0.4" stroke-width="0.181103"/>
</g>
<mask id="mask5_302_19" style="mask-type:alpha" maskUnits="userSpaceOnUse" x="89" y="87" width="11" height="23">
<path d="M99.9186 87.1377H89.8029V109.055H99.9186V87.1377Z" fill="white"/>
<path d="M98.2327 106.32C98.2327 106.886 98.2032 106.98 97.9644 107.168C97.6353 107.427 97.4076 107.434 97.1142 107.197C96.9164 107.037 96.8787 106.869 96.7994 105.809C96.5138 101.982 95.6886 98.423 94.3742 95.3493C93.5931 93.5231 92.2526 91.3209 91.2129 90.1559C90.627 89.4996 90.5444 89.1019 90.9214 88.7507C91.4201 88.286 91.8734 88.5777 92.9956 90.0855C95.4372 93.3663 96.9507 97.2002 97.8204 102.308C98.0516 103.666 98.2327 105.428 98.2327 106.32Z" fill="black"/>
</mask>
<g mask="url(#mask5_302_19)">
<path d="M98.2327 106.32C98.2327 106.886 98.2032 106.98 97.9644 107.168C97.6353 107.427 97.4076 107.434 97.1142 107.197C96.9164 107.037 96.8787 106.869 96.7994 105.809C96.5138 101.982 95.6886 98.423 94.3742 95.3493C93.5931 93.5231 92.2526 91.3209 91.2129 90.1559C90.627 89.4996 90.5444 89.1019 90.9214 88.7507C91.4201 88.286 91.8734 88.5777 92.9956 90.0855C95.4372 93.3663 96.9507 97.2002 97.8204 102.308C98.0516 103.666 98.2327 105.428 98.2327 106.32Z" fill="#F0F0F0" fill-opacity="0.4"/>
<path d="M98.2327 106.32C98.2327 106.886 98.2032 106.98 97.9644 107.168C97.6353 107.427 97.4076 107.434 97.1142 107.197C96.9164 107.037 96.8787 106.869 96.7994 105.809C96.5138 101.982 95.6886 98.423 94.3742 95.3493C93.5931 93.5231 92.2526 91.3209 91.2129 90.1559C90.627 89.4996 90.5444 89.1019 90.9214 88.7507C91.4201 88.286 91.8734 88.5777 92.9956 90.0855C95.4372 93.3663 96.9507 97.2002 97.8204 102.308C98.0516 103.666 98.2327 105.428 98.2327 106.32Z" stroke="#F0F0F0" stroke-opacity="0.4" stroke-width="0.181103"/>
</g>
<mask id="mask6_302_19" style="mask-type:alpha" maskUnits="userSpaceOnUse" x="79" y="65" width="23" height="35">
<path d="M101.106 65.6641H79.1882V99.3831H101.106V65.6641Z" fill="white"/>
<path d="M85.4895 96.4477C85.7437 96.6779 85.7319 97.2411 85.4674 97.5057C85.2664 97.7068 85.1646 97.713 82.5699 97.6839C80.0188 97.6552 79.8731 97.6432 79.7273 97.4502C79.511 97.1636 79.5307 96.7227 79.7706 96.483C79.9638 96.2896 80.11 96.2793 82.6387 96.2793C84.9755 96.2793 85.3263 96.3 85.4895 96.4477Z" fill="black"/>
<path d="M86.2206 92.6022C86.5728 92.8944 86.4713 93.6672 86.0593 93.8328C85.9323 93.8838 84.6926 93.9283 83.3041 93.9319L80.7796 93.9383L80.5182 93.6771C80.3075 93.4664 80.2691 93.3531 80.3196 93.0916C80.44 92.4678 80.4739 92.4611 83.412 92.4719C85.3019 92.4788 86.1176 92.5165 86.2206 92.6022Z" fill="black"/>
<path d="M88.4234 89.3461C88.4214 89.8268 88.3189 89.9696 87.9036 90.0706C87.7144 90.1166 86.4073 90.1464 84.9992 90.1366C82.6384 90.1206 82.4223 90.1043 82.2248 89.9254C81.9622 89.6873 81.9375 89.0962 82.1791 88.8292C82.3347 88.6572 82.5661 88.6431 85.2 88.6431C88.4047 88.6431 88.4264 88.6478 88.4234 89.3461Z" fill="black"/>
<path d="M90.8684 85.0795C91.2378 85.449 91.1144 86.0442 90.6239 86.2578C90.2304 86.4291 85.6419 86.4626 85.2071 86.2974C84.654 86.087 84.4771 85.4637 84.8613 85.0795C85.0551 84.8858 85.2007 84.876 87.8649 84.876C90.529 84.876 90.6745 84.8858 90.8684 85.0795Z" fill="black"/>
<path d="M93.687 81.229C94.0405 81.5611 94.0169 82.1718 93.6427 82.375C93.4171 82.4974 92.8857 82.5277 90.9129 82.5309C88.5851 82.5348 88.452 82.5245 88.2402 82.3274C87.9374 82.0453 87.9494 81.5755 88.2673 81.2577L88.5172 81.0078H90.9843C93.3771 81.0078 93.4584 81.0144 93.687 81.229Z" fill="black"/>
<path d="M96.3663 78.004C96.3663 78.149 96.2539 78.3801 96.1163 78.5175C95.8676 78.7664 95.857 78.7675 93.8207 78.7675H91.775L91.5172 78.4895C91.3169 78.2734 91.2727 78.1429 91.3188 77.904C91.4392 77.2793 91.5877 77.2402 93.8369 77.2402C95.856 77.2402 95.8678 77.2416 96.1163 77.4903C96.2539 77.6277 96.3663 77.8588 96.3663 78.004Z" fill="black"/>
<path d="M98.1542 74.1071C98.2068 74.3293 98.1587 74.4456 97.9117 74.6924L97.6039 75.0004H96.0746C94.6176 75.0004 94.5321 74.9892 94.2679 74.7619C93.9084 74.4527 93.887 73.9327 94.2225 73.661C94.426 73.4962 94.6514 73.4731 96.0609 73.4731C97.8249 73.4731 98.018 73.5316 98.1542 74.1071Z" fill="black"/>
<path d="M98.7441 69.8542C99.0828 70.1681 99.1032 70.6331 98.7906 70.9241C98.594 71.1073 98.4343 71.1318 97.4275 71.1318C96.4727 71.1318 96.2495 71.1013 96.0561 70.9448C95.7301 70.6806 95.7569 70.1386 96.1114 69.8336C96.3503 69.6281 96.4857 69.6045 97.4263 69.6045C98.3981 69.6045 98.4944 69.6227 98.7441 69.8542Z" fill="black"/>
<path d="M99.278 66.0882C99.4977 66.3885 99.4564 66.9162 99.194 67.1605C98.9954 67.3456 98.8605 67.368 98.1032 67.3426C97.2506 67.3139 97.2361 67.309 97.0116 66.9752C96.7927 66.65 96.7904 66.6233 96.9519 66.2848C97.1539 65.8611 97.345 65.8026 98.362 65.854C98.9777 65.8852 99.1645 65.9328 99.278 66.0882Z" fill="black"/>
</mask>
<g mask="url(#mask6_302_19)">
<path d="M85.4895 96.4477C85.7437 96.6779 85.7319 97.2411 85.4674 97.5057C85.2664 97.7068 85.1646 97.713 82.5699 97.6839C80.0188 97.6552 79.8731 97.6432 79.7273 97.4502C79.511 97.1636 79.5307 96.7227 79.7706 96.483C79.9638 96.2896 80.11 96.2793 82.6387 96.2793C84.9755 96.2793 85.3263 96.3 85.4895 96.4477Z" fill="white"/>
<path d="M86.2206 92.6022C86.5728 92.8944 86.4713 93.6672 86.0593 93.8328C85.9323 93.8838 84.6926 93.9283 83.3041 93.9319L80.7796 93.9383L80.5182 93.6771C80.3075 93.4664 80.2691 93.3531 80.3196 93.0916C80.44 92.4678 80.4739 92.4611 83.412 92.4719C85.3019 92.4788 86.1176 92.5165 86.2206 92.6022Z" fill="white"/>
<path d="M88.4234 89.3461C88.4214 89.8268 88.3189 89.9696 87.9036 90.0706C87.7144 90.1166 86.4073 90.1464 84.9992 90.1366C82.6384 90.1206 82.4223 90.1043 82.2248 89.9254C81.9622 89.6873 81.9375 89.0962 82.1791 88.8292C82.3347 88.6572 82.5661 88.6431 85.2 88.6431C88.4047 88.6431 88.4264 88.6478 88.4234 89.3461Z" fill="white"/>
<path d="M90.8684 85.0795C91.2378 85.449 91.1144 86.0442 90.6239 86.2578C90.2304 86.4291 85.6419 86.4626 85.2071 86.2974C84.654 86.087 84.4771 85.4637 84.8613 85.0795C85.0551 84.8858 85.2007 84.876 87.8649 84.876C90.529 84.876 90.6745 84.8858 90.8684 85.0795Z" fill="white"/>
<path d="M93.687 81.229C94.0405 81.5611 94.0169 82.1718 93.6427 82.375C93.4171 82.4974 92.8857 82.5277 90.9129 82.5309C88.5851 82.5348 88.452 82.5245 88.2402 82.3274C87.9374 82.0453 87.9494 81.5755 88.2673 81.2577L88.5172 81.0078H90.9843C93.3771 81.0078 93.4584 81.0144 93.687 81.229Z" fill="white"/>
<path d="M96.3663 78.004C96.3663 78.149 96.2539 78.3801 96.1163 78.5175C95.8676 78.7664 95.857 78.7675 93.8207 78.7675H91.775L91.5172 78.4895C91.3169 78.2734 91.2727 78.1429 91.3188 77.904C91.4392 77.2793 91.5877 77.2402 93.8369 77.2402C95.856 77.2402 95.8678 77.2416 96.1163 77.4903C96.2539 77.6277 96.3663 77.8588 96.3663 78.004Z" fill="white"/>
<path d="M98.1542 74.1071C98.2068 74.3293 98.1587 74.4456 97.9117 74.6924L97.6039 75.0004H96.0746C94.6176 75.0004 94.5321 74.9892 94.2679 74.7619C93.9084 74.4527 93.887 73.9327 94.2225 73.661C94.426 73.4962 94.6514 73.4731 96.0609 73.4731C97.8249 73.4731 98.018 73.5316 98.1542 74.1071Z" fill="white"/>
<path d="M98.7441 69.8542C99.0828 70.1681 99.1032 70.6331 98.7906 70.9241C98.594 71.1073 98.4343 71.1318 97.4275 71.1318C96.4727 71.1318 96.2495 71.1013 96.0561 70.9448C95.7301 70.6806 95.7569 70.1386 96.1114 69.8336C96.3503 69.6281 96.4857 69.6045 97.4263 69.6045C98.3981 69.6045 98.4944 69.6227 98.7441 69.8542Z" fill="white"/>
<path d="M99.278 66.0882C99.4977 66.3885 99.4564 66.9162 99.194 67.1605C98.9954 67.3456 98.8605 67.368 98.1032 67.3426C97.2506 67.3139 97.2361 67.309 97.0116 66.9752C96.7927 66.65 96.7904 66.6233 96.9519 66.2848C97.1539 65.8611 97.345 65.8026 98.362 65.854C98.9777 65.8852 99.1645 65.9328 99.278 66.0882Z" fill="white"/>
<path d="M85.4895 96.4477C85.7437 96.6779 85.7319 97.2411 85.4674 97.5057C85.2664 97.7068 85.1646 97.713 82.5699 97.6839C80.0188 97.6552 79.8731 97.6432 79.7273 97.4502C79.511 97.1636 79.5307 96.7227 79.7706 96.483C79.9638 96.2896 80.11 96.2793 82.6387 96.2793C84.9755 96.2793 85.3263 96.3 85.4895 96.4477Z" stroke="white" stroke-width="0.181103"/>
<path d="M86.2206 92.6022C86.5728 92.8944 86.4713 93.6672 86.0593 93.8328C85.9323 93.8838 84.6926 93.9283 83.3041 93.9319L80.7796 93.9383L80.5182 93.6771C80.3075 93.4664 80.2691 93.3531 80.3196 93.0916C80.44 92.4678 80.4739 92.4611 83.412 92.4719C85.3019 92.4788 86.1176 92.5165 86.2206 92.6022Z" stroke="white" stroke-width="0.181103"/>
<path d="M88.4234 89.3461C88.4214 89.8268 88.3189 89.9696 87.9036 90.0706C87.7144 90.1166 86.4073 90.1464 84.9992 90.1366C82.6384 90.1206 82.4223 90.1043 82.2248 89.9254C81.9622 89.6873 81.9375 89.0962 82.1791 88.8292C82.3347 88.6572 82.5661 88.6431 85.2 88.6431C88.4047 88.6431 88.4264 88.6478 88.4234 89.3461Z" stroke="white" stroke-width="0.181103"/>
<path d="M90.8684 85.0795C91.2378 85.449 91.1144 86.0442 90.6239 86.2578C90.2304 86.4291 85.6419 86.4626 85.2071 86.2974C84.654 86.087 84.4771 85.4637 84.8613 85.0795C85.0551 84.8858 85.2007 84.876 87.8649 84.876C90.529 84.876 90.6745 84.8858 90.8684 85.0795Z" stroke="white" stroke-width="0.181103"/>
<path d="M93.687 81.229C94.0405 81.5611 94.0169 82.1718 93.6427 82.375C93.4171 82.4974 92.8857 82.5277 90.9129 82.5309C88.5851 82.5348 88.452 82.5245 88.2402 82.3274C87.9374 82.0453 87.9494 81.5755 88.2673 81.2577L88.5172 81.0078H90.9843C93.3771 81.0078 93.4584 81.0144 93.687 81.229Z" stroke="white" stroke-width="0.181103"/>
<path d="M96.3663 78.004C96.3663 78.149 96.2539 78.3801 96.1163 78.5175C95.8676 78.7664 95.857 78.7675 93.8207 78.7675H91.775L91.5172 78.4895C91.3169 78.2734 91.2727 78.1429 91.3188 77.904C91.4392 77.2793 91.5877 77.2402 93.8369 77.2402C95.856 77.2402 95.8678 77.2416 96.1163 77.4903C96.2539 77.6277 96.3663 77.8588 96.3663 78.004Z" stroke="white" stroke-width="0.181103"/>
<path d="M98.1542 74.1071C98.2068 74.3293 98.1587 74.4456 97.9117 74.6924L97.6039 75.0004H96.0746C94.6176 75.0004 94.5321 74.9892 94.2679 74.7619C93.9084 74.4527 93.887 73.9327 94.2225 73.661C94.426 73.4962 94.6514 73.4731 96.0609 73.4731C97.8249 73.4731 98.018 73.5316 98.1542 74.1071Z" stroke="white" stroke-width="0.181103"/>
<path d="M98.7441 69.8542C99.0828 70.1681 99.1032 70.6331 98.7906 70.9241C98.594 71.1073 98.4343 71.1318 97.4275 71.1318C96.4727 71.1318 96.2495 71.1013 96.0561 70.9448C95.7301 70.6806 95.7569 70.1386 96.1114 69.8336C96.3503 69.6281 96.4857 69.6045 97.4263 69.6045C98.3981 69.6045 98.4944 69.6227 98.7441 69.8542Z" stroke="white" stroke-width="0.181103"/>
<path d="M99.278 66.0882C99.4977 66.3885 99.4564 66.9162 99.194 67.1605C98.9954 67.3456 98.8605 67.368 98.1032 67.3426C97.2506 67.3139 97.2361 67.309 97.0116 66.9752C96.7927 66.65 96.7904 66.6233 96.9519 66.2848C97.1539 65.8611 97.345 65.8026 98.362 65.854C98.9777 65.8852 99.1645 65.9328 99.278 66.0882Z" stroke="white" stroke-width="0.181103"/>
</g>
<mask id="mask7_302_19" style="mask-type:alpha" maskUnits="userSpaceOnUse" x="75" y="45" width="23" height="55">
<path d="M97.5469 45.8447H75.6295V99.7951H97.5469V45.8447Z" fill="white"/>
<path d="M78.1636 96.9C78.1636 97.1478 78.0449 97.8691 77.8994 97.9753C77.601 98.1936 77.1603 98.14 76.8704 97.8502C76.6169 97.5966 76.6111 97.5624 76.6801 96.7049C76.7507 95.824 77.0682 93.958 77.2461 93.3773C77.2975 93.2093 77.4406 92.7053 77.5642 92.2574C78.0149 90.624 79.7211 87.1972 80.8876 85.5535C81.8582 84.1859 83.752 81.9407 86.0533 79.4288C90.5179 74.5561 92.3237 71.8064 93.515 68.0673C94.4593 65.1036 94.6692 60.9781 94.0344 57.8549C93.6359 55.8938 92.5473 53.0804 91.5679 51.481C90.9266 50.4335 89.6513 48.9627 88.3602 47.7817C87.8618 47.3258 87.8129 47.0103 88.1832 46.6401C88.5787 46.2446 88.9181 46.3113 89.6697 46.9323C90.7999 47.8658 92.2281 49.6281 93.1911 51.2773C93.6942 52.1392 94.1433 53.0378 94.1445 53.1851C94.145 53.2278 94.204 53.3772 94.276 53.5173C94.4219 53.8007 94.786 54.802 94.9427 55.3499C94.9986 55.5458 95.1389 56.0352 95.2544 56.4375C95.6189 57.7062 95.7863 59.0047 95.8453 61.0157C95.9251 63.7348 95.699 65.9619 95.1544 67.822C94.5289 69.9583 93.5986 72.1379 92.8064 73.323C92.6181 73.6045 92.4031 73.952 92.3284 74.0951C91.8525 75.0094 88.6669 78.9112 86.81 80.8541C85.1764 82.5635 82.4978 85.8804 81.8681 86.8077C80.593 88.6857 78.6633 92.4035 78.1636 96.9Z" fill="black"/>
</mask>
<g mask="url(#mask7_302_19)">
<path d="M78.1636 96.9C78.1636 97.1478 78.0449 97.8691 77.8994 97.9753C77.601 98.1936 77.1603 98.14 76.8704 97.8502C76.6169 97.5966 76.6111 97.5624 76.6801 96.7049C76.7507 95.824 77.0682 93.958 77.2461 93.3773C77.2975 93.2093 77.4406 92.7053 77.5642 92.2574C78.0149 90.624 79.7211 87.1972 80.8876 85.5535C81.8582 84.1859 83.752 81.9407 86.0533 79.4288C90.5179 74.5561 92.3237 71.8064 93.515 68.0673C94.4593 65.1036 94.6692 60.9781 94.0344 57.8549C93.6359 55.8938 92.5473 53.0804 91.5679 51.481C90.9266 50.4335 89.6513 48.9627 88.3602 47.7817C87.8618 47.3258 87.8129 47.0103 88.1832 46.6401C88.5787 46.2446 88.9181 46.3113 89.6697 46.9323C90.7999 47.8658 92.2281 49.6281 93.1911 51.2773C93.6942 52.1392 94.1433 53.0378 94.1445 53.1851C94.145 53.2278 94.204 53.3772 94.276 53.5173C94.4219 53.8007 94.786 54.802 94.9427 55.3499C94.9986 55.5458 95.1389 56.0352 95.2544 56.4375C95.6189 57.7062 95.7863 59.0047 95.8453 61.0157C95.9251 63.7348 95.699 65.9619 95.1544 67.822C94.5289 69.9583 93.5986 72.1379 92.8064 73.323C92.6181 73.6045 92.4031 73.952 92.3284 74.0951C91.8525 75.0094 88.6669 78.9112 86.81 80.8541C85.1764 82.5635 82.4978 85.8804 81.8681 86.8077C80.593 88.6857 78.6633 92.4035 78.1636 96.9Z" fill="white"/>
<path d="M78.1636 96.9C78.1636 97.1478 78.0449 97.8691 77.8994 97.9753C77.601 98.1936 77.1603 98.14 76.8704 97.8502C76.6169 97.5966 76.6111 97.5624 76.6801 96.7049C76.7507 95.824 77.0682 93.958 77.2461 93.3773C77.2975 93.2093 77.4406 92.7053 77.5642 92.2574C78.0149 90.624 79.7211 87.1972 80.8876 85.5535C81.8582 84.1859 83.752 81.9407 86.0533 79.4288C90.5179 74.5561 92.3237 71.8064 93.515 68.0673C94.4593 65.1036 94.6692 60.9781 94.0344 57.8549C93.6359 55.8938 92.5473 53.0804 91.5679 51.481C90.9266 50.4335 89.6513 48.9627 88.3602 47.7817C87.8618 47.3258 87.8129 47.0103 88.1832 46.6401C88.5787 46.2446 88.9181 46.3113 89.6697 46.9323C90.7999 47.8658 92.2281 49.6281 93.1911 51.2773C93.6942 52.1392 94.1433 53.0378 94.1445 53.1851C94.145 53.2278 94.204 53.3772 94.276 53.5173C94.4219 53.8007 94.786 54.802 94.9427 55.3499C94.9986 55.5458 95.1389 56.0352 95.2544 56.4375C95.6189 57.7062 95.7863 59.0047 95.8453 61.0157C95.9251 63.7348 95.699 65.9619 95.1544 67.822C94.5289 69.9583 93.5986 72.1379 92.8064 73.323C92.6181 73.6045 92.4031 73.952 92.3284 74.0951C91.8525 75.0094 88.6669 78.9112 86.81 80.8541C85.1764 82.5635 82.4978 85.8804 81.8681 86.8077C80.593 88.6857 78.6633 92.4035 78.1636 96.9Z" stroke="white" stroke-width="0.181103"/>
</g>
<path d="M84 114C112.167 114 135 91.1665 135 63C135 34.8335 112.167 12 84 12C55.8335 12 33 34.8335 33 63C33 91.1665 55.8335 114 84 114Z" stroke="white" stroke-width="1.85632"/>
</g>
<defs>
<clipPath id="clip0_302_19">
<rect width="239" height="136" fill="white"/>
</clipPath>
</defs>
</svg>
