<svg width="364" height="364" viewBox="0 0 364 364" fill="none" xmlns="http://www.w3.org/2000/svg">
<mask id="mask0_302_15" style="mask-type:alpha" maskUnits="userSpaceOnUse" x="0" y="0" width="364" height="364">
<path d="M182 364C282.516 364 364 282.516 364 182C364 81.4842 282.516 0 182 0C81.4842 0 0 81.4842 0 182C0 282.516 81.4842 364 182 364Z" fill="#1C1C1C"/>
</mask>
<g mask="url(#mask0_302_15)">
<path d="M182 364C282.516 364 364 282.516 364 182C364 81.4842 282.516 0 182 0C81.4842 0 0 81.4842 0 182C0 282.516 81.4842 364 182 364Z" fill="white"/>
</g>
<mask id="mask1_302_15" style="mask-type:alpha" maskUnits="userSpaceOnUse" x="152" y="148" width="57" height="63">
<path d="M208.848 148.46H152.65V210.278H208.848V148.46Z" fill="white"/>
<path d="M164.629 155.228C164.766 155.026 165.184 154.687 165.557 154.475C166.037 154.203 171.209 154.088 183.252 154.08C198.973 154.07 200.322 154.115 200.97 154.664C202.053 155.58 202.201 156.828 201.356 157.902L200.634 158.821H183.18C166.179 158.821 165.709 158.803 165.048 158.142C164.373 157.467 164.152 155.933 164.629 155.228Z" fill="black"/>
<path d="M159.278 183.844C158.188 183.289 157.91 181.152 158.799 180.17C159.362 179.547 160.21 179.524 182.408 179.524C204.981 179.524 205.447 179.538 206.112 180.203C206.912 181.003 206.978 182.473 206.257 183.427C205.754 184.093 205.296 184.108 182.935 184.191C165.003 184.258 159.945 184.184 159.278 183.844Z" fill="black"/>
<path d="M163.632 208.827C162.533 207.832 162.981 205.436 164.368 204.884C164.648 204.772 172.622 204.709 182.086 204.744C198.861 204.804 199.308 204.824 199.808 205.485C200.49 206.388 200.477 207.998 199.781 208.768C199.251 209.353 198.242 209.388 181.736 209.388C165.944 209.388 164.192 209.333 163.632 208.827Z" fill="black"/>
</mask>
<g mask="url(#mask1_302_15)">
<path d="M164.628 155.228C164.765 155.026 165.183 154.687 165.556 154.475C166.036 154.203 171.208 154.088 183.251 154.08C198.972 154.07 200.321 154.115 200.969 154.664C202.052 155.58 202.2 156.828 201.355 157.902L200.633 158.821H183.179C166.178 158.821 165.708 158.803 165.047 158.142C164.372 157.467 164.151 155.933 164.628 155.228Z" fill="#0A1B1B" fill-opacity="0.4"/>
<path d="M159.278 183.842C158.188 183.288 157.91 181.151 158.799 180.169C159.362 179.546 160.21 179.523 182.408 179.523C204.981 179.523 205.447 179.536 206.112 180.202C206.912 181.002 206.978 182.471 206.257 183.426C205.754 184.091 205.296 184.106 182.935 184.19C165.003 184.257 159.945 184.182 159.278 183.842Z" fill="#0A1B1B" fill-opacity="0.4"/>
<path d="M163.632 208.827C162.533 207.832 162.981 205.436 164.368 204.884C164.648 204.772 172.622 204.709 182.086 204.744C198.861 204.804 199.308 204.824 199.808 205.485C200.49 206.388 200.477 207.998 199.781 208.768C199.251 209.353 198.242 209.388 181.736 209.388C165.944 209.388 164.192 209.333 163.632 208.827Z" fill="#0A1B1B" fill-opacity="0.4"/>
<path d="M164.628 155.228C164.765 155.026 165.183 154.687 165.556 154.475C166.036 154.203 171.208 154.088 183.251 154.08C198.972 154.07 200.321 154.115 200.969 154.664C202.052 155.58 202.2 156.828 201.355 157.902L200.633 158.821H183.179C166.178 158.821 165.708 158.803 165.047 158.142C164.372 157.467 164.151 155.933 164.628 155.228Z" stroke="#0A1B1B" stroke-opacity="0.4" stroke-width="0.603677"/>
<path d="M159.278 183.842C158.188 183.288 157.91 181.151 158.799 180.169C159.362 179.546 160.21 179.523 182.408 179.523C204.981 179.523 205.447 179.536 206.112 180.202C206.912 181.002 206.978 182.471 206.257 183.426C205.754 184.091 205.296 184.106 182.935 184.19C165.003 184.257 159.945 184.182 159.278 183.842Z" stroke="#0A1B1B" stroke-opacity="0.4" stroke-width="0.603677"/>
<path d="M163.632 208.827C162.533 207.832 162.981 205.436 164.368 204.884C164.648 204.772 172.622 204.709 182.086 204.744C198.861 204.804 199.308 204.824 199.808 205.485C200.49 206.388 200.477 207.998 199.781 208.768C199.251 209.353 198.242 209.388 181.736 209.388C165.944 209.388 164.192 209.333 163.632 208.827Z" stroke="#0A1B1B" stroke-opacity="0.4" stroke-width="0.603677"/>
</g>
<mask id="mask2_302_15" style="mask-type:alpha" maskUnits="userSpaceOnUse" x="153" y="135" width="58" height="91">
<path d="M210.195 135.564H153.997V225.482H210.195V135.564Z" fill="white"/>
<path d="M172.518 143.924C172.524 142.544 172.732 142.131 173.701 141.582C174.162 141.32 177.501 141.194 184.118 141.187C193.847 141.176 193.856 141.178 194.78 141.972C195.978 143.002 196.049 144.735 194.931 145.641C194.218 146.219 193.365 146.267 183.956 146.267C172.504 146.267 172.508 146.268 172.518 143.924Z" fill="black"/>
<path d="M159.616 169.176C159.616 168.44 159.875 167.729 160.295 167.309C160.959 166.644 161.426 166.63 182.37 166.63H203.766L204.599 167.463C205.057 167.921 205.432 168.692 205.432 169.176C205.432 169.659 205.057 170.429 204.599 170.887L203.766 171.721H182.37C161.426 171.721 160.959 171.707 160.295 171.042C159.875 170.622 159.616 169.911 159.616 169.176Z" fill="black"/>
<path d="M160.331 196.359C159.476 195.586 159.388 193.919 160.145 192.839L160.673 192.085H182.361H204.049L204.741 192.828C205.911 194.084 205.449 196.126 203.845 196.79C203.131 197.087 197.435 197.166 181.962 197.098C161.94 197.01 161.014 196.978 160.331 196.359Z" fill="black"/>
<path d="M169.822 221.396C168.736 220.014 169.061 218.129 170.478 217.605C170.828 217.475 175.666 217.399 181.23 217.436C191.155 217.501 191.357 217.516 191.94 218.237C192.73 219.212 192.693 220.303 191.833 221.396L191.129 222.29H180.827H170.525L169.822 221.396Z" fill="black"/>
</mask>
<g mask="url(#mask2_302_15)">
<path d="M172.518 143.924C172.524 142.544 172.732 142.131 173.701 141.582C174.162 141.32 177.501 141.194 184.118 141.187C193.847 141.176 193.856 141.178 194.78 141.972C195.978 143.002 196.049 144.735 194.931 145.641C194.218 146.219 193.365 146.267 183.956 146.267C172.504 146.267 172.508 146.268 172.518 143.924Z" fill="#519872"/>
<path d="M159.616 169.176C159.616 168.44 159.875 167.729 160.295 167.309C160.959 166.644 161.426 166.63 182.37 166.63H203.766L204.599 167.463C205.057 167.921 205.432 168.692 205.432 169.176C205.432 169.659 205.057 170.429 204.599 170.887L203.766 171.721H182.37C161.426 171.721 160.959 171.707 160.295 171.042C159.875 170.622 159.616 169.911 159.616 169.176Z" fill="#519872"/>
<path d="M160.331 196.359C159.476 195.586 159.388 193.919 160.145 192.839L160.673 192.085H182.361H204.049L204.741 192.828C205.911 194.084 205.449 196.126 203.845 196.79C203.131 197.087 197.435 197.166 181.962 197.098C161.94 197.01 161.014 196.978 160.331 196.359Z" fill="#519872"/>
<path d="M169.823 221.396C168.736 220.014 169.061 218.129 170.479 217.605C170.828 217.475 175.666 217.399 181.231 217.436C191.156 217.501 191.357 217.516 191.941 218.237C192.731 219.212 192.693 220.303 191.833 221.396L191.13 222.29H180.828H170.526L169.823 221.396Z" fill="#519872"/>
<path d="M172.518 143.924C172.524 142.544 172.732 142.131 173.701 141.582C174.162 141.32 177.501 141.194 184.118 141.187C193.847 141.176 193.856 141.178 194.78 141.972C195.978 143.002 196.049 144.735 194.931 145.641C194.218 146.219 193.365 146.267 183.956 146.267C172.504 146.267 172.508 146.268 172.518 143.924Z" stroke="#519872" stroke-width="0.603677"/>
<path d="M159.616 169.176C159.616 168.44 159.875 167.729 160.295 167.309C160.959 166.644 161.426 166.63 182.37 166.63H203.766L204.599 167.463C205.057 167.921 205.432 168.692 205.432 169.176C205.432 169.659 205.057 170.429 204.599 170.887L203.766 171.721H182.37C161.426 171.721 160.959 171.707 160.295 171.042C159.875 170.622 159.616 169.911 159.616 169.176Z" stroke="#519872" stroke-width="0.603677"/>
<path d="M160.331 196.359C159.476 195.586 159.388 193.919 160.145 192.839L160.673 192.085H182.361H204.049L204.741 192.828C205.911 194.084 205.449 196.126 203.845 196.79C203.131 197.087 197.435 197.166 181.962 197.098C161.94 197.01 161.014 196.978 160.331 196.359Z" stroke="#519872" stroke-width="0.603677"/>
<path d="M169.823 221.396C168.736 220.014 169.061 218.129 170.479 217.605C170.828 217.475 175.666 217.399 181.231 217.436C191.156 217.501 191.357 217.516 191.941 218.237C192.731 219.212 192.693 220.303 191.833 221.396L191.13 222.29H180.828H170.526L169.823 221.396Z" stroke="#519872" stroke-width="0.603677"/>
</g>
<mask id="mask3_302_15" style="mask-type:alpha" maskUnits="userSpaceOnUse" x="132" y="27" width="35" height="74">
<path d="M166.603 27.6655H132.884V100.723H166.603V27.6655Z" fill="white"/>
<path d="M138.504 36.7817C138.504 34.8931 138.602 34.5819 139.398 33.9561C140.495 33.093 141.254 33.0672 142.232 33.859C142.891 34.3925 143.017 34.9501 143.281 38.4854C144.233 51.2427 146.984 63.1044 151.365 73.3505C153.969 79.4379 158.437 86.7785 161.903 90.6618C163.856 92.8496 164.131 94.1753 162.875 95.3454C161.212 96.8948 159.701 95.9226 155.961 90.8967C147.822 79.9605 142.777 67.181 139.878 50.155C139.107 45.6284 138.504 39.7564 138.504 36.7817Z" fill="black"/>
</mask>
<g mask="url(#mask3_302_15)">
<path d="M138.504 36.7817C138.504 34.8931 138.602 34.5819 139.398 33.9561C140.495 33.093 141.254 33.0672 142.232 33.859C142.891 34.3925 143.017 34.9501 143.281 38.4854C144.233 51.2427 146.984 63.1044 151.365 73.3505C153.969 79.4379 158.437 86.7785 161.903 90.6618C163.856 92.8496 164.131 94.1753 162.875 95.3454C161.212 96.8948 159.701 95.9226 155.961 90.8967C147.822 79.9605 142.777 67.181 139.878 50.155C139.107 45.6284 138.504 39.7564 138.504 36.7817Z" fill="#519872"/>
<path d="M138.504 36.7817C138.504 34.8931 138.602 34.5819 139.398 33.9561C140.495 33.093 141.254 33.0672 142.232 33.859C142.891 34.3925 143.017 34.9501 143.281 38.4854C144.233 51.2427 146.984 63.1044 151.365 73.3505C153.969 79.4379 158.437 86.7785 161.903 90.6618C163.856 92.8496 164.131 94.1753 162.875 95.3454C161.212 96.8948 159.701 95.9226 155.961 90.8967C147.822 79.9605 142.777 67.181 139.878 50.155C139.107 45.6284 138.504 39.7564 138.504 36.7817Z" stroke="#519872" stroke-width="0.603677"/>
</g>
<mask id="mask4_302_15" style="mask-type:alpha" maskUnits="userSpaceOnUse" x="128" y="59" width="74" height="114">
<path d="M201.99 59.9038H128.933V172.3H201.99V59.9038Z" fill="white"/>
<path d="M180.987 69.6855C180.139 68.9184 180.178 67.0408 181.06 66.159C181.731 65.4886 182.07 65.4678 190.718 65.565C199.222 65.6606 199.709 65.7005 200.194 66.3439C200.916 67.2993 200.849 68.7689 200.05 69.568C199.406 70.2126 198.918 70.2469 190.489 70.2469C182.7 70.2469 181.531 70.1778 180.987 69.6855Z" fill="black"/>
<path d="M178.55 82.5065C177.376 81.5325 177.714 78.9564 179.088 78.4045C179.511 78.2343 183.643 78.0859 188.271 78.0741L196.686 78.0527L197.558 78.9232C198.26 79.6257 198.388 80.0034 198.22 80.875C197.818 82.9544 197.706 82.9768 187.912 82.9409C181.612 82.9178 178.894 82.7919 178.55 82.5065Z" fill="black"/>
<path d="M171.207 93.3576C171.214 91.7554 171.555 91.2794 172.94 90.9428C173.571 90.7894 177.927 90.6899 182.621 90.7225C190.49 90.7759 191.211 90.8304 191.869 91.4267C192.745 92.2202 192.827 94.1905 192.021 95.0807C191.502 95.6539 190.731 95.7011 181.952 95.7011C171.269 95.7011 171.197 95.6859 171.207 93.3576Z" fill="black"/>
<path d="M163.057 107.58C161.825 106.348 162.237 104.364 163.872 103.652C165.184 103.081 180.478 102.969 181.928 103.52C183.771 104.222 184.362 106.299 183.08 107.58C182.434 108.226 181.95 108.258 173.069 108.258C164.188 108.258 163.703 108.226 163.057 107.58Z" fill="black"/>
<path d="M153.66 120.415C152.482 119.308 152.561 117.273 153.808 116.595C154.56 116.187 156.331 116.087 162.908 116.076C170.666 116.063 171.11 116.097 171.816 116.754C172.825 117.694 172.786 119.26 171.726 120.32L170.893 121.153H162.669C154.693 121.153 154.422 121.131 153.66 120.415Z" fill="black"/>
<path d="M144.731 131.165C144.731 130.682 145.107 129.911 145.565 129.453C146.394 128.624 146.429 128.62 153.217 128.62H160.036L160.895 129.546C161.563 130.267 161.71 130.702 161.556 131.498C161.155 133.58 160.66 133.711 153.163 133.711C146.432 133.711 146.393 133.706 145.565 132.877C145.107 132.419 144.731 131.649 144.731 131.165Z" fill="black"/>
<path d="M138.771 144.154C138.595 143.414 138.756 143.026 139.579 142.203L140.606 141.176H145.703C150.56 141.176 150.845 141.214 151.725 141.971C152.923 143.002 152.995 144.735 151.876 145.641C151.198 146.19 150.447 146.267 145.748 146.267C139.868 146.267 139.225 146.072 138.771 144.154Z" fill="black"/>
<path d="M136.804 158.332C135.675 157.286 135.608 155.736 136.649 154.766C137.305 154.155 137.837 154.073 141.193 154.073C144.376 154.073 145.12 154.175 145.764 154.696C146.852 155.577 146.762 157.384 145.58 158.401C144.784 159.086 144.333 159.164 141.197 159.164C137.958 159.164 137.637 159.104 136.804 158.332Z" fill="black"/>
<path d="M135.025 170.885C134.293 169.884 134.431 168.125 135.305 167.311C135.967 166.693 136.416 166.619 138.941 166.704C141.783 166.799 141.831 166.815 142.58 167.928C143.31 169.012 143.317 169.101 142.778 170.229C142.105 171.642 141.468 171.837 138.078 171.665C136.026 171.561 135.403 171.403 135.025 170.885Z" fill="black"/>
</mask>
<g mask="url(#mask4_302_15)">
<path d="M180.987 69.6855C180.139 68.9184 180.178 67.0408 181.06 66.159C181.731 65.4886 182.07 65.4678 190.718 65.565C199.222 65.6606 199.709 65.7005 200.194 66.3439C200.916 67.2993 200.849 68.7689 200.05 69.568C199.406 70.2126 198.918 70.2469 190.489 70.2469C182.7 70.2469 181.531 70.1778 180.987 69.6855Z" fill="#0A1B1B" fill-opacity="0.4"/>
<path d="M178.549 82.5065C177.375 81.5325 177.714 78.9564 179.087 78.4045C179.51 78.2343 183.643 78.0859 188.271 78.0741L196.686 78.0527L197.557 78.9232C198.259 79.6257 198.387 80.0034 198.219 80.875C197.818 82.9544 197.705 82.9768 187.911 82.9409C181.611 82.9178 178.893 82.7919 178.549 82.5065Z" fill="#0A1B1B" fill-opacity="0.4"/>
<path d="M171.207 93.3576C171.214 91.7554 171.555 91.2794 172.94 90.9428C173.571 90.7894 177.927 90.6899 182.621 90.7225C190.49 90.7759 191.211 90.8304 191.869 91.4267C192.745 92.2202 192.827 94.1905 192.021 95.0807C191.502 95.6539 190.731 95.7011 181.952 95.7011C171.269 95.7011 171.197 95.6859 171.207 93.3576Z" fill="#0A1B1B" fill-opacity="0.4"/>
<path d="M163.057 107.58C161.825 106.348 162.237 104.364 163.872 103.652C165.184 103.081 180.478 102.969 181.928 103.52C183.771 104.222 184.362 106.299 183.08 107.58C182.434 108.226 181.95 108.258 173.069 108.258C164.188 108.258 163.703 108.226 163.057 107.58Z" fill="#0A1B1B" fill-opacity="0.4"/>
<path d="M153.66 120.415C152.482 119.308 152.561 117.273 153.808 116.595C154.56 116.187 156.331 116.087 162.908 116.076C170.666 116.063 171.11 116.097 171.816 116.754C172.825 117.694 172.786 119.26 171.726 120.32L170.893 121.153H162.669C154.693 121.153 154.422 121.131 153.66 120.415Z" fill="#0A1B1B" fill-opacity="0.4"/>
<path d="M144.73 131.165C144.73 130.682 145.106 129.911 145.564 129.453C146.393 128.624 146.428 128.62 153.216 128.62H160.035L160.894 129.546C161.562 130.267 161.709 130.702 161.555 131.498C161.154 133.58 160.659 133.711 153.162 133.711C146.431 133.711 146.392 133.706 145.564 132.877C145.106 132.419 144.73 131.649 144.73 131.165Z" fill="#0A1B1B" fill-opacity="0.4"/>
<path d="M138.771 144.154C138.595 143.414 138.756 143.026 139.579 142.203L140.606 141.176H145.703C150.56 141.176 150.845 141.214 151.725 141.971C152.923 143.002 152.995 144.735 151.876 145.641C151.198 146.19 150.447 146.267 145.748 146.267C139.868 146.267 139.225 146.072 138.771 144.154Z" fill="#0A1B1B" fill-opacity="0.4"/>
<path d="M136.804 158.332C135.675 157.286 135.608 155.736 136.649 154.766C137.305 154.155 137.837 154.073 141.193 154.073C144.376 154.073 145.12 154.175 145.764 154.696C146.852 155.577 146.762 157.384 145.58 158.401C144.784 159.086 144.333 159.164 141.197 159.164C137.958 159.164 137.637 159.104 136.804 158.332Z" fill="#0A1B1B" fill-opacity="0.4"/>
<path d="M135.025 170.885C134.293 169.884 134.431 168.125 135.305 167.311C135.967 166.693 136.416 166.619 138.941 166.704C141.783 166.799 141.831 166.815 142.58 167.928C143.31 169.012 143.317 169.101 142.778 170.229C142.105 171.642 141.468 171.837 138.078 171.665C136.026 171.561 135.403 171.403 135.025 170.885Z" fill="#0A1B1B" fill-opacity="0.4"/>
<path d="M180.987 69.6855C180.139 68.9184 180.178 67.0408 181.06 66.159C181.731 65.4886 182.07 65.4678 190.718 65.565C199.222 65.6606 199.709 65.7005 200.194 66.3439C200.916 67.2993 200.849 68.7689 200.05 69.568C199.406 70.2126 198.918 70.2469 190.489 70.2469C182.7 70.2469 181.531 70.1778 180.987 69.6855Z" stroke="#0A1B1B" stroke-opacity="0.4" stroke-width="0.603677"/>
<path d="M178.549 82.5065C177.375 81.5325 177.714 78.9564 179.087 78.4045C179.51 78.2343 183.643 78.0859 188.271 78.0741L196.686 78.0527L197.557 78.9232C198.259 79.6257 198.387 80.0034 198.219 80.875C197.818 82.9544 197.705 82.9768 187.911 82.9409C181.611 82.9178 178.893 82.7919 178.549 82.5065Z" stroke="#0A1B1B" stroke-opacity="0.4" stroke-width="0.603677"/>
<path d="M171.207 93.3576C171.214 91.7554 171.555 91.2794 172.94 90.9428C173.571 90.7894 177.927 90.6899 182.621 90.7225C190.49 90.7759 191.211 90.8304 191.869 91.4267C192.745 92.2202 192.827 94.1905 192.021 95.0807C191.502 95.6539 190.731 95.7011 181.952 95.7011C171.269 95.7011 171.197 95.6859 171.207 93.3576Z" stroke="#0A1B1B" stroke-opacity="0.4" stroke-width="0.603677"/>
<path d="M163.057 107.58C161.825 106.348 162.237 104.364 163.872 103.652C165.184 103.081 180.478 102.969 181.928 103.52C183.771 104.222 184.362 106.299 183.08 107.58C182.434 108.226 181.95 108.258 173.069 108.258C164.188 108.258 163.703 108.226 163.057 107.58Z" stroke="#0A1B1B" stroke-opacity="0.4" stroke-width="0.603677"/>
<path d="M153.66 120.415C152.482 119.308 152.561 117.273 153.808 116.595C154.56 116.187 156.331 116.087 162.908 116.076C170.666 116.063 171.11 116.097 171.816 116.754C172.825 117.694 172.786 119.26 171.726 120.32L170.893 121.153H162.669C154.693 121.153 154.422 121.131 153.66 120.415Z" stroke="#0A1B1B" stroke-opacity="0.4" stroke-width="0.603677"/>
<path d="M144.73 131.165C144.73 130.682 145.106 129.911 145.564 129.453C146.393 128.624 146.428 128.62 153.216 128.62H160.035L160.894 129.546C161.562 130.267 161.709 130.702 161.555 131.498C161.154 133.58 160.659 133.711 153.162 133.711C146.431 133.711 146.392 133.706 145.564 132.877C145.106 132.419 144.73 131.649 144.73 131.165Z" stroke="#0A1B1B" stroke-opacity="0.4" stroke-width="0.603677"/>
<path d="M138.771 144.154C138.595 143.414 138.756 143.026 139.579 142.203L140.606 141.176H145.703C150.56 141.176 150.845 141.214 151.725 141.971C152.923 143.002 152.995 144.735 151.876 145.641C151.198 146.19 150.447 146.267 145.748 146.267C139.868 146.267 139.225 146.072 138.771 144.154Z" stroke="#0A1B1B" stroke-opacity="0.4" stroke-width="0.603677"/>
<path d="M136.804 158.332C135.675 157.286 135.608 155.736 136.649 154.766C137.305 154.155 137.837 154.073 141.193 154.073C144.376 154.073 145.12 154.175 145.764 154.696C146.852 155.577 146.762 157.384 145.58 158.401C144.784 159.086 144.333 159.164 141.197 159.164C137.958 159.164 137.637 159.104 136.804 158.332Z" stroke="#0A1B1B" stroke-opacity="0.4" stroke-width="0.603677"/>
<path d="M135.025 170.885C134.293 169.884 134.431 168.125 135.305 167.311C135.967 166.693 136.416 166.619 138.941 166.704C141.783 166.799 141.831 166.815 142.58 167.928C143.31 169.012 143.317 169.101 142.778 170.229C142.105 171.642 141.468 171.837 138.078 171.665C136.026 171.561 135.403 171.403 135.025 170.885Z" stroke="#0A1B1B" stroke-opacity="0.4" stroke-width="0.603677"/>
</g>
<mask id="mask5_302_15" style="mask-type:alpha" maskUnits="userSpaceOnUse" x="140" y="58" width="74" height="181">
<path d="M213.853 58.5283H140.795V238.363H213.853V58.5283Z" fill="white"/>
<path d="M205.407 68.179C205.407 67.3529 205.802 64.9487 206.287 64.5947C207.282 63.8669 208.752 64.0456 209.717 65.0117C210.563 65.8569 210.582 65.971 210.352 68.8292C210.116 71.7656 209.058 77.9856 208.466 79.9211C208.294 80.4814 207.817 82.1612 207.405 83.6544C205.902 89.0989 200.215 100.522 196.327 106.001C193.091 110.559 186.779 118.043 179.108 126.416C164.226 142.659 158.206 151.824 154.235 164.288C151.088 174.167 150.388 187.919 152.504 198.329C153.832 204.866 157.461 214.244 160.726 219.576C162.864 223.067 167.115 227.97 171.419 231.907C173.079 233.426 173.242 234.478 172.008 235.712C170.69 237.03 169.558 236.808 167.053 234.738C163.286 231.626 158.525 225.752 155.316 220.255C153.638 217.382 152.141 214.386 152.137 213.895C152.136 213.753 151.939 213.255 151.699 212.789C151.212 211.843 149.999 208.506 149.477 206.679C149.29 206.026 148.822 204.395 148.437 203.054C147.223 198.825 146.664 194.497 146.468 187.793C146.202 178.73 146.955 171.306 148.771 165.105C150.856 157.985 153.957 150.719 156.598 146.769C157.225 145.831 157.942 144.672 158.191 144.195C159.777 141.148 170.396 128.142 176.586 121.665C182.031 115.967 190.96 104.911 193.058 101.82C197.309 95.56 203.742 83.1671 205.407 68.179Z" fill="black"/>
</mask>
<g mask="url(#mask5_302_15)">
<path d="M205.406 68.179C205.406 67.3529 205.802 64.9487 206.287 64.5947C207.281 63.8669 208.751 64.0456 209.716 65.0117C210.562 65.8569 210.581 65.971 210.352 68.8292C210.115 71.7656 209.057 77.9856 208.465 79.9211C208.293 80.4814 207.816 82.1612 207.404 83.6544C205.902 89.0989 200.214 100.522 196.326 106.001C193.091 110.559 186.779 118.043 179.107 126.416C164.225 142.659 158.206 151.824 154.235 164.288C151.087 174.167 150.387 187.919 152.503 198.329C153.832 204.866 157.46 214.244 160.725 219.576C162.863 223.067 167.114 227.97 171.418 231.907C173.079 233.426 173.242 234.478 172.007 235.712C170.689 237.03 169.558 236.808 167.052 234.738C163.285 231.626 158.524 225.752 155.315 220.255C153.637 217.382 152.14 214.386 152.136 213.895C152.135 213.753 151.938 213.255 151.698 212.789C151.212 211.843 149.998 208.506 149.476 206.679C149.289 206.026 148.822 204.395 148.437 203.054C147.222 198.825 146.664 194.497 146.467 187.793C146.201 178.73 146.955 171.306 148.77 165.105C150.855 157.985 153.956 150.719 156.597 146.769C157.224 145.831 157.942 144.672 158.19 144.195C159.776 141.148 170.395 128.142 176.585 121.665C182.03 115.967 190.959 104.911 193.058 101.82C197.308 95.56 203.741 83.1671 205.406 68.179Z" fill="#0A1B1B" fill-opacity="0.4"/>
<path d="M205.406 68.179C205.406 67.3529 205.802 64.9487 206.287 64.5947C207.281 63.8669 208.751 64.0456 209.716 65.0117C210.562 65.8569 210.581 65.971 210.352 68.8292C210.115 71.7656 209.057 77.9856 208.465 79.9211C208.293 80.4814 207.816 82.1612 207.404 83.6544C205.902 89.0989 200.214 100.522 196.326 106.001C193.091 110.559 186.779 118.043 179.107 126.416C164.225 142.659 158.206 151.824 154.235 164.288C151.087 174.167 150.387 187.919 152.503 198.329C153.832 204.866 157.46 214.244 160.725 219.576C162.863 223.067 167.114 227.97 171.418 231.907C173.079 233.426 173.242 234.478 172.007 235.712C170.689 237.03 169.558 236.808 167.052 234.738C163.285 231.626 158.524 225.752 155.315 220.255C153.637 217.382 152.14 214.386 152.136 213.895C152.135 213.753 151.938 213.255 151.698 212.789C151.212 211.843 149.998 208.506 149.476 206.679C149.289 206.026 148.822 204.395 148.437 203.054C147.222 198.825 146.664 194.497 146.467 187.793C146.201 178.73 146.955 171.306 148.77 165.105C150.855 157.985 153.956 150.719 156.597 146.769C157.224 145.831 157.942 144.672 158.19 144.195C159.776 141.148 170.395 128.142 176.585 121.665C182.03 115.967 190.959 104.911 193.058 101.82C197.308 95.56 203.741 83.1671 205.406 68.179Z" stroke="#0A1B1B" stroke-opacity="0.4" stroke-width="0.603677"/>
</g>
<mask id="mask6_302_15" style="mask-type:alpha" maskUnits="userSpaceOnUse" x="201" y="262" width="35" height="74">
<path d="M235.062 262.459H201.343V335.517H235.062V262.459Z" fill="white"/>
<path d="M229.442 326.4C229.442 328.288 229.344 328.6 228.548 329.226C227.451 330.089 226.692 330.114 225.714 329.323C225.055 328.789 224.929 328.231 224.665 324.696C223.713 311.939 220.962 300.077 216.581 289.831C213.977 283.744 209.509 276.403 206.043 272.52C204.09 270.332 203.815 269.006 205.071 267.836C206.734 266.287 208.245 267.259 211.985 272.285C220.124 283.221 225.169 296.001 228.068 313.026C228.839 317.553 229.442 323.425 229.442 326.4Z" fill="black"/>
</mask>
<g mask="url(#mask6_302_15)">
<path d="M229.442 326.4C229.442 328.288 229.344 328.6 228.548 329.226C227.451 330.089 226.692 330.114 225.714 329.323C225.055 328.789 224.929 328.231 224.665 324.696C223.713 311.939 220.962 300.077 216.581 289.831C213.977 283.744 209.509 276.403 206.043 272.52C204.09 270.332 203.815 269.006 205.071 267.836C206.734 266.287 208.245 267.259 211.985 272.285C220.124 283.221 225.169 296.001 228.068 313.026C228.839 317.553 229.442 323.425 229.442 326.4Z" fill="#0A1B1B" fill-opacity="0.4"/>
<path d="M229.442 326.4C229.442 328.288 229.344 328.6 228.548 329.226C227.451 330.089 226.692 330.114 225.714 329.323C225.055 328.789 224.929 328.231 224.665 324.696C223.713 311.939 220.962 300.077 216.581 289.831C213.977 283.744 209.509 276.403 206.043 272.52C204.09 270.332 203.815 269.006 205.071 267.836C206.734 266.287 208.245 267.259 211.985 272.285C220.124 283.221 225.169 296.001 228.068 313.026C228.839 317.553 229.442 323.425 229.442 326.4Z" stroke="#0A1B1B" stroke-opacity="0.4" stroke-width="0.603677"/>
</g>
<mask id="mask7_302_15" style="mask-type:alpha" maskUnits="userSpaceOnUse" x="165" y="190" width="75" height="114">
<path d="M239.019 190.88H165.961V303.277H239.019V190.88Z" fill="white"/>
<path d="M186.966 293.493C187.813 294.26 187.774 296.137 186.892 297.019C186.222 297.689 185.883 297.71 177.234 297.613C168.73 297.517 168.244 297.478 167.758 296.834C167.037 295.879 167.103 294.409 167.903 293.61C168.547 292.965 169.034 292.931 177.463 292.931C185.252 292.931 186.422 293 186.966 293.493Z" fill="black"/>
<path d="M189.402 280.674C190.576 281.648 190.237 284.224 188.864 284.776C188.441 284.946 184.309 285.094 179.68 285.106L171.265 285.128L170.394 284.257C169.691 283.555 169.563 283.177 169.732 282.305C170.133 280.226 170.246 280.204 180.04 280.24C186.34 280.263 189.058 280.388 189.402 280.674Z" fill="black"/>
<path d="M196.745 269.82C196.738 271.422 196.396 271.898 195.012 272.235C194.382 272.388 190.025 272.488 185.331 272.455C177.461 272.402 176.741 272.347 176.083 271.751C175.207 270.957 175.125 268.987 175.931 268.097C176.449 267.524 177.22 267.477 186 267.477C196.682 267.477 196.755 267.492 196.745 269.82Z" fill="black"/>
<path d="M204.895 255.599C206.126 256.831 205.715 258.814 204.08 259.526C202.768 260.097 187.473 260.209 186.024 259.659C184.18 258.957 183.591 256.879 184.871 255.599C185.517 254.953 186.003 254.92 194.883 254.92C203.764 254.92 204.249 254.953 204.895 255.599Z" fill="black"/>
<path d="M214.29 242.764C215.469 243.871 215.39 245.906 214.142 246.584C213.39 246.992 211.619 247.093 205.043 247.103C197.284 247.116 196.84 247.082 196.134 246.425C195.125 245.485 195.165 243.919 196.225 242.859L197.057 242.026H205.281C213.257 242.026 213.528 242.048 214.29 242.764Z" fill="black"/>
<path d="M223.222 232.013C223.222 232.496 222.847 233.267 222.388 233.725C221.559 234.554 221.524 234.558 214.736 234.558H207.917L207.058 233.632C206.39 232.911 206.243 232.476 206.397 231.68C206.798 229.598 207.293 229.467 214.79 229.467C221.521 229.467 221.56 229.472 222.388 230.301C222.847 230.759 223.222 231.529 223.222 232.013Z" fill="black"/>
<path d="M229.18 219.024C229.355 219.764 229.195 220.152 228.372 220.975L227.346 222.002H222.248C217.391 222.002 217.106 221.964 216.226 221.206C215.028 220.176 214.956 218.443 216.075 217.537C216.753 216.988 217.504 216.911 222.203 216.911C228.083 216.911 228.726 217.106 229.18 219.024Z" fill="black"/>
<path d="M231.147 204.847C232.276 205.893 232.344 207.443 231.302 208.413C230.647 209.024 230.114 209.106 226.758 209.106C223.576 209.106 222.832 209.004 222.187 208.482C221.1 207.602 221.189 205.795 222.371 204.778C223.168 204.093 223.619 204.015 226.754 204.015C229.993 204.015 230.314 204.075 231.147 204.847Z" fill="black"/>
<path d="M232.927 192.294C233.659 193.295 233.521 195.054 232.647 195.868C231.985 196.485 231.535 196.56 229.011 196.475C226.169 196.38 226.12 196.364 225.372 195.251C224.642 194.167 224.634 194.078 225.173 192.949C225.846 191.537 226.483 191.342 229.873 191.514C231.926 191.618 232.548 191.776 232.927 192.294Z" fill="black"/>
</mask>
<g mask="url(#mask7_302_15)">
<path d="M186.966 293.493C187.813 294.26 187.774 296.137 186.892 297.019C186.222 297.689 185.883 297.71 177.234 297.613C168.73 297.517 168.244 297.478 167.758 296.834C167.037 295.879 167.103 294.409 167.903 293.61C168.547 292.965 169.034 292.931 177.463 292.931C185.252 292.931 186.422 293 186.966 293.493Z" fill="#519872"/>
<path d="M189.402 280.674C190.576 281.648 190.237 284.224 188.864 284.776C188.441 284.946 184.309 285.094 179.68 285.106L171.265 285.128L170.394 284.257C169.691 283.555 169.563 283.177 169.732 282.305C170.133 280.226 170.246 280.204 180.04 280.24C186.34 280.263 189.058 280.388 189.402 280.674Z" fill="#519872"/>
<path d="M196.745 269.82C196.738 271.422 196.396 271.898 195.012 272.235C194.382 272.388 190.025 272.488 185.331 272.455C177.461 272.402 176.741 272.347 176.083 271.751C175.207 270.957 175.125 268.987 175.931 268.097C176.449 267.524 177.22 267.477 186 267.477C196.682 267.477 196.755 267.492 196.745 269.82Z" fill="#519872"/>
<path d="M204.895 255.599C206.126 256.831 205.715 258.814 204.08 259.526C202.768 260.097 187.473 260.209 186.024 259.659C184.18 258.957 183.591 256.879 184.871 255.599C185.517 254.953 186.003 254.92 194.883 254.92C203.764 254.92 204.249 254.953 204.895 255.599Z" fill="#519872"/>
<path d="M214.29 242.764C215.469 243.871 215.39 245.906 214.142 246.584C213.39 246.992 211.619 247.093 205.043 247.103C197.284 247.116 196.84 247.082 196.134 246.425C195.125 245.485 195.165 243.919 196.225 242.859L197.057 242.026H205.281C213.257 242.026 213.528 242.048 214.29 242.764Z" fill="#519872"/>
<path d="M223.222 232.013C223.222 232.496 222.847 233.267 222.388 233.725C221.559 234.554 221.524 234.558 214.736 234.558H207.917L207.058 233.632C206.39 232.911 206.243 232.476 206.397 231.68C206.798 229.598 207.293 229.467 214.79 229.467C221.521 229.467 221.56 229.472 222.388 230.301C222.847 230.759 223.222 231.529 223.222 232.013Z" fill="#519872"/>
<path d="M229.18 219.024C229.355 219.764 229.195 220.152 228.372 220.975L227.346 222.002H222.248C217.391 222.002 217.106 221.964 216.226 221.206C215.028 220.176 214.956 218.443 216.075 217.537C216.753 216.988 217.504 216.911 222.203 216.911C228.083 216.911 228.726 217.106 229.18 219.024Z" fill="#519872"/>
<path d="M231.147 204.847C232.276 205.893 232.344 207.443 231.302 208.413C230.647 209.024 230.114 209.106 226.758 209.106C223.576 209.106 222.832 209.004 222.187 208.482C221.1 207.602 221.189 205.795 222.371 204.778C223.168 204.093 223.619 204.015 226.754 204.015C229.993 204.015 230.314 204.075 231.147 204.847Z" fill="#519872"/>
<path d="M232.927 192.294C233.659 193.295 233.521 195.054 232.647 195.868C231.985 196.485 231.535 196.56 229.011 196.475C226.169 196.38 226.12 196.364 225.372 195.251C224.642 194.167 224.634 194.078 225.173 192.949C225.846 191.537 226.483 191.342 229.873 191.514C231.926 191.618 232.548 191.776 232.927 192.294Z" fill="#519872"/>
<path d="M186.966 293.493C187.813 294.26 187.774 296.137 186.892 297.019C186.222 297.689 185.883 297.71 177.234 297.613C168.73 297.517 168.244 297.478 167.758 296.834C167.037 295.879 167.103 294.409 167.903 293.61C168.547 292.965 169.034 292.931 177.463 292.931C185.252 292.931 186.422 293 186.966 293.493Z" stroke="#519872" stroke-width="0.603677"/>
<path d="M189.402 280.674C190.576 281.648 190.237 284.224 188.864 284.776C188.441 284.946 184.309 285.094 179.68 285.106L171.265 285.128L170.394 284.257C169.691 283.555 169.563 283.177 169.732 282.305C170.133 280.226 170.246 280.204 180.04 280.24C186.34 280.263 189.058 280.388 189.402 280.674Z" stroke="#519872" stroke-width="0.603677"/>
<path d="M196.745 269.82C196.738 271.422 196.396 271.898 195.012 272.235C194.382 272.388 190.025 272.488 185.331 272.455C177.461 272.402 176.741 272.347 176.083 271.751C175.207 270.957 175.125 268.987 175.931 268.097C176.449 267.524 177.22 267.477 186 267.477C196.682 267.477 196.755 267.492 196.745 269.82Z" stroke="#519872" stroke-width="0.603677"/>
<path d="M204.895 255.599C206.126 256.831 205.715 258.814 204.08 259.526C202.768 260.097 187.473 260.209 186.024 259.659C184.18 258.957 183.591 256.879 184.871 255.599C185.517 254.953 186.003 254.92 194.883 254.92C203.764 254.92 204.249 254.953 204.895 255.599Z" stroke="#519872" stroke-width="0.603677"/>
<path d="M214.29 242.764C215.469 243.871 215.39 245.906 214.142 246.584C213.39 246.992 211.619 247.093 205.043 247.103C197.284 247.116 196.84 247.082 196.134 246.425C195.125 245.485 195.165 243.919 196.225 242.859L197.057 242.026H205.281C213.257 242.026 213.528 242.048 214.29 242.764Z" stroke="#519872" stroke-width="0.603677"/>
<path d="M223.222 232.013C223.222 232.496 222.847 233.267 222.388 233.725C221.559 234.554 221.524 234.558 214.736 234.558H207.917L207.058 233.632C206.39 232.911 206.243 232.476 206.397 231.68C206.798 229.598 207.293 229.467 214.79 229.467C221.521 229.467 221.56 229.472 222.388 230.301C222.847 230.759 223.222 231.529 223.222 232.013Z" stroke="#519872" stroke-width="0.603677"/>
<path d="M229.18 219.024C229.355 219.764 229.195 220.152 228.372 220.975L227.346 222.002H222.248C217.391 222.002 217.106 221.964 216.226 221.206C215.028 220.176 214.956 218.443 216.075 217.537C216.753 216.988 217.504 216.911 222.203 216.911C228.083 216.911 228.726 217.106 229.18 219.024Z" stroke="#519872" stroke-width="0.603677"/>
<path d="M231.147 204.847C232.276 205.893 232.344 207.443 231.302 208.413C230.647 209.024 230.114 209.106 226.758 209.106C223.576 209.106 222.832 209.004 222.187 208.482C221.1 207.602 221.189 205.795 222.371 204.778C223.168 204.093 223.619 204.015 226.754 204.015C229.993 204.015 230.314 204.075 231.147 204.847Z" stroke="#519872" stroke-width="0.603677"/>
<path d="M232.927 192.294C233.659 193.295 233.521 195.054 232.647 195.868C231.985 196.485 231.535 196.56 229.011 196.475C226.169 196.38 226.12 196.364 225.372 195.251C224.642 194.167 224.634 194.078 225.173 192.949C225.846 191.537 226.483 191.342 229.873 191.514C231.926 191.618 232.548 191.776 232.927 192.294Z" stroke="#519872" stroke-width="0.603677"/>
</g>
<mask id="mask8_302_15" style="mask-type:alpha" maskUnits="userSpaceOnUse" x="154" y="124" width="74" height="181">
<path d="M227.156 124.816H154.099V304.651H227.156V124.816Z" fill="white"/>
<path d="M162.546 295C162.546 295.826 162.15 298.23 161.665 298.584C160.67 299.312 159.201 299.133 158.235 298.167C157.39 297.322 157.371 297.208 157.601 294.35C157.836 291.413 158.895 285.193 159.487 283.258C159.659 282.698 160.136 281.018 160.548 279.525C162.05 274.08 167.737 262.657 171.626 257.178C174.861 252.62 181.174 245.136 188.845 236.763C203.727 220.52 209.746 211.355 213.717 198.891C216.865 189.012 217.564 175.26 215.449 164.85C214.12 158.313 210.491 148.935 207.227 143.603C205.089 140.112 200.838 135.209 196.534 131.272C194.873 129.753 194.71 128.701 195.944 127.467C197.263 126.149 198.394 126.371 200.899 128.441C204.667 131.553 209.427 137.427 212.638 142.924C214.315 145.797 215.812 148.793 215.816 149.284C215.817 149.426 216.014 149.924 216.254 150.391C216.74 151.336 217.954 154.673 218.476 156.5C218.663 157.153 219.13 158.784 219.515 160.125C220.73 164.354 221.288 168.682 221.485 175.386C221.751 184.449 220.997 191.873 219.182 198.073C217.097 205.194 213.996 212.46 211.355 216.41C210.727 217.348 210.011 218.507 209.762 218.984C208.175 222.031 197.557 235.037 191.367 241.514C185.922 247.212 176.993 258.268 174.894 261.359C170.644 267.619 164.211 280.012 162.546 295Z" fill="black"/>
</mask>
<g mask="url(#mask8_302_15)">
<path d="M162.546 295C162.546 295.826 162.15 298.23 161.665 298.584C160.67 299.312 159.201 299.133 158.235 298.167C157.39 297.322 157.371 297.208 157.601 294.35C157.836 291.413 158.895 285.193 159.487 283.258C159.659 282.698 160.136 281.018 160.548 279.525C162.05 274.08 167.737 262.657 171.626 257.178C174.861 252.62 181.174 245.136 188.845 236.763C203.727 220.52 209.746 211.355 213.717 198.891C216.865 189.012 217.564 175.26 215.449 164.85C214.12 158.313 210.491 148.935 207.227 143.603C205.089 140.112 200.838 135.209 196.534 131.272C194.873 129.753 194.71 128.701 195.944 127.467C197.263 126.149 198.394 126.371 200.899 128.441C204.667 131.553 209.427 137.427 212.638 142.924C214.315 145.797 215.812 148.793 215.816 149.284C215.817 149.426 216.014 149.924 216.254 150.391C216.74 151.336 217.954 154.673 218.476 156.5C218.663 157.153 219.13 158.784 219.515 160.125C220.73 164.354 221.288 168.682 221.485 175.386C221.751 184.449 220.997 191.873 219.182 198.073C217.097 205.194 213.996 212.46 211.355 216.41C210.727 217.348 210.011 218.507 209.762 218.984C208.175 222.031 197.557 235.037 191.367 241.514C185.922 247.212 176.993 258.268 174.894 261.359C170.644 267.619 164.211 280.012 162.546 295Z" fill="#519872"/>
<path d="M162.546 295C162.546 295.826 162.15 298.23 161.665 298.584C160.67 299.312 159.201 299.133 158.235 298.167C157.39 297.322 157.371 297.208 157.601 294.35C157.836 291.413 158.895 285.193 159.487 283.258C159.659 282.698 160.136 281.018 160.548 279.525C162.05 274.08 167.737 262.657 171.626 257.178C174.861 252.62 181.174 245.136 188.845 236.763C203.727 220.52 209.746 211.355 213.717 198.891C216.865 189.012 217.564 175.26 215.449 164.85C214.12 158.313 210.491 148.935 207.227 143.603C205.089 140.112 200.838 135.209 196.534 131.272C194.873 129.753 194.71 128.701 195.944 127.467C197.263 126.149 198.394 126.371 200.899 128.441C204.667 131.553 209.427 137.427 212.638 142.924C214.315 145.797 215.812 148.793 215.816 149.284C215.817 149.426 216.014 149.924 216.254 150.391C216.74 151.336 217.954 154.673 218.476 156.5C218.663 157.153 219.13 158.784 219.515 160.125C220.73 164.354 221.288 168.682 221.485 175.386C221.751 184.449 220.997 191.873 219.182 198.073C217.097 205.194 213.996 212.46 211.355 216.41C210.727 217.348 210.011 218.507 209.762 218.984C208.175 222.031 197.557 235.037 191.367 241.514C185.922 247.212 176.993 258.268 174.894 261.359C170.644 267.619 164.211 280.012 162.546 295Z" stroke="#519872" stroke-width="0.603677"/>
</g>
<path d="M182 352C275.888 352 352 275.888 352 182C352 88.1116 275.888 12 182 12C88.1116 12 12 88.1116 12 182C12 275.888 88.1116 352 182 352Z" stroke="#519872" stroke-width="6.18772"/>
</svg>
