<svg width="239" height="125" viewBox="0 0 239 125" fill="none" xmlns="http://www.w3.org/2000/svg">
<path d="M157.252 23.8076C159.241 24.0285 159.336 21.9054 161.146 20.5466L168.756 39.388L195.931 51.7074H210.062C207.526 56.4177 204.265 57.7946 204.265 64.7514C204.265 71.7083 211.995 71.9981 218.034 74.1721C215.618 74.6553 210.135 76.0563 207.526 77.7955C204.265 79.9695 199.917 83.2305 199.917 88.6655V96.9992C200.159 98.5693 199.337 101.347 194.12 99.8979C188.902 98.4486 177.211 102.434 172.017 104.608C161.146 106.42 151 108.667 141.943 108.956C130.59 109.319 102.286 109.137 87.5026 104.789C72.7192 100.441 65.6115 107.628 62.9545 111.855C62.9545 107.024 60.9255 95.6224 52.8098 88.6655C49.0415 83.7378 50.0298 74.5345 50.995 70.5488L55.7062 61.1281C53.7738 59.6788 49.5667 48.055 54.5302 51.7074C59.3311 55.2402 57.1571 44.0984 55.7062 40.1127L59.694 37.2139L65.4913 43.0114C70.6849 43.4945 83.101 43.4462 91.2173 39.388C99.3336 35.3299 102.328 22.7206 102.811 16.9232L106.616 11.4882C109.877 16.9232 109.696 23.8076 118.301 23.8076C122.106 23.8076 123.736 21.6336 125.638 20.5466C125.397 22.479 125.058 27.0685 125.638 29.9673C126.351 33.5306 129.517 34.9913 134.102 37.1064L134.335 37.2139C139.045 39.388 143.031 36.8516 147.379 35.0399C150.857 33.5906 151.242 26.9478 151 23.8076L154.987 19.9125C155.984 21.7242 155.781 23.6441 157.252 23.8076Z" fill="white"/>
<path d="M146.282 18.2812C148.288 19.725 149.09 20.7677 150.133 22.5324C150.594 23.314 150.887 24.2729 151.015 24.8183C151.175 25.5001 151.215 26.8637 151.215 27.746C151.215 28.6283 150.895 30.3929 150.494 31.1549C150.092 31.9169 149.33 32.8794 148.609 33.7216C147.887 34.5639 146.162 35.4863 145.2 35.9274C144.237 36.3686 141.47 36.8498 140.427 36.8498C139.593 36.8498 138.048 36.7162 137.379 36.6493C136.457 36.5691 133.148 35.1855 131.684 33.7216C130.922 32.9597 129.639 31.1148 129.278 29.27C129.037 28.508 129.118 26.5429 129.278 25.3397C129.438 24.1366 130.802 21.7303 131.684 20.6875C132.567 19.6448 134.411 18.2812 135.775 17.7198C136.866 17.2706 139.705 16.8909 140.989 16.7572C142.085 16.784 144.678 17.1262 146.282 18.2812Z" fill="white"/>
<path d="M102.21 15.2735C102.21 14.1506 101.328 12.1052 100.486 11.0625C99.9642 10.1 97.8787 8.69629 96.074 8.69629C94.6302 8.7765 93.9083 8.7765 92.2239 9.5786C90.5395 10.3807 89.8978 10.7818 88.9353 11.8646C87.9728 12.9474 87.0103 13.9099 85.6868 15.5141C84.3633 17.1183 82.5586 18.4418 81.0346 19.8054C79.5106 21.1689 76.8236 22.6127 75.2595 23.495C73.6954 24.3773 71.6501 24.9789 69.0432 25.8612C66.4364 26.7435 64.8322 27.6258 63.6692 28.4279C62.5061 29.23 61.5837 29.992 60.6212 31.2353C59.6587 32.4786 59.7389 33.401 59.7389 34.4838C59.7389 35.5666 59.779 35.8474 60.2201 37.1708C60.6613 38.4943 61.1426 38.9355 62.1452 39.9782C63.1478 41.0209 64.752 42.0637 66.0755 42.585C67.3989 43.1064 69.2438 43.347 72.011 43.3871C74.7782 43.4272 77.5856 43.1866 79.5507 42.9861C81.5159 42.7855 84.6441 42.1439 86.5691 41.3819C88.4941 40.6199 91.2213 39.0157 92.7854 37.7724C94.3495 36.5292 95.713 35.0854 96.9563 33.2406C98.1995 31.3957 99.3225 28.8691 99.9642 27.5857C100.606 26.3024 101.207 24.6581 101.929 21.4898C102.507 18.9551 102.357 16.2895 102.21 15.2735Z" fill="white"/>
<path d="M203.875 5.52787C204.731 5.36745 207.39 5.40614 208.768 5.92893C210.146 6.45171 211.961 8.42346 212.698 9.7389C213.621 11.3832 214.784 15.0729 215.025 17.5193C215.265 19.9657 215.145 22.2116 214.463 27.345C213.781 32.4784 212.137 35.6467 210.132 40.9005C208.528 45.1035 205.56 49.3359 204.276 50.9267C202.865 52.5951 201.289 53.694 199.845 54.4159C198.441 54.9974 196.737 54.9372 194.731 54.5362C192.726 54.1351 190.24 52.932 189.037 52.2101C187.833 51.4882 184.144 49.0017 182.941 48.36C181.978 47.8467 175.641 43.9752 172.594 42.1036C170.604 40.4994 167.139 37.6921 166.016 36.0077C164.893 34.3233 163.028 30.8606 163.53 27.1846C163.77 25.4199 164.974 23.7355 166.016 22.372C167.059 21.0084 170.428 18.5219 171.952 17.6396C174.759 15.4739 192.486 8.41543 193.448 8.0946C194.218 7.83792 197.245 6.97166 198.662 6.57061L203.875 5.52787Z" fill="white"/>
<path d="M236.433 86.9411C238.807 89.0586 239 90.8814 239 91.8339C239 92.4054 238.807 93.3004 238.599 93.7589C238.198 94.6412 236.995 97.0475 235.711 99.2934C234.428 101.539 232.262 103.705 231.22 104.667C230.177 105.63 227.129 107.796 225.364 108.598C223.6 109.4 220.792 109.961 218.546 109.881C216.3 109.801 215.659 109.721 213.974 109.4C212.29 109.079 210.124 108.197 207.798 106.512C205.472 104.828 201.702 100.015 200.66 97.0475C199.617 94.0798 199.216 91.6735 199.857 87.8234C200.499 83.9733 203.627 81.2462 205.873 79.9628C208.119 78.6794 213.814 77.5565 215.659 77.6367C217.504 77.7169 220.552 77.8773 222.878 79.0805C225.204 80.2836 233.465 84.2941 236.433 86.9411Z" fill="white"/>
<path d="M176.521 51.2474C189.355 56.8942 194.541 65.4179 195.932 69.6957C196.437 71.2514 196.734 74.9254 196.734 76.5938C196.734 78.6792 195.771 79.1605 194.809 81.0855C193.846 83.0106 192.563 84.2939 190.638 86.5398C188.713 88.7857 185.825 90.5503 182.938 92.4754C180.05 94.4004 176.521 96.0046 170.425 98.4109C164.358 100.806 158.927 101.929 154.289 102.889L154.223 102.903C149.57 103.865 137.539 104.186 131.924 104.186C126.31 104.186 115.882 103.705 110.107 102.903C104.332 102.101 97.2735 101.298 90.5359 99.8547C83.7982 98.4109 72.7293 93.5983 70.6438 92.3149C68.5583 91.0316 65.3499 88.7857 63.2645 85.5773C61.179 82.3689 60.3769 79.0001 60.2165 77.7167C60.0561 76.4334 59.0936 72.2624 63.2645 66.0061C66.6012 61.001 77.9162 54.8301 83.1566 52.3704C90.8567 49.8037 109.145 43.8681 129.037 43.8681C139.517 43.9751 163.687 45.6006 176.521 51.2474Z" fill="white"/>
<path d="M24.6038 63.7602C27.6838 61.9635 37.1166 58.092 41.4479 56.3809L44.8568 55.4986C45.6723 55.3916 47.576 55.1938 48.6668 55.2579C50.0304 55.3381 50.5918 55.4584 51.795 56.3809C52.7575 57.1188 53.2655 58.0786 53.3992 58.4663C53.6265 59.7764 53.7762 62.8378 52.557 64.6024C51.9554 65.8456 51.4742 66.4873 50.5918 67.8108C49.7095 69.1343 48.3059 72.9041 48.3059 74.9495C48.3059 75.7917 48.2257 77.5028 48.3059 78.2782C48.3059 79.1204 48.1193 81.2269 48.8272 83.4517C49.4034 85.2625 49.7095 86.0987 50.1507 87.0211C50.5918 87.9435 50.9929 88.5451 51.5143 89.4274C52.0356 90.3097 52.557 90.9915 53.319 91.8337C54.081 92.6759 54.2013 93.1571 55.0034 94.0796C55.8055 95.002 56.2065 95.6838 56.9284 97.0473C57.6503 98.4109 58.0514 99.3333 58.5727 101.018C59.0941 102.702 59.1743 103.344 59.1743 105.068C59.1743 106.793 58.8936 107.795 58.5727 108.798C58.2519 109.801 57.8509 110.402 57.4097 111.124C56.9685 111.846 56.2065 112.688 55.1237 113.45C54.0409 114.212 53.1185 114.413 51.5945 115.054C50.0705 115.696 47.3835 116.177 46.3407 116.378C45.298 116.578 42.7714 116.699 41.488 116.659C40.4613 116.627 38.2261 116.458 37.2369 116.378C35.7129 116.177 34.7905 116.137 33.066 115.616C31.2736 115.074 28.3336 113.972 26.1278 113.25C23.922 112.528 20.2725 110.763 18.6282 110.001C16.9839 109.239 9.48423 104.988 7.83992 103.745C6.33197 102.847 3.923 100.189 2.90701 98.9724C2.33217 98.1168 1.06217 96.0287 0.580919 94.5207C0.0595456 92.7561 -0.100875 91.3524 0.0595449 89.4274C0.219963 87.5023 0.540821 86.5398 1.18249 84.6148C1.82417 82.6897 3.42837 80.4439 4.87215 78.3584C6.31593 76.2729 11.1285 72.4229 12.7327 70.9791C14.3369 69.5353 20.7537 66.0061 24.6038 63.7602Z" fill="white"/>
<path d="M141.053 14.0959L140.882 14.0917L140.712 14.1094C140.027 14.1808 138.941 14.316 137.871 14.4943C136.895 14.6571 135.624 14.9026 134.761 15.2582C133 15.9832 130.807 17.6025 129.651 18.9684C129.047 19.6818 128.385 20.7191 127.861 21.7C127.378 22.6045 126.786 23.8732 126.638 24.989C126.543 25.6993 126.476 26.597 126.464 27.4354C126.455 28.1051 126.471 29.0922 126.688 29.9029C127.205 32.3592 128.795 34.6003 129.801 35.6063L131.684 33.723L129.801 35.6063C130.855 36.6606 132.374 37.5284 133.584 38.1079C134.223 38.4137 134.856 38.6773 135.417 38.8759C135.899 39.0467 136.541 39.2476 137.126 39.3021C137.792 39.3684 139.448 39.5146 140.427 39.5146C141.203 39.5146 142.354 39.3557 143.331 39.1738C144.267 38.9995 145.496 38.7227 146.309 38.35L145.199 35.9287L146.309 38.35C146.866 38.0945 147.633 37.7058 148.38 37.2507C149.067 36.8322 149.982 36.2125 150.631 35.4563C151.35 34.6168 152.295 33.4525 152.85 32.3967C153.236 31.6632 153.475 30.7199 153.616 30.0231C153.765 29.2825 153.879 28.431 153.879 27.7473C153.879 26.9269 153.851 25.2453 153.607 24.2096C153.45 23.5391 153.081 22.2882 152.425 21.1787C151.233 19.1602 150.197 17.8188 147.839 16.121L146.282 18.2825L147.839 16.121C146.632 15.2527 145.2 14.7757 144.058 14.5055C142.887 14.2285 141.781 14.1136 141.053 14.0959Z" fill="#333333" stroke="white" stroke-width="5.32693"/>
<path d="M58.5152 29.6063L60.6212 31.2368L58.5152 29.6063C57.7922 30.5401 57.3871 31.4639 57.2036 32.4182C57.0633 33.1478 57.0702 33.8751 57.0743 34.3112C57.0749 34.3759 57.0755 34.4343 57.0755 34.4853C57.0755 35.0386 57.0822 35.5812 57.1908 36.1994C57.294 36.7868 57.4744 37.3575 57.6934 38.0146L60.2202 37.1723L57.6934 38.0146C57.9876 38.897 58.3374 39.599 58.8319 40.2666C59.2075 40.7736 59.6602 41.2414 60.0562 41.6506C60.1139 41.7102 60.1704 41.7686 60.2253 41.8257C61.5112 43.163 63.4441 44.4125 65.0993 45.0646C66.8935 45.7714 69.1441 46.0108 71.9725 46.0518L72.0111 43.3886L71.9725 46.0518C74.8978 46.0942 77.8285 45.8406 79.8212 45.6372C81.9473 45.4203 85.3309 44.738 87.5495 43.8598C89.7299 42.9967 92.6836 41.2572 94.4428 39.8589C96.2173 38.4484 97.7676 36.8041 99.1651 34.7305C100.275 33.0831 101.312 30.9248 101.959 29.5776C102.111 29.2605 102.242 28.9883 102.347 28.7783C103.118 27.2363 103.778 25.3684 104.526 22.0829C105.167 19.27 105.039 16.391 104.869 15.0605C104.824 14.0276 104.466 12.9389 104.122 12.115C103.76 11.246 103.261 10.3089 102.688 9.55727C102.064 8.56059 101.019 7.75054 100.098 7.21617C99.0433 6.60428 97.6046 6.03429 96.0741 6.03429H96.0001L95.9263 6.03839C95.855 6.04235 95.7822 6.0462 95.708 6.05012C95.1165 6.08136 94.4382 6.11719 93.7346 6.25299C92.8829 6.41735 92.0627 6.70685 91.0789 7.17533C90.2268 7.58107 89.4819 7.95678 88.8057 8.41906C88.0865 8.91079 87.5251 9.4435 86.9447 10.0965C86.6857 10.3879 86.4014 10.6964 86.0927 11.0315C85.3945 11.7891 84.5713 12.6825 83.6323 13.8206C82.8485 14.7707 81.945 15.5309 80.882 16.4252C80.3781 16.8491 79.8384 17.3032 79.2587 17.8219C78.1328 18.8293 76.1198 19.959 74.4754 20.8819C74.2956 20.9827 74.1203 21.0812 73.9509 21.1767C72.9069 21.7656 71.5975 22.2018 69.6271 22.8581C69.1829 23.0061 68.7052 23.1652 68.1894 23.3398L69.0433 25.8627L68.1894 23.3398C65.3698 24.2941 63.5406 25.2827 62.1571 26.2368C60.8503 27.138 59.6973 28.0794 58.5152 29.6063Z" fill="#333333" stroke="white" stroke-width="5.32693"/>
<path d="M203.385 2.91003L203.369 2.91298L203.353 2.91613L198.14 3.95886L198.037 3.97935L197.937 4.0078C196.557 4.39834 193.45 5.28637 192.606 5.56781C192.006 5.76784 187.232 7.65756 182.354 9.72252C179.889 10.7659 177.345 11.8762 175.229 12.8681C173.327 13.7598 171.496 14.6791 170.479 15.4161C169.582 15.9496 168.326 16.8246 167.171 17.7209C166.015 18.6179 164.656 19.7668 163.901 20.754C162.913 22.0461 161.241 24.2612 160.891 26.8247C160.252 31.508 162.593 35.6745 163.8 37.4851C164.578 38.6514 165.976 39.9819 167.213 41.0787C168.521 42.2382 169.93 43.3773 170.922 44.1769L171.055 44.2841L171.2 44.3734C174.186 46.2066 180.631 50.1467 181.688 50.7101L182.941 48.36L181.688 50.7101C182.164 50.9645 183.272 51.6689 184.541 52.4906C184.783 52.6471 185.029 52.807 185.274 52.9658C186.224 53.5827 187.147 54.1821 187.667 54.494C189 55.294 191.784 56.6629 194.209 57.1479C196.362 57.5784 198.714 57.7677 200.865 56.8765L200.952 56.8404L201.036 56.7981C202.756 55.9382 204.634 54.628 206.31 52.6472L206.33 52.6234L206.35 52.5991C207.728 50.8906 210.879 46.4121 212.62 41.8502C213.014 40.8197 213.404 39.8481 213.782 38.9063C215.24 35.2771 216.52 32.0924 217.104 27.6957C217.791 22.523 217.948 20.0248 217.676 17.2585C217.532 15.798 217.13 14.0807 216.666 12.5532C216.206 11.0433 215.619 9.50094 215.022 8.43579C214.508 7.5192 213.707 6.50821 212.863 5.65941C212.064 4.85453 210.941 3.90432 209.713 3.43859L208.769 5.92893L209.713 3.43859C208.634 3.02936 207.295 2.87228 206.281 2.81323C205.269 2.75429 204.134 2.76965 203.385 2.91003Z" fill="#333333" stroke="white" stroke-width="5.32693"/>
<path d="M236.039 91.8345C236.039 90.372 235.718 87.8246 233.095 85.0958C231.569 83.5083 228.895 81.6875 226.584 80.2211C224.813 79.0975 223.046 78.0542 221.88 77.3658C221.486 77.1334 221.161 76.9415 220.927 76.8005C218.308 75.2206 215.071 75.0569 213.551 74.98L213.497 74.9773C212.268 74.915 210.311 75.2734 208.626 75.7112C206.925 76.1531 204.852 76.8424 203.494 77.7471C201.201 79.2756 197.872 82.5827 197.177 87.4472C196.565 91.7266 196.959 94.5249 197.951 97.8165C198.506 99.6596 199.697 101.854 200.921 103.721C202.137 105.578 203.611 107.457 204.903 108.548C207.153 110.448 209.39 111.567 211.34 112.001C212.955 112.359 213.663 112.457 215.727 112.543C218.114 112.642 220.991 111.98 222.931 110.952C223.915 110.43 225.105 109.56 226.088 108.775C227.079 107.983 228.075 107.106 228.656 106.481C229.597 105.467 231.671 103.071 232.947 100.466C234.077 98.1607 235.139 95.686 235.513 94.7268C235.821 93.9361 236.039 92.7103 236.039 91.8345Z" fill="#333333" stroke="white" stroke-width="5.32693"/>
<path d="M43.2933 53.8333L43.1156 53.8872L42.9471 53.9654C41.0817 54.8301 38.1233 56.238 35.2941 57.6594C32.5261 59.0501 29.6944 60.5457 28.2078 61.5632L29.7122 63.7611L28.2078 61.5632C27.5516 62.0123 26.7421 62.5566 25.8819 63.135C24.7384 63.9038 23.5054 64.7329 22.4239 65.4787C20.5642 66.7612 18.5808 68.1777 17.6613 69.1487C17.3738 69.4523 16.9421 69.8843 16.394 70.4328C16.3503 70.4766 16.3058 70.5212 16.2606 70.5664C15.6643 71.1632 14.9691 71.8609 14.2748 72.5827C12.961 73.9487 11.402 75.6504 10.6023 77.0059C10.5135 77.1564 10.422 77.3108 10.3284 77.4687C9.21514 79.3472 7.80768 81.7222 7.19317 83.8757L7.19292 83.8765L7.18968 83.8879L7.18967 83.8879L7.17923 83.9247C6.62991 85.8583 6.29421 87.04 6.13799 89.2396C5.98093 91.4512 6.14409 93.138 6.65625 95.172L6.6624 95.1964L6.669 95.2207C7.17361 97.076 8.40295 99.4111 8.91009 100.297L8.97536 100.411L9.05152 100.518C9.51957 101.175 10.2933 102.202 11.1289 103.195C11.8728 104.078 12.8481 105.157 13.7708 105.836C14.6934 106.624 16.7126 108.035 18.5336 109.263C20.4588 110.561 22.5147 111.889 23.3472 112.342C23.5252 112.439 23.7439 112.559 23.9942 112.697C25.5304 113.544 28.2556 115.046 30.0562 115.737C30.8464 116.041 31.756 116.416 32.6892 116.801C32.8207 116.855 32.9527 116.909 33.0849 116.964C34.1234 117.392 35.1954 117.83 36.0335 118.127C37.4995 118.647 38.5128 118.789 39.4769 118.925C39.6762 118.953 39.8734 118.98 40.0721 119.011L40.1489 119.023L40.2263 119.03C41.0523 119.109 43.0372 119.286 44.0039 119.321C45.2122 119.366 47.6206 119.248 48.8234 118.977C48.8838 118.963 48.958 118.947 49.0443 118.928C49.989 118.72 52.3755 118.194 53.8943 117.443C54.1728 117.306 54.4287 117.189 54.6889 117.073C54.7337 117.053 54.7801 117.032 54.8278 117.011C55.0412 116.916 55.2789 116.811 55.5036 116.704C56.1016 116.419 56.7348 116.069 57.4182 115.505C58.5979 114.531 59.4815 113.414 60.0328 112.355C60.0663 112.291 60.1011 112.225 60.1368 112.157C60.4762 111.512 60.9043 110.699 61.2313 109.5C61.5419 108.361 61.8378 107.11 61.8378 105.069C61.8378 103.137 61.745 102.265 61.237 100.339C60.7539 98.5077 60.3619 97.4463 59.6881 95.9529C59.051 94.5408 58.6161 93.6504 57.7597 92.4947C57.5236 92.1761 57.3953 91.9492 57.2091 91.6191L57.2081 91.6173C57.0048 91.2569 56.7401 90.7875 56.2935 90.2082C55.7268 89.4733 55.3795 88.9343 55.025 88.2303C54.8922 87.9665 54.7768 87.7424 54.6729 87.5406C54.3866 86.9846 54.1874 86.5978 53.9506 86.0167C53.6385 85.2511 53.4118 84.5439 52.9268 82.7556C52.5218 81.2617 52.5482 79.8777 52.5679 78.8462C52.5717 78.6429 52.5754 78.4532 52.5754 78.2791V78.162L52.5651 78.0452C52.5298 77.6453 52.5437 76.9452 52.5584 76.2045C52.5667 75.7837 52.5754 75.3498 52.5754 74.9504C52.5754 74.3124 52.7878 73.1505 53.1633 71.8481C53.5372 70.5507 53.9555 69.5153 54.1759 69.1275L51.8601 67.8117L54.1759 69.1275C54.2918 68.9235 54.4026 68.7308 54.5096 68.5448C55.0317 67.6375 55.4617 66.8902 55.932 65.7751C56.6888 64.3912 56.9346 62.7725 57.014 61.5354C57.1008 60.1825 57.0092 58.9013 56.8874 58.0777L56.8603 57.8943L56.808 57.7163C56.5857 56.9598 55.9274 55.5358 54.6668 54.4017C54.0611 53.8568 53.4081 53.3538 52.5831 53.0276C51.7753 52.7082 51.0036 52.6432 50.4029 52.6017C49.1428 52.5147 47.2514 52.7618 46.5674 52.867L46.38 52.8959L46.1985 52.951L43.2933 53.8333ZM11.2215 98.9733C10.7316 98.1177 9.64924 96.0296 9.2391 94.5217L40.4785 116.379C40.2372 116.342 40.0136 116.31 39.8 116.28C38.864 116.147 38.1206 116.041 36.9239 115.617C36.0654 115.312 34.898 114.831 33.7063 114.339C32.7776 113.956 31.8343 113.567 31.011 113.251C29.4048 112.634 26.9003 111.256 25.331 110.392C25.0637 110.245 24.8235 110.113 24.6196 110.002C23.2182 109.24 16.8268 104.989 15.4255 103.746C14.1403 102.847 12.0873 100.19 11.2215 98.9733Z" fill="#333333" stroke="white" stroke-width="5.32693"/>
<path d="M176.521 51.248C189.355 56.8948 194.541 65.4184 195.932 69.6963C196.437 71.2519 196.734 74.926 196.734 76.5943C196.734 78.6798 195.771 79.161 194.809 81.0861C193.846 83.0111 192.563 84.2945 190.638 86.5404C188.713 88.7862 185.825 90.5509 182.938 92.4759C180.05 94.4009 176.521 96.0051 170.425 98.4114C164.358 100.806 158.927 101.93 154.289 102.889L154.223 102.903C149.57 103.866 137.539 104.187 131.924 104.187C126.309 104.187 115.882 103.705 110.107 102.903C104.332 102.101 97.2735 101.299 90.5358 99.8552C83.7982 98.4114 72.7292 93.5988 70.6437 92.3155C68.5583 91.0321 65.3499 88.7862 63.2644 85.5778C61.179 82.3694 60.3769 79.0006 60.2164 77.7173C60.056 76.4339 59.0935 72.263 63.2644 66.0066C66.6012 61.0015 77.9161 54.8307 83.1565 52.3709C90.8567 49.8042 109.145 43.8687 129.037 43.8687C139.517 43.9756 163.687 45.6012 176.521 51.248Z" fill="#333333"/>
<mask id="path-8-outside-1" maskUnits="userSpaceOnUse" x="66.1316" y="63.8438" width="124" height="33" fill="black">
<rect fill="white" x="66.1316" y="63.8438" width="124" height="33"/>
<path d="M74.1889 66.3806C72.4229 66.3806 70.9804 67.0142 69.8615 68.2814C68.7426 69.5486 68.1831 71.1057 68.1831 72.9526C68.1831 74.786 68.8167 76.3431 70.0839 77.6238C71.3512 78.9045 72.8947 79.5448 74.7147 79.5448C76.2785 79.5448 77.5794 79.3292 78.6175 78.8978V72.9526H79.5881V79.3426C78.4152 80.0706 76.7705 80.4346 74.654 80.4346C72.551 80.4346 70.7715 79.7134 69.3155 78.2709C67.8596 76.8149 67.1316 75.0422 67.1316 72.9526C67.1316 70.8496 67.7922 69.0835 69.1133 67.6546C70.4345 66.2121 72.1263 65.4908 74.1889 65.4908C75.8067 65.4908 77.4446 65.7605 79.1028 66.2997L78.8399 67.1086C77.2222 66.6233 75.6718 66.3806 74.1889 66.3806Z"/>
<path d="M86.2261 80.1919V65.7942C87.5068 65.6998 88.5786 65.6526 89.4414 65.6526C90.8164 65.6526 91.9488 66.0099 92.8386 66.7244C93.7283 67.4254 94.1732 68.423 94.1732 69.7172C94.1732 70.5934 93.9171 71.409 93.4048 72.164C92.8925 72.9189 92.3196 73.5188 91.686 73.9637C92.1848 74.6512 92.7982 75.4736 93.5261 76.4307C94.2676 77.3744 94.7462 77.9676 94.9619 78.2102C95.7842 79.0865 96.7144 79.5853 97.7524 79.7066L97.7322 80.3537C96.9099 80.3402 96.2426 80.2189 95.7303 79.9897C95.218 79.7471 94.7259 79.3831 94.2541 78.8978C93.7958 78.4124 92.6431 76.9026 90.7962 74.3681C89.4751 74.3681 88.2753 74.3277 87.1968 74.2468V80.1919H86.2261ZM90.2098 73.5593C90.803 73.5593 91.4366 73.1683 92.1106 72.3864C92.7847 71.6045 93.1217 70.7013 93.1217 69.6767C93.1217 68.6387 92.7712 67.8568 92.0702 67.331C91.3826 66.7918 90.4659 66.5221 89.32 66.5221C88.7134 66.5221 88.0056 66.5491 87.1968 66.603V73.4581C88.2753 73.5256 89.2796 73.5593 90.2098 73.5593Z"/>
<path d="M100.304 72.9526C100.304 70.8496 100.972 69.0835 102.306 67.6546C103.655 66.2121 105.353 65.4908 107.402 65.4908C108.845 65.4908 110.139 65.8751 111.285 66.6435L112.518 64.8438L113.165 65.3088L111.932 67.1086C112.754 67.7961 113.388 68.6454 113.833 69.6565C114.291 70.6676 114.52 71.7663 114.52 72.9526C114.52 75.0557 113.846 76.8284 112.498 78.2709C111.15 79.7134 109.451 80.4346 107.402 80.4346C105.96 80.4346 104.666 80.0504 103.52 79.282L102.306 81.0412L101.659 80.5964L102.893 78.8169C102.07 78.1159 101.43 77.2598 100.972 76.2487C100.527 75.2376 100.304 74.1389 100.304 72.9526ZM113.469 72.9526C113.469 70.8496 112.774 69.1577 111.386 67.877L104.045 78.5338C105.016 79.2078 106.135 79.5448 107.402 79.5448C109.195 79.5448 110.651 78.9112 111.77 77.644C112.903 76.3768 113.469 74.813 113.469 72.9526ZM107.402 66.3806C105.609 66.3806 104.153 67.0142 103.034 68.2814C101.915 69.5352 101.356 71.1529 101.356 73.1346C101.356 75.1028 102.044 76.734 103.419 78.0282L110.759 67.3917C109.788 66.7176 108.669 66.3806 107.402 66.3806Z"/>
<path d="M121.554 68.0388L121.594 69.7576V80.1919H120.623V65.6122H121.068L130.593 76.5925C131.24 77.3609 131.739 77.9743 132.089 78.4327C132.035 77.7856 132.008 77.0441 132.008 76.2083V65.7335H132.979V80.3133H132.534L122.828 69.1307C122.153 68.3623 121.722 67.85 121.533 67.5939L121.554 68.0388Z"/>
<path d="M139.935 80.1919V65.7335H146.649V66.5828H140.906V71.9011H146.103V72.7302H140.906V79.3426H146.871V80.1919H139.935Z"/>
<path d="M152.374 80.1919V65.7335H159.755V66.5828H153.345V71.9011H159.209V72.7302H153.345V80.1919H152.374Z"/>
<path d="M165.169 80.1919V65.7335H171.883V66.5828H166.14V71.9011H171.337V72.7302H166.14V79.3426H172.105V80.1919H165.169Z"/>
<path d="M182.239 79.4842C184.14 79.4842 185.664 78.9719 186.81 77.9473C187.969 76.9093 188.549 75.3522 188.549 73.2762C188.549 71.2001 187.895 69.5486 186.587 68.3219C185.293 67.0951 183.689 66.4817 181.774 66.4817C180.548 66.4817 179.483 66.5154 178.579 66.5828V79.3224C179.456 79.4303 180.676 79.4842 182.239 79.4842ZM181.774 65.5919C183.999 65.5919 185.859 66.2862 187.356 67.6748C188.852 69.0498 189.6 70.9237 189.6 73.2964C189.6 74.4962 189.405 75.5612 189.014 76.4914C188.636 77.4081 188.111 78.1428 187.436 78.6955C186.048 79.8145 184.316 80.3739 182.239 80.3739C180.878 80.3739 179.334 80.2998 177.609 80.1515V65.7335C178.984 65.6391 180.372 65.5919 181.774 65.5919Z"/>
<path d="M102.077 88.669L99.0612 92.1014C99.4646 92.5842 99.9276 93.1231 100.45 93.7183C100.979 94.3135 101.32 94.6806 101.472 94.8195C101.631 94.9583 101.753 95.0642 101.839 95.1369C101.931 95.203 102.07 95.2791 102.255 95.3651C102.441 95.4444 102.639 95.4973 102.851 95.5238L102.841 95.8412C102.444 95.8346 102.117 95.7751 101.859 95.6627C101.601 95.5436 101.376 95.3915 101.184 95.2063C100.992 95.0146 100.572 94.5516 99.9243 93.8175C99.2828 93.0768 98.8 92.5114 98.4759 92.1212L101.521 88.669H102.077ZM98.2875 88.669V95.7619H97.8113V88.669H98.2875Z"/>
<path d="M109.637 95.0774C109.181 95.6131 108.486 95.8809 107.554 95.8809C106.621 95.8809 105.924 95.6098 105.461 95.0675C105.004 94.5252 104.776 93.7845 104.776 92.8454V88.669H105.252V92.8454C105.252 94.5913 106.016 95.4643 107.544 95.4643C109.078 95.4643 109.845 94.5913 109.845 92.8454V88.669H110.322V92.8454C110.322 93.7911 110.093 94.5351 109.637 95.0774Z"/>
<path d="M113.75 95.7619V88.669H114.227V95.3254H117.49V95.7619H113.75Z"/>
<path d="M120.138 89.0857H117.737V88.669H123.014V89.0857H120.614V95.7619H120.138V89.0857Z"/>
<path d="M130.218 95.0774C129.762 95.6131 129.067 95.8809 128.135 95.8809C127.202 95.8809 126.505 95.6098 126.042 95.0675C125.585 94.5252 125.357 93.7845 125.357 92.8454V88.669H125.833V92.8454C125.833 94.5913 126.597 95.4643 128.125 95.4643C129.659 95.4643 130.426 94.5913 130.426 92.8454V88.669H130.903V92.8454C130.903 93.7911 130.674 94.5351 130.218 95.0774Z"/>
<path d="M134.331 95.7619V88.6988C134.96 88.6525 135.485 88.6294 135.909 88.6294C136.583 88.6294 137.139 88.8046 137.575 89.1551C138.012 89.499 138.23 89.9884 138.23 90.6233C138.23 91.0532 138.104 91.4533 137.853 91.8236C137.602 92.194 137.321 92.4883 137.01 92.7065C137.254 93.0438 137.555 93.4472 137.912 93.9167C138.276 94.3797 138.511 94.6707 138.617 94.7897C139.02 95.2196 139.476 95.4643 139.986 95.5238L139.976 95.8412C139.572 95.8346 139.245 95.7751 138.994 95.6627C138.742 95.5436 138.501 95.3651 138.27 95.127C138.045 94.8889 137.479 94.1482 136.573 92.9049C135.925 92.9049 135.337 92.8851 134.807 92.8454V95.7619H134.331ZM136.286 92.5081C136.577 92.5081 136.887 92.3163 137.218 91.9327C137.549 91.5492 137.714 91.1061 137.714 90.6035C137.714 90.0942 137.542 89.7107 137.198 89.4527C136.861 89.1882 136.411 89.0559 135.849 89.0559C135.551 89.0559 135.204 89.0692 134.807 89.0956V92.4585C135.337 92.4916 135.829 92.5081 136.286 92.5081Z"/>
<path d="M142.598 89.0857H140.197V88.669H145.475V89.0857H143.074V95.7619H142.598V89.0857Z"/>
<path d="M152.678 95.0774C152.222 95.6131 151.528 95.8809 150.595 95.8809C149.663 95.8809 148.965 95.6098 148.502 95.0675C148.046 94.5252 147.818 93.7845 147.818 92.8454V88.669H148.294V92.8454C148.294 94.5913 149.058 95.4643 150.585 95.4643C152.12 95.4643 152.887 94.5913 152.887 92.8454V88.669H153.363V92.8454C153.363 93.7911 153.135 94.5351 152.678 95.0774Z"/>
<path d="M157.248 89.7999L157.268 90.6431V95.7619H156.792V88.6095H157.01L161.682 93.9961C162 94.3731 162.244 94.674 162.416 94.8988C162.39 94.5814 162.377 94.2177 162.377 93.8076V88.669H162.853V95.8214H162.635L157.873 90.3356C157.542 89.9587 157.331 89.7073 157.238 89.5817L157.248 89.7999Z"/>
</mask>
<path d="M74.1889 66.3806C72.4229 66.3806 70.9804 67.0142 69.8615 68.2814C68.7426 69.5486 68.1831 71.1057 68.1831 72.9526C68.1831 74.786 68.8167 76.3431 70.0839 77.6238C71.3512 78.9045 72.8947 79.5448 74.7147 79.5448C76.2785 79.5448 77.5794 79.3292 78.6175 78.8978V72.9526H79.5881V79.3426C78.4152 80.0706 76.7705 80.4346 74.654 80.4346C72.551 80.4346 70.7715 79.7134 69.3155 78.2709C67.8596 76.8149 67.1316 75.0422 67.1316 72.9526C67.1316 70.8496 67.7922 69.0835 69.1133 67.6546C70.4345 66.2121 72.1263 65.4908 74.1889 65.4908C75.8067 65.4908 77.4446 65.7605 79.1028 66.2997L78.8399 67.1086C77.2222 66.6233 75.6718 66.3806 74.1889 66.3806Z" fill="white"/>
<path d="M86.2261 80.1919V65.7942C87.5068 65.6998 88.5786 65.6526 89.4414 65.6526C90.8164 65.6526 91.9488 66.0099 92.8386 66.7244C93.7283 67.4254 94.1732 68.423 94.1732 69.7172C94.1732 70.5934 93.9171 71.409 93.4048 72.164C92.8925 72.9189 92.3196 73.5188 91.686 73.9637C92.1848 74.6512 92.7982 75.4736 93.5261 76.4307C94.2676 77.3744 94.7462 77.9676 94.9619 78.2102C95.7842 79.0865 96.7144 79.5853 97.7524 79.7066L97.7322 80.3537C96.9099 80.3402 96.2426 80.2189 95.7303 79.9897C95.218 79.7471 94.7259 79.3831 94.2541 78.8978C93.7958 78.4124 92.6431 76.9026 90.7962 74.3681C89.4751 74.3681 88.2753 74.3277 87.1968 74.2468V80.1919H86.2261ZM90.2098 73.5593C90.803 73.5593 91.4366 73.1683 92.1106 72.3864C92.7847 71.6045 93.1217 70.7013 93.1217 69.6767C93.1217 68.6387 92.7712 67.8568 92.0702 67.331C91.3826 66.7918 90.4659 66.5221 89.32 66.5221C88.7134 66.5221 88.0056 66.5491 87.1968 66.603V73.4581C88.2753 73.5256 89.2796 73.5593 90.2098 73.5593Z" fill="white"/>
<path d="M100.304 72.9526C100.304 70.8496 100.972 69.0835 102.306 67.6546C103.655 66.2121 105.353 65.4908 107.402 65.4908C108.845 65.4908 110.139 65.8751 111.285 66.6435L112.518 64.8438L113.165 65.3088L111.932 67.1086C112.754 67.7961 113.388 68.6454 113.833 69.6565C114.291 70.6676 114.52 71.7663 114.52 72.9526C114.52 75.0557 113.846 76.8284 112.498 78.2709C111.15 79.7134 109.451 80.4346 107.402 80.4346C105.96 80.4346 104.666 80.0504 103.52 79.282L102.306 81.0412L101.659 80.5964L102.893 78.8169C102.07 78.1159 101.43 77.2598 100.972 76.2487C100.527 75.2376 100.304 74.1389 100.304 72.9526ZM113.469 72.9526C113.469 70.8496 112.774 69.1577 111.386 67.877L104.045 78.5338C105.016 79.2078 106.135 79.5448 107.402 79.5448C109.195 79.5448 110.651 78.9112 111.77 77.644C112.903 76.3768 113.469 74.813 113.469 72.9526ZM107.402 66.3806C105.609 66.3806 104.153 67.0142 103.034 68.2814C101.915 69.5352 101.356 71.1529 101.356 73.1346C101.356 75.1028 102.044 76.734 103.419 78.0282L110.759 67.3917C109.788 66.7176 108.669 66.3806 107.402 66.3806Z" fill="white"/>
<path d="M121.554 68.0388L121.594 69.7576V80.1919H120.623V65.6122H121.068L130.593 76.5925C131.24 77.3609 131.739 77.9743 132.089 78.4327C132.035 77.7856 132.008 77.0441 132.008 76.2083V65.7335H132.979V80.3133H132.534L122.828 69.1307C122.153 68.3623 121.722 67.85 121.533 67.5939L121.554 68.0388Z" fill="white"/>
<path d="M139.935 80.1919V65.7335H146.649V66.5828H140.906V71.9011H146.103V72.7302H140.906V79.3426H146.871V80.1919H139.935Z" fill="white"/>
<path d="M152.374 80.1919V65.7335H159.755V66.5828H153.345V71.9011H159.209V72.7302H153.345V80.1919H152.374Z" fill="white"/>
<path d="M165.169 80.1919V65.7335H171.883V66.5828H166.14V71.9011H171.337V72.7302H166.14V79.3426H172.105V80.1919H165.169Z" fill="white"/>
<path d="M182.239 79.4842C184.14 79.4842 185.664 78.9719 186.81 77.9473C187.969 76.9093 188.549 75.3522 188.549 73.2762C188.549 71.2001 187.895 69.5486 186.587 68.3219C185.293 67.0951 183.689 66.4817 181.774 66.4817C180.548 66.4817 179.483 66.5154 178.579 66.5828V79.3224C179.456 79.4303 180.676 79.4842 182.239 79.4842ZM181.774 65.5919C183.999 65.5919 185.859 66.2862 187.356 67.6748C188.852 69.0498 189.6 70.9237 189.6 73.2964C189.6 74.4962 189.405 75.5612 189.014 76.4914C188.636 77.4081 188.111 78.1428 187.436 78.6955C186.048 79.8145 184.316 80.3739 182.239 80.3739C180.878 80.3739 179.334 80.2998 177.609 80.1515V65.7335C178.984 65.6391 180.372 65.5919 181.774 65.5919Z" fill="white"/>
<path d="M102.077 88.669L99.0612 92.1014C99.4646 92.5842 99.9276 93.1231 100.45 93.7183C100.979 94.3135 101.32 94.6806 101.472 94.8195C101.631 94.9583 101.753 95.0642 101.839 95.1369C101.931 95.203 102.07 95.2791 102.255 95.3651C102.441 95.4444 102.639 95.4973 102.851 95.5238L102.841 95.8412C102.444 95.8346 102.117 95.7751 101.859 95.6627C101.601 95.5436 101.376 95.3915 101.184 95.2063C100.992 95.0146 100.572 94.5516 99.9243 93.8175C99.2828 93.0768 98.8 92.5114 98.4759 92.1212L101.521 88.669H102.077ZM98.2875 88.669V95.7619H97.8113V88.669H98.2875Z" fill="white"/>
<path d="M109.637 95.0774C109.181 95.6131 108.486 95.8809 107.554 95.8809C106.621 95.8809 105.924 95.6098 105.461 95.0675C105.004 94.5252 104.776 93.7845 104.776 92.8454V88.669H105.252V92.8454C105.252 94.5913 106.016 95.4643 107.544 95.4643C109.078 95.4643 109.845 94.5913 109.845 92.8454V88.669H110.322V92.8454C110.322 93.7911 110.093 94.5351 109.637 95.0774Z" fill="white"/>
<path d="M113.75 95.7619V88.669H114.227V95.3254H117.49V95.7619H113.75Z" fill="white"/>
<path d="M120.138 89.0857H117.737V88.669H123.014V89.0857H120.614V95.7619H120.138V89.0857Z" fill="white"/>
<path d="M130.218 95.0774C129.762 95.6131 129.067 95.8809 128.135 95.8809C127.202 95.8809 126.505 95.6098 126.042 95.0675C125.585 94.5252 125.357 93.7845 125.357 92.8454V88.669H125.833V92.8454C125.833 94.5913 126.597 95.4643 128.125 95.4643C129.659 95.4643 130.426 94.5913 130.426 92.8454V88.669H130.903V92.8454C130.903 93.7911 130.674 94.5351 130.218 95.0774Z" fill="white"/>
<path d="M134.331 95.7619V88.6988C134.96 88.6525 135.485 88.6294 135.909 88.6294C136.583 88.6294 137.139 88.8046 137.575 89.1551C138.012 89.499 138.23 89.9884 138.23 90.6233C138.23 91.0532 138.104 91.4533 137.853 91.8236C137.602 92.194 137.321 92.4883 137.01 92.7065C137.254 93.0438 137.555 93.4472 137.912 93.9167C138.276 94.3797 138.511 94.6707 138.617 94.7897C139.02 95.2196 139.476 95.4643 139.986 95.5238L139.976 95.8412C139.572 95.8346 139.245 95.7751 138.994 95.6627C138.742 95.5436 138.501 95.3651 138.27 95.127C138.045 94.8889 137.479 94.1482 136.573 92.9049C135.925 92.9049 135.337 92.8851 134.807 92.8454V95.7619H134.331ZM136.286 92.5081C136.577 92.5081 136.887 92.3163 137.218 91.9327C137.549 91.5492 137.714 91.1061 137.714 90.6035C137.714 90.0942 137.542 89.7107 137.198 89.4527C136.861 89.1882 136.411 89.0559 135.849 89.0559C135.551 89.0559 135.204 89.0692 134.807 89.0956V92.4585C135.337 92.4916 135.829 92.5081 136.286 92.5081Z" fill="white"/>
<path d="M142.598 89.0857H140.197V88.669H145.475V89.0857H143.074V95.7619H142.598V89.0857Z" fill="white"/>
<path d="M152.678 95.0774C152.222 95.6131 151.528 95.8809 150.595 95.8809C149.663 95.8809 148.965 95.6098 148.502 95.0675C148.046 94.5252 147.818 93.7845 147.818 92.8454V88.669H148.294V92.8454C148.294 94.5913 149.058 95.4643 150.585 95.4643C152.12 95.4643 152.887 94.5913 152.887 92.8454V88.669H153.363V92.8454C153.363 93.7911 153.135 94.5351 152.678 95.0774Z" fill="white"/>
<path d="M157.248 89.7999L157.268 90.6431V95.7619H156.792V88.6095H157.01L161.682 93.9961C162 94.3731 162.244 94.674 162.416 94.8988C162.39 94.5814 162.377 94.2177 162.377 93.8076V88.669H162.853V95.8214H162.635L157.873 90.3356C157.542 89.9587 157.331 89.7073 157.238 89.5817L157.248 89.7999Z" fill="white"/>
<path d="M74.1889 66.3806C72.4229 66.3806 70.9804 67.0142 69.8615 68.2814C68.7426 69.5486 68.1831 71.1057 68.1831 72.9526C68.1831 74.786 68.8167 76.3431 70.0839 77.6238C71.3512 78.9045 72.8947 79.5448 74.7147 79.5448C76.2785 79.5448 77.5794 79.3292 78.6175 78.8978V72.9526H79.5881V79.3426C78.4152 80.0706 76.7705 80.4346 74.654 80.4346C72.551 80.4346 70.7715 79.7134 69.3155 78.2709C67.8596 76.8149 67.1316 75.0422 67.1316 72.9526C67.1316 70.8496 67.7922 69.0835 69.1133 67.6546C70.4345 66.2121 72.1263 65.4908 74.1889 65.4908C75.8067 65.4908 77.4446 65.7605 79.1028 66.2997L78.8399 67.1086C77.2222 66.6233 75.6718 66.3806 74.1889 66.3806Z" stroke="white" stroke-width="0.848349" mask="url(#path-8-outside-1)"/>
<path d="M86.2261 80.1919V65.7942C87.5068 65.6998 88.5786 65.6526 89.4414 65.6526C90.8164 65.6526 91.9488 66.0099 92.8386 66.7244C93.7283 67.4254 94.1732 68.423 94.1732 69.7172C94.1732 70.5934 93.9171 71.409 93.4048 72.164C92.8925 72.9189 92.3196 73.5188 91.686 73.9637C92.1848 74.6512 92.7982 75.4736 93.5261 76.4307C94.2676 77.3744 94.7462 77.9676 94.9619 78.2102C95.7842 79.0865 96.7144 79.5853 97.7524 79.7066L97.7322 80.3537C96.9099 80.3402 96.2426 80.2189 95.7303 79.9897C95.218 79.7471 94.7259 79.3831 94.2541 78.8978C93.7958 78.4124 92.6431 76.9026 90.7962 74.3681C89.4751 74.3681 88.2753 74.3277 87.1968 74.2468V80.1919H86.2261ZM90.2098 73.5593C90.803 73.5593 91.4366 73.1683 92.1106 72.3864C92.7847 71.6045 93.1217 70.7013 93.1217 69.6767C93.1217 68.6387 92.7712 67.8568 92.0702 67.331C91.3826 66.7918 90.4659 66.5221 89.32 66.5221C88.7134 66.5221 88.0056 66.5491 87.1968 66.603V73.4581C88.2753 73.5256 89.2796 73.5593 90.2098 73.5593Z" stroke="white" stroke-width="0.848349" mask="url(#path-8-outside-1)"/>
<path d="M100.304 72.9526C100.304 70.8496 100.972 69.0835 102.306 67.6546C103.655 66.2121 105.353 65.4908 107.402 65.4908C108.845 65.4908 110.139 65.8751 111.285 66.6435L112.518 64.8438L113.165 65.3088L111.932 67.1086C112.754 67.7961 113.388 68.6454 113.833 69.6565C114.291 70.6676 114.52 71.7663 114.52 72.9526C114.52 75.0557 113.846 76.8284 112.498 78.2709C111.15 79.7134 109.451 80.4346 107.402 80.4346C105.96 80.4346 104.666 80.0504 103.52 79.282L102.306 81.0412L101.659 80.5964L102.893 78.8169C102.07 78.1159 101.43 77.2598 100.972 76.2487C100.527 75.2376 100.304 74.1389 100.304 72.9526ZM113.469 72.9526C113.469 70.8496 112.774 69.1577 111.386 67.877L104.045 78.5338C105.016 79.2078 106.135 79.5448 107.402 79.5448C109.195 79.5448 110.651 78.9112 111.77 77.644C112.903 76.3768 113.469 74.813 113.469 72.9526ZM107.402 66.3806C105.609 66.3806 104.153 67.0142 103.034 68.2814C101.915 69.5352 101.356 71.1529 101.356 73.1346C101.356 75.1028 102.044 76.734 103.419 78.0282L110.759 67.3917C109.788 66.7176 108.669 66.3806 107.402 66.3806Z" stroke="white" stroke-width="0.848349" mask="url(#path-8-outside-1)"/>
<path d="M121.554 68.0388L121.594 69.7576V80.1919H120.623V65.6122H121.068L130.593 76.5925C131.24 77.3609 131.739 77.9743 132.089 78.4327C132.035 77.7856 132.008 77.0441 132.008 76.2083V65.7335H132.979V80.3133H132.534L122.828 69.1307C122.153 68.3623 121.722 67.85 121.533 67.5939L121.554 68.0388Z" stroke="white" stroke-width="0.848349" mask="url(#path-8-outside-1)"/>
<path d="M139.935 80.1919V65.7335H146.649V66.5828H140.906V71.9011H146.103V72.7302H140.906V79.3426H146.871V80.1919H139.935Z" stroke="white" stroke-width="0.848349" mask="url(#path-8-outside-1)"/>
<path d="M152.374 80.1919V65.7335H159.755V66.5828H153.345V71.9011H159.209V72.7302H153.345V80.1919H152.374Z" stroke="white" stroke-width="0.848349" mask="url(#path-8-outside-1)"/>
<path d="M165.169 80.1919V65.7335H171.883V66.5828H166.14V71.9011H171.337V72.7302H166.14V79.3426H172.105V80.1919H165.169Z" stroke="white" stroke-width="0.848349" mask="url(#path-8-outside-1)"/>
<path d="M182.239 79.4842C184.14 79.4842 185.664 78.9719 186.81 77.9473C187.969 76.9093 188.549 75.3522 188.549 73.2762C188.549 71.2001 187.895 69.5486 186.587 68.3219C185.293 67.0951 183.689 66.4817 181.774 66.4817C180.548 66.4817 179.483 66.5154 178.579 66.5828V79.3224C179.456 79.4303 180.676 79.4842 182.239 79.4842ZM181.774 65.5919C183.999 65.5919 185.859 66.2862 187.356 67.6748C188.852 69.0498 189.6 70.9237 189.6 73.2964C189.6 74.4962 189.405 75.5612 189.014 76.4914C188.636 77.4081 188.111 78.1428 187.436 78.6955C186.048 79.8145 184.316 80.3739 182.239 80.3739C180.878 80.3739 179.334 80.2998 177.609 80.1515V65.7335C178.984 65.6391 180.372 65.5919 181.774 65.5919Z" stroke="white" stroke-width="0.848349" mask="url(#path-8-outside-1)"/>
<path d="M102.077 88.669L99.0612 92.1014C99.4646 92.5842 99.9276 93.1231 100.45 93.7183C100.979 94.3135 101.32 94.6806 101.472 94.8195C101.631 94.9583 101.753 95.0642 101.839 95.1369C101.931 95.203 102.07 95.2791 102.255 95.3651C102.441 95.4444 102.639 95.4973 102.851 95.5238L102.841 95.8412C102.444 95.8346 102.117 95.7751 101.859 95.6627C101.601 95.5436 101.376 95.3915 101.184 95.2063C100.992 95.0146 100.572 94.5516 99.9243 93.8175C99.2828 93.0768 98.8 92.5114 98.4759 92.1212L101.521 88.669H102.077ZM98.2875 88.669V95.7619H97.8113V88.669H98.2875Z" stroke="white" stroke-width="0.848349" mask="url(#path-8-outside-1)"/>
<path d="M109.637 95.0774C109.181 95.6131 108.486 95.8809 107.554 95.8809C106.621 95.8809 105.924 95.6098 105.461 95.0675C105.004 94.5252 104.776 93.7845 104.776 92.8454V88.669H105.252V92.8454C105.252 94.5913 106.016 95.4643 107.544 95.4643C109.078 95.4643 109.845 94.5913 109.845 92.8454V88.669H110.322V92.8454C110.322 93.7911 110.093 94.5351 109.637 95.0774Z" stroke="white" stroke-width="0.848349" mask="url(#path-8-outside-1)"/>
<path d="M113.75 95.7619V88.669H114.227V95.3254H117.49V95.7619H113.75Z" stroke="white" stroke-width="0.848349" mask="url(#path-8-outside-1)"/>
<path d="M120.138 89.0857H117.737V88.669H123.014V89.0857H120.614V95.7619H120.138V89.0857Z" stroke="white" stroke-width="0.848349" mask="url(#path-8-outside-1)"/>
<path d="M130.218 95.0774C129.762 95.6131 129.067 95.8809 128.135 95.8809C127.202 95.8809 126.505 95.6098 126.042 95.0675C125.585 94.5252 125.357 93.7845 125.357 92.8454V88.669H125.833V92.8454C125.833 94.5913 126.597 95.4643 128.125 95.4643C129.659 95.4643 130.426 94.5913 130.426 92.8454V88.669H130.903V92.8454C130.903 93.7911 130.674 94.5351 130.218 95.0774Z" stroke="white" stroke-width="0.848349" mask="url(#path-8-outside-1)"/>
<path d="M134.331 95.7619V88.6988C134.96 88.6525 135.485 88.6294 135.909 88.6294C136.583 88.6294 137.139 88.8046 137.575 89.1551C138.012 89.499 138.23 89.9884 138.23 90.6233C138.23 91.0532 138.104 91.4533 137.853 91.8236C137.602 92.194 137.321 92.4883 137.01 92.7065C137.254 93.0438 137.555 93.4472 137.912 93.9167C138.276 94.3797 138.511 94.6707 138.617 94.7897C139.02 95.2196 139.476 95.4643 139.986 95.5238L139.976 95.8412C139.572 95.8346 139.245 95.7751 138.994 95.6627C138.742 95.5436 138.501 95.3651 138.27 95.127C138.045 94.8889 137.479 94.1482 136.573 92.9049C135.925 92.9049 135.337 92.8851 134.807 92.8454V95.7619H134.331ZM136.286 92.5081C136.577 92.5081 136.887 92.3163 137.218 91.9327C137.549 91.5492 137.714 91.1061 137.714 90.6035C137.714 90.0942 137.542 89.7107 137.198 89.4527C136.861 89.1882 136.411 89.0559 135.849 89.0559C135.551 89.0559 135.204 89.0692 134.807 89.0956V92.4585C135.337 92.4916 135.829 92.5081 136.286 92.5081Z" stroke="white" stroke-width="0.848349" mask="url(#path-8-outside-1)"/>
<path d="M142.598 89.0857H140.197V88.669H145.475V89.0857H143.074V95.7619H142.598V89.0857Z" stroke="white" stroke-width="0.848349" mask="url(#path-8-outside-1)"/>
<path d="M152.678 95.0774C152.222 95.6131 151.528 95.8809 150.595 95.8809C149.663 95.8809 148.965 95.6098 148.502 95.0675C148.046 94.5252 147.818 93.7845 147.818 92.8454V88.669H148.294V92.8454C148.294 94.5913 149.058 95.4643 150.585 95.4643C152.12 95.4643 152.887 94.5913 152.887 92.8454V88.669H153.363V92.8454C153.363 93.7911 153.135 94.5351 152.678 95.0774Z" stroke="white" stroke-width="0.848349" mask="url(#path-8-outside-1)"/>
<path d="M157.248 89.7999L157.268 90.6431V95.7619H156.792V88.6095H157.01L161.682 93.9961C162 94.3731 162.244 94.674 162.416 94.8988C162.39 94.5814 162.377 94.2177 162.377 93.8076V88.669H162.853V95.8214H162.635L157.873 90.3356C157.542 89.9587 157.331 89.7073 157.238 89.5817L157.248 89.7999Z" stroke="white" stroke-width="0.848349" mask="url(#path-8-outside-1)"/>
</svg>
