<svg width="365" height="364" viewBox="0 0 365 364" fill="none" xmlns="http://www.w3.org/2000/svg">
<g clip-path="url(#clip0)">
<path d="M182.682 363.571C282.976 363.571 364.279 282.267 364.279 181.974C364.279 81.6804 282.976 0.376465 182.682 0.376465C82.3885 0.376465 1.08459 81.6804 1.08459 181.974C1.08459 282.267 82.3885 363.571 182.682 363.571Z" fill="white"/>
</g>
<path d="M211.56 88.9705L211.277 88.9636L210.996 88.9929C209.862 89.111 208.067 89.3345 206.297 89.6294C204.682 89.8987 202.581 90.3047 201.152 90.8929C198.241 92.0919 194.613 94.7701 192.701 97.0291C191.703 98.2091 190.607 99.9246 189.741 101.547C188.942 103.043 187.964 105.141 187.718 106.987C187.561 108.161 187.45 109.646 187.431 111.033C187.416 112.14 187.442 113.773 187.802 115.114C188.657 119.176 191.285 122.883 192.949 124.547C194.693 126.29 197.205 127.725 199.207 128.684C200.263 129.19 201.31 129.626 202.238 129.954C203.036 130.237 204.096 130.569 205.065 130.659C206.165 130.769 208.904 131.01 210.524 131.01C211.808 131.01 213.711 130.748 215.327 130.447C216.875 130.159 218.908 129.701 220.253 129.084C221.174 128.662 222.442 128.019 223.678 127.266C224.813 126.574 226.328 125.549 227.4 124.298C228.59 122.91 230.152 120.984 231.071 119.238C231.709 118.025 232.104 116.465 232.337 115.313C232.583 114.088 232.772 112.679 232.772 111.549C232.772 110.192 232.726 107.41 232.323 105.698C232.062 104.589 231.452 102.52 230.368 100.685L226.576 102.926L230.368 100.685C228.395 97.3463 226.682 95.1279 222.782 92.3199C220.787 90.8837 218.418 90.0949 216.529 89.648C214.593 89.1899 212.763 88.9998 211.56 88.9705Z" fill="#633E38" stroke="white" stroke-width="8.81019"/>
<path d="M137.169 75.6371H137.047L136.924 75.6439C136.807 75.6505 136.686 75.6568 136.563 75.6633C135.585 75.715 134.463 75.7743 133.3 75.9989C131.891 76.2707 130.534 76.7495 128.907 77.5243C127.498 78.1954 126.266 78.8167 125.148 79.5813C123.958 80.3946 123.03 81.2756 122.07 82.3557C121.641 82.8376 121.171 83.3478 120.661 83.9019C119.506 85.155 118.145 86.6325 116.592 88.5149C115.295 90.0863 113.801 91.3436 112.043 92.8226C111.209 93.5238 110.317 94.2747 109.358 95.1326C107.496 96.7988 104.167 98.6672 101.447 100.193C101.15 100.36 100.86 100.523 100.58 100.681C98.8528 101.655 96.6871 102.377 93.4283 103.462C92.6938 103.707 91.9037 103.97 91.0505 104.259C86.3872 105.837 83.3618 107.472 81.0737 109.05C78.9125 110.541 77.0054 112.097 75.0504 114.623C73.8547 116.167 73.1847 117.695 72.8812 119.273C72.6491 120.48 72.6605 121.683 72.6673 122.404C72.6684 122.511 72.6693 122.608 72.6693 122.692C72.6693 123.607 72.6805 124.505 72.8601 125.527C73.0307 126.499 73.3291 127.443 73.6913 128.529C74.1777 129.989 74.7563 131.15 75.5743 132.254C76.1954 133.092 76.9442 133.866 77.5991 134.543C77.6945 134.641 77.788 134.738 77.8788 134.832C80.0055 137.044 83.2023 139.111 85.9398 140.189C88.9073 141.358 92.6295 141.754 97.3073 141.822C102.146 141.892 106.993 141.473 110.288 141.136C113.805 140.777 119.401 139.649 123.07 138.197C126.676 136.769 131.561 133.892 134.471 131.58C137.406 129.247 139.97 126.527 142.281 123.098C144.117 120.373 145.831 116.803 146.901 114.575C147.153 114.051 147.369 113.601 147.543 113.253C148.818 110.703 149.91 107.614 151.148 102.18C152.208 97.5276 151.996 92.766 151.714 90.5656C151.64 88.8573 151.048 87.0566 150.48 85.694C149.881 84.2568 149.055 82.7068 148.108 81.4638C147.075 79.8154 145.347 78.4756 143.824 77.5919C142.08 76.5799 139.7 75.6371 137.169 75.6371Z" fill="#DE1935" stroke="white" stroke-width="8.81019"/>
<path d="M296.634 89.1252L296.607 89.1301L296.581 89.1353L291.554 90.1407L291.385 90.1745L291.219 90.2216C289.914 90.5909 286.864 91.4622 285.998 91.7506C285.338 91.9708 280.664 93.8238 275.978 95.8076C273.592 96.8176 271.115 97.8983 269.045 98.8689C267.301 99.6865 265.409 100.621 264.238 101.45C263.292 102.019 262.049 102.891 260.929 103.76C259.819 104.621 258.332 105.857 257.443 107.02L257.41 107.062C256.483 108.274 254.587 110.753 254.18 113.741C253.469 118.951 256.055 123.454 257.276 125.287C258.175 126.635 259.697 128.061 260.877 129.107C262.174 130.257 263.564 131.381 264.518 132.15L264.738 132.327L264.978 132.475C267.814 134.216 274.104 138.062 275.187 138.64C275.561 138.84 276.549 139.465 277.805 140.278C278.027 140.422 278.257 140.571 278.488 140.721C279.407 141.318 280.339 141.923 280.871 142.243C282.247 143.068 285.137 144.502 287.765 145.028C289.942 145.463 292.656 145.735 295.245 144.662L295.389 144.602L295.529 144.532C297.378 143.608 299.396 142.199 301.195 140.074L301.228 140.034L301.261 139.994C302.655 138.266 305.82 133.778 307.593 129.132C307.95 128.197 308.312 127.298 308.669 126.411C310.087 122.884 311.424 119.56 312.021 115.071C312.687 110.056 312.863 107.473 312.579 104.586C312.425 103.014 312.003 101.232 311.535 99.6939C311.076 98.1856 310.465 96.5545 309.794 95.3599C309.198 94.2975 308.314 93.1923 307.414 92.2869C306.587 91.4542 305.281 90.3127 303.725 89.7228C302.416 89.2262 300.897 89.0632 299.871 89.0035C298.848 88.9439 297.577 88.9483 296.634 89.1252Z" fill="#93AE29" stroke="white" stroke-width="8.81019"/>
<path d="M355.197 209.821C355.197 207.681 354.715 204.001 350.971 200.107C348.819 197.868 345.1 195.343 341.963 193.352C339.539 191.814 337.111 190.38 335.524 189.444C334.993 189.13 334.557 188.873 334.246 188.685C330.511 186.432 325.938 186.202 323.872 186.097C323.836 186.096 323.801 186.094 323.767 186.092C321.965 186.001 319.201 186.517 316.899 187.115C314.572 187.72 311.64 188.684 309.677 189.993C306.447 192.146 301.725 196.818 300.736 203.738C299.886 209.689 300.437 213.614 301.816 218.19C302.603 220.805 304.272 223.865 305.954 226.432C307.624 228.981 309.679 231.613 311.525 233.171C314.663 235.821 317.819 237.415 320.622 238.037C322.871 238.537 323.881 238.675 326.731 238.794C330.115 238.935 334.17 238.004 336.937 236.537C338.343 235.791 340.009 234.569 341.356 233.494C342.716 232.408 344.108 231.184 344.937 230.292C346.233 228.897 349.119 225.567 350.908 221.915C352.455 218.759 353.91 215.37 354.428 214.042L350.324 212.442L354.428 214.042C354.885 212.868 355.197 211.102 355.197 209.821Z" fill="#5D6268" stroke="white" stroke-width="8.81018"/>
<path d="M54.952 154.31L54.6581 154.399L54.3795 154.528C51.9145 155.671 48.0072 157.53 44.2687 159.408C40.6314 161.236 36.844 163.233 34.8264 164.614C33.9811 165.193 32.9178 165.908 31.7836 166.671C30.2657 167.691 28.6208 168.797 27.2016 169.776C24.7806 171.446 22.0745 173.37 20.7835 174.734C20.4134 175.125 19.853 175.685 19.1253 176.414C19.0693 176.47 19.0123 176.527 18.9543 176.585C18.1685 177.372 17.247 178.296 16.3255 179.254C14.6064 181.042 12.4759 183.358 11.36 185.249L15.1539 187.487L11.36 185.249C11.2412 185.45 11.1179 185.658 10.9911 185.872C9.53682 188.324 7.62092 191.555 6.77724 194.512L6.77683 194.514L6.77285 194.528C6.77278 194.528 6.7727 194.528 6.77263 194.528L6.77261 194.529L6.75587 194.587C6.03051 197.141 5.56728 198.771 5.35485 201.762C5.14103 204.773 5.36493 207.091 6.06268 209.862L6.07284 209.903L6.08376 209.943C6.78051 212.504 8.44997 215.665 9.12409 216.842L9.23203 217.03L9.358 217.207C9.98661 218.091 11.0211 219.464 12.1403 220.792C13.112 221.946 14.4449 223.431 15.7498 224.399C17.0302 225.486 19.7178 227.361 22.0827 228.955C24.612 230.66 27.3576 232.437 28.4989 233.057C28.7251 233.18 29.0062 233.335 29.3301 233.514C31.342 234.623 35.0082 236.644 37.4469 237.581C38.4771 237.976 39.6643 238.466 40.8955 238.974C41.069 239.045 41.2433 239.117 41.4182 239.189C42.7821 239.751 44.2162 240.337 45.3456 240.738C47.3691 241.456 48.7969 241.656 50.0727 241.834C50.3303 241.871 50.5817 241.906 50.8306 241.944L50.9576 241.964L51.0855 241.976C52.1684 242.079 54.811 242.315 56.1158 242.363C57.7466 242.423 61.0062 242.269 62.6969 241.888C62.7722 241.871 62.8672 241.85 62.9793 241.825C64.2022 241.557 67.4677 240.839 69.579 239.796L67.6277 235.847L69.579 239.796C69.9305 239.622 70.2554 239.474 70.5947 239.323C70.6512 239.298 70.7106 239.271 70.7722 239.244C71.0535 239.119 71.3801 238.973 71.6877 238.827C72.5174 238.432 73.4211 237.934 74.3962 237.129C76.0373 235.774 77.2805 234.21 78.0658 232.702C78.1092 232.619 78.1547 232.532 78.2019 232.443C78.651 231.59 79.2572 230.439 79.7149 228.761C80.1367 227.214 80.5458 225.482 80.5458 222.687C80.5458 220.069 80.4152 218.844 79.7244 216.225C79.0747 213.762 78.5413 212.316 77.6336 210.305C76.7867 208.427 76.1822 207.184 74.9955 205.582L71.4563 208.205L74.9955 205.582C74.7199 205.21 74.5738 204.953 74.3305 204.522L74.3266 204.515C74.0551 204.033 73.6808 203.37 73.053 202.556L69.5645 205.245L73.053 202.556C72.334 201.623 71.909 200.961 71.472 200.093C71.2876 199.727 71.1309 199.422 70.9922 199.153C70.623 198.436 70.3818 197.968 70.0855 197.241C69.6957 196.284 69.4084 195.396 68.7714 193.047C68.2739 191.212 68.3047 189.529 68.3295 188.172C68.3346 187.895 68.3394 187.631 68.3394 187.382V187.188L68.3224 186.995C68.2798 186.512 68.2967 185.679 68.3156 184.749C68.3271 184.181 68.3394 183.578 68.3394 182.995C68.3394 182.283 68.5903 180.85 69.0792 179.155C69.5656 177.467 70.0937 176.183 70.3318 175.763C70.4806 175.502 70.6243 175.252 70.764 175.009C71.448 173.821 72.0384 172.795 72.6751 171.292C73.7489 169.306 74.0802 167.038 74.1869 165.374C74.3057 163.522 74.1812 161.771 74.0124 160.629L73.9675 160.325L73.881 160.031C73.5516 158.91 72.6084 156.877 70.7991 155.25C69.9697 154.504 69.0159 153.759 67.7836 153.272C66.5796 152.796 65.4412 152.705 64.643 152.65C62.8713 152.528 60.2884 152.87 59.3907 153.008L59.0807 153.056L58.7806 153.147L54.952 154.31Z" fill="#F26D20" stroke="white" stroke-width="8.81019"/>
<path d="M270.219 150.417C291.445 159.756 300.023 173.853 302.323 180.928C303.159 183.501 303.649 189.578 303.649 192.337C303.649 195.786 302.057 196.582 300.465 199.766C298.874 202.95 296.751 205.072 293.567 208.787C290.383 212.501 285.608 215.42 280.832 218.603C276.056 221.787 270.219 224.44 260.137 228.42C250.103 232.381 241.121 234.239 233.45 235.826L233.34 235.849C225.646 237.441 205.747 237.972 196.461 237.972C187.175 237.972 169.929 237.176 160.378 235.849C150.826 234.523 139.152 233.196 128.009 230.808C116.866 228.42 98.5586 220.461 95.1095 218.338C91.6603 216.216 86.354 212.501 82.9048 207.195C79.4557 201.888 78.1291 196.317 77.8638 194.194C77.5985 192.072 76.0066 185.173 82.9048 174.826C88.4235 166.548 107.137 156.342 115.804 152.274C128.54 148.029 158.786 138.212 191.685 138.212C209.019 138.389 248.994 141.078 270.219 150.417Z" fill="#0098D2"/>
<mask id="path-8-outside-1" maskUnits="userSpaceOnUse" x="88.3009" y="171.902" width="205" height="54" fill="black">
<rect fill="white" x="88.3009" y="171.902" width="205" height="54"/>
<path d="M100.973 175.443C98.0522 175.443 95.6665 176.491 93.8159 178.587C91.9653 180.683 91.04 183.258 91.04 186.313C91.04 189.345 92.0879 191.92 94.1838 194.038C96.2796 196.157 98.8326 197.216 101.843 197.216C104.429 197.216 106.581 196.859 108.297 196.145V186.313H109.903V196.881C107.963 198.085 105.243 198.687 101.742 198.687C98.264 198.687 95.3209 197.494 92.9129 195.109C90.5049 192.701 89.3009 189.769 89.3009 186.313C89.3009 182.835 90.3934 179.914 92.5785 177.55C94.7635 175.165 97.5617 173.972 100.973 173.972C103.649 173.972 106.358 174.418 109.1 175.31L108.665 176.647C105.99 175.845 103.426 175.443 100.973 175.443Z"/>
<path d="M120.881 198.286V174.473C122.999 174.317 124.772 174.239 126.199 174.239C128.473 174.239 130.346 174.83 131.818 176.012C133.289 177.171 134.025 178.821 134.025 180.962C134.025 182.411 133.601 183.76 132.754 185.008C131.907 186.257 130.959 187.249 129.911 187.985C130.736 189.122 131.751 190.482 132.955 192.065C134.181 193.626 134.973 194.607 135.329 195.008C136.689 196.458 138.228 197.283 139.945 197.483L139.911 198.553C138.551 198.531 137.447 198.331 136.6 197.951C135.753 197.55 134.939 196.948 134.159 196.145C133.401 195.343 131.494 192.846 128.44 188.654C126.255 188.654 124.27 188.587 122.487 188.453V198.286H120.881ZM127.47 187.316C128.451 187.316 129.499 186.67 130.614 185.376C131.728 184.083 132.286 182.589 132.286 180.895C132.286 179.178 131.706 177.885 130.547 177.015C129.41 176.123 127.893 175.677 125.998 175.677C124.995 175.677 123.824 175.722 122.487 175.811V187.149C124.27 187.26 125.931 187.316 127.47 187.316Z"/>
<path d="M144.165 186.313C144.165 182.835 145.269 179.914 147.476 177.55C149.706 175.165 152.515 173.972 155.904 173.972C158.29 173.972 160.43 174.607 162.326 175.878L164.366 172.902L165.436 173.671L163.396 176.647C164.756 177.784 165.804 179.189 166.54 180.861C167.298 182.534 167.677 184.351 167.677 186.313C167.677 189.791 166.562 192.723 164.332 195.109C162.103 197.494 159.293 198.687 155.904 198.687C153.519 198.687 151.378 198.052 149.483 196.781L147.476 199.691L146.406 198.955L148.446 196.012C147.086 194.852 146.027 193.436 145.269 191.764C144.533 190.092 144.165 188.275 144.165 186.313ZM165.938 186.313C165.938 182.835 164.789 180.036 162.493 177.918L150.353 195.543C151.958 196.658 153.809 197.216 155.904 197.216C158.87 197.216 161.278 196.168 163.128 194.072C165.001 191.976 165.938 189.39 165.938 186.313ZM155.904 175.443C152.939 175.443 150.531 176.491 148.68 178.587C146.83 180.661 145.904 183.336 145.904 186.614C145.904 189.869 147.042 192.567 149.316 194.707L161.456 177.116C159.851 176.001 158 175.443 155.904 175.443Z"/>
<path d="M179.309 178.186L179.376 181.029V198.286H177.771V174.173H178.506L194.259 192.333C195.329 193.604 196.154 194.618 196.734 195.376C196.645 194.306 196.6 193.08 196.6 191.697V174.373H198.205V198.487H197.469L181.416 179.992C180.301 178.721 179.588 177.874 179.276 177.45L179.309 178.186Z"/>
<path d="M209.71 198.286V174.373H220.814V175.778H211.315V184.574H219.911V185.945H211.315V196.881H221.182V198.286H209.71Z"/>
<path d="M230.284 198.286V174.373H242.491V175.778H231.889V184.574H241.588V185.945H231.889V198.286H230.284Z"/>
<path d="M251.445 198.286V174.373H262.549V175.778H253.05V184.574H261.646V185.945H253.05V196.881H262.916V198.286H251.445Z"/>
<path d="M279.677 197.115C282.821 197.115 285.341 196.268 287.236 194.574C289.153 192.857 290.112 190.282 290.112 186.848C290.112 183.414 289.031 180.683 286.868 178.654C284.727 176.625 282.074 175.611 278.908 175.611C276.879 175.611 275.118 175.666 273.624 175.778V196.848C275.073 197.026 277.091 197.115 279.677 197.115ZM278.908 174.139C282.587 174.139 285.664 175.287 288.139 177.584C290.614 179.858 291.851 182.957 291.851 186.881C291.851 188.866 291.528 190.627 290.881 192.166C290.257 193.682 289.387 194.897 288.273 195.811C285.976 197.662 283.111 198.587 279.677 198.587C277.425 198.587 274.872 198.464 272.019 198.219V174.373C274.293 174.217 276.589 174.139 278.908 174.139Z"/>
<path d="M147.097 212.306L142.109 217.983C142.776 218.781 143.542 219.673 144.406 220.657C145.281 221.642 145.844 222.249 146.096 222.478C146.358 222.708 146.561 222.883 146.703 223.003C146.856 223.113 147.086 223.238 147.392 223.381C147.698 223.512 148.027 223.599 148.377 223.643L148.36 224.168C147.704 224.157 147.162 224.059 146.736 223.873C146.309 223.676 145.937 223.424 145.62 223.118C145.303 222.801 144.608 222.035 143.537 220.821C142.476 219.596 141.677 218.661 141.141 218.016L146.178 212.306H147.097ZM140.829 212.306V224.037H140.042V212.306H140.829Z"/>
<path d="M159.601 222.905C158.846 223.791 157.697 224.234 156.155 224.234C154.613 224.234 153.459 223.785 152.693 222.888C151.939 221.992 151.561 220.767 151.561 219.213V212.306H152.349V219.213C152.349 222.101 153.612 223.545 156.139 223.545C158.676 223.545 159.945 222.101 159.945 219.213V212.306H160.733V219.213C160.733 220.777 160.355 222.008 159.601 222.905Z"/>
<path d="M166.403 224.037V212.306H167.191V223.315H172.589V224.037H166.403Z"/>
<path d="M176.967 212.995H172.997V212.306H181.725V212.995H177.755V224.037H176.967V212.995Z"/>
<path d="M193.639 222.905C192.885 223.791 191.736 224.234 190.194 224.234C188.652 224.234 187.498 223.785 186.732 222.888C185.977 221.992 185.6 220.767 185.6 219.213V212.306H186.388V219.213C186.388 222.101 187.651 223.545 190.178 223.545C192.715 223.545 193.984 222.101 193.984 219.213V212.306H194.771V219.213C194.771 220.777 194.394 222.008 193.639 222.905Z"/>
<path d="M200.442 224.037V212.355C201.481 212.279 202.351 212.241 203.051 212.241C204.167 212.241 205.085 212.53 205.807 213.11C206.529 213.679 206.89 214.488 206.89 215.538C206.89 216.249 206.682 216.911 206.267 217.523C205.851 218.136 205.386 218.623 204.872 218.984C205.277 219.542 205.774 220.209 206.365 220.985C206.967 221.751 207.355 222.232 207.53 222.429C208.197 223.14 208.952 223.545 209.794 223.643L209.778 224.168C209.11 224.157 208.569 224.059 208.153 223.873C207.738 223.676 207.338 223.381 206.956 222.987C206.584 222.593 205.649 221.368 204.15 219.312C203.078 219.312 202.105 219.279 201.23 219.213V224.037H200.442ZM203.674 218.656C204.156 218.656 204.67 218.338 205.217 217.704C205.763 217.07 206.037 216.337 206.037 215.505C206.037 214.663 205.753 214.029 205.184 213.602C204.626 213.165 203.882 212.946 202.952 212.946C202.46 212.946 201.886 212.968 201.23 213.012V218.574C202.105 218.628 202.92 218.656 203.674 218.656Z"/>
<path d="M214.114 212.995H210.144V212.306H218.872V212.995H214.902V224.037H214.114V212.995Z"/>
<path d="M230.786 222.905C230.032 223.791 228.883 224.234 227.341 224.234C225.799 224.234 224.645 223.785 223.879 222.888C223.124 221.992 222.747 220.767 222.747 219.213V212.306H223.535V219.213C223.535 222.101 224.798 223.545 227.325 223.545C229.862 223.545 231.131 222.101 231.131 219.213V212.306H231.918V219.213C231.918 220.777 231.541 222.008 230.786 222.905Z"/>
<path d="M238.344 214.177L238.377 215.571V224.037H237.589V212.208H237.95L245.678 221.117C246.203 221.74 246.607 222.238 246.892 222.61C246.848 222.085 246.826 221.483 246.826 220.805V212.306H247.614V224.135H247.253L239.378 215.062C238.831 214.439 238.481 214.023 238.328 213.816L238.344 214.177Z"/>
</mask>
<path d="M100.973 175.443C98.0522 175.443 95.6665 176.491 93.8159 178.587C91.9653 180.683 91.04 183.258 91.04 186.313C91.04 189.345 92.0879 191.92 94.1838 194.038C96.2796 196.157 98.8326 197.216 101.843 197.216C104.429 197.216 106.581 196.859 108.297 196.145V186.313H109.903V196.881C107.963 198.085 105.243 198.687 101.742 198.687C98.264 198.687 95.3209 197.494 92.9129 195.109C90.5049 192.701 89.3009 189.769 89.3009 186.313C89.3009 182.835 90.3934 179.914 92.5785 177.55C94.7635 175.165 97.5617 173.972 100.973 173.972C103.649 173.972 106.358 174.418 109.1 175.31L108.665 176.647C105.99 175.845 103.426 175.443 100.973 175.443Z" fill="white"/>
<path d="M120.881 198.286V174.473C122.999 174.317 124.772 174.239 126.199 174.239C128.473 174.239 130.346 174.83 131.818 176.012C133.289 177.171 134.025 178.821 134.025 180.962C134.025 182.411 133.601 183.76 132.754 185.008C131.907 186.257 130.959 187.249 129.911 187.985C130.736 189.122 131.751 190.482 132.955 192.065C134.181 193.626 134.973 194.607 135.329 195.008C136.689 196.458 138.228 197.283 139.945 197.483L139.911 198.553C138.551 198.531 137.447 198.331 136.6 197.951C135.753 197.55 134.939 196.948 134.159 196.145C133.401 195.343 131.494 192.846 128.44 188.654C126.255 188.654 124.27 188.587 122.487 188.453V198.286H120.881ZM127.47 187.316C128.451 187.316 129.499 186.67 130.614 185.376C131.728 184.083 132.286 182.589 132.286 180.895C132.286 179.178 131.706 177.885 130.547 177.015C129.41 176.123 127.893 175.677 125.998 175.677C124.995 175.677 123.824 175.722 122.487 175.811V187.149C124.27 187.26 125.931 187.316 127.47 187.316Z" fill="white"/>
<path d="M144.165 186.313C144.165 182.835 145.269 179.914 147.476 177.55C149.706 175.165 152.515 173.972 155.904 173.972C158.29 173.972 160.43 174.607 162.326 175.878L164.366 172.902L165.436 173.671L163.396 176.647C164.756 177.784 165.804 179.189 166.54 180.861C167.298 182.534 167.677 184.351 167.677 186.313C167.677 189.791 166.562 192.723 164.332 195.109C162.103 197.494 159.293 198.687 155.904 198.687C153.519 198.687 151.378 198.052 149.483 196.781L147.476 199.691L146.406 198.955L148.446 196.012C147.086 194.852 146.027 193.436 145.269 191.764C144.533 190.092 144.165 188.275 144.165 186.313ZM165.938 186.313C165.938 182.835 164.789 180.036 162.493 177.918L150.353 195.543C151.958 196.658 153.809 197.216 155.904 197.216C158.87 197.216 161.278 196.168 163.128 194.072C165.001 191.976 165.938 189.39 165.938 186.313ZM155.904 175.443C152.939 175.443 150.531 176.491 148.68 178.587C146.83 180.661 145.904 183.336 145.904 186.614C145.904 189.869 147.042 192.567 149.316 194.707L161.456 177.116C159.851 176.001 158 175.443 155.904 175.443Z" fill="white"/>
<path d="M179.309 178.186L179.376 181.029V198.286H177.771V174.173H178.506L194.259 192.333C195.329 193.604 196.154 194.618 196.734 195.376C196.645 194.306 196.6 193.08 196.6 191.697V174.373H198.205V198.487H197.469L181.416 179.992C180.301 178.721 179.588 177.874 179.276 177.45L179.309 178.186Z" fill="white"/>
<path d="M209.71 198.286V174.373H220.814V175.778H211.315V184.574H219.911V185.945H211.315V196.881H221.182V198.286H209.71Z" fill="white"/>
<path d="M230.284 198.286V174.373H242.491V175.778H231.889V184.574H241.588V185.945H231.889V198.286H230.284Z" fill="white"/>
<path d="M251.445 198.286V174.373H262.549V175.778H253.05V184.574H261.646V185.945H253.05V196.881H262.916V198.286H251.445Z" fill="white"/>
<path d="M279.677 197.115C282.821 197.115 285.341 196.268 287.236 194.574C289.153 192.857 290.112 190.282 290.112 186.848C290.112 183.414 289.031 180.683 286.868 178.654C284.727 176.625 282.074 175.611 278.908 175.611C276.879 175.611 275.118 175.666 273.624 175.778V196.848C275.073 197.026 277.091 197.115 279.677 197.115ZM278.908 174.139C282.587 174.139 285.664 175.287 288.139 177.584C290.614 179.858 291.851 182.957 291.851 186.881C291.851 188.866 291.528 190.627 290.881 192.166C290.257 193.682 289.387 194.897 288.273 195.811C285.976 197.662 283.111 198.587 279.677 198.587C277.425 198.587 274.872 198.464 272.019 198.219V174.373C274.293 174.217 276.589 174.139 278.908 174.139Z" fill="white"/>
<path d="M147.097 212.306L142.109 217.983C142.776 218.781 143.542 219.673 144.406 220.657C145.281 221.642 145.844 222.249 146.096 222.478C146.358 222.708 146.561 222.883 146.703 223.003C146.856 223.113 147.086 223.238 147.392 223.381C147.698 223.512 148.027 223.599 148.377 223.643L148.36 224.168C147.704 224.157 147.162 224.059 146.736 223.873C146.309 223.676 145.937 223.424 145.62 223.118C145.303 222.801 144.608 222.035 143.537 220.821C142.476 219.596 141.677 218.661 141.141 218.016L146.178 212.306H147.097ZM140.829 212.306V224.037H140.042V212.306H140.829Z" fill="white"/>
<path d="M159.601 222.905C158.846 223.791 157.697 224.234 156.155 224.234C154.613 224.234 153.459 223.785 152.693 222.888C151.939 221.992 151.561 220.767 151.561 219.213V212.306H152.349V219.213C152.349 222.101 153.612 223.545 156.139 223.545C158.676 223.545 159.945 222.101 159.945 219.213V212.306H160.733V219.213C160.733 220.777 160.355 222.008 159.601 222.905Z" fill="white"/>
<path d="M166.403 224.037V212.306H167.191V223.315H172.589V224.037H166.403Z" fill="white"/>
<path d="M176.967 212.995H172.997V212.306H181.725V212.995H177.755V224.037H176.967V212.995Z" fill="white"/>
<path d="M193.639 222.905C192.885 223.791 191.736 224.234 190.194 224.234C188.652 224.234 187.498 223.785 186.732 222.888C185.977 221.992 185.6 220.767 185.6 219.213V212.306H186.388V219.213C186.388 222.101 187.651 223.545 190.178 223.545C192.715 223.545 193.984 222.101 193.984 219.213V212.306H194.771V219.213C194.771 220.777 194.394 222.008 193.639 222.905Z" fill="white"/>
<path d="M200.442 224.037V212.355C201.481 212.279 202.351 212.241 203.051 212.241C204.167 212.241 205.085 212.53 205.807 213.11C206.529 213.679 206.89 214.488 206.89 215.538C206.89 216.249 206.682 216.911 206.267 217.523C205.851 218.136 205.386 218.623 204.872 218.984C205.277 219.542 205.774 220.209 206.365 220.985C206.967 221.751 207.355 222.232 207.53 222.429C208.197 223.14 208.952 223.545 209.794 223.643L209.778 224.168C209.11 224.157 208.569 224.059 208.153 223.873C207.738 223.676 207.338 223.381 206.956 222.987C206.584 222.593 205.649 221.368 204.15 219.312C203.078 219.312 202.105 219.279 201.23 219.213V224.037H200.442ZM203.674 218.656C204.156 218.656 204.67 218.338 205.217 217.704C205.763 217.07 206.037 216.337 206.037 215.505C206.037 214.663 205.753 214.029 205.184 213.602C204.626 213.165 203.882 212.946 202.952 212.946C202.46 212.946 201.886 212.968 201.23 213.012V218.574C202.105 218.628 202.92 218.656 203.674 218.656Z" fill="white"/>
<path d="M214.114 212.995H210.144V212.306H218.872V212.995H214.902V224.037H214.114V212.995Z" fill="white"/>
<path d="M230.786 222.905C230.032 223.791 228.883 224.234 227.341 224.234C225.799 224.234 224.645 223.785 223.879 222.888C223.124 221.992 222.747 220.767 222.747 219.213V212.306H223.535V219.213C223.535 222.101 224.798 223.545 227.325 223.545C229.862 223.545 231.131 222.101 231.131 219.213V212.306H231.918V219.213C231.918 220.777 231.541 222.008 230.786 222.905Z" fill="white"/>
<path d="M238.344 214.177L238.377 215.571V224.037H237.589V212.208H237.95L245.678 221.117C246.203 221.74 246.607 222.238 246.892 222.61C246.848 222.085 246.826 221.483 246.826 220.805V212.306H247.614V224.135H247.253L239.378 215.062C238.831 214.439 238.481 214.023 238.328 213.816L238.344 214.177Z" fill="white"/>
<path d="M100.973 175.443C98.0522 175.443 95.6665 176.491 93.8159 178.587C91.9653 180.683 91.04 183.258 91.04 186.313C91.04 189.345 92.0879 191.92 94.1838 194.038C96.2796 196.157 98.8326 197.216 101.843 197.216C104.429 197.216 106.581 196.859 108.297 196.145V186.313H109.903V196.881C107.963 198.085 105.243 198.687 101.742 198.687C98.264 198.687 95.3209 197.494 92.9129 195.109C90.5049 192.701 89.3009 189.769 89.3009 186.313C89.3009 182.835 90.3934 179.914 92.5785 177.55C94.7635 175.165 97.5617 173.972 100.973 173.972C103.649 173.972 106.358 174.418 109.1 175.31L108.665 176.647C105.99 175.845 103.426 175.443 100.973 175.443Z" stroke="white" stroke-width="1.40308" mask="url(#path-8-outside-1)"/>
<path d="M120.881 198.286V174.473C122.999 174.317 124.772 174.239 126.199 174.239C128.473 174.239 130.346 174.83 131.818 176.012C133.289 177.171 134.025 178.821 134.025 180.962C134.025 182.411 133.601 183.76 132.754 185.008C131.907 186.257 130.959 187.249 129.911 187.985C130.736 189.122 131.751 190.482 132.955 192.065C134.181 193.626 134.973 194.607 135.329 195.008C136.689 196.458 138.228 197.283 139.945 197.483L139.911 198.553C138.551 198.531 137.447 198.331 136.6 197.951C135.753 197.55 134.939 196.948 134.159 196.145C133.401 195.343 131.494 192.846 128.44 188.654C126.255 188.654 124.27 188.587 122.487 188.453V198.286H120.881ZM127.47 187.316C128.451 187.316 129.499 186.67 130.614 185.376C131.728 184.083 132.286 182.589 132.286 180.895C132.286 179.178 131.706 177.885 130.547 177.015C129.41 176.123 127.893 175.677 125.998 175.677C124.995 175.677 123.824 175.722 122.487 175.811V187.149C124.27 187.26 125.931 187.316 127.47 187.316Z" stroke="white" stroke-width="1.40308" mask="url(#path-8-outside-1)"/>
<path d="M144.165 186.313C144.165 182.835 145.269 179.914 147.476 177.55C149.706 175.165 152.515 173.972 155.904 173.972C158.29 173.972 160.43 174.607 162.326 175.878L164.366 172.902L165.436 173.671L163.396 176.647C164.756 177.784 165.804 179.189 166.54 180.861C167.298 182.534 167.677 184.351 167.677 186.313C167.677 189.791 166.562 192.723 164.332 195.109C162.103 197.494 159.293 198.687 155.904 198.687C153.519 198.687 151.378 198.052 149.483 196.781L147.476 199.691L146.406 198.955L148.446 196.012C147.086 194.852 146.027 193.436 145.269 191.764C144.533 190.092 144.165 188.275 144.165 186.313ZM165.938 186.313C165.938 182.835 164.789 180.036 162.493 177.918L150.353 195.543C151.958 196.658 153.809 197.216 155.904 197.216C158.87 197.216 161.278 196.168 163.128 194.072C165.001 191.976 165.938 189.39 165.938 186.313ZM155.904 175.443C152.939 175.443 150.531 176.491 148.68 178.587C146.83 180.661 145.904 183.336 145.904 186.614C145.904 189.869 147.042 192.567 149.316 194.707L161.456 177.116C159.851 176.001 158 175.443 155.904 175.443Z" stroke="white" stroke-width="1.40308" mask="url(#path-8-outside-1)"/>
<path d="M179.309 178.186L179.376 181.029V198.286H177.771V174.173H178.506L194.259 192.333C195.329 193.604 196.154 194.618 196.734 195.376C196.645 194.306 196.6 193.08 196.6 191.697V174.373H198.205V198.487H197.469L181.416 179.992C180.301 178.721 179.588 177.874 179.276 177.45L179.309 178.186Z" stroke="white" stroke-width="1.40308" mask="url(#path-8-outside-1)"/>
<path d="M209.71 198.286V174.373H220.814V175.778H211.315V184.574H219.911V185.945H211.315V196.881H221.182V198.286H209.71Z" stroke="white" stroke-width="1.40308" mask="url(#path-8-outside-1)"/>
<path d="M230.284 198.286V174.373H242.491V175.778H231.889V184.574H241.588V185.945H231.889V198.286H230.284Z" stroke="white" stroke-width="1.40308" mask="url(#path-8-outside-1)"/>
<path d="M251.445 198.286V174.373H262.549V175.778H253.05V184.574H261.646V185.945H253.05V196.881H262.916V198.286H251.445Z" stroke="white" stroke-width="1.40308" mask="url(#path-8-outside-1)"/>
<path d="M279.677 197.115C282.821 197.115 285.341 196.268 287.236 194.574C289.153 192.857 290.112 190.282 290.112 186.848C290.112 183.414 289.031 180.683 286.868 178.654C284.727 176.625 282.074 175.611 278.908 175.611C276.879 175.611 275.118 175.666 273.624 175.778V196.848C275.073 197.026 277.091 197.115 279.677 197.115ZM278.908 174.139C282.587 174.139 285.664 175.287 288.139 177.584C290.614 179.858 291.851 182.957 291.851 186.881C291.851 188.866 291.528 190.627 290.881 192.166C290.257 193.682 289.387 194.897 288.273 195.811C285.976 197.662 283.111 198.587 279.677 198.587C277.425 198.587 274.872 198.464 272.019 198.219V174.373C274.293 174.217 276.589 174.139 278.908 174.139Z" stroke="white" stroke-width="1.40308" mask="url(#path-8-outside-1)"/>
<path d="M147.097 212.306L142.109 217.983C142.776 218.781 143.542 219.673 144.406 220.657C145.281 221.642 145.844 222.249 146.096 222.478C146.358 222.708 146.561 222.883 146.703 223.003C146.856 223.113 147.086 223.238 147.392 223.381C147.698 223.512 148.027 223.599 148.377 223.643L148.36 224.168C147.704 224.157 147.162 224.059 146.736 223.873C146.309 223.676 145.937 223.424 145.62 223.118C145.303 222.801 144.608 222.035 143.537 220.821C142.476 219.596 141.677 218.661 141.141 218.016L146.178 212.306H147.097ZM140.829 212.306V224.037H140.042V212.306H140.829Z" stroke="white" stroke-width="1.40308" mask="url(#path-8-outside-1)"/>
<path d="M159.601 222.905C158.846 223.791 157.697 224.234 156.155 224.234C154.613 224.234 153.459 223.785 152.693 222.888C151.939 221.992 151.561 220.767 151.561 219.213V212.306H152.349V219.213C152.349 222.101 153.612 223.545 156.139 223.545C158.676 223.545 159.945 222.101 159.945 219.213V212.306H160.733V219.213C160.733 220.777 160.355 222.008 159.601 222.905Z" stroke="white" stroke-width="1.40308" mask="url(#path-8-outside-1)"/>
<path d="M166.403 224.037V212.306H167.191V223.315H172.589V224.037H166.403Z" stroke="white" stroke-width="1.40308" mask="url(#path-8-outside-1)"/>
<path d="M176.967 212.995H172.997V212.306H181.725V212.995H177.755V224.037H176.967V212.995Z" stroke="white" stroke-width="1.40308" mask="url(#path-8-outside-1)"/>
<path d="M193.639 222.905C192.885 223.791 191.736 224.234 190.194 224.234C188.652 224.234 187.498 223.785 186.732 222.888C185.977 221.992 185.6 220.767 185.6 219.213V212.306H186.388V219.213C186.388 222.101 187.651 223.545 190.178 223.545C192.715 223.545 193.984 222.101 193.984 219.213V212.306H194.771V219.213C194.771 220.777 194.394 222.008 193.639 222.905Z" stroke="white" stroke-width="1.40308" mask="url(#path-8-outside-1)"/>
<path d="M200.442 224.037V212.355C201.481 212.279 202.351 212.241 203.051 212.241C204.167 212.241 205.085 212.53 205.807 213.11C206.529 213.679 206.89 214.488 206.89 215.538C206.89 216.249 206.682 216.911 206.267 217.523C205.851 218.136 205.386 218.623 204.872 218.984C205.277 219.542 205.774 220.209 206.365 220.985C206.967 221.751 207.355 222.232 207.53 222.429C208.197 223.14 208.952 223.545 209.794 223.643L209.778 224.168C209.11 224.157 208.569 224.059 208.153 223.873C207.738 223.676 207.338 223.381 206.956 222.987C206.584 222.593 205.649 221.368 204.15 219.312C203.078 219.312 202.105 219.279 201.23 219.213V224.037H200.442ZM203.674 218.656C204.156 218.656 204.67 218.338 205.217 217.704C205.763 217.07 206.037 216.337 206.037 215.505C206.037 214.663 205.753 214.029 205.184 213.602C204.626 213.165 203.882 212.946 202.952 212.946C202.46 212.946 201.886 212.968 201.23 213.012V218.574C202.105 218.628 202.92 218.656 203.674 218.656Z" stroke="white" stroke-width="1.40308" mask="url(#path-8-outside-1)"/>
<path d="M214.114 212.995H210.144V212.306H218.872V212.995H214.902V224.037H214.114V212.995Z" stroke="white" stroke-width="1.40308" mask="url(#path-8-outside-1)"/>
<path d="M230.786 222.905C230.032 223.791 228.883 224.234 227.341 224.234C225.799 224.234 224.645 223.785 223.879 222.888C223.124 221.992 222.747 220.767 222.747 219.213V212.306H223.535V219.213C223.535 222.101 224.798 223.545 227.325 223.545C229.862 223.545 231.131 222.101 231.131 219.213V212.306H231.918V219.213C231.918 220.777 231.541 222.008 230.786 222.905Z" stroke="white" stroke-width="1.40308" mask="url(#path-8-outside-1)"/>
<path d="M238.344 214.177L238.377 215.571V224.037H237.589V212.208H237.95L245.678 221.117C246.203 221.74 246.607 222.238 246.892 222.61C246.848 222.085 246.826 221.483 246.826 220.805V212.306H247.614V224.135H247.253L239.378 215.062C238.831 214.439 238.481 214.023 238.328 213.816L238.344 214.177Z" stroke="white" stroke-width="1.40308" mask="url(#path-8-outside-1)"/>
<defs>
<clipPath id="clip0">
<rect width="364" height="364" fill="white" transform="translate(0.814453)"/>
</clipPath>
</defs>
</svg>
