<svg width="364" height="364" viewBox="0 0 364 364" fill="none" xmlns="http://www.w3.org/2000/svg">
<g clip-path="url(#clip0_302_15)">
<mask id="mask0_302_15" style="mask-type:alpha" maskUnits="userSpaceOnUse" x="0" y="0" width="364" height="364">
<path d="M182 364C282.516 364 364 282.516 364 182C364 81.4842 282.516 0 182 0C81.4842 0 0 81.4842 0 182C0 282.516 81.4842 364 182 364Z" fill="#1C1C1C"/>
</mask>
<g mask="url(#mask0_302_15)">
<path d="M182 364C282.516 364 364 282.516 364 182C364 81.4842 282.516 0 182 0C81.4842 0 0 81.4842 0 182C0 282.516 81.4842 364 182 364Z" fill="#85AD3F"/>
</g>
<path fill-rule="evenodd" clip-rule="evenodd" d="M51.1205 146.788C50.72 148.323 46.355 152.879 41.4215 156.914C36.4895 160.949 31.001 166.317 29.2265 168.843C27.1865 171.747 26 175.715 26 179.634C26 183.996 27.056 187.059 29.5625 189.975L33.125 194.116L36.4235 187.651C38.237 184.095 42.797 177.375 46.5575 172.718C50.318 168.06 53.726 163.913 54.1325 163.5C54.5375 163.087 53.342 165.788 51.476 169.5C49.61 173.212 45.71 179.962 42.809 184.5C39.9095 189.038 36.305 195.45 34.8005 198.75C33.296 202.05 32.051 206.889 32.033 209.502C32.015 212.116 32.4095 215.322 32.9105 216.627C33.4115 217.932 34.8365 219 36.077 219C37.8425 219 38.12 217.86 37.352 213.767C36.812 210.887 37.181 205.824 38.1725 202.517C39.8405 196.947 40.376 196.5 45.362 196.494C48.326 196.491 52.916 195.168 55.565 193.552C58.2125 191.938 61.769 187.893 63.467 184.563C65.1665 181.234 66.9605 175.554 67.4555 171.942C67.967 168.213 67.562 162.969 66.5195 159.808C65.5085 156.747 62.6585 151.938 60.1865 149.121C57.713 146.304 54.8255 144 53.7695 144C52.7135 144 51.521 145.256 51.1205 146.788Z" fill="white"/>
<path d="M90.776 172.65H97.676L88.646 160.95L97.226 151.65H90.686L82.556 160.38V151.65H76.676V172.65H82.556V167.4L84.776 165.03L90.776 172.65Z" fill="white"/>
<path d="M116.343 151.65H110.583L105.603 159.99L100.623 151.65H94.3526L102.363 165.03V172.65H108.303V165.12L116.343 151.65Z" fill="white"/>
<path d="M124.194 173.07C130.434 173.07 133.494 169.95 133.494 166.29C133.494 158.55 121.584 160.95 121.584 157.74C121.584 156.69 122.484 155.85 124.974 155.85C126.804 155.85 128.784 156.39 130.794 157.47L132.624 153.06C130.554 151.86 127.734 151.23 125.004 151.23C118.764 151.23 115.704 154.29 115.704 158.04C115.704 165.84 127.644 163.41 127.644 166.74C127.644 167.76 126.684 168.45 124.224 168.45C121.794 168.45 119.154 167.61 117.294 166.38L115.344 170.76C117.324 172.14 120.744 173.07 124.194 173.07Z" fill="white"/>
<path d="M139.815 172.65H145.755V156.36H152.175V151.65H133.365V156.36H139.815V172.65Z" fill="white"/>
<path d="M181.598 169.5L179.378 167.52C180.278 166.14 180.938 164.52 181.328 162.75L176.738 161.37C176.528 162.48 176.228 163.47 175.808 164.37L172.748 161.64C175.418 160.17 176.648 158.55 176.648 156.39C176.648 153.3 174.038 151.35 170.168 151.35C165.908 151.35 163.118 153.54 163.118 156.75C163.118 158.19 163.748 159.57 165.128 160.98C162.098 162.63 160.748 164.49 160.748 167.16C160.748 170.58 164.288 173.07 169.118 173.07C171.788 173.07 174.218 172.29 176.168 170.91L178.538 173.01L181.598 169.5ZM170.168 155.1C171.278 155.1 171.848 155.67 171.848 156.51C171.848 157.29 171.278 157.98 169.658 158.85C168.578 157.83 168.308 157.32 168.308 156.66C168.308 155.76 168.968 155.1 170.168 155.1ZM169.538 168.72C167.558 168.72 166.328 167.79 166.328 166.53C166.328 165.48 166.868 164.64 168.218 163.83L172.748 167.85C171.788 168.42 170.678 168.72 169.538 168.72Z" fill="white"/>
<path d="M76.676 209.67V188.67H78.506L88.106 205.05H87.146L96.656 188.67H98.486V209.67H96.356V192H96.866L88.106 207H87.056L78.236 192H78.806V209.67H76.676Z" fill="white"/>
<path d="M104.728 209.67V188.67H106.948V209.67H104.728Z" fill="white"/>
<path d="M113.181 209.67V188.67H115.401V207.75H127.161V209.67H113.181Z" fill="white"/>
<path d="M132.497 209.85C131.317 209.85 130.207 209.59 129.167 209.07C128.147 208.55 127.327 207.81 126.707 206.85L127.997 205.35C128.577 206.19 129.247 206.83 130.007 207.27C130.767 207.71 131.607 207.93 132.527 207.93C135.127 207.93 136.427 206.39 136.427 203.31V190.59H128.747V188.67H138.617V203.22C138.617 205.44 138.097 207.1 137.057 208.2C136.037 209.3 134.517 209.85 132.497 209.85Z" fill="white"/>
<path d="M153.856 209.85C152.276 209.85 150.806 209.59 149.446 209.07C148.106 208.53 146.936 207.78 145.936 206.82C144.956 205.84 144.186 204.71 143.626 203.43C143.086 202.13 142.816 200.71 142.816 199.17C142.816 197.63 143.086 196.22 143.626 194.94C144.186 193.64 144.956 192.51 145.936 191.55C146.936 190.57 148.106 189.82 149.446 189.3C150.786 188.76 152.256 188.49 153.856 188.49C155.436 188.49 156.896 188.76 158.236 189.3C159.576 189.82 160.736 190.56 161.716 191.52C162.716 192.48 163.486 193.61 164.026 194.91C164.586 196.21 164.866 197.63 164.866 199.17C164.866 200.71 164.586 202.13 164.026 203.43C163.486 204.73 162.716 205.86 161.716 206.82C160.736 207.78 159.576 208.53 158.236 209.07C156.896 209.59 155.436 209.85 153.856 209.85ZM153.856 207.87C155.116 207.87 156.276 207.66 157.336 207.24C158.416 206.8 159.346 206.19 160.126 205.41C160.926 204.61 161.546 203.69 161.986 202.65C162.426 201.59 162.646 200.43 162.646 199.17C162.646 197.91 162.426 196.76 161.986 195.72C161.546 194.66 160.926 193.74 160.126 192.96C159.346 192.16 158.416 191.55 157.336 191.13C156.276 190.69 155.116 190.47 153.856 190.47C152.596 190.47 151.426 190.69 150.346 191.13C149.266 191.55 148.326 192.16 147.526 192.96C146.746 193.74 146.126 194.66 145.666 195.72C145.226 196.76 145.006 197.91 145.006 199.17C145.006 200.41 145.226 201.56 145.666 202.62C146.126 203.68 146.746 204.61 147.526 205.41C148.326 206.19 149.266 206.8 150.346 207.24C151.426 207.66 152.596 207.87 153.856 207.87ZM143.866 211.77L162.076 186.57H163.846L145.666 211.77H143.866Z" fill="white"/>
<path d="M175.032 209.85C173.472 209.85 171.972 209.6 170.532 209.1C169.112 208.58 168.012 207.92 167.232 207.12L168.102 205.41C168.842 206.13 169.832 206.74 171.072 207.24C172.332 207.72 173.652 207.96 175.032 207.96C176.352 207.96 177.422 207.8 178.242 207.48C179.082 207.14 179.692 206.69 180.072 206.13C180.472 205.57 180.672 204.95 180.672 204.27C180.672 203.45 180.432 202.79 179.952 202.29C179.492 201.79 178.882 201.4 178.122 201.12C177.362 200.82 176.522 200.56 175.602 200.34C174.682 200.12 173.762 199.89 172.842 199.65C171.922 199.39 171.072 199.05 170.292 198.63C169.532 198.21 168.912 197.66 168.432 196.98C167.972 196.28 167.742 195.37 167.742 194.25C167.742 193.21 168.012 192.26 168.552 191.4C169.112 190.52 169.962 189.82 171.102 189.3C172.242 188.76 173.702 188.49 175.482 188.49C176.662 188.49 177.832 188.66 178.992 189C180.152 189.32 181.152 189.77 181.992 190.35L181.242 192.12C180.342 191.52 179.382 191.08 178.362 190.8C177.362 190.52 176.392 190.38 175.452 190.38C174.192 190.38 173.152 190.55 172.332 190.89C171.512 191.23 170.902 191.69 170.502 192.27C170.122 192.83 169.932 193.47 169.932 194.19C169.932 195.01 170.162 195.67 170.622 196.17C171.102 196.67 171.722 197.06 172.482 197.34C173.262 197.62 174.112 197.87 175.032 198.09C175.952 198.31 176.862 198.55 177.762 198.81C178.682 199.07 179.522 199.41 180.282 199.83C181.062 200.23 181.682 200.77 182.142 201.45C182.622 202.13 182.862 203.02 182.862 204.12C182.862 205.14 182.582 206.09 182.022 206.97C181.462 207.83 180.602 208.53 179.442 209.07C178.302 209.59 176.832 209.85 175.032 209.85Z" fill="white"/>
<path d="M189.079 198.06H200.179V199.95H189.079V198.06ZM189.319 207.75H201.949V209.67H187.099V188.67H201.499V190.59H189.319V207.75Z" fill="white"/>
<path d="M206.568 209.67V188.67H214.428C216.208 188.67 217.738 188.96 219.018 189.54C220.298 190.1 221.278 190.92 221.958 192C222.658 193.06 223.008 194.35 223.008 195.87C223.008 197.35 222.658 198.63 221.958 199.71C221.278 200.77 220.298 201.59 219.018 202.17C217.738 202.73 216.208 203.01 214.428 203.01H207.798L208.788 201.99V209.67H206.568ZM220.908 209.67L215.508 202.05H217.908L223.338 209.67H220.908ZM208.788 202.17L207.798 201.12H214.368C216.468 201.12 218.058 200.66 219.138 199.74C220.238 198.82 220.788 197.53 220.788 195.87C220.788 194.19 220.238 192.89 219.138 191.97C218.058 191.05 216.468 190.59 214.368 190.59H207.798L208.788 189.54V202.17Z" fill="white"/>
<path d="M233.618 209.67L224.318 188.67H226.718L235.418 208.44H234.098L242.858 188.67H245.108L235.808 209.67H233.618Z" fill="white"/>
<path d="M247.555 209.67V188.67H249.775V209.67H247.555Z" fill="white"/>
<path d="M265.128 209.85C263.548 209.85 262.088 209.59 260.748 209.07C259.408 208.53 258.248 207.78 257.268 206.82C256.288 205.86 255.518 204.73 254.958 203.43C254.418 202.13 254.148 200.71 254.148 199.17C254.148 197.63 254.418 196.21 254.958 194.91C255.518 193.61 256.288 192.48 257.268 191.52C258.268 190.56 259.438 189.82 260.778 189.3C262.118 188.76 263.578 188.49 265.158 188.49C266.678 188.49 268.108 188.75 269.448 189.27C270.788 189.77 271.918 190.53 272.838 191.55L271.428 192.96C270.568 192.08 269.618 191.45 268.578 191.07C267.538 190.67 266.418 190.47 265.218 190.47C263.958 190.47 262.788 190.69 261.708 191.13C260.628 191.55 259.688 192.16 258.888 192.96C258.088 193.74 257.458 194.66 256.998 195.72C256.558 196.76 256.338 197.91 256.338 199.17C256.338 200.43 256.558 201.59 256.998 202.65C257.458 203.69 258.088 204.61 258.888 205.41C259.688 206.19 260.628 206.8 261.708 207.24C262.788 207.66 263.958 207.87 265.218 207.87C266.418 207.87 267.538 207.67 268.578 207.27C269.618 206.87 270.568 206.23 271.428 205.35L272.838 206.76C271.918 207.78 270.788 208.55 269.448 209.07C268.108 209.59 266.668 209.85 265.128 209.85Z" fill="white"/>
<path d="M278.951 198.06H290.051V199.95H278.951V198.06ZM279.191 207.75H291.821V209.67H276.971V188.67H291.371V190.59H279.191V207.75Z" fill="white"/>
<path d="M318.969 209.67H325.149L315.849 188.67H309.999L300.729 209.67H306.789L308.439 205.59H317.319L318.969 209.67ZM310.179 201.21L312.879 194.49L315.579 201.21H310.179Z" fill="white"/>
<path d="M333.613 210.09C339.853 210.09 342.913 206.97 342.913 203.31C342.913 195.57 331.003 197.97 331.003 194.76C331.003 193.71 331.903 192.87 334.393 192.87C336.223 192.87 338.203 193.41 340.213 194.49L342.043 190.08C339.973 188.88 337.153 188.25 334.423 188.25C328.183 188.25 325.123 191.31 325.123 195.06C325.123 202.86 337.063 200.43 337.063 203.76C337.063 204.78 336.103 205.47 333.643 205.47C331.213 205.47 328.573 204.63 326.713 203.4L324.763 207.78C326.743 209.16 330.163 210.09 333.613 210.09Z" fill="white"/>
</g>
<defs>
<clipPath id="clip0_302_15">
<rect width="364" height="364" fill="white"/>
</clipPath>
</defs>
</svg>
