<svg width="239" height="136" viewBox="0 0 239 136" fill="none" xmlns="http://www.w3.org/2000/svg">
<g clip-path="url(#clip0_302_19)">
<path fill-rule="evenodd" clip-rule="evenodd" d="M22.2738 37.4725C21.9187 38.8331 18.0483 42.8724 13.6739 46.4501C9.3008 50.0279 4.43427 54.788 2.86086 57.0277C1.05204 59.6026 0 63.1205 0 66.5959C0 70.4636 0.936331 73.1794 3.15879 75.765L6.31758 79.4372L9.24228 73.7048C10.8503 70.5513 14.8935 64.5929 18.2279 60.4632C21.5622 56.3335 24.584 52.656 24.9445 52.2902C25.3036 51.9245 24.2435 54.3185 22.589 57.6103C20.9345 60.9021 17.4764 66.8871 14.9042 70.9104C12.3332 74.9337 9.13721 80.6196 7.80321 83.5456C6.4692 86.4716 5.36529 90.7623 5.34933 93.0791C5.33336 95.3974 5.68316 98.2396 6.12738 99.3967C6.57161 100.554 7.83513 101.501 8.93505 101.501C10.5005 101.501 10.7465 100.49 10.0656 96.8604C9.58676 94.3068 9.91394 89.8179 10.7931 86.8853C12.2721 81.9469 12.7469 81.5506 17.1678 81.5452C19.796 81.5426 23.8658 80.3695 26.2146 78.9371C28.5621 77.506 31.7156 73.9189 33.2211 70.9663C34.7281 68.015 36.3188 62.9782 36.7577 59.7755C37.2112 56.4691 36.8521 51.8194 35.9277 49.017C35.0313 46.3025 32.5043 42.0384 30.3124 39.5407C28.1192 37.0429 25.5589 35 24.6226 35C23.6863 35 22.6289 36.1132 22.2738 37.4725Z" fill="white"/>
<path d="M57.4355 60.4033H63.5536L55.5469 50.0292L63.1546 41.783H57.3557L50.147 49.5237V41.783H44.9333V60.4033H50.147V55.7482L52.1154 53.6468L57.4355 60.4033Z" fill="white"/>
<path d="M80.1048 41.783H74.9975L70.5819 49.1779L66.1662 41.783H60.6068L67.709 53.6468V60.4033H72.9759V53.7266L80.1048 41.783Z" fill="white"/>
<path d="M87.0664 60.7757C92.5993 60.7757 95.3125 58.0092 95.3125 54.764C95.3125 47.9011 84.7522 50.0292 84.7522 47.1829C84.7522 46.2519 85.5502 45.5071 87.758 45.5071C89.3806 45.5071 91.1362 45.9859 92.9185 46.9435L94.5411 43.0333C92.7057 41.9693 90.2052 41.4106 87.7846 41.4106C82.2517 41.4106 79.5385 44.1239 79.5385 47.4489C79.5385 54.365 90.1254 52.2104 90.1254 55.163C90.1254 56.0674 89.2742 56.6792 87.093 56.6792C84.9384 56.6792 82.5975 55.9344 80.9483 54.8438L79.2193 58.7275C80.9749 59.9511 84.0074 60.7757 87.0664 60.7757Z" fill="white"/>
<path d="M100.917 60.4033H106.184V45.9593H111.876V41.783H95.198V45.9593H100.917V60.4033Z" fill="white"/>
<path d="M137.965 57.6102L135.997 55.8546C136.795 54.631 137.38 53.1946 137.726 51.6252L133.656 50.4016C133.47 51.3858 133.204 52.2636 132.832 53.0616L130.118 50.641C132.486 49.3375 133.576 47.9011 133.576 45.9859C133.576 43.2461 131.262 41.517 127.831 41.517C124.054 41.517 121.58 43.4589 121.58 46.3051C121.58 47.5819 122.138 48.8055 123.362 50.0558C120.675 51.5188 119.478 53.168 119.478 55.5354C119.478 58.5679 122.617 60.7757 126.9 60.7757C129.267 60.7757 131.422 60.0841 133.151 58.8605L135.252 60.7225L137.965 57.6102ZM127.831 44.8421C128.815 44.8421 129.32 45.3475 129.32 46.0923C129.32 46.7839 128.815 47.3957 127.379 48.1671C126.421 47.2627 126.182 46.8105 126.182 46.2253C126.182 45.4273 126.767 44.8421 127.831 44.8421ZM127.272 56.9186C125.517 56.9186 124.426 56.094 124.426 54.9768C124.426 54.0458 124.905 53.301 126.102 52.5828L130.118 56.1472C129.267 56.6526 128.283 56.9186 127.272 56.9186Z" fill="white"/>
<path d="M44.9333 93.2279V74.6076H46.556L55.0681 89.1314H54.2169L62.6492 74.6076H64.2718V93.2279H62.3832V77.5603H62.8354L55.0681 90.8604H54.1371L46.3166 77.5603H46.822V93.2279H44.9333Z" fill="white"/>
<path d="M69.8067 93.2279V74.6076H71.7752V93.2279H69.8067Z" fill="white"/>
<path d="M77.3016 93.2279V74.6076H79.27V91.5254H89.6973V93.2279H77.3016Z" fill="white"/>
<path d="M94.4287 93.3875C93.3824 93.3875 92.3982 93.1569 91.476 92.6959C90.5716 92.2348 89.8445 91.5786 89.2948 90.7274L90.4386 89.3974C90.9529 90.1422 91.547 90.7097 92.2208 91.0998C92.8947 91.49 93.6395 91.685 94.4553 91.685C96.7606 91.685 97.9133 90.3196 97.9133 87.5886V76.31H91.1036V74.6076H99.8551V87.5088C99.8551 89.4772 99.394 90.9491 98.4719 91.9244C97.5675 92.8998 96.2197 93.3875 94.4287 93.3875Z" fill="white"/>
<path d="M113.367 93.3875C111.967 93.3875 110.663 93.1569 109.457 92.6959C108.269 92.217 107.232 91.552 106.345 90.7008C105.476 89.8319 104.793 88.8299 104.297 87.695C103.818 86.5423 103.579 85.2832 103.579 83.9177C103.579 82.5523 103.818 81.302 104.297 80.1671C104.793 79.0144 105.476 78.0125 106.345 77.1613C107.232 76.2923 108.269 75.6273 109.457 75.1662C110.645 74.6874 111.949 74.448 113.367 74.448C114.768 74.448 116.063 74.6874 117.251 75.1662C118.439 75.6273 119.468 76.2834 120.337 77.1347C121.223 77.9859 121.906 78.9878 122.385 80.1405C122.882 81.2932 123.13 82.5523 123.13 83.9177C123.13 85.2832 122.882 86.5423 122.385 87.695C121.906 88.8477 121.223 89.8496 120.337 90.7008C119.468 91.552 118.439 92.217 117.251 92.6959C116.063 93.1569 114.768 93.3875 113.367 93.3875ZM113.367 91.6318C114.485 91.6318 115.513 91.4456 116.453 91.0732C117.411 90.6831 118.235 90.1422 118.927 89.4506C119.636 88.7413 120.186 87.9255 120.576 87.0034C120.966 86.0635 121.161 85.035 121.161 83.9177C121.161 82.8005 120.966 81.7809 120.576 80.8587C120.186 79.9188 119.636 79.1031 118.927 78.4115C118.235 77.7021 117.411 77.1613 116.453 76.7889C115.513 76.3987 114.485 76.2036 113.367 76.2036C112.25 76.2036 111.213 76.3987 110.255 76.7889C109.298 77.1613 108.464 77.7021 107.755 78.4115C107.063 79.1031 106.513 79.9188 106.106 80.8587C105.715 81.7809 105.52 82.8005 105.52 83.9177C105.52 85.0172 105.715 86.0369 106.106 86.9768C106.513 87.9167 107.063 88.7413 107.755 89.4506C108.464 90.1422 109.298 90.6831 110.255 91.0732C111.213 91.4456 112.25 91.6318 113.367 91.6318ZM104.51 95.0899L120.656 72.7456H122.225L106.106 95.0899H104.51Z" fill="white"/>
<path d="M132.144 93.3875C130.761 93.3875 129.431 93.1658 128.154 92.7225C126.895 92.2614 125.919 91.6762 125.228 90.9668L125.999 89.4506C126.655 90.089 127.533 90.6299 128.633 91.0732C129.75 91.4988 130.92 91.7116 132.144 91.7116C133.314 91.7116 134.263 91.5698 134.99 91.286C135.735 90.9846 136.276 90.5856 136.613 90.089C136.967 89.5925 137.145 89.0427 137.145 88.4398C137.145 87.7127 136.932 87.1275 136.506 86.6842C136.098 86.2408 135.557 85.895 134.884 85.6468C134.21 85.3808 133.465 85.1502 132.649 84.9552C131.833 84.7601 131.018 84.5562 130.202 84.3433C129.386 84.1128 128.633 83.8113 127.941 83.4389C127.267 83.0665 126.717 82.5789 126.292 81.9759C125.884 81.3552 125.68 80.5484 125.68 79.5553C125.68 78.6331 125.919 77.7908 126.398 77.0283C126.895 76.248 127.648 75.6273 128.659 75.1662C129.67 74.6874 130.964 74.448 132.543 74.448C133.589 74.448 134.626 74.5988 135.655 74.9002C136.684 75.184 137.57 75.583 138.315 76.0972L137.65 77.6667C136.852 77.1347 136.001 76.7445 135.096 76.4963C134.21 76.248 133.35 76.1238 132.516 76.1238C131.399 76.1238 130.477 76.2746 129.75 76.5761C129.023 76.8775 128.482 77.2854 128.127 77.7997C127.79 78.2962 127.622 78.8637 127.622 79.5021C127.622 80.2292 127.826 80.8144 128.234 81.2577C128.659 81.701 129.209 82.0469 129.883 82.2951C130.574 82.5434 131.328 82.7651 132.144 82.9601C132.959 83.1552 133.766 83.368 134.564 83.5985C135.38 83.8291 136.125 84.1305 136.799 84.5029C137.49 84.8576 138.04 85.3364 138.448 85.9394C138.874 86.5423 139.086 87.3315 139.086 88.3068C139.086 89.2112 138.838 90.0536 138.342 90.8338C137.845 91.5964 137.083 92.217 136.054 92.6959C135.043 93.1569 133.74 93.3875 132.144 93.3875Z" fill="white"/>
<path d="M144.599 82.9335H154.441V84.6094H144.599V82.9335ZM144.812 91.5254H156.01V93.2279H142.843V74.6076H155.611V76.31H144.812V91.5254Z" fill="white"/>
<path d="M160.105 93.2279V74.6076H167.075C168.653 74.6076 170.01 74.8648 171.145 75.379C172.28 75.8756 173.148 76.6027 173.751 77.5603C174.372 78.5001 174.682 79.644 174.682 80.9917C174.682 82.304 174.372 83.4389 173.751 84.3965C173.148 85.3364 172.28 86.0635 171.145 86.5778C170.01 87.0743 168.653 87.3226 167.075 87.3226H161.196L162.074 86.4182V93.2279H160.105ZM172.82 93.2279L168.032 86.4714H170.16L174.975 93.2279H172.82ZM162.074 86.5778L161.196 85.6468H167.022C168.884 85.6468 170.293 85.2389 171.251 84.4231C172.226 83.6074 172.714 82.4636 172.714 80.9917C172.714 79.5021 172.226 78.3494 171.251 77.5337C170.293 76.7179 168.884 76.31 167.022 76.31H161.196L162.074 75.379V86.5778Z" fill="white"/>
<path d="M184.09 93.2279L175.844 74.6076H177.972L185.686 92.1372H184.515L192.283 74.6076H194.278L186.032 93.2279H184.09Z" fill="white"/>
<path d="M196.448 93.2279V74.6076H198.417V93.2279H196.448Z" fill="white"/>
<path d="M212.03 93.3875C210.629 93.3875 209.334 93.1569 208.146 92.6959C206.958 92.217 205.929 91.552 205.06 90.7008C204.191 89.8496 203.509 88.8477 203.012 87.695C202.533 86.5423 202.294 85.2832 202.294 83.9177C202.294 82.5523 202.533 81.2932 203.012 80.1405C203.509 78.9878 204.191 77.9859 205.06 77.1347C205.947 76.2834 206.984 75.6273 208.172 75.1662C209.361 74.6874 210.655 74.448 212.056 74.448C213.404 74.448 214.672 74.6786 215.86 75.1396C217.048 75.583 218.05 76.2568 218.866 77.1613L217.616 78.4115C216.853 77.6312 216.011 77.0726 215.089 76.7357C214.166 76.381 213.173 76.2036 212.109 76.2036C210.992 76.2036 209.955 76.3987 208.997 76.7889C208.039 77.1613 207.206 77.7021 206.497 78.4115C205.787 79.1031 205.229 79.9188 204.821 80.8587C204.431 81.7809 204.236 82.8005 204.236 83.9177C204.236 85.035 204.431 86.0635 204.821 87.0034C205.229 87.9255 205.787 88.7413 206.497 89.4506C207.206 90.1422 208.039 90.6831 208.997 91.0732C209.955 91.4456 210.992 91.6318 212.109 91.6318C213.173 91.6318 214.166 91.4545 215.089 91.0998C216.011 90.7452 216.853 90.1777 217.616 89.3974L218.866 90.6476C218.05 91.552 217.048 92.2348 215.86 92.6959C214.672 93.1569 213.395 93.3875 212.03 93.3875Z" fill="white"/>
<path d="M224.286 82.9335H234.128V84.6094H224.286V82.9335ZM224.498 91.5254H235.697V93.2279H222.53V74.6076H235.298V76.31H224.498V91.5254Z" fill="white"/>
<path d="M259.769 93.2279H265.249L257.003 74.6076H251.816L243.596 93.2279H248.97L250.433 89.6102H258.306L259.769 93.2279ZM251.976 85.7266L254.37 79.7681L256.764 85.7266H251.976Z" fill="white"/>
<path d="M272.754 93.6003C278.287 93.6003 281 90.8338 281 87.5886C281 80.7257 270.44 82.8537 270.44 80.0075C270.44 79.0765 271.238 78.3317 273.445 78.3317C275.068 78.3317 276.824 78.8105 278.606 79.7681L280.229 75.8578C278.393 74.7938 275.893 74.2352 273.472 74.2352C267.939 74.2352 265.226 76.9485 265.226 80.2735C265.226 87.1896 275.813 85.035 275.813 87.9876C275.813 88.892 274.962 89.5038 272.78 89.5038C270.626 89.5038 268.285 88.759 266.636 87.6684L264.907 91.552C266.662 92.7757 269.695 93.6003 272.754 93.6003Z" fill="white"/>
</g>
<defs>
<clipPath id="clip0_302_19">
<rect width="239" height="136" fill="white"/>
</clipPath>
</defs>
</svg>
