<svg width="368" height="368" viewBox="0 0 368 368" fill="none" xmlns="http://www.w3.org/2000/svg">
<circle cx="183.867" cy="183.973" r="183.593" fill="white"/>
<path d="M262.437 280.071C262.437 296.022 244.79 309.834 219.075 316.535C223.532 309.784 226.127 301.695 226.127 293C226.127 269.382 206.98 250.235 183.361 250.235C159.742 250.235 140.596 269.382 140.596 293C140.596 301.556 143.107 309.524 147.435 316.208C142.282 314.807 137.467 313.116 133.067 311.179H137.848C138.603 311.179 139.215 310.567 139.215 309.812C139.215 309.057 138.603 308.444 137.848 308.444H127.438C125.378 307.341 123.438 306.178 121.627 304.96H135.804C136.24 304.96 136.629 304.756 136.879 304.438C137.062 304.205 137.171 303.912 137.171 303.593C137.171 302.838 136.559 302.226 135.804 302.226H117.895C116.49 301.101 115.189 299.939 113.999 298.742H133.76C134.515 298.742 135.127 298.13 135.127 297.375C135.127 296.982 134.962 296.628 134.697 296.378C134.452 296.148 134.122 296.007 133.76 296.007H111.524C110.595 294.871 109.76 293.709 109.028 292.523H132.72C133.475 292.523 134.087 291.911 134.087 291.156C134.087 290.7 133.864 290.296 133.521 290.048C133.297 289.884 133.02 289.788 132.72 289.788H107.542C107.004 288.645 106.559 287.483 106.21 286.304H132.679C133.434 286.304 134.046 285.692 134.046 284.937C134.046 284.182 133.434 283.569 132.679 283.569H105.583C105.395 282.421 105.298 281.259 105.298 280.085H132.628C133.383 280.085 133.995 279.474 133.995 278.718C133.995 277.963 133.383 277.351 132.628 277.351H105.47C105.619 276.175 105.864 275.013 106.201 273.867H134.584C135.339 273.867 135.951 273.255 135.951 272.5C135.951 271.744 135.339 271.132 134.584 271.132H107.191C107.7 269.95 108.309 268.788 109.011 267.648H136.54C137.295 267.648 137.907 267.036 137.907 266.281C137.907 265.525 137.295 264.913 136.54 264.913H110.906C111.825 263.723 112.848 262.561 113.971 261.429H140.496C141.251 261.429 141.863 260.817 141.863 260.062C141.863 259.705 141.727 259.379 141.502 259.136C141.252 258.864 140.894 258.694 140.496 258.694H116.947C118.379 257.49 119.928 256.327 121.585 255.21H145.452C146.207 255.21 146.819 254.599 146.819 253.843C146.819 253.088 146.207 252.476 145.452 252.476H126.023C128.21 251.242 130.541 250.078 133.003 248.992H152.663C153.418 248.992 154.03 248.38 154.03 247.625C154.03 246.869 153.418 246.257 152.663 246.257H139.944C152.483 241.861 167.598 239.295 183.867 239.295C227.26 239.295 262.437 257.551 262.437 280.071Z" fill="#A95349"/>
<path d="M94.3222 140.433C110.59 140.433 121.795 128.232 121.795 108.312C121.795 88.392 110.59 76.689 94.3222 76.689C78.0542 76.689 66.8492 88.309 66.8492 108.312C66.8492 128.232 78.0542 140.433 94.3222 140.433ZM94.3222 129.809C85.1922 129.809 79.3822 121.426 79.3822 108.312C79.3822 95.115 85.1922 87.23 94.3222 87.23C103.452 87.23 109.262 95.115 109.262 108.312C109.262 121.426 103.452 129.809 94.3222 129.809ZM156.865 140.433C165.414 140.433 172.635 137.113 176.785 133.046V105.324H154.956V115.367H165.829V127.485C164.086 128.979 161.098 129.809 158.193 129.809C146.075 129.809 139.933 121.758 139.933 108.395C139.933 95.198 147.071 87.23 157.28 87.23C162.841 87.23 166.327 89.471 169.398 92.376L175.872 84.574C171.888 80.507 165.746 76.689 156.865 76.689C140.514 76.689 127.4 88.558 127.4 108.81C127.4 129.311 140.182 140.433 156.865 140.433ZM186.645 139.271H198.265V114.62C198.265 107.565 197.352 99.846 196.771 93.206H197.186L203.411 106.403L221.173 139.271H233.623V77.768H222.003V102.336C222.003 109.308 222.999 117.442 223.58 123.833H223.165L217.023 110.553L199.178 77.768H186.645V139.271ZM258.857 107.233C260.683 100.842 262.509 93.87 264.086 87.147H264.501C266.244 93.787 267.904 100.842 269.813 107.233L271.639 113.956H257.031L258.857 107.233ZM237.609 139.271H250.059L254.375 123.501H274.295L278.611 139.271H291.476L271.722 77.768H257.28L237.609 139.271Z" fill="#384B62"/>
<path d="M48.9272 210.544C54.7472 210.544 59.3072 208.504 62.0672 205.564V187.984H48.4472V191.044H58.5872V204.184C56.6072 206.164 53.0072 207.304 49.2872 207.304C39.4472 207.304 33.7472 199.684 33.7472 187.744C33.7472 175.924 39.8072 168.484 49.5272 168.484C54.2672 168.484 57.2672 170.464 59.4872 172.864L61.5872 170.524C59.1872 168.004 55.4072 165.244 49.4672 165.244C37.9472 165.244 29.9672 173.884 29.9672 187.864C29.9672 201.844 37.7072 210.544 48.9272 210.544ZM86.0583 210.544C96.7383 210.544 104.238 201.664 104.238 187.744C104.238 173.884 96.7383 165.244 86.0583 165.244C75.4983 165.244 67.9383 173.884 67.9383 187.744C67.9383 201.664 75.4983 210.544 86.0583 210.544ZM86.0583 207.304C77.4183 207.304 71.7183 199.624 71.7183 187.744C71.7183 175.864 77.4183 168.484 86.0583 168.484C94.7583 168.484 100.518 175.864 100.518 187.744C100.518 199.624 94.7583 207.304 86.0583 207.304ZM111.833 209.764H135.353V206.644H115.433V166.024H111.833V209.764ZM140.781 209.764H144.381V189.004H161.721V185.944H144.381V169.084H164.901V166.024H140.781V209.764ZM170.315 209.764H173.915V195.004L182.495 185.104L196.655 209.764H200.795L184.895 182.284L198.815 166.024H194.555L174.035 189.784H173.915V166.024H170.315V209.764ZM205.298 209.764H228.818V206.644H208.898V166.024H205.298V209.764ZM247.365 210.544C255.225 210.544 262.365 206.464 262.365 192.664V166.024H258.945V192.484C258.945 203.884 253.545 207.304 247.365 207.304C241.305 207.304 236.025 203.884 236.025 192.484V166.024H232.425V192.664C232.425 206.464 239.505 210.544 247.365 210.544ZM272.509 209.764H285.469C295.309 209.764 301.789 205.444 301.789 196.984C301.789 190.984 298.069 187.444 292.489 186.484V186.184C296.809 184.864 299.149 181.144 299.149 176.644C299.149 169.264 293.389 166.024 284.569 166.024H272.509V209.764ZM276.109 185.104V168.964H283.789C291.529 168.964 295.549 171.124 295.549 177.064C295.549 182.044 292.069 185.104 283.429 185.104H276.109ZM276.109 206.764V187.984H284.629C293.329 187.984 298.249 190.864 298.249 196.984C298.249 203.764 293.089 206.764 284.629 206.764H276.109ZM308.605 209.764H321.565C331.405 209.764 337.885 205.444 337.885 196.984C337.885 190.984 334.165 187.444 328.585 186.484V186.184C332.905 184.864 335.245 181.144 335.245 176.644C335.245 169.264 329.485 166.024 320.665 166.024H308.605V209.764ZM312.205 185.104V168.964H319.885C327.625 168.964 331.645 171.124 331.645 177.064C331.645 182.044 328.165 185.104 319.525 185.104H312.205ZM312.205 206.764V187.984H320.725C329.425 187.984 334.345 190.864 334.345 196.984C334.345 203.764 329.185 206.764 320.725 206.764H312.205Z" fill="#384B62"/>
</svg>
