<svg width="309" height="241" viewBox="0 0 309 241" fill="none" xmlns="http://www.w3.org/2000/svg">
<path d="M233.402 204.071C233.402 220.022 215.755 233.834 190.041 240.535C194.498 233.784 197.092 225.695 197.092 217C197.092 193.382 177.946 174.235 154.327 174.235C130.708 174.235 111.561 193.382 111.561 217C111.561 225.556 114.073 233.524 118.4 240.208C113.248 238.807 108.432 237.116 104.033 235.179H108.813C109.568 235.179 110.18 234.567 110.18 233.812C110.18 233.057 109.568 232.444 108.813 232.444H98.4029C96.3434 231.341 94.4029 230.178 92.5924 228.96H106.769C107.206 228.96 107.594 228.756 107.844 228.437C108.027 228.205 108.136 227.912 108.136 227.593C108.136 226.838 107.524 226.226 106.769 226.226H88.86C87.4557 225.101 86.1549 223.939 84.9645 222.742H104.725C105.48 222.742 106.092 222.13 106.092 221.374C106.092 220.982 105.927 220.628 105.663 220.378C105.418 220.148 105.088 220.007 104.725 220.007H82.4898C81.5602 218.871 80.7252 217.709 79.9938 216.523H103.685C104.44 216.523 105.052 215.911 105.052 215.156C105.052 214.7 104.83 214.296 104.487 214.048C104.262 213.884 103.985 213.788 103.685 213.788H78.5074C77.9693 212.645 77.524 211.483 77.1754 210.304H103.644C104.399 210.304 105.011 209.692 105.011 208.937C105.011 208.182 104.399 207.569 103.644 207.569H76.5484C76.36 206.421 76.2633 205.259 76.2633 204.085H103.593C104.348 204.085 104.961 203.474 104.961 202.718C104.961 201.963 104.348 201.351 103.593 201.351H76.4352C76.5846 200.175 76.8297 199.013 77.1666 197.867H105.549C106.304 197.867 106.917 197.255 106.917 196.499C106.917 195.744 106.304 195.132 105.549 195.132H78.1568C78.6656 193.95 79.274 192.788 79.9762 191.648H107.505C108.26 191.648 108.873 191.036 108.873 190.281C108.873 189.525 108.26 188.913 107.505 188.913H81.8717C82.7906 187.723 83.8131 186.561 84.9361 185.429H111.462C112.216 185.429 112.829 184.817 112.829 184.062C112.829 183.705 112.692 183.379 112.467 183.136C112.217 182.864 111.859 182.694 111.462 182.694H87.9127C89.3443 181.49 90.8932 180.327 92.5504 179.21H116.418C117.172 179.21 117.785 178.599 117.785 177.843C117.785 177.088 117.172 176.476 116.418 176.476H96.9889C99.1754 175.242 101.506 174.078 103.968 172.992H123.629C124.383 172.992 124.996 172.38 124.996 171.624C124.996 170.869 124.383 170.257 123.629 170.257H110.91C123.449 165.861 138.563 163.295 154.833 163.295C198.225 163.295 233.402 181.551 233.402 204.071Z" fill="white"/>
<path d="M65.2876 64.433C81.5556 64.433 92.7606 52.232 92.7606 32.312C92.7606 12.392 81.5556 0.688965 65.2876 0.688965C49.0196 0.688965 37.8146 12.309 37.8146 32.312C37.8146 52.232 49.0196 64.433 65.2876 64.433ZM65.2876 53.809C56.1576 53.809 50.3476 45.426 50.3476 32.312C50.3476 19.115 56.1576 11.23 65.2876 11.23C74.4176 11.23 80.2276 19.115 80.2276 32.312C80.2276 45.426 74.4176 53.809 65.2876 53.809Z" fill="white"/>
<path d="M127.831 64.433C136.38 64.433 143.601 61.113 147.751 57.046V29.324H125.922V39.367H136.795V51.485C135.052 52.979 132.064 53.809 129.159 53.809C117.041 53.809 110.899 45.758 110.899 32.395C110.899 19.198 118.037 11.23 128.246 11.23C133.807 11.23 137.293 13.471 140.364 16.376L146.838 8.57396C142.854 4.50697 136.712 0.688965 127.831 0.688965C111.48 0.688965 98.3657 12.558 98.3657 32.81C98.3657 53.311 111.148 64.433 127.831 64.433Z" fill="white"/>
<path d="M157.611 63.271H169.231V38.62C169.231 31.565 168.318 23.846 167.737 17.206H168.152L174.377 30.403L192.139 63.271H204.589V1.76796H192.969V26.336C192.969 33.308 193.965 41.442 194.546 47.833H194.131L187.989 34.553L170.144 1.76796H157.611V63.271Z" fill="white"/>
<path d="M229.823 31.233C231.649 24.842 233.475 17.87 235.052 11.147H235.467C237.21 17.787 238.87 24.842 240.779 31.233L242.605 37.956H227.997L229.823 31.233ZM208.575 63.271H221.025L225.341 47.501H245.261L249.577 63.271H262.442L242.688 1.76796H228.246L208.575 63.271Z" fill="white"/>
<path d="M19.8926 134.544C25.7126 134.544 30.2726 132.504 33.0326 129.564V111.984H19.4126V115.044H29.5526V128.184C27.5726 130.164 23.9726 131.304 20.2526 131.304C10.4126 131.304 4.71262 123.684 4.71262 111.744C4.71262 99.9236 10.7726 92.4836 20.4926 92.4836C25.2326 92.4836 28.2326 94.4636 30.4526 96.8636L32.5526 94.5236C30.1526 92.0036 26.3726 89.2436 20.4326 89.2436C8.91262 89.2436 0.932617 97.8836 0.932617 111.864C0.932617 125.844 8.67262 134.544 19.8926 134.544Z" fill="white"/>
<path d="M57.0237 134.544C67.7037 134.544 75.2037 125.664 75.2037 111.744C75.2037 97.8836 67.7037 89.2436 57.0237 89.2436C46.4637 89.2436 38.9037 97.8836 38.9037 111.744C38.9037 125.664 46.4637 134.544 57.0237 134.544ZM57.0237 131.304C48.3837 131.304 42.6837 123.624 42.6837 111.744C42.6837 99.8636 48.3837 92.4836 57.0237 92.4836C65.7237 92.4836 71.4837 99.8636 71.4837 111.744C71.4837 123.624 65.7237 131.304 57.0237 131.304Z" fill="white"/>
<path d="M82.7989 133.764H106.319V130.644H86.3989V90.0236H82.7989V133.764Z" fill="white"/>
<path d="M111.747 133.764H115.347V113.004H132.687V109.944H115.347V93.0836H135.867V90.0236H111.747V133.764Z" fill="white"/>
<path d="M141.28 133.764H144.88V119.004L153.46 109.104L167.62 133.764H171.76L155.86 106.284L169.78 90.0236H165.52L145 113.784H144.88V90.0236H141.28V133.764Z" fill="white"/>
<path d="M176.263 133.764H199.783V130.644H179.863V90.0236H176.263V133.764Z" fill="white"/>
<path d="M218.33 134.544C226.19 134.544 233.33 130.464 233.33 116.664V90.0236H229.91V116.484C229.91 127.884 224.51 131.304 218.33 131.304C212.27 131.304 206.99 127.884 206.99 116.484V90.0236H203.39V116.664C203.39 130.464 210.47 134.544 218.33 134.544Z" fill="white"/>
<path d="M243.475 133.764H256.435C266.275 133.764 272.755 129.444 272.755 120.984C272.755 114.984 269.035 111.444 263.455 110.484V110.184C267.775 108.864 270.115 105.144 270.115 100.644C270.115 93.2636 264.355 90.0236 255.535 90.0236H243.475V133.764ZM247.075 109.104V92.9636H254.755C262.495 92.9636 266.515 95.1236 266.515 101.064C266.515 106.044 263.035 109.104 254.395 109.104H247.075ZM247.075 130.764V111.984H255.595C264.295 111.984 269.215 114.864 269.215 120.984C269.215 127.764 264.055 130.764 255.595 130.764H247.075Z" fill="white"/>
<path d="M279.571 133.764H292.531C302.371 133.764 308.851 129.444 308.851 120.984C308.851 114.984 305.131 111.444 299.551 110.484V110.184C303.871 108.864 306.211 105.144 306.211 100.644C306.211 93.2636 300.451 90.0236 291.631 90.0236H279.571V133.764ZM283.171 109.104V92.9636H290.851C298.591 92.9636 302.611 95.1236 302.611 101.064C302.611 106.044 299.131 109.104 290.491 109.104H283.171ZM283.171 130.764V111.984H291.691C300.391 111.984 305.311 114.864 305.311 120.984C305.311 127.764 300.151 130.764 291.691 130.764H283.171Z" fill="white"/>
</svg>
