<svg width="102" height="102" viewBox="0 0 102 102" fill="none" xmlns="http://www.w3.org/2000/svg">
<circle cx="51" cy="51" r="51" fill="#F2F2F2"/>
<path d="M28.846 36.7438C23.8575 37.0175 13.0254 41.8071 13.0254 54.2601C13.0254 62.7446 20.7219 68.2184 26.8506 69.8606C35.5449 71.0922 39.8207 69.0395 44.6667 64.3868C48.0873 61.1025 50.2253 56.8492 51.223 53.9754C52.2207 51.1016 53.9579 47.4068 55.4988 44.8178C59.0009 38.9333 70.8919 32.3648 81.7244 40.165C82.2816 40.5662 82.8005 40.977 83.2831 41.3961M83.2831 41.3961C92.1846 49.1251 88.743 59.6563 85.0026 64.1131C81.7244 68.0189 71.1769 75.0607 60.3452 66.3026L83.2831 41.3961ZM83.2831 41.3961L87.5677 36.7438" stroke="#8F8585" stroke-width="5.58009"/>
</svg>
