<svg width="82" height="41" viewBox="0 0 82 41" fill="none" xmlns="http://www.w3.org/2000/svg">
<path d="M18.846 3.74384C13.8575 4.01753 3.02539 8.80715 3.02539 21.2601C3.02539 29.7446 10.7219 35.2184 16.8506 36.8606C25.5449 38.0922 29.8207 36.0395 34.6667 31.3868C38.0873 28.1025 40.2253 23.8492 41.223 20.9754C42.2207 18.1016 43.9579 14.4068 45.4988 11.8178C49.0009 5.93334 60.8919 -0.635231 71.7244 7.165C72.2816 7.56618 72.8005 7.97701 73.2831 8.39608M73.2831 8.39608C82.1846 16.1251 78.743 26.6563 75.0026 31.1131C71.7244 35.0189 61.1769 42.0607 50.3452 33.3026L73.2831 8.39608ZM73.2831 8.39608L77.5677 3.74384" stroke="white" stroke-width="5.58009"/>
</svg>
