<svg width="102" height="103" viewBox="0 0 102 103" fill="none" xmlns="http://www.w3.org/2000/svg">
<g clip-path="url(#clip0)">
<circle cx="51" cy="51.547" r="51" fill="#C8574E"/>
<path fill-rule="evenodd" clip-rule="evenodd" d="M69.0097 26.3228L71.9369 22.6566L74.0446 23.9951L69.7707 29.5816L61.8671 39.7654L64.7358 40.0563C68.5608 40.5219 77.288 43.0824 81.597 49.6C85.906 56.1176 84.3291 63.7991 83.0021 66.8251C82.1824 68.5903 79.9226 72.6328 77.4402 74.6812C74.3373 77.2417 63.682 83.7011 60.6376 84.3412C60.6376 84.3412 56.9287 85.6215 56.4604 85.4469C55.992 85.2723 54.6659 84.3412 54.6659 84.3412L50.919 81.8971C48.0112 82.5761 42.1957 83.7593 37.6876 83.7011C35.3458 83.6429 30.0287 83.0729 27.2079 81.8971C23.5781 80.3841 20.0068 77.649 18.5432 74.5648C17.3722 72.0974 17.5603 70.8405 17.665 70.2003C17.8838 68.8619 19.3511 65.0794 23.0512 63.4499C26.7513 61.8205 30.9549 62.1891 32.5942 62.5771L38.9171 64.381L42.4884 59.9584C39.6392 59.3958 33.0976 57.1767 29.7254 52.8006C26.3532 48.4245 26.5639 43.8389 27.0908 42.0931C27.0908 42.0931 29.0024 37.4377 30.8173 34.9936C30.8173 34.9936 29.7319 36.9721 30.0767 40.0563C30.4214 43.1406 32.0087 45.4683 36.5167 47.9706C41.0247 50.4729 44.7131 50.9966 49.5724 50.9966L52.0314 47.9124V47.8542C46.1768 47.2723 41.4931 46.6322 38.5073 44.1881C37.2778 43.3152 34.7018 40.6965 34.4091 35.8083C34.3896 34.5474 34.5847 31.3623 36.224 28.7087C37.8633 26.0551 39.2684 24.9262 40.088 24.2278C40.088 24.2278 42.7811 22.2958 44.6546 21.0854C46.5281 19.875 50.0993 18.1758 50.0993 18.1758C50.0993 18.1758 52.4207 17.1283 52.9476 17.1283C53.4745 17.1283 55.427 18.1758 55.427 18.1758C59.4862 20.8914 67.8856 26.3228 69.0097 26.3228ZM62.9209 34.0625L58.8227 39.2416L58.647 39.4162L52.4412 39.0671C50.193 38.9274 47.4453 38.2718 46.3524 37.9614C43.6593 37.0885 42.2737 35.1099 41.7273 34.0625C41.0247 31.7347 41.6883 30.4157 42.02 29.1743C42.4884 28.0686 44.2096 25.7991 47.3477 25.5663C50.4858 25.3335 53.6902 26.8271 54.9001 27.603C58.7056 29.5816 62.9209 34.0625 62.9209 34.0625ZM55.1343 48.087L52.5583 51.3458L58.4714 51.695C59.9936 51.8113 63.237 52.3467 64.7358 52.8588C66.6093 53.4989 68.5998 54.6628 69.7707 55.8267C70.9417 56.9905 71.5271 57.8634 72.4053 59.6674C73.1079 61.1106 73.2445 63.2172 73.2249 64.0901C73.2249 65.1181 72.9556 67.7097 71.8784 69.8512C70.8011 71.9927 67.9949 74.1187 66.7264 74.914L63.1551 76.9507L66.0238 78.9293C66.7264 78.4056 68.916 77.2417 70.4147 75.8451C72.2882 74.0993 72.698 73.8083 74.1617 71.9461C75.6253 70.084 76.2693 68.5127 76.9133 65.8941C77.5573 63.2754 77.4402 60.6567 76.9133 58.0962C76.3864 55.5357 73.2835 52.4515 70.4147 50.9966C65.6842 48.3896 58.2567 47.9706 55.1343 48.087ZM45.3571 60.5403L41.6688 65.1957C42.02 65.3509 42.9919 65.766 44.0691 66.185C45.4157 66.7088 49.2797 68.8619 50.6848 69.5602C51.8089 70.1189 56.9492 73.2264 59.4081 74.6812C61.2231 73.4592 63.2136 71.5051 64.2674 69.8512C65.3213 68.1973 65.3798 66.9803 65.3213 66.3596C65.3213 65.8941 65.0988 64.8349 64.4431 64.0901C63.6234 63.159 62.3354 62.8098 61.2231 62.4025C60.1107 61.9951 53.6121 61.2386 51.0946 61.1804C49.0807 61.1339 46.4305 60.7343 45.3571 60.5403ZM33.0625 80.2677C38.3199 81.0486 44.1277 80.035 46.7622 79.3948L46.5281 79.2203L43.4837 77.2417L40.1466 75.2631L36.8095 73.4591C35.8142 72.9742 33.6597 71.9345 33.004 71.6552C32.1843 71.306 29.7254 70.3167 29.1985 70.1421C28.6716 69.9676 27.2079 69.6766 26.7396 69.6184C26.2127 69.5602 25.393 69.4438 24.749 69.6184C24.105 69.793 23.5781 70.1421 23.1097 70.5495C22.735 70.8754 22.4852 71.4612 22.4072 71.7134C22.2706 71.8685 22.0793 72.5164 22.4072 73.8665C22.735 75.2166 24.105 76.524 24.749 77.0089C25.6857 77.94 27.969 79.5112 33.0625 80.2677Z" fill="white"/>
</g>
<defs>
<clipPath id="clip0">
<rect width="102" height="102" fill="white" transform="translate(0 0.546997)"/>
</clipPath>
</defs>
</svg>
