<svg width="68" height="69" viewBox="0 0 68 69" fill="none" xmlns="http://www.w3.org/2000/svg">
<path fill-rule="evenodd" clip-rule="evenodd" d="M52.0097 9.32279L54.9369 5.65663L57.0446 6.99507L52.7707 12.5816L44.8671 22.7654L47.7358 23.0563C51.5608 23.5219 60.288 26.0824 64.597 32.6C68.906 39.1176 67.3291 46.7991 66.0021 49.8251C65.1824 51.5903 62.9226 55.6328 60.4402 57.6812C57.3373 60.2417 46.682 66.7011 43.6376 67.3412C43.6376 67.3412 39.9287 68.6215 39.4604 68.4469C38.992 68.2723 37.6659 67.3412 37.6659 67.3412L33.919 64.8971C31.0112 65.5761 25.1957 66.7593 20.6876 66.7011C18.3458 66.6429 13.0287 66.0729 10.2079 64.8971C6.57809 63.3841 3.0068 60.649 1.54316 57.5648C0.372241 55.0974 0.560325 53.8405 0.664976 53.2003C0.883792 51.8619 2.35109 48.0794 6.05118 46.4499C9.75128 44.8205 13.9549 45.1891 15.5942 45.5771L21.9171 47.381L25.4884 42.9584C22.6392 42.3958 16.0976 40.1767 12.7254 35.8006C9.35316 31.4245 9.56393 26.8389 10.0908 25.0931C10.0908 25.0931 12.0024 20.4377 13.8173 17.9936C13.8173 17.9936 12.7319 19.9721 13.0767 23.0563C13.4214 26.1406 15.0087 28.4683 19.5167 30.9706C24.0247 33.4729 27.7131 33.9966 32.5724 33.9966L35.0314 30.9124V30.8542C29.1768 30.2723 24.4931 29.6322 21.5073 27.1881C20.2778 26.3152 17.7018 23.6965 17.4091 18.8083C17.3896 17.5474 17.5847 14.3623 19.224 11.7087C20.8633 9.05511 22.2684 7.92616 23.088 7.22785C23.088 7.22785 25.7811 5.29584 27.6546 4.08542C29.5281 2.87501 33.0993 1.17577 33.0993 1.17577C33.0993 1.17577 35.4207 0.128296 35.9476 0.128296C36.4745 0.128296 38.427 1.17577 38.427 1.17577C42.4862 3.89145 50.8856 9.32279 52.0097 9.32279ZM45.9209 17.0625L41.8227 22.2416L41.647 22.4162L35.4412 22.0671C33.193 21.9274 30.4453 21.2718 29.3524 20.9614C26.6593 20.0885 25.2737 18.1099 24.7273 17.0625C24.0247 14.7347 24.6883 13.4157 25.02 12.1743C25.4884 11.0686 27.2096 8.79906 30.3477 8.56629C33.4858 8.33351 36.6902 9.82714 37.9001 10.603C41.7056 12.5816 45.9209 17.0625 45.9209 17.0625ZM38.1343 31.087L35.5583 34.3458L41.4714 34.695C42.9936 34.8113 46.237 35.3467 47.7358 35.8588C49.6093 36.4989 51.5998 37.6628 52.7707 38.8267C53.9417 39.9905 54.5271 40.8634 55.4053 42.6674C56.1079 44.1106 56.2445 46.2172 56.2249 47.0901C56.2249 48.1181 55.9556 50.7097 54.8784 52.8512C53.8011 54.9927 50.9949 57.1187 49.7264 57.914L46.1551 59.9507L49.0238 61.9293C49.7264 61.4056 51.916 60.2417 53.4147 58.8451C55.2882 57.0993 55.698 56.8083 57.1617 54.9461C58.6253 53.084 59.2693 51.5127 59.9133 48.8941C60.5573 46.2754 60.4402 43.6567 59.9133 41.0962C59.3864 38.5357 56.2835 35.4515 53.4147 33.9966C48.6842 31.3896 41.2567 30.9706 38.1343 31.087ZM28.3571 43.5403L24.6688 48.1957C25.02 48.3509 25.9919 48.766 27.0691 49.185C28.4157 49.7088 32.2797 51.8619 33.6848 52.5602C34.8089 53.1189 39.9492 56.2264 42.4081 57.6812C44.2231 56.4592 46.2136 54.5051 47.2674 52.8512C48.3213 51.1973 48.3798 49.9803 48.3213 49.3596C48.3213 48.8941 48.0988 47.8349 47.4431 47.0901C46.6234 46.159 45.3354 45.8098 44.2231 45.4025C43.1107 44.9951 36.6121 44.2386 34.0946 44.1804C32.0807 44.1339 29.4305 43.7343 28.3571 43.5403ZM16.0625 63.2677C21.3199 64.0486 27.1277 63.035 29.7622 62.3948L29.5281 62.2203L26.4837 60.2417L23.1466 58.2631L19.8095 56.4591C18.8142 55.9742 16.6597 54.9345 16.004 54.6552C15.1843 54.306 12.7254 53.3167 12.1985 53.1421C11.6716 52.9676 10.2079 52.6766 9.73957 52.6184C9.21265 52.5602 8.39301 52.4438 7.74901 52.6184C7.10501 52.793 6.57809 53.1421 6.10973 53.5495C5.73503 53.8754 5.48524 54.4612 5.40718 54.7134C5.27057 54.8685 5.07932 55.5164 5.40718 56.8665C5.73503 58.2166 7.10501 59.524 7.74901 60.0089C8.68574 60.94 10.969 62.5112 16.0625 63.2677Z" fill="white"/>
</svg>
