<svg width="239" height="136" viewBox="0 0 239 136" fill="none" xmlns="http://www.w3.org/2000/svg">
<g clip-path="url(#clip0_913_174)">
<path fill-rule="evenodd" clip-rule="evenodd" d="M51.6026 1.35832C47.367 2.42772 40.1965 5.20405 35.6684 7.52794C31.1403 9.85183 23.6978 15.5094 19.1288 20.1037C14.5619 24.6959 8.38742 33.681 5.4096 40.0686C0.740401 50.0819 -0.00609831 54.378 3.7302e-05 71.221C0.00412771 87.6302 0.754717 92.171 4.6856 99.5828C7.26051 104.438 12.9789 112.041 17.3925 116.479C21.8081 120.919 30.2834 127.126 36.2267 130.275C45.9578 135.43 49.0686 136 67.4857 136C84.1336 136.002 89.717 135.175 97.5011 131.558C102.759 129.115 111.228 123.254 116.321 118.534C121.412 113.814 127.924 105.222 130.789 99.4388C135.11 90.7191 136 86.0178 136 71.9223C136 59.8648 134.791 51.6736 131.842 43.7457C129.554 37.5987 123.984 28.3442 119.462 23.1803C114.507 17.5186 106.05 11.2174 98.1658 7.31611C88.7435 2.65188 81.4871 0.64264 72.1978 0.126448C65.1071 -0.266351 55.8403 0.286859 51.6026 1.35832ZM58.2086 6.23849C56.5622 7.82408 51.0729 9.77985 46.011 10.586C40.9491 11.3922 37.4293 11.3983 38.1901 10.5984C38.9489 9.79836 43.0905 7.88372 47.3936 6.34131C51.6946 4.79891 56.5622 3.49506 58.2086 3.4457C60.8387 3.3655 60.8387 3.70688 58.2086 6.23849ZM94.5846 8.6652C98.2414 10.1541 101.232 11.7624 101.232 12.2395C101.232 12.7166 96.8814 12.2888 91.5659 11.2914C86.2484 10.2919 80.4972 8.03796 78.7834 6.27962C75.9753 3.40046 76.2719 3.22565 81.8021 4.52127C85.1767 5.31304 90.9278 7.17627 94.5846 8.6652ZM62.5751 18.2466C61.4687 21.1669 56.37 26.4604 51.2426 30.008C46.1153 33.5555 41.9206 35.9144 41.9206 35.248C41.9206 34.5838 43.7204 30.4913 45.921 26.154C48.1217 21.8168 52.9545 15.7027 56.6583 12.5644C61.7734 8.23333 63.5384 7.59169 63.9884 9.89707C64.3156 11.567 63.6795 15.3243 62.5751 18.2466ZM88.449 22.7834C92.1058 28.1879 95.0959 33.4856 95.0959 34.5529C95.0959 35.6182 92.2408 34.8203 88.7517 32.7781C85.2626 30.7339 80.2007 26.4461 77.5031 23.2481C74.8054 20.0523 72.5987 15.0796 72.5987 12.2004C72.5987 7.25647 72.8543 7.13308 77.2004 9.96082C79.7303 11.6061 84.7922 17.3767 88.449 22.7834ZM48.0153 16.7721C46.5918 18.4955 45.0068 19.4826 44.4914 18.9664C43.9781 18.4482 44.1621 17.0374 44.9046 15.8322C45.6449 14.6251 47.232 13.6379 48.4264 13.6379C49.7844 13.6379 49.629 14.8184 48.0153 16.7721ZM72.4596 24.9489C73.9669 29.4733 77.0531 35.8259 79.3192 39.067L83.4382 44.959L79.0451 43.5565C76.6277 42.7853 72.114 42.0819 69.0134 41.9935C65.9129 41.9051 61.3296 42.485 58.8283 43.2829C54.4148 44.6917 54.4618 44.3894 60.3724 33.0907C63.7225 26.6867 66.463 19.5052 66.463 17.1299C66.463 14.7258 67.183 13.6811 68.091 14.769C68.9868 15.8425 70.9523 20.4245 72.4596 24.9489ZM92.112 15.8322C92.8544 17.0374 93.0384 18.4482 92.5251 18.9664C92.0097 19.4826 90.4247 18.4955 89.0012 16.7721C87.3875 14.8184 87.2321 13.6379 88.5901 13.6379C89.7845 13.6379 91.3716 14.6251 92.112 15.8322ZM39.5073 20.1119C39.1473 22.5407 37.188 25.5494 35.153 26.7957C32.2038 28.6034 30.8663 28.264 28.5409 25.1175C26.3832 22.1952 26.2134 20.4636 27.8884 18.4338C29.1319 16.9263 32.4022 15.6945 35.1551 15.6945C39.1146 15.6945 40.0226 16.6178 39.5073 20.1119ZM107.056 17.5145C108.574 18.4811 109.482 21.0127 109.075 23.1391C108.586 25.6872 106.6 27.0054 103.248 27.0054C99.2211 27.0054 98.0287 25.8291 97.5174 21.3499C97.0204 17.0086 97.7322 15.7027 100.585 15.7253C102.628 15.7438 105.541 16.5479 107.056 17.5145ZM13.8072 39.4208C9.6125 47.9451 5.89023 54.0469 5.53641 52.9795C5.18259 51.9122 6.29722 47.6593 8.01315 43.5297C9.72908 39.4002 13.0607 33.2984 15.4168 29.971C17.7729 26.6435 20.0921 23.9206 20.5687 23.9206C21.0452 23.9206 18.0019 30.8964 13.8072 39.4208ZM129.042 47.1904C130.848 52.6361 131.959 57.4607 131.509 57.9132C131.059 58.3656 127.306 51.1328 123.168 41.8413C116.607 27.1124 116.292 25.7386 120.702 31.1185C123.483 34.5118 127.236 41.7447 129.042 47.1904ZM39.8754 29.9319C39.8754 30.9766 37.4641 34.7113 34.519 38.2321C31.5719 41.7529 26.2809 46.0901 22.7591 47.869C17.2554 50.6474 17.9263 49.4814 27.5346 39.5688C33.6825 33.2244 38.9755 28.0337 39.2946 28.0337C39.6136 28.0337 39.8754 28.8872 39.8754 29.9319ZM119.42 50.1415C119.914 50.4233 119.853 51.1245 119.283 51.6983C118.714 52.2721 114.452 49.977 109.813 46.5981C105.173 43.2192 99.8653 37.428 98.0144 33.7303C94.965 27.6327 95.7647 28.0604 106.586 38.3164C113.151 44.5374 118.927 49.8598 119.42 50.1415ZM28.5266 31.9823C29.1647 33.0229 27.2381 35.8115 24.2439 38.1807C21.2497 40.5498 18.4457 42.1313 18.0122 41.6953C17.5786 41.2614 18.3271 38.4706 19.6749 35.4969C21.0227 32.5231 23.3031 30.0902 24.7429 30.0902C26.1848 30.0902 27.8864 30.9416 28.5266 31.9823ZM56.4988 33.7118C55.4374 35.7046 52.8747 38.8161 50.8029 40.628C48.7291 42.4398 43.841 44.5292 39.9388 45.2696C35.6705 46.0819 33.6334 45.8783 34.8258 44.7575C35.9159 43.7333 41.4093 40.0316 47.0336 36.5313C52.6579 33.0311 57.5214 30.1499 57.8425 30.1293C58.1636 30.1087 57.5582 31.7211 56.4988 33.7118ZM100.209 44.2783C103.714 46.4212 103.127 46.6001 96.1185 45.5307C90.7314 44.7081 86.369 42.3842 83.3462 38.7277C80.8204 35.6738 78.7506 32.4368 78.7445 31.5339C78.7384 30.6311 82.6468 32.5663 87.4264 35.8342C92.206 39.102 97.9592 42.9025 100.209 44.2783ZM116.517 36.157C118.233 39.4948 119.638 42.9066 119.638 43.7395C119.638 44.5745 116.91 42.6269 113.576 39.4146C110.241 36.2023 107.995 32.7905 108.584 31.8321C109.171 30.8738 110.496 30.0902 111.525 30.0902C112.556 30.0902 114.801 32.8213 116.517 36.157ZM77.9837 47.8382C81.8491 49.6829 85.9314 52.9219 87.0583 55.0361C88.1831 57.1523 88.2977 58.8818 87.3098 58.8818C86.324 58.8818 84.3606 62.7666 82.9454 67.5152C80.8449 74.5609 80.0187 75.511 78.4439 72.6832C77.2086 70.4642 77.2822 67.7805 78.6484 65.2139C79.8203 63.0113 80.7795 60.6463 80.7795 59.9594C80.7795 59.2705 73.6479 58.9785 64.9292 59.3096C49.6147 59.8895 49.0584 60.089 48.4673 65.1892C48.0071 69.1748 49.134 71.0545 53.069 72.8581C55.9364 74.1722 58.2822 76.6544 58.2822 78.3757C58.2822 80.095 56.8731 81.5037 55.151 81.5037C53.4269 81.5037 51.4676 80.0621 50.7968 78.3017C50.1014 76.4796 48.2464 75.6097 46.4998 76.2842C43.9535 77.2652 43.6058 75.8565 44.4771 68.093C45.0539 62.9352 47.2463 56.7759 49.3488 54.4047C51.4492 52.0335 55.9302 48.8685 59.3048 47.3713C62.6794 45.8721 66.6819 44.6115 68.1994 44.5662C69.717 44.523 74.1203 45.9955 77.9837 47.8382ZM42.9248 50.6844C42.2192 51.832 38.2535 54.4232 34.112 56.4427C29.9705 58.4643 24.4586 59.7661 21.8612 59.3404C19.2659 58.9147 17.4947 57.4792 17.9242 56.1528C18.3557 54.8263 21.8592 52.6361 25.7123 51.2849C29.5655 49.9359 35.3023 48.778 38.4622 48.7143C41.849 48.6464 43.6815 49.4546 42.9248 50.6844ZM114.082 54.0716C117.211 55.6818 119.227 57.8864 118.563 58.9702C117.896 60.052 114.924 60.9383 111.959 60.9383C108.991 60.9383 103.064 58.4993 98.7855 55.5173C94.5069 52.5353 91.0055 49.6788 91.0055 49.1667C91.0055 48.6567 94.918 48.8911 99.6976 49.6891C104.477 50.4891 110.95 52.4592 114.082 54.0716ZM12.4451 58.3574C11.7845 59.0237 10.7599 59.0833 10.1708 58.4911C9.58387 57.8988 9.78634 55.6613 10.6228 53.5204C12.0708 49.8145 12.1813 49.8083 12.8971 53.3867C13.3102 55.4556 13.1078 57.6911 12.4451 58.3574ZM126.514 55.797C127.161 57.4936 126.799 58.8818 125.711 58.8818C124.62 58.8818 123.729 57.4936 123.729 55.797C123.729 54.1003 124.091 52.7122 124.533 52.7122C124.974 52.7122 125.866 54.1003 126.514 55.797ZM41.3868 61.9666C39.8202 67.0977 39.8202 71.2334 41.3868 76.3665L43.5854 83.5685L37.4641 79.186C34.0977 76.7758 27.0499 73.1151 21.804 71.0524C14.3656 68.1259 13.392 67.2684 17.3781 67.1553C20.1903 67.0771 27.0929 64.3563 32.7172 61.1111C38.3415 57.8659 43.0864 55.1101 43.2623 54.9888C43.4381 54.8674 42.5935 58.0078 41.3868 61.9666ZM101.232 60.9898C104.044 62.9106 109.995 65.6725 114.458 67.1285L122.573 69.7794L114.131 72.2843C109.488 73.6642 102.884 76.7984 99.4563 79.2539L93.2246 83.7145L94.4067 73.6827C95.1368 67.4822 94.6357 61.8597 93.0937 58.962C91.0403 55.106 91.0873 54.559 93.3575 55.8854C94.8771 56.7738 98.4194 59.071 101.232 60.9898ZM5.10691 57.8535C5.10691 58.4191 4.64674 58.8818 4.08431 58.8818C3.52188 58.8818 3.06171 58.4191 3.06171 57.8535C3.06171 57.288 3.52188 56.8253 4.08431 56.8253C4.64674 56.8253 5.10691 57.288 5.10691 57.8535ZM15.3329 62.9949C17.6542 64.5044 16.7544 64.9959 11.6332 65.0206C7.63479 65.0391 5.38302 64.2103 6.12952 62.9949C6.82488 61.8638 8.48968 60.9527 9.82929 60.9692C11.1689 60.9877 13.6456 61.8987 15.3329 62.9949ZM59.9102 63.5172C61.0801 64.9363 63.2582 70.0262 64.7492 74.8282C66.2401 79.6302 68.1851 83.5603 69.0707 83.5603C69.9563 83.5603 71.212 82.1721 71.8583 80.4755C72.5066 78.7788 73.8585 77.3907 74.8627 77.3907C75.8669 77.3907 76.6891 78.8549 76.6891 80.6462C76.6891 82.4374 77.7567 83.5459 79.0595 83.1078C80.3643 82.6719 83.3544 77.2734 85.7064 71.112L89.9829 59.9101L90.6128 68.6792C91.0689 75.0051 90.0606 79.1182 86.999 83.441C84.6654 86.7376 79.5503 90.497 75.6317 91.7988C70.3162 93.5612 66.733 93.5736 61.5137 91.8399C57.6666 90.5649 53.294 88.0291 51.7989 86.205C49.4981 83.4019 49.5513 83.0585 52.1466 83.9757C53.8339 84.5721 56.826 84.2287 58.7935 83.2107C60.761 82.1927 62.3726 79.6179 62.3726 77.4894C62.3726 75.3609 59.9307 71.8318 56.9488 69.6478C53.8176 67.3547 52.1384 64.671 52.979 63.3054C53.7787 62.0036 55.1858 60.9383 56.1082 60.9383C57.0285 60.9383 58.7383 62.0982 59.9102 63.5172ZM72.5987 70.2421C72.5987 71.5357 71.9626 73.2303 71.1875 74.0118C70.4103 74.7933 68.6985 72.8642 67.3813 69.728C66.0642 66.5897 65.4589 63.1882 66.0376 62.1702C66.6144 61.1502 68.3283 62.0201 69.8438 64.1054C71.3593 66.1887 72.5987 68.9506 72.5987 70.2421ZM76.008 64.3666C75.2574 65.1193 74.6439 64.5023 74.6439 62.9949C74.6439 61.4874 75.2574 60.8705 76.008 61.6232C76.7566 62.3779 76.7566 63.6118 76.008 64.3666ZM129.864 65.0514C129.864 66.1825 128.715 67.0154 127.308 66.9023C125.903 66.7892 122.451 65.9563 119.638 65.0514C115.076 63.581 115.35 63.3836 122.195 63.2005C126.414 63.0874 129.864 63.9203 129.864 65.0514ZM34.9035 82.2297C39.2843 85.224 42.2928 87.6734 41.5852 87.6734C40.8775 87.6734 33.3021 84.3315 24.7491 80.2472C16.196 76.1629 9.19732 72.5043 9.19732 72.1198C9.19732 71.7331 13.1896 72.6257 18.0674 74.1023C22.9452 75.5789 30.5206 79.2354 34.9035 82.2297ZM5.10691 80.4755C5.10691 84.4343 4.74696 87.6734 4.30724 87.6734C3.86956 87.6734 3.13329 84.4343 2.67312 80.4755C2.21295 76.5166 2.5729 73.2776 3.47279 73.2776C4.37064 73.2776 5.10691 76.5166 5.10691 80.4755ZM125.604 74.1269C125.136 74.5958 117.389 78.2894 108.39 82.3387C93.8279 88.8888 92.703 89.1356 98.1637 84.5844C101.538 81.7711 107.981 78.1495 112.48 76.5351C116.98 74.9228 121.966 73.5285 123.559 73.44C125.152 73.3516 126.073 73.6601 125.604 74.1269ZM133.75 77.9048C133.638 79.3197 132.809 82.7891 131.91 85.6168C130.447 90.205 130.251 89.9294 130.069 83.0461C129.956 78.8056 130.785 75.3341 131.91 75.3341C133.034 75.3341 133.863 76.492 133.75 77.9048ZM15.3329 79.4472C17.8138 81.0595 17.5193 81.4462 13.799 81.4729C11.2671 81.4893 9.19732 80.5783 9.19732 79.4472C9.19732 78.3161 9.8886 77.4051 10.7312 77.4215C11.5739 77.44 13.6456 78.3511 15.3329 79.4472ZM125.774 81.5037C125.774 82.6348 124.393 83.5603 122.706 83.5603C121.019 83.5603 119.638 82.6348 119.638 81.5037C119.638 80.3726 121.019 79.4472 122.706 79.4472C124.393 79.4472 125.774 80.3726 125.774 81.5037ZM15.0016 91.2723C16.2165 94.3839 17.7708 100.63 18.4539 105.154L19.6974 113.38L14.4617 107.628C11.582 104.463 8.66148 99.6054 7.96815 96.8353C7.27688 94.063 7.24211 90.4044 7.89044 88.7057C8.53877 87.007 9.90701 85.6168 10.9296 85.6168C11.9543 85.6168 13.7868 88.1608 15.0016 91.2723ZM32.2815 100.767L38.5542 108.72L32.2529 105.444C28.7883 103.642 24.0251 99.0296 21.6669 95.1921C19.3068 91.3546 17.3781 87.4883 17.3781 86.5978C17.3781 85.7073 19.3211 86.7418 21.6935 88.897C24.068 91.0523 28.8313 96.3931 32.2815 100.767ZM32.621 88.0045C35.4864 89.3165 37.8302 91.6301 37.8302 93.1458C37.8302 94.6594 36.6092 95.8995 35.1182 95.8995C33.6273 95.8995 30.2466 93.5859 27.6042 90.7582C24.9618 87.9304 23.8389 85.6168 25.107 85.6168C26.375 85.6168 29.7557 86.6903 32.621 88.0045ZM107.011 91.6631C104.395 94.9905 101.391 97.4769 100.338 97.191C99.2824 96.9052 98.0758 95.6322 97.6545 94.3612C97.2332 93.0903 99.4767 90.641 102.639 88.9155C105.803 87.1921 109.151 85.7443 110.079 85.6991C111.008 85.6538 109.627 88.3376 107.011 91.6631ZM118.434 88.1875C117.64 89.6024 114.777 93.7669 112.073 97.444C109.367 101.121 104.211 105.617 100.614 107.433C95.0816 110.227 95.9549 108.802 106.281 98.1761C112.994 91.2682 118.802 85.6168 119.184 85.6168C119.567 85.6168 119.229 86.7747 118.434 88.1875ZM127.819 93.3391C127.819 96.3232 125.394 102.283 122.428 106.585C119.462 110.888 116.622 114.408 116.112 114.408C115.605 114.408 115.838 110.474 116.632 105.668C117.428 100.862 119.387 94.353 120.99 91.2044C122.592 88.0579 124.784 86.0302 125.862 86.6986C126.938 87.369 127.819 90.3572 127.819 93.3391ZM62.5465 96.5987C65.4527 97.2939 70.7457 97.0245 74.3064 95.9962C77.8671 94.97 80.7672 94.2975 80.7529 94.5011C80.7386 94.7047 77.9776 100.323 74.6173 106.986C71.257 113.65 68.4469 121.053 68.3712 123.439C68.2915 125.944 67.1073 124.15 65.5652 119.192C64.0967 114.47 60.4808 106.262 57.5296 100.95C54.5763 95.6404 53.3083 92.2039 54.7113 93.3145C56.1123 94.425 59.6382 95.9016 62.5465 96.5987ZM51.7703 102.583C52.2202 106.505 51.4881 108.239 49.3815 108.239C47.7126 108.239 44.8902 107.677 43.1109 106.99C41.3316 106.304 39.8754 104.144 39.8754 102.193C39.8754 100.239 40.5278 97.9849 41.3254 97.1828C42.1231 96.3828 44.653 95.9962 46.9498 96.3273C49.7926 96.7365 51.3306 98.7293 51.7703 102.583ZM94.0733 102.069C94.0733 106.149 92.9116 107.344 88.449 107.86C84.5488 108.313 82.8247 107.577 82.8247 105.458C82.8247 103.78 83.4014 100.893 84.107 99.044C84.8638 97.0615 87.1707 95.9365 89.7313 96.3047C92.8339 96.7509 94.0733 98.3962 94.0733 102.069ZM32.8665 119.036C34.5292 122.147 35.0487 124.691 34.0179 124.691C32.9892 124.691 30.2527 123.071 27.9355 121.092C25.6183 119.114 23.1354 113.791 22.4216 109.267L21.1209 101.041L25.4812 107.21C27.8803 110.604 31.2037 115.924 32.8665 119.036ZM112.38 111.141C111.49 115.91 108.946 120.039 105.285 122.661C102.146 124.909 99.0595 126.748 98.4235 126.748C97.7894 126.748 100.694 121.312 104.876 114.668C109.059 108.025 112.771 102.84 113.122 103.147C113.476 103.455 113.143 107.05 112.38 111.141ZM58.1411 107.971C59.266 110.088 61.0412 115.64 62.0863 120.311C63.1294 124.983 63.2582 128.804 62.3747 128.804C61.4891 128.804 60.1413 127.184 59.3785 125.205C58.6156 123.227 57.2555 117.672 56.3557 112.866C55.4558 108.06 55.0283 104.126 55.4067 104.126C55.785 104.126 57.0142 105.857 58.1411 107.971ZM78.4459 113.845C77.4519 119.192 75.2104 124.975 73.4617 126.698C70.5985 129.522 70.4246 129.224 71.7131 123.663C72.5005 120.27 74.3535 114.487 75.8342 110.809C77.3149 107.132 78.9143 104.126 79.3887 104.126C79.8632 104.126 79.4378 108.5 78.4459 113.845ZM42.7632 115.235C47.3608 117.954 53.3267 123.186 56.0202 126.863L60.9144 133.549L54.0732 132.173C50.31 131.416 45.3463 129.016 43.0414 126.838C40.7385 124.662 37.19 120.049 35.1571 116.588C33.1262 113.127 32.1241 110.295 32.934 110.295C33.7418 110.295 38.1656 112.518 42.7632 115.235ZM97.1882 120.518C93.5681 125.115 88.9153 129.783 86.8496 130.896C84.784 132.008 81.074 132.917 78.6075 132.917H74.1203L79.2088 126.283C82.0066 122.635 88.3242 117.608 93.2491 115.116C98.1719 112.623 102.553 110.939 102.984 111.373C103.416 111.807 100.808 115.922 97.1882 120.518ZM53.2531 114.546C53.9955 115.751 54.1796 117.162 53.6662 117.68C53.1508 118.197 51.5658 117.209 50.1423 115.486C48.5287 113.532 48.3732 112.352 49.7312 112.352C50.9256 112.352 52.5127 113.339 53.2531 114.546ZM84.829 115.486C83.4055 117.209 81.8205 118.197 81.3051 117.68C80.7918 117.162 80.9758 115.751 81.7182 114.546C82.4586 113.339 84.0457 112.352 85.2401 112.352C86.5981 112.352 86.4427 113.532 84.829 115.486Z" fill="white"/>
</g>
<defs>
<clipPath id="clip0_913_174">
<rect width="239" height="136" fill="white"/>
</clipPath>
</defs>
</svg>
