<svg width="364" height="364" viewBox="0 0 364 364" fill="none" xmlns="http://www.w3.org/2000/svg">
<g clip-path="url(#clip0_913_176)">
<mask id="mask0_913_176" style="mask-type:alpha" maskUnits="userSpaceOnUse" x="0" y="0" width="364" height="364">
<path d="M182 364C282.516 364 364 282.516 364 182C364 81.4842 282.516 0 182 0C81.4842 0 0 81.4842 0 182C0 282.516 81.4842 364 182 364Z" fill="#1C1C1C"/>
</mask>
<g mask="url(#mask0_913_176)">
<path d="M182 364C282.516 364 364 282.516 364 182C364 81.4842 282.516 0 182 0C81.4842 0 0 81.4842 0 182C0 282.516 81.4842 364 182 364Z" fill="#126E66"/>
<path fill-rule="evenodd" clip-rule="evenodd" d="M154.993 72.2372C148.016 73.9986 136.206 78.5714 128.748 82.399C121.29 86.2265 109.032 95.5448 101.506 103.112C93.9843 110.676 83.8146 125.475 78.9099 135.995C71.2195 152.488 69.99 159.564 70.0001 187.305C70.0068 214.332 71.2431 221.811 77.7175 234.019C81.9585 242.016 91.377 254.539 98.6464 261.848C105.919 269.161 119.879 279.384 129.668 284.57C145.695 293.062 150.819 294 181.153 294C208.573 294.003 217.769 292.642 230.59 286.684C239.251 282.659 253.2 273.006 261.588 265.232C269.972 257.458 280.698 243.307 285.417 233.782C292.535 219.42 294 211.676 294 188.46C294 168.601 292.009 155.11 287.152 142.052C283.382 131.927 274.21 116.685 266.762 108.179C258.6 98.8542 244.671 88.4757 231.685 82.0501C216.166 74.3678 204.214 71.0585 188.914 70.2083C177.235 69.5613 161.972 70.4725 154.993 72.2372ZM165.873 80.2752C163.161 82.8867 154.12 86.108 145.783 87.4358C137.446 88.7636 131.648 88.7737 132.901 87.4561C134.151 86.1385 140.973 82.9849 148.06 80.4445C155.144 77.9041 163.161 75.7566 165.873 75.6753C170.205 75.5432 170.205 76.1055 165.873 80.2752ZM225.786 84.2721C231.809 86.7245 236.734 89.3733 236.734 90.1591C236.734 90.945 229.569 90.2404 220.814 88.5976C212.056 86.9514 202.584 83.239 199.761 80.3429C195.136 75.6008 195.624 75.3128 204.733 77.4468C210.291 78.7509 219.763 81.8197 225.786 84.2721ZM173.065 100.053C171.243 104.863 162.845 113.582 154.4 119.425C145.955 125.268 139.046 129.153 139.046 128.056C139.046 126.962 142.01 120.221 145.635 113.077C149.259 105.934 157.219 95.8632 163.32 90.6943C171.744 83.5608 174.652 82.504 175.393 86.3011C175.932 89.0515 174.884 95.24 173.065 100.053ZM215.681 107.526C221.704 116.427 226.629 125.153 226.629 126.911C226.629 128.665 221.926 127.351 216.179 123.988C210.432 120.621 202.095 113.558 197.652 108.291C193.209 103.027 189.574 94.8369 189.574 90.0948C189.574 81.9518 189.995 81.7486 197.154 86.4061C201.32 89.1159 209.658 98.6205 215.681 107.526ZM149.084 97.6246C146.74 100.463 144.129 102.089 143.28 101.239C142.434 100.385 142.738 98.0616 143.96 96.0766C145.18 94.0883 147.794 92.4625 149.761 92.4625C151.998 92.4625 151.742 94.4067 149.084 97.6246ZM189.345 111.092C191.828 118.544 196.911 129.007 200.643 134.346L207.428 144.05L200.192 141.74C196.21 140.47 188.776 139.311 183.669 139.166C178.562 139.02 171.013 139.975 166.894 141.29C159.624 143.61 159.702 143.112 169.437 124.502C174.955 113.955 179.469 102.126 179.469 98.214C179.469 94.2543 180.654 92.5336 182.15 94.3254C183.625 96.0936 186.863 103.64 189.345 111.092ZM221.714 96.0766C222.937 98.0616 223.24 100.385 222.394 101.239C221.545 102.089 218.935 100.463 216.59 97.6246C213.932 94.4067 213.676 92.4625 215.913 92.4625C217.88 92.4625 220.494 94.0883 221.714 96.0766ZM135.071 103.125C134.478 107.126 131.251 112.081 127.899 114.134C123.042 117.111 120.839 116.553 117.008 111.37C113.455 106.557 113.175 103.705 115.934 100.362C117.982 97.8787 123.368 95.8497 127.902 95.8497C134.424 95.8497 135.92 97.3706 135.071 103.125ZM246.328 98.8474C248.827 100.439 250.323 104.609 249.653 108.112C248.848 112.308 245.577 114.48 240.056 114.48C233.423 114.48 231.459 112.542 230.617 105.165C229.798 98.0141 230.971 95.8632 235.67 95.9005C239.035 95.931 243.832 97.2554 246.328 98.8474ZM92.7413 134.928C85.8324 148.968 79.7015 159.018 79.1188 157.26C78.536 155.502 80.3719 148.498 83.1981 141.696C86.0244 134.894 91.5118 124.844 95.3924 119.364C99.273 113.883 103.093 109.399 103.878 109.399C104.663 109.399 99.6502 120.888 92.7413 134.928ZM282.54 147.725C285.515 156.695 287.344 164.641 286.603 165.386C285.862 166.132 279.68 154.219 272.866 138.915C262.059 114.656 261.54 112.393 268.803 121.254C273.384 126.843 279.566 138.756 282.54 147.725ZM135.677 119.3C135.677 121.02 131.706 127.172 126.855 132.97C122.001 138.769 113.286 145.913 107.486 148.843C98.4207 153.419 99.5256 151.499 115.351 135.172C125.477 124.723 134.195 116.173 134.72 116.173C135.246 116.173 135.677 117.579 135.677 119.3ZM266.691 152.586C267.506 153.05 267.405 154.205 266.465 155.15C265.529 156.095 258.509 152.315 250.869 146.75C243.226 141.185 234.484 131.646 231.436 125.556C226.413 115.513 227.73 116.217 245.553 133.109C256.366 143.356 265.879 152.122 266.691 152.586ZM116.985 122.677C118.036 124.391 114.863 128.984 109.931 132.886C105 136.788 100.381 139.393 99.6671 138.675C98.9529 137.96 100.186 133.363 102.406 128.465C104.626 123.568 108.382 119.56 110.753 119.56C113.128 119.56 115.931 120.963 116.985 122.677ZM163.057 125.525C161.309 128.808 157.088 133.932 153.675 136.917C150.26 139.901 142.209 143.342 135.782 144.562C128.751 145.9 125.396 145.564 127.36 143.718C129.156 142.031 138.204 135.934 147.467 130.169C156.731 124.404 164.741 119.659 165.27 119.625C165.799 119.591 164.802 122.246 163.057 125.525ZM235.05 142.929C240.824 146.458 239.857 146.753 228.313 144.992C219.44 143.637 212.255 139.809 207.276 133.787C203.116 128.757 199.707 123.425 199.697 121.938C199.687 120.451 206.124 123.639 213.996 129.021C221.869 134.403 231.345 140.663 235.05 142.929ZM261.911 129.553C264.737 135.05 267.051 140.67 267.051 142.042C267.051 143.417 262.558 140.209 257.067 134.918C251.573 129.627 247.874 124.008 248.844 122.429C249.811 120.851 251.994 119.56 253.688 119.56C255.386 119.56 259.085 124.059 261.911 129.553ZM198.444 148.792C204.81 151.831 211.534 157.166 213.39 160.648C215.243 164.133 215.431 166.982 213.804 166.982C212.181 166.982 208.947 173.38 206.616 181.201C203.156 192.806 201.795 194.371 199.202 189.714C197.167 186.059 197.288 181.638 199.539 177.411C201.469 173.783 203.049 169.888 203.049 168.757C203.049 167.622 191.302 167.141 176.942 167.686C151.718 168.642 150.802 168.97 149.828 177.37C149.071 183.935 150.927 187.031 157.408 190.001C162.131 192.166 165.994 196.254 165.994 199.089C165.994 201.921 163.673 204.241 160.837 204.241C157.997 204.241 154.77 201.867 153.665 198.968C152.52 195.966 149.465 194.534 146.588 195.645C142.394 197.26 141.821 194.94 143.256 182.153C144.206 173.658 147.817 163.513 151.28 159.608C154.74 155.702 162.12 150.489 167.679 148.023C173.237 145.554 179.829 143.478 182.328 143.403C184.828 143.332 192.08 145.757 198.444 148.792ZM140.7 153.48C139.537 155.37 133.006 159.638 126.184 162.965C119.363 166.294 110.285 168.438 106.007 167.737C101.732 167.036 98.8148 164.672 99.5222 162.487C100.233 160.302 106.003 156.695 112.35 154.469C118.696 152.247 128.145 150.34 133.349 150.235C138.928 150.123 141.946 151.455 140.7 153.48ZM257.899 159.059C263.053 161.711 266.374 165.342 265.28 167.127C264.181 168.909 259.287 170.369 254.402 170.369C249.515 170.369 239.753 166.352 232.705 161.44C225.658 156.529 219.891 151.824 219.891 150.98C219.891 150.14 226.335 150.527 234.208 151.841C242.08 153.158 252.742 156.403 257.899 159.059ZM90.4978 166.118C89.4098 167.216 87.7221 167.314 86.752 166.338C85.7852 165.363 86.1187 161.677 87.4964 158.151C89.8814 152.047 90.0633 152.037 91.2423 157.931C91.9227 161.339 91.5892 165.021 90.4978 166.118ZM278.377 161.901C279.441 164.695 278.845 166.982 277.053 166.982C275.257 166.982 273.789 164.695 273.789 161.901C273.789 159.106 274.385 156.82 275.112 156.82C275.84 156.82 277.309 159.106 278.377 161.901ZM138.166 172.063C135.586 180.514 135.586 187.326 138.166 195.78L141.788 207.642L131.706 200.424C126.161 196.454 114.553 190.425 105.912 187.027C93.6609 182.207 92.0575 180.795 98.6228 180.609C103.255 180.48 114.624 175.999 123.887 170.654C133.151 165.308 140.966 160.77 141.255 160.57C141.545 160.37 140.154 165.542 138.166 172.063ZM236.734 170.454C241.366 173.617 251.169 178.166 258.519 180.565L271.885 184.931L257.98 189.056C250.333 191.329 239.456 196.491 233.81 200.536L223.546 207.883L225.493 191.36C226.696 181.147 225.871 171.887 223.331 167.114C219.949 160.763 220.026 159.862 223.765 162.047C226.268 163.51 232.102 167.293 236.734 170.454ZM78.4114 165.288C78.4114 166.22 77.6535 166.982 76.7271 166.982C75.8007 166.982 75.0428 166.22 75.0428 165.288C75.0428 164.357 75.8007 163.595 76.7271 163.595C77.6535 163.595 78.4114 164.357 78.4114 165.288ZM95.2542 173.756C99.0776 176.243 97.5954 177.052 89.1605 177.093C82.5749 177.123 78.8661 175.758 80.0957 173.756C81.241 171.893 83.983 170.393 86.1894 170.42C88.3958 170.45 92.4752 171.951 95.2542 173.756ZM168.676 174.617C170.602 176.954 174.19 185.337 176.646 193.246C179.101 201.156 182.305 207.629 183.763 207.629C185.222 207.629 187.29 205.342 188.355 202.548C189.423 199.753 191.649 197.467 193.303 197.467C194.957 197.467 196.311 199.879 196.311 202.829C196.311 205.779 198.07 207.605 200.216 206.883C202.365 206.165 207.29 197.274 211.163 187.126L218.207 168.675L219.245 183.119C219.996 193.538 218.335 200.312 213.292 207.432C209.449 212.862 201.024 219.054 194.57 221.198C185.815 224.101 179.913 224.121 171.317 221.266C164.98 219.166 157.778 214.989 155.316 211.985C151.526 207.368 151.614 206.802 155.889 208.313C158.668 209.295 163.596 208.73 166.836 207.053C170.077 205.376 172.731 201.135 172.731 197.63C172.731 194.124 168.709 188.311 163.798 184.714C158.641 180.937 155.875 176.517 157.26 174.268C158.577 172.124 160.894 170.369 162.413 170.369C163.929 170.369 166.745 172.279 168.676 174.617ZM189.574 185.693C189.574 187.823 188.527 190.615 187.25 191.902C185.97 193.189 183.15 190.012 180.981 184.846C178.812 179.677 177.815 174.075 178.768 172.398C179.718 170.718 182.541 172.151 185.037 175.585C187.533 179.017 189.574 183.566 189.574 185.693ZM195.19 176.016C193.953 177.255 192.943 176.239 192.943 173.756C192.943 171.273 193.953 170.257 195.19 171.497C196.423 172.74 196.423 174.772 195.19 176.016ZM283.894 177.144C283.894 179.007 282.001 180.378 279.684 180.192C277.369 180.006 271.683 178.634 267.051 177.144C259.536 174.722 259.988 174.396 271.262 174.095C278.212 173.909 283.894 175.281 283.894 177.144ZM127.488 205.437C134.704 210.369 139.659 214.403 138.493 214.403C137.328 214.403 124.851 208.899 110.763 202.172C96.6758 195.445 85.1485 189.419 85.1485 188.785C85.1485 188.149 91.724 189.619 99.758 192.051C107.792 194.483 120.269 200.505 127.488 205.437ZM78.4114 202.548C78.4114 209.068 77.8185 214.403 77.0943 214.403C76.3734 214.403 75.1607 209.068 74.4028 202.548C73.6449 196.027 74.2377 190.692 75.7199 190.692C77.1987 190.692 78.4114 196.027 78.4114 202.548ZM276.878 192.091C276.106 192.864 263.346 198.947 248.524 205.617C224.54 216.405 222.687 216.812 231.681 209.316C237.24 204.682 247.851 198.717 255.261 196.058C262.672 193.402 270.885 191.106 273.509 190.96C276.133 190.814 277.649 191.323 276.878 192.091ZM290.295 198.314C290.109 200.644 288.745 206.358 287.263 211.016C284.854 218.573 284.531 218.119 284.231 206.782C284.046 199.797 285.41 194.08 287.263 194.08C289.116 194.08 290.48 195.987 290.295 198.314ZM95.2542 200.854C99.3403 203.51 98.8553 204.147 92.7278 204.191C88.5575 204.218 85.1485 202.717 85.1485 200.854C85.1485 198.991 86.2871 197.491 87.675 197.518C89.0628 197.548 92.4752 199.049 95.2542 200.854ZM277.157 204.241C277.157 206.104 274.883 207.629 272.104 207.629C269.325 207.629 267.051 206.104 267.051 204.241C267.051 202.378 269.325 200.854 272.104 200.854C274.883 200.854 277.157 202.378 277.157 204.241ZM94.7085 220.331C96.7095 225.456 99.2696 235.743 100.395 243.195L102.443 256.744L93.8192 247.27C89.0763 242.057 84.266 234.056 83.124 229.493C81.9854 224.927 81.9282 218.901 82.996 216.104C84.0639 213.306 86.3174 211.016 88.0017 211.016C89.6894 211.016 92.7076 215.206 94.7085 220.331ZM123.17 235.97L133.501 249.068L123.122 243.672C117.416 240.705 109.571 233.108 105.687 226.787C101.799 220.466 98.6228 214.098 98.6228 212.632C98.6228 211.165 101.823 212.869 105.731 216.419C109.641 219.968 117.487 228.765 123.17 235.97ZM123.729 214.949C128.448 217.11 132.309 220.92 132.309 223.417C132.309 225.91 130.298 227.952 127.842 227.952C125.386 227.952 119.818 224.142 115.466 219.484C111.113 214.827 109.264 211.016 111.353 211.016C113.441 211.016 119.009 212.784 123.729 214.949ZM246.254 220.974C241.945 226.455 236.997 230.55 235.262 230.079C233.524 229.609 231.537 227.512 230.843 225.418C230.149 223.325 233.844 219.291 239.052 216.449C244.263 213.611 249.777 211.226 251.307 211.151C252.836 211.077 250.562 215.497 246.254 220.974ZM265.067 215.25C263.76 217.58 259.044 224.44 254.591 230.496C250.134 236.552 241.642 243.957 235.717 246.948C226.605 251.551 228.043 249.204 245.051 231.702C256.107 220.324 265.674 211.016 266.304 211.016C266.934 211.016 266.378 212.923 265.067 215.25ZM280.526 223.735C280.526 228.65 276.531 238.466 271.646 245.552C266.762 252.638 262.083 258.437 261.244 258.437C260.409 258.437 260.793 251.958 262.1 244.042C263.41 236.126 266.637 225.405 269.278 220.219C271.916 215.037 275.527 211.697 277.302 212.798C279.074 213.902 280.526 218.824 280.526 223.735ZM173.018 229.104C177.804 230.249 186.522 229.805 192.387 228.111C198.252 226.421 203.028 225.313 203.005 225.649C202.981 225.984 198.434 235.238 192.899 246.213C187.364 257.187 182.736 269.382 182.611 273.311C182.48 277.436 180.53 274.483 177.99 266.316C175.571 258.539 169.615 245.02 164.755 236.271C159.89 227.525 157.802 221.865 160.113 223.694C162.42 225.523 168.228 227.956 173.018 229.104ZM155.269 238.961C156.01 245.42 154.804 248.276 151.334 248.276C148.585 248.276 143.937 247.351 141.006 246.22C138.076 245.088 135.677 241.532 135.677 238.317C135.677 235.099 136.752 231.387 138.065 230.066C139.379 228.748 143.546 228.111 147.329 228.657C152.011 229.331 154.544 232.613 155.269 238.961ZM224.944 238.114C224.944 244.834 223.031 246.802 215.681 247.652C209.257 248.398 206.417 247.185 206.417 243.696C206.417 240.932 207.367 236.176 208.529 233.131C209.776 229.866 213.575 228.013 217.793 228.619C222.903 229.354 224.944 232.064 224.944 238.114ZM124.133 266.059C126.872 271.184 127.727 275.374 126.03 275.374C124.335 275.374 119.828 272.704 116.011 269.446C112.195 266.187 108.105 257.421 106.93 249.969L104.787 236.42L111.969 246.582C115.92 252.171 121.394 260.934 124.133 266.059ZM255.096 253.055C253.631 260.91 249.441 267.712 243.411 272.03C238.24 275.733 233.157 278.761 232.109 278.761C231.065 278.761 235.848 269.808 242.737 258.864C249.626 247.923 255.74 239.384 256.319 239.889C256.902 240.397 256.353 246.318 255.096 253.055ZM165.762 247.835C167.615 251.321 170.538 260.466 172.26 268.159C173.978 275.855 174.19 282.148 172.735 282.148C171.276 282.148 169.056 279.479 167.8 276.22C166.543 272.962 164.303 263.813 162.821 255.897C161.339 247.981 160.635 241.501 161.258 241.501C161.881 241.501 163.906 244.353 165.762 247.835ZM199.205 257.509C197.568 266.316 193.876 275.841 190.996 278.68C186.28 283.33 185.993 282.839 188.116 273.68C189.413 268.091 192.465 258.566 194.903 252.51C197.342 246.453 199.976 241.501 200.758 241.501C201.539 241.501 200.839 248.706 199.205 257.509ZM140.434 259.799C148.006 264.277 157.832 272.894 162.269 278.95L170.33 289.962L159.062 287.696C152.864 286.45 144.688 282.497 140.892 278.91C137.099 275.326 131.254 267.729 127.906 262.028C124.561 256.327 122.91 251.663 124.244 251.663C125.575 251.663 132.861 255.324 140.434 259.799ZM230.075 268.501C224.112 276.071 216.449 283.76 213.046 285.593C209.644 287.425 203.534 288.923 199.471 288.923H192.08L200.461 277.995C205.07 271.986 215.475 263.708 223.587 259.603C231.695 255.497 238.91 252.723 239.621 253.438C240.332 254.152 236.037 260.93 230.075 268.501ZM157.711 258.664C158.934 260.649 159.237 262.973 158.391 263.826C157.543 264.677 154.932 263.051 152.587 260.212C149.93 256.994 149.674 255.05 151.91 255.05C153.878 255.05 156.492 256.676 157.711 258.664ZM209.718 260.212C207.374 263.051 204.763 264.677 203.914 263.826C203.069 262.973 203.372 260.649 204.595 258.664C205.814 256.676 208.428 255.05 210.395 255.05C212.632 255.05 212.376 256.994 209.718 260.212Z" fill="white"/>
</g>
</g>
<defs>
<clipPath id="clip0_913_176">
<rect width="364" height="364" fill="white"/>
</clipPath>
</defs>
</svg>
